<svg xmlns="http://www.w3.org/2000/svg" xmlns:xlink="http://www.w3.org/1999/xlink" width="1920" zoomAndPan="magnify" viewBox="0 0 1440 809.999993" height="1080" preserveAspectRatio="xMidYMid meet" version="1.0"><defs><clipPath id="e89569a3f3"><path d="M 296 0 L 1440 0 L 1440 317.316406 L 296 317.316406 Z M 296 0 " clip-rule="nonzero"/></clipPath><clipPath id="bda617e82f"><path d="M 1280 178.039062 L 1440 178.039062 L 1440 315 L 1280 315 Z M 1280 178.039062 " clip-rule="nonzero"/></clipPath><clipPath id="7d10153e2f"><path d="M 0 363 L 1440 363 L 1440 707.289062 L 0 707.289062 Z M 0 363 " clip-rule="nonzero"/></clipPath><clipPath id="249e3d08d9"><path d="M 0 348 L 1440 348 L 1440 557.566406 L 0 557.566406 Z M 0 348 " clip-rule="nonzero"/></clipPath><clipPath id="418749b2f6"><path d="M 0 334.726562 L 1440 334.726562 L 1440 538 L 0 538 Z M 0 334.726562 " clip-rule="nonzero"/></clipPath></defs><rect x="-144" width="1728" fill="#ffffff" y="-80.999999" height="971.999992" fill-opacity="1"/><rect x="-144" width="1728" fill="#ffffff" y="-80.999999" height="971.999992" fill-opacity="1"/><g clip-path="url(#e89569a3f3)"><path fill="#49608e" d="M 1465.964844 216.980469 L 1465.417969 216.273438 C 1465.417969 216.273438 1455.234375 208.996094 1448.9375 201.730469 C 1442.640625 194.46875 1428.578125 171.6875 1424.703125 170.722656 C 1424.703125 170.722656 1417.4375 170.722656 1415.019531 172.164062 C 1415.019531 172.164062 1375.769531 207.0625 1362.6875 207.0625 C 1362.6875 207.0625 1266.738281 92.691406 1258.496094 90.757812 C 1258.496094 90.757812 1230.386719 97.546875 1217.792969 106.742188 C 1217.792969 106.742188 1203.742188 121.28125 1200.832031 121.769531 C 1197.921875 122.257812 1139.769531 51.015625 1126.6875 32.601562 C 1126.6875 32.601562 1126.6875 27.269531 1122.8125 21.9375 C 1118.933594 16.605469 1104.398438 4.011719 1104.398438 4.011719 C 1104.398438 4.011719 1069.511719 -5.210938 1063.214844 -7.144531 C 1063.214844 -7.144531 1055.464844 -5.171875 1051.097656 7.65625 C 1046.734375 20.480469 1027.351562 48.105469 1025.898438 49.070312 C 1024.441406 50.050781 999.730469 75.238281 997.789062 81.0625 C 995.855469 86.871094 985.195312 101.898438 985.195312 101.898438 C 985.195312 101.898438 953.207031 88.324219 945.453125 87.847656 C 945.453125 87.847656 926.074219 117.894531 922.199219 122.257812 C 918.324219 126.613281 904.75 146.972656 901.855469 154.726562 C 901.855469 154.726562 893.613281 161.023438 889.734375 177.984375 C 889.734375 177.984375 881.496094 193.980469 872.761719 200.765625 C 872.761719 200.765625 870.464844 199.976562 866.902344 198.726562 C 866.902344 198.726562 817.699219 175.738281 810.828125 177.546875 C 803.949219 179.359375 790.566406 193.460938 784.417969 194.359375 C 778.269531 195.269531 759.09375 198.890625 755.109375 201.433594 C 751.140625 203.960938 724.726562 214.09375 714.597656 214.09375 C 704.464844 214.09375 649.480469 207.214844 642.613281 208.300781 C 635.730469 209.390625 555.070312 230.007812 543.851562 231.464844 C 532.644531 232.90625 519.613281 235.148438 512.378906 239.488281 C 505.144531 243.828125 471.144531 263.292969 448.71875 256.859375 C 438.574219 253.945312 425.203125 248.179688 408.925781 246.003906 C 392.644531 243.828125 300.398438 315.710938 296.414062 316.429688 L 848.078125 317.207031 C 1081.167969 316.089844 1346.707031 314.132812 1465.964844 313.207031 L 1465.964844 216.980469 " fill-opacity="1" fill-rule="nonzero"/></g><g clip-path="url(#bda617e82f)"><path fill="#415078" d="M 1388.785156 283.203125 C 1385.875 287.078125 1371.824219 297.742188 1365.039062 303.074219 C 1362.769531 304.871094 1358.726562 309.167969 1354.375 314.105469 C 1398.671875 313.765625 1436.722656 313.464844 1465.964844 313.234375 L 1465.964844 237.746094 C 1461.246094 231.21875 1457.925781 226.90625 1457.109375 226.5 C 1453.234375 224.554688 1446.9375 225.042969 1443.550781 221.167969 C 1440.152344 217.292969 1432.398438 192.089844 1429.011719 188.210938 C 1425.613281 184.335938 1421.246094 176.582031 1417.371094 178.527344 C 1413.496094 180.460938 1374.246094 219.710938 1374.246094 219.710938 C 1374.246094 219.710938 1398.480469 201.785156 1403.324219 199.363281 C 1408.164062 196.945312 1408.164062 205.664062 1405.742188 208.574219 C 1403.324219 211.484375 1370.859375 236.199219 1365.039062 241.039062 C 1359.230469 245.882812 1335.960938 266.242188 1321.914062 281.257812 C 1312.164062 291.691406 1291.695312 306.53125 1280.066406 314.648438 C 1291.328125 314.566406 1302.328125 314.5 1313.058594 314.417969 C 1321.097656 304.054688 1337.007812 283.746094 1341.292969 279.804688 C 1347.113281 274.472656 1366.003906 258.964844 1374.246094 251.703125 C 1382.488281 244.425781 1383.941406 233.285156 1392.183594 231.339844 C 1400.414062 229.410156 1424.15625 210.503906 1425.125 217.78125 C 1426.101562 225.042969 1416.894531 237.640625 1412.53125 242.972656 C 1408.164062 248.300781 1382.488281 259.945312 1377.644531 264.296875 C 1372.789062 268.664062 1342.75 302.09375 1338.398438 304.039062 C 1336.195312 305.019531 1332.167969 309.792969 1328.699219 314.296875 C 1332.699219 314.269531 1336.640625 314.242188 1340.558594 314.214844 C 1346.257812 307.710938 1353.996094 299.238281 1359.230469 294.832031 C 1368.425781 287.078125 1386.363281 279.804688 1392.183594 271.574219 C 1397.992188 263.332031 1426.578125 237.164062 1431.910156 237.164062 C 1437.242188 237.164062 1436.765625 244.425781 1436.765625 244.425781 C 1436.765625 244.425781 1391.695312 279.328125 1388.785156 283.203125 " fill-opacity="1" fill-rule="nonzero"/></g><path fill="#415078" d="M 1094.15625 243.9375 C 1098.03125 237.148438 1101.433594 230.375 1110.148438 218.257812 C 1118.878906 206.136719 1131.472656 197.894531 1142.613281 181.425781 C 1153.765625 164.941406 1162.972656 155.257812 1170.722656 147.503906 C 1175.863281 142.363281 1189.941406 131.683594 1200.546875 121.675781 L 1200.832031 121.769531 C 1203.742188 121.28125 1217.792969 106.742188 1217.792969 106.742188 C 1230.386719 97.546875 1258.496094 90.757812 1258.496094 90.757812 C 1266.535156 92.648438 1358.171875 201.691406 1362.523438 206.875 C 1357.207031 209.078125 1351.179688 211.851562 1346.148438 214.871094 C 1334.03125 222.132812 1283.765625 272.050781 1280.066406 272.050781 C 1276.367188 272.050781 1240.996094 298.21875 1239.050781 300.164062 C 1239.050781 300.164062 1256.988281 278.359375 1271.511719 268.664062 C 1286.050781 258.964844 1287.03125 256.070312 1290.90625 250.96875 C 1294.78125 245.882812 1297.203125 239.09375 1301.554688 235.21875 C 1305.921875 231.339844 1317.546875 219.222656 1320.949219 211.960938 C 1324.335938 204.683594 1314.652344 206.628906 1312.230469 208.082031 C 1309.796875 209.539062 1284.253906 243.597656 1280.066406 246.4375 C 1275.878906 249.28125 1256.988281 263.820312 1248.257812 269.140625 C 1240.96875 273.601562 1215.03125 290.601562 1205.035156 299.15625 C 1209.753906 294.300781 1217.832031 286.003906 1223.054688 280.78125 C 1230.808594 273.015625 1248.257812 258.136719 1254.554688 246.4375 C 1260.863281 234.742188 1272 224.078125 1274.914062 219.710938 C 1277.824219 215.347656 1281.101562 219.710938 1288.660156 206.136719 C 1296.238281 192.578125 1294.292969 185.792969 1291.382812 183.371094 C 1288.472656 180.949219 1272.492188 205.664062 1268.125 208.574219 C 1263.761719 211.46875 1252.132812 240.386719 1245.835938 243.132812 C 1239.539062 245.882812 1222.578125 264.296875 1222.578125 264.296875 C 1222.578125 264.296875 1239.539062 235.707031 1247.78125 219.222656 C 1256.007812 202.75 1276.855469 159.621094 1272.492188 149.433594 C 1268.125 139.261719 1265.707031 128.597656 1262.304688 130.054688 C 1258.917969 131.507812 1224.511719 207.59375 1217.726562 210.015625 C 1210.953125 212.4375 1173.144531 251.214844 1168.792969 259.457031 C 1164.425781 267.683594 1145.523438 291.921875 1137.769531 292.886719 C 1130.019531 293.867188 1112.09375 304.039062 1105.308594 311.304688 C 1103.976562 312.730469 1102.546875 314.296875 1101.121094 315.875 C 1097.257812 315.902344 1093.394531 315.929688 1089.519531 315.957031 C 1097.296875 308.542969 1107.375 299.007812 1113.058594 293.867188 C 1123.234375 284.644531 1150.855469 262.84375 1153.765625 254.125 C 1156.675781 245.390625 1165.390625 225.535156 1169.757812 220.679688 C 1174.125 215.835938 1181.875 210.015625 1184.296875 199.839844 C 1186.71875 189.667969 1207.550781 171.726562 1211.429688 163.007812 C 1215.304688 154.289062 1225.492188 149.925781 1223.054688 144.101562 C 1223.054688 144.101562 1215.304688 144.007812 1206.097656 155.445312 C 1196.890625 166.886719 1191.558594 179.003906 1183.316406 182.878906 C 1175.089844 186.757812 1170.246094 195 1164.917969 202.261719 C 1159.585938 209.539062 1151.820312 222.132812 1146.488281 226.011719 C 1141.171875 229.886719 1126.144531 242.972656 1123.722656 248.792969 C 1121.300781 254.601562 1109.183594 275.925781 1095.136719 281.257812 C 1095.136719 281.257812 1111.605469 269.277344 1119.847656 246.4375 C 1128.085938 223.589844 1130.984375 217.769531 1136.804688 212.449219 C 1142.625 207.117188 1149.398438 196.929688 1152.800781 190.144531 C 1156.183594 183.355469 1159.585938 182.28125 1164.425781 178.214844 C 1169.269531 174.160156 1179.441406 178.515625 1185.261719 165.429688 C 1191.082031 152.34375 1195.925781 147.015625 1201.730469 139.75 C 1207.550781 132.472656 1203.675781 130.761719 1201.730469 129.917969 C 1199.800781 129.085938 1189.628906 144.59375 1181.386719 148.46875 C 1181.386719 148.46875 1151.34375 179.003906 1144.066406 183.847656 C 1136.804688 188.6875 1134.382812 202.261719 1127.597656 211.46875 C 1120.8125 220.679688 1103.363281 249.269531 1097.554688 253.144531 C 1091.734375 257.019531 1092.699219 263.808594 1087.382812 271.5625 C 1082.050781 279.3125 1078.652344 294.34375 1070.898438 300.640625 C 1067.71875 303.222656 1061.664062 309.574219 1055.65625 316.160156 C 1053.519531 316.171875 1051.382812 316.1875 1049.25 316.199219 C 1057.75 307.699219 1068.113281 296.328125 1072.355469 287.554688 C 1080.105469 271.5625 1090.28125 250.722656 1094.15625 243.9375 " fill-opacity="1" fill-rule="nonzero"/><path fill="#738bb8" d="M 1205.035156 299.15625 C 1202.75 301.523438 1201.253906 303.074219 1201.253906 303.074219 C 1201.730469 302.191406 1203.078125 300.84375 1205.035156 299.15625 " fill-opacity="1" fill-rule="nonzero"/><path fill="#415078" d="M 1160.78125 157.949219 C 1160.78125 157.949219 1128.085938 119.757812 1119.355469 113.582031 C 1119.355469 113.582031 1109.90625 113.582031 1108.097656 113.582031 C 1106.273438 113.582031 1075.019531 82.328125 1069.933594 78.695312 C 1064.847656 75.050781 1061.570312 70.328125 1061.570312 70.328125 C 1061.570312 70.328125 1055.027344 94.324219 1053.574219 103.042969 C 1052.132812 111.757812 1046.679688 153.203125 1044.136719 162.289062 C 1041.578125 171.375 1034.316406 206.261719 1034.316406 213.171875 C 1034.316406 220.078125 1032.140625 197.542969 1034.316406 182.28125 C 1034.316406 182.28125 1037.949219 151.746094 1037.949219 131.398438 C 1037.949219 131.398438 1031.039062 167.375 1025.597656 183.738281 C 1020.144531 200.085938 1017.234375 235.339844 1017.957031 241.527344 C 1018.691406 247.703125 1022.320312 295.1875 1032.859375 303.074219 C 1032.859375 303.074219 1056.484375 299.320312 1064.847656 282.957031 C 1073.199219 266.609375 1082.894531 246.984375 1089.316406 239.707031 C 1095.734375 232.445312 1102.765625 228.976562 1105.238281 225.328125 C 1107.730469 221.683594 1158.578125 165.605469 1160.78125 157.949219 " fill-opacity="1" fill-rule="nonzero"/><path fill="#5c7eae" d="M 1465.964844 216.980469 L 1465.417969 216.273438 C 1465.417969 216.273438 1455.234375 208.996094 1448.9375 201.730469 C 1442.640625 194.46875 1428.578125 171.6875 1424.703125 170.722656 C 1424.703125 170.722656 1417.4375 170.722656 1415.019531 172.164062 C 1415.019531 172.164062 1413.605469 173.425781 1411.210938 175.46875 C 1416.5 175.019531 1422.6875 174.898438 1424.648438 176.460938 C 1428.277344 179.371094 1444.273438 217.535156 1450.09375 219.710938 C 1455.898438 221.902344 1461.351562 223.359375 1463.898438 227.34375 C 1464.140625 227.722656 1464.863281 228.878906 1465.964844 230.621094 L 1465.964844 216.980469 " fill-opacity="1" fill-rule="nonzero"/><path fill="#5c7eae" d="M 1362.523438 206.875 C 1357.207031 209.078125 1351.179688 211.851562 1346.148438 214.871094 C 1344.40625 215.90625 1341.890625 217.820312 1338.832031 220.339844 C 1335.746094 216.542969 1330.863281 209.839844 1327.613281 201.785156 C 1322.527344 189.179688 1322.878906 179.371094 1318.527344 176.460938 C 1314.160156 173.5625 1311.984375 168.832031 1309.796875 162.289062 C 1307.621094 155.746094 1304.710938 147.75 1300.710938 143.75 C 1296.714844 139.75 1282.910156 124.859375 1277.089844 119.757812 C 1271.28125 114.671875 1262.917969 98.6875 1260.742188 100.128906 C 1258.550781 101.585938 1268.738281 120.125 1271.632812 123.402344 C 1274.546875 126.667969 1302.535156 166.285156 1305.796875 173.195312 C 1309.074219 180.09375 1317.070312 189.546875 1319.246094 193.910156 C 1321.425781 198.277344 1326.15625 209.171875 1326.15625 209.171875 C 1326.15625 209.171875 1306.53125 182.648438 1301.800781 176.460938 C 1297.082031 170.285156 1288.730469 165.320312 1286.90625 155.445312 C 1285.085938 145.570312 1274.914062 131.753906 1269.089844 127.753906 C 1263.84375 124.148438 1245.347656 102.742188 1255.980469 91.398438 C 1257.558594 90.976562 1258.496094 90.757812 1258.496094 90.757812 C 1266.535156 92.648438 1358.171875 201.691406 1362.523438 206.875 " fill-opacity="1" fill-rule="nonzero"/><path fill="#364161" d="M 1465.964844 287.378906 C 1464.632812 283.203125 1462.605469 278.386719 1460.265625 275.449219 C 1457.355469 271.820312 1458.074219 263.332031 1455.898438 257.753906 C 1453.722656 252.191406 1451.304688 247.949219 1450.09375 246.4375 C 1448.867188 244.914062 1429.011719 261.15625 1424.648438 268.417969 C 1420.28125 275.695312 1417.371094 282.714844 1413.984375 284.902344 C 1410.597656 287.078125 1392.183594 293.867188 1389.75 297.253906 C 1387.328125 300.652344 1375.226562 304.773438 1373.035156 308.40625 C 1371.527344 310.9375 1368.125 312.445312 1365.964844 314.023438 C 1405.335938 313.722656 1439.308594 313.453125 1465.964844 313.234375 L 1465.964844 287.378906 " fill-opacity="1" fill-rule="nonzero"/><path fill="#5c7eae" d="M 1139.347656 114.671875 C 1137.171875 109.582031 1105.921875 72.507812 1101.921875 68.152344 C 1101.921875 68.152344 1133.175781 110.316406 1133.894531 115.039062 C 1133.894531 115.039062 1124.808594 105.230469 1119.003906 99.042969 C 1113.183594 92.867188 1097.554688 67.785156 1096.101562 60.878906 C 1094.644531 53.96875 1088.105469 45.25 1083.738281 41.25 C 1079.386719 37.25 1067.746094 26.355469 1067.023438 21.625 C 1067.023438 21.625 1067.390625 32.164062 1070.65625 34.339844 C 1073.933594 36.53125 1088.347656 52.160156 1089.316406 55.789062 C 1090.292969 59.421875 1098.277344 76.871094 1098.277344 76.871094 C 1098.277344 76.871094 1088.839844 59.789062 1085.5625 55.421875 C 1082.296875 51.070312 1067.023438 42.707031 1064.480469 34.339844 C 1062.945312 29.296875 1053.164062 15.722656 1052.1875 4.828125 C 1056.632812 -5.457031 1063.214844 -7.144531 1063.214844 -7.144531 C 1069.511719 -5.210938 1104.398438 4.011719 1104.398438 4.011719 C 1104.398438 4.011719 1118.933594 16.605469 1122.8125 21.9375 C 1126.6875 27.269531 1126.6875 32.601562 1126.6875 32.601562 C 1139.769531 51.015625 1197.921875 122.257812 1200.832031 121.769531 L 1171.8125 146.457031 C 1171.8125 146.457031 1141.523438 119.757812 1139.347656 114.671875 " fill-opacity="1" fill-rule="nonzero"/><path fill="#90b0d6" d="M 1160.78125 80.871094 C 1160.78125 80.871094 1146.746094 65.609375 1142.855469 60.277344 C 1138.980469 54.945312 1134.628906 47.914062 1132.207031 45.738281 C 1129.773438 43.550781 1126.632812 40.164062 1126.511719 38.707031 C 1126.386719 37.25 1126.6875 32.601562 1126.6875 32.601562 C 1126.6875 32.601562 1123.722656 34.832031 1122.988281 39.429688 C 1122.265625 44.039062 1123.96875 52.28125 1126.511719 53.738281 C 1129.054688 55.191406 1138.015625 60.511719 1140.191406 63.910156 C 1142.382812 67.296875 1145.046875 73.117188 1146.011719 74.082031 C 1146.976562 75.050781 1152.800781 79.660156 1154.253906 80.871094 C 1155.710938 82.082031 1162.496094 88.515625 1163.707031 90.757812 C 1164.917969 92.988281 1177.019531 108.25 1179.6875 109.214844 L 1160.78125 84.257812 L 1168.792969 90.757812 L 1160.78125 80.871094 " fill-opacity="1" fill-rule="nonzero"/><path fill="#90b0d6" d="M 1071.742188 -0.179688 C 1071.742188 -0.179688 1081.195312 2.71875 1084.828125 8.171875 C 1088.472656 13.625 1088.105469 31.796875 1092.101562 35.796875 C 1096.101562 39.796875 1106.273438 47.070312 1107.730469 49.984375 C 1109.183594 52.878906 1117.902344 65.242188 1117.902344 65.242188 L 1129.175781 75.050781 L 1137.527344 83.414062 L 1149.519531 99.042969 C 1149.519531 99.042969 1132.808594 81.960938 1129.542969 79.414062 C 1126.265625 76.871094 1117.546875 68.519531 1114.269531 65.964844 C 1111.007812 63.421875 1097.921875 47.070312 1095.734375 45.617188 C 1093.558594 44.160156 1089.558594 37.984375 1086.28125 30.710938 C 1083.019531 23.445312 1071.742188 -0.179688 1071.742188 -0.179688 " fill-opacity="1" fill-rule="nonzero"/><path fill="#415078" d="M 1069.539062 41.765625 C 1069.539062 41.765625 1058.308594 54.945312 1056.851562 59.789062 C 1055.394531 64.644531 1046.1875 114.070312 1042.804688 116.492188 C 1039.402344 118.914062 1020.527344 149.9375 1017.847656 159.144531 C 1015.179688 168.355469 996.765625 230.375 996.765625 230.375 C 996.765625 230.375 1009.359375 165.523438 1012.269531 155.542969 C 1015.179688 145.570312 1025.355469 129.085938 1028.265625 124.734375 C 1031.160156 120.367188 1036.980469 109.230469 1036.980469 104.863281 C 1036.980469 100.496094 1044.246094 65.121094 1047.15625 58.824219 C 1050.066406 52.527344 1055.394531 45.738281 1055.394531 45.738281 C 1055.394531 45.738281 1041.824219 54.945312 1038.4375 61.734375 C 1035.050781 68.519531 1027.773438 106.796875 1021.96875 116.003906 C 1016.148438 125.210938 991.4375 163.023438 989.015625 168.355469 C 986.582031 173.671875 982.230469 186.144531 979.320312 186.703125 C 979.320312 186.703125 984.648438 172.707031 987.070312 163.988281 C 989.492188 155.269531 1000.644531 137.234375 1002.574219 136.066406 C 1004.519531 134.910156 1009.851562 123.28125 1012.269531 117.457031 C 1014.691406 111.652344 1019.535156 108.738281 1020.511719 99.042969 C 1021.476562 89.359375 1016.730469 85.957031 1024.429688 74.820312 C 1032.140625 63.664062 1032.140625 47.480469 1038.4375 41.765625 C 1044.734375 36.042969 1055.003906 15.082031 1055.003906 15.082031 L 1069.539062 41.765625 " fill-opacity="1" fill-rule="nonzero"/><path fill="#5c7eae" d="M 1028.742188 53.96875 C 1028.742188 53.96875 1016.625 84.027344 1012.269531 86.921875 C 1007.90625 89.835938 967.691406 174.027344 964.289062 178.214844 C 960.902344 182.40625 947.332031 212.449219 947.332031 212.449219 C 947.332031 212.449219 956.539062 177.074219 965.746094 158.65625 C 974.953125 140.242188 1000.644531 97.476562 1004.03125 90.757812 C 1007.429688 84.027344 1024.308594 55.886719 1028.742188 53.96875 " fill-opacity="1" fill-rule="nonzero"/><path fill="#5c7eae" d="M 961.9375 144.59375 C 957.789062 149.597656 937.214844 105.542969 943.753906 90.472656 C 944.816406 88.828125 945.453125 87.847656 945.453125 87.847656 C 953.207031 88.324219 985.195312 101.898438 985.195312 101.898438 C 985.195312 101.898438 979.320312 118.316406 974.953125 122.734375 C 970.601562 127.15625 966.359375 139.273438 961.9375 144.59375 " fill-opacity="1" fill-rule="nonzero"/><path fill="#415078" d="M 953.765625 135.832031 C 953.765625 135.832031 948.785156 146.292969 945.15625 148.957031 C 941.523438 151.625 929.40625 167.375 928.195312 170.039062 C 926.984375 172.707031 926.984375 175.863281 924.074219 177.792969 C 921.164062 179.738281 918.5 182.648438 917.777344 184.824219 C 917.042969 187 914.625 192.824219 911.714844 196.945312 C 908.816406 201.050781 906.152344 208.816406 903.960938 212.449219 C 901.785156 216.082031 895.488281 224.078125 895.488281 224.078125 C 895.488281 224.078125 898.875 216.816406 901.785156 210.273438 C 904.695312 203.730469 906.871094 195 908.570312 191.613281 C 910.257812 188.210938 911.714844 181.914062 914.625 177.546875 C 917.535156 173.195312 917.535156 170.773438 922.144531 165.445312 C 926.742188 160.113281 928.195312 157.675781 929.882812 153.324219 C 931.582031 148.957031 932.792969 148.292969 934.738281 144.988281 C 936.667969 141.695312 939.335938 136.121094 941.523438 133.207031 C 943.699219 130.296875 945.15625 120.75 947.332031 121.050781 L 953.765625 135.832031 " fill-opacity="1" fill-rule="nonzero"/><path fill="#415078" d="M 866.902344 300.4375 C 871.933594 293.527344 876.21875 287.488281 877.550781 285.148438 C 881.425781 278.359375 886.757812 268.664062 889.667969 265.277344 C 892.578125 261.875 897.421875 260.421875 899.839844 255.101562 C 902.273438 249.769531 902.273438 242.019531 906.136719 238.617188 C 910.027344 235.230469 911.46875 230.375 913.414062 226.988281 C 915.359375 223.601562 913.414062 211.960938 917.289062 208.574219 C 921.164062 205.1875 927.953125 199.363281 931.339844 196.453125 C 934.738281 193.542969 939.089844 179.492188 942.488281 180.460938 C 942.488281 180.460938 936.191406 204.207031 932.316406 209.0625 C 928.441406 213.90625 918.746094 234.253906 915.359375 239.109375 C 911.957031 243.949219 908.570312 248.792969 906.136719 254.613281 C 903.730469 260.421875 901.785156 266.242188 898.875 272.0625 C 895.964844 277.871094 888.703125 282.238281 884.335938 296.289062 C 882.050781 303.671875 876.816406 311.453125 872.367188 317.179688 C 870.53125 317.191406 868.722656 317.191406 866.902344 317.207031 L 866.902344 300.4375 " fill-opacity="1" fill-rule="nonzero"/><path fill="#415078" d="M 1017.847656 284.414062 C 1020.960938 289.730469 1023.042969 307.304688 1023.941406 316.351562 C 975.089844 316.648438 925.613281 316.921875 877.007812 317.152344 C 878.570312 315.195312 880.789062 312.554688 883.125 310.214844 C 887.492188 305.863281 889.300781 296.777344 895.488281 294.21875 C 901.664062 291.691406 903.117188 282.589844 905.292969 277.503906 C 907.484375 272.417969 912.203125 263.699219 917.289062 258.613281 C 922.375 253.527344 928.195312 246.617188 935.105469 241.160156 C 942 235.707031 942.367188 232.445312 947.332031 228.078125 C 952.308594 223.710938 956.183594 226.988281 961.9375 224.078125 C 967.691406 221.167969 967.445312 220.445312 969.988281 218.257812 C 972.53125 216.082031 978.351562 211.363281 981.25 209.171875 C 984.160156 206.996094 984.527344 198.628906 988.035156 190.632812 C 991.558594 182.648438 995.066406 165.199219 997.976562 160.464844 C 1000.875 155.746094 1011.0625 144.988281 1011.0625 144.988281 C 1011.0625 144.988281 1007.429688 152.113281 1005.972656 155.542969 C 1004.519531 158.984375 1004.152344 172.828125 1002.847656 180.417969 C 1001.539062 188.007812 998.699219 196.453125 997.242188 203.472656 C 995.789062 210.503906 993.980469 217.902344 993.613281 224.078125 C 993.246094 230.253906 987.070312 239.339844 985.195312 246.4375 C 983.316406 253.527344 981.25 262.242188 981.25 262.242188 C 981.25 262.242188 987.792969 252.789062 988.035156 251.132812 C 988.28125 249.472656 995.066406 242.984375 997.242188 240.441406 C 999.433594 237.898438 1001.242188 225.167969 1003.785156 222.257812 C 1006.328125 219.359375 1009.960938 200.453125 1011.0625 196.453125 C 1012.148438 192.457031 1018.90625 180.417969 1018.90625 180.417969 C 1018.90625 180.417969 1012.871094 218.625 1013.605469 224.078125 C 1014.324219 229.53125 1012.871094 249.878906 1013.605469 256.789062 C 1014.324219 263.699219 1013.605469 277.152344 1017.847656 284.414062 " fill-opacity="1" fill-rule="nonzero"/><path fill="#364161" d="M 892.210938 314.648438 C 894.753906 308.910156 899.839844 310.949219 903.839844 309.128906 C 907.835938 307.320312 908.9375 303.320312 910.746094 299.15625 C 912.570312 295.007812 921.289062 286.238281 924.621094 283.691406 C 927.953125 281.148438 930.738281 275.695312 932.546875 271.695312 C 934.371094 267.699219 936.914062 265.507812 939.457031 262.242188 C 942 258.964844 947.101562 257.878906 947.332031 257.15625 C 947.578125 256.421875 957.273438 250.613281 960.183594 246.4375 C 963.082031 242.261719 973.265625 232.078125 979.320312 230.375 C 985.371094 228.691406 985.25 217.902344 988.035156 212.449219 C 990.769531 207.089844 1001.554688 185.546875 1001.949219 184.769531 C 1000.507812 191.136719 998.425781 197.773438 997.242188 203.472656 C 995.789062 210.503906 993.980469 217.902344 993.613281 224.078125 C 993.246094 230.253906 987.070312 239.339844 985.195312 246.4375 C 984.078125 250.65625 982.894531 255.457031 982.121094 258.652344 C 980.339844 258.992188 975.441406 265.875 972.53125 269.152344 C 969.621094 272.417969 961.9375 286.238281 961.9375 286.238281 C 963.691406 285.5 972.898438 280.046875 979.320312 275.328125 C 985.738281 270.609375 983.4375 266.242188 988.035156 261.523438 C 992.644531 256.789062 1001.976562 252.070312 1004.871094 248.847656 C 1006.546875 246.996094 1010.558594 241.433594 1013.671875 237.027344 C 1013.480469 244.480469 1013.183594 252.832031 1013.605469 256.789062 C 1014.324219 263.699219 1013.605469 277.152344 1017.847656 284.414062 C 1020.960938 289.730469 1023.042969 307.304688 1023.941406 316.351562 C 979.808594 316.621094 935.171875 316.867188 891.125 317.085938 C 891.449219 316.363281 891.816406 315.5625 892.210938 314.648438 " fill-opacity="1" fill-rule="nonzero"/><path fill="#364161" d="M 1047.15625 271.574219 C 1050.066406 260.910156 1048.636719 251.636719 1049.359375 246.332031 C 1050.066406 241.039062 1050.855469 238.617188 1049.25 234.253906 C 1047.644531 229.898438 1044.910156 220.203125 1046.515625 214.871094 C 1048.132812 209.539062 1052.1875 196.945312 1052.1875 196.945312 C 1052.1875 196.945312 1050.921875 205.664062 1052.1875 209.050781 C 1053.464844 212.449219 1053.464844 220.691406 1057.339844 224.078125 C 1061.21875 227.464844 1065.570312 229.898438 1065.570312 234.253906 C 1065.570312 234.253906 1065.09375 216.816406 1062.660156 210.503906 C 1060.238281 204.207031 1061.21875 192.46875 1060.238281 184.769531 C 1059.273438 177.074219 1059.273438 180.335938 1059.273438 155.445312 C 1059.273438 130.542969 1057.816406 130.433594 1060.238281 121.035156 C 1062.660156 111.652344 1062.660156 100.988281 1062.660156 100.988281 C 1062.660156 100.988281 1075.742188 118.316406 1079.617188 121.035156 C 1083.507812 123.753906 1094.15625 126.667969 1098.523438 128.613281 C 1102.886719 130.542969 1092.226562 112.617188 1089.316406 107.285156 C 1087.410156 103.789062 1085.507812 96.554688 1084.417969 91.957031 C 1094.835938 101.871094 1106.980469 113.582031 1108.097656 113.582031 C 1109.90625 113.582031 1119.355469 113.582031 1119.355469 113.582031 C 1128.085938 119.757812 1160.78125 157.949219 1160.78125 157.949219 C 1158.578125 165.605469 1107.730469 221.683594 1105.238281 225.328125 C 1102.765625 228.976562 1095.734375 232.445312 1089.316406 239.707031 C 1082.894531 246.984375 1073.199219 266.609375 1064.847656 282.957031 C 1061.613281 289.28125 1056.105469 293.71875 1050.570312 296.777344 C 1048.40625 290.5625 1045.113281 279.054688 1047.15625 271.574219 " fill-opacity="1" fill-rule="nonzero"/><path fill="#5c7eae" d="M 836.03125 216.746094 C 832.167969 210.476562 823.492188 192.144531 819.152344 188.769531 C 816.160156 186.445312 810.925781 183.179688 807.605469 178.964844 C 808.777344 178.308594 809.878906 177.808594 810.828125 177.546875 C 817.699219 175.738281 866.902344 198.726562 866.902344 198.726562 C 870.464844 199.976562 872.761719 200.765625 872.761719 200.765625 C 873.101562 200.507812 873.441406 200.222656 873.769531 199.9375 C 872.761719 202.261719 871.582031 204.65625 870.273438 206.613281 C 866.414062 212.394531 864.96875 226.390625 856.769531 228.320312 C 848.570312 230.253906 839.890625 223.019531 836.03125 216.746094 " fill-opacity="1" fill-rule="nonzero"/><path fill="#5c7eae" d="M 714.597656 214.09375 C 716.839844 214.09375 719.886719 213.59375 723.300781 212.789062 C 721.003906 215.824219 717.207031 220.078125 713.03125 221.5625 C 706.285156 223.984375 700.003906 231.84375 696.15625 228.636719 C 692.414062 225.535156 643.851562 213.660156 635.566406 209.851562 C 639.144531 209.007812 641.632812 208.449219 642.613281 208.300781 C 649.480469 207.214844 704.464844 214.09375 714.597656 214.09375 " fill-opacity="1" fill-rule="nonzero"/><path fill="#5c7eae" d="M 438.585938 276.566406 C 428.644531 276.566406 416.105469 257.238281 405.742188 246.261719 C 406.992188 245.992188 408.070312 245.894531 408.925781 246.003906 C 425.203125 248.179688 438.574219 253.945312 448.71875 256.859375 C 455.75 258.882812 463.9375 258.355469 472.070312 256.53125 C 463.542969 264.078125 448.011719 276.566406 438.585938 276.566406 " fill-opacity="1" fill-rule="nonzero"/><path fill="#415078" d="M 696.972656 296.710938 L 696.875 296.777344 L 696.972656 296.710938 " fill-opacity="1" fill-rule="nonzero"/><path fill="#415078" d="M 784.417969 194.359375 C 789.027344 193.679688 797.71875 185.574219 804.667969 180.8125 C 802.953125 187.640625 800.644531 194.972656 798.167969 197.449219 C 793.09375 202.507812 791.652344 208.640625 790.199219 212.449219 C 788.757812 216.257812 790.199219 225.097656 785.859375 228.636719 C 781.523438 232.183594 769.949219 243.625 769.949219 250.925781 C 769.949219 258.230469 766.332031 270.527344 762.714844 273.425781 C 759.09375 276.320312 764.15625 264 762.714844 248.804688 C 761.269531 233.625 759.328125 239.367188 761.378906 231.070312 C 763.433594 222.773438 765.609375 208.179688 765.609375 208.179688 C 765.609375 208.179688 759.09375 214.09375 756.917969 215.535156 C 754.757812 216.992188 751.859375 214.53125 749.683594 224.078125 C 747.523438 233.625 743.902344 243.828125 741.007812 245.964844 C 738.109375 248.097656 727.980469 258.230469 727.980469 258.230469 L 714.964844 283.558594 L 696.972656 296.710938 C 698.167969 295.824219 711.441406 285.800781 713.507812 271.980469 C 715.683594 257.496094 717.902344 254.585938 723.300781 248.804688 C 728.714844 243.023438 733.050781 238.195312 733.773438 229.398438 C 734.492188 220.597656 733.050781 222.378906 734.492188 212.449219 C 734.628906 211.539062 734.75 210.546875 734.875 209.472656 C 744.109375 206.453125 752.949219 202.804688 755.109375 201.433594 C 759.09375 198.890625 778.269531 195.269531 784.417969 194.359375 " fill-opacity="1" fill-rule="nonzero"/><path fill="#415078" d="M 709.90625 311.046875 C 717.859375 305.085938 717.125 304.53125 723.300781 299.15625 C 729.476562 293.785156 727.980469 285.71875 732.332031 276.566406 C 736.667969 267.398438 739.550781 267.628906 746.066406 261.265625 C 752.582031 254.886719 755.476562 234.347656 755.476562 234.347656 C 755.476562 234.347656 754.757812 245.921875 754.757812 248.804688 C 754.757812 251.6875 753.300781 258.953125 750.828125 271.980469 C 748.335938 285 746.066406 301.117188 746.066406 301.117188 C 746.066406 301.117188 755.476562 296.574219 756.917969 296.710938 C 758.375 296.84375 765.609375 290.070312 769.949219 286.453125 C 774.285156 282.835938 776.460938 272.703125 778.625 261.265625 C 780.800781 249.8125 790.199219 245.964844 790.199219 245.964844 C 785.140625 255.402344 785.859375 276.566406 785.859375 276.566406 C 785.859375 276.566406 788.757812 266.1875 790.933594 259.945312 C 793.09375 253.703125 795.269531 249.539062 798.890625 245.964844 C 802.507812 242.371094 802.507812 234.347656 804.667969 230.375 C 806.84375 226.417969 811.902344 220.597656 815.535156 218.789062 C 819.152344 216.980469 815.535156 194.359375 815.535156 194.359375 C 815.535156 194.359375 824.933594 213.359375 825.652344 215.535156 C 826.375 217.714844 830.726562 232.90625 833.609375 238.753906 C 836.507812 244.617188 832.167969 254.613281 848.078125 282.101562 C 857.203125 297.867188 859.667969 309.808594 860.117188 317.136719 C 856.101562 317.164062 852.089844 317.179688 848.078125 317.207031 L 679.523438 316.976562 C 683.261719 306.164062 701.988281 316.960938 709.90625 311.046875 " fill-opacity="1" fill-rule="nonzero"/><path fill="#415078" d="M 438.914062 306.707031 C 448.636719 296.789062 451.601562 296.574219 459.570312 296.710938 C 467.527344 296.84375 492.128906 274.144531 497.910156 276.566406 C 503.703125 278.972656 512.378906 285.71875 525.410156 292.234375 C 538.421875 298.75 556.511719 292.234375 556.511719 292.234375 C 556.511719 292.234375 565.203125 284.277344 570.980469 281.378906 C 576.773438 278.484375 600.65625 273.425781 610.773438 261.265625 C 620.90625 249.089844 625.246094 253.894531 632.480469 250.925781 C 639.714844 247.976562 659.980469 230.375 659.980469 230.375 C 659.980469 230.375 659.246094 235.804688 649.847656 245.964844 C 640.4375 256.125 640.4375 259.671875 635.566406 266.910156 C 630.699219 274.144531 622.347656 288.617188 624.523438 287.175781 C 626.6875 285.71875 636.097656 281.378906 643.332031 276.566406 C 650.566406 271.738281 653.464844 267.628906 657.082031 264.734375 C 660.699219 261.847656 663.597656 255.335938 674.804688 250.925781 C 686.023438 246.519531 688.199219 238.753906 688.199219 238.753906 C 688.199219 238.753906 686.742188 250.273438 679.523438 255.785156 C 672.300781 261.304688 664.316406 274.867188 666.492188 301.117188 C 667.09375 308.394531 666.96875 313.4375 666.480469 316.949219 L 428.398438 316.621094 C 431.433594 313.914062 435.078125 310.609375 438.914062 306.707031 " fill-opacity="1" fill-rule="nonzero"/><path fill="#415078" d="M 617.289062 228.636719 C 611.496094 232.90625 597.761719 245.964844 597.761719 245.964844 C 597.761719 245.964844 582.570312 250.453125 578.949219 255.785156 C 575.332031 261.113281 558.6875 273.179688 555.070312 273.667969 C 551.453125 274.144531 566.644531 262.027344 571.703125 255.785156 C 576.773438 249.539062 582.570312 242.371094 589.070312 238.359375 C 595.582031 234.347656 604.261719 227.113281 610.773438 218.789062 C 611.792969 217.496094 612.625 216.3125 613.359375 215.222656 C 618.5 213.960938 623.273438 212.804688 627.433594 211.796875 C 624.605469 218.203125 620.59375 226.199219 617.289062 228.636719 " fill-opacity="1" fill-rule="nonzero"/><path fill="#415078" d="M 576.054688 238.359375 C 576.054688 238.359375 559.40625 254.070312 549.996094 255.785156 C 540.597656 257.496094 530.46875 261.402344 526.128906 261.265625 C 521.789062 261.113281 511.660156 259.238281 504.421875 261.265625 C 497.1875 263.292969 479.101562 277.519531 476.925781 276.566406 C 474.761719 275.601562 461.734375 281.378906 461.734375 281.378906 C 461.734375 281.378906 460.332031 280.332031 476.925781 273.667969 C 493.53125 266.992188 508.734375 248.070312 518.878906 248.804688 C 529.027344 249.539062 533.363281 246.710938 537.703125 245.964844 C 542.039062 245.203125 552.839844 239.542969 558.292969 238.753906 C 563.746094 237.964844 576.054688 238.359375 576.054688 238.359375 " fill-opacity="1" fill-rule="nonzero"/><path fill="#415078" d="M 346.707031 301.117188 C 351.765625 297.703125 363.339844 300.914062 369.851562 301.117188 C 376.367188 301.304688 377.085938 295.851562 382.148438 290.859375 C 387.21875 285.871094 403.851562 286.453125 405.742188 285 C 407.632812 283.558594 405.742188 259.824219 405.742188 259.824219 C 405.742188 259.824219 413.984375 277.761719 415.441406 281.378906 C 416.882812 285 421.941406 290.792969 424.835938 296.710938 C 426.769531 300.640625 426.128906 310.460938 425.488281 316.621094 L 318.691406 316.472656 C 328.917969 311.074219 343.484375 303.292969 346.707031 301.117188 " fill-opacity="1" fill-rule="nonzero"/><path fill="#364161" d="M 756.199219 311.046875 C 758.375 308.882812 764.890625 303.089844 769.824219 301.117188 C 774.761719 299.144531 779.359375 288.222656 779.359375 288.222656 C 779.359375 292.886719 775.726562 301.117188 775.726562 301.117188 C 775.726562 301.117188 782.964844 292.957031 791.652344 288.222656 C 800.332031 283.476562 795.992188 276.320312 795.992188 273.667969 C 795.992188 271.015625 799.609375 264.734375 804.667969 261.265625 C 809.742188 257.78125 807.566406 253.15625 807.605469 248.804688 C 807.660156 244.453125 817.699219 238.6875 822.769531 234.347656 C 824.988281 232.445312 826.796875 227.96875 828.128906 223.5625 C 829.789062 228.867188 831.9375 235.367188 833.609375 238.753906 C 836.507812 244.617188 832.167969 254.613281 848.078125 282.101562 C 857.203125 297.867188 859.667969 309.808594 860.117188 317.136719 C 856.101562 317.164062 852.089844 317.179688 848.078125 317.207031 L 753.179688 317.070312 C 754.160156 314.5 755.273438 311.984375 756.199219 311.046875 " fill-opacity="1" fill-rule="nonzero"/><path fill="#364161" d="M 723.300781 303.074219 C 722.972656 295.8125 733.050781 290.792969 736.667969 288.222656 C 740.285156 285.652344 744.625 270.378906 744.625 270.378906 C 744.625 270.378906 744.625 279.21875 744.625 281.378906 C 744.625 283.558594 740.285156 287.175781 741.007812 299.46875 C 741.726562 311.765625 741.007812 316.949219 741.007812 316.949219 L 740.804688 317.058594 L 714.175781 317.015625 C 718.539062 312.828125 723.492188 307.15625 723.300781 303.074219 " fill-opacity="1" fill-rule="nonzero"/><path fill="#364161" d="M 573.15625 303.074219 C 576.773438 295.089844 586.171875 293.691406 590.972656 289.203125 C 595.773438 284.726562 597.761719 281.378906 599.921875 281.378906 C 602.097656 281.378906 608.613281 269.804688 615.847656 266.1875 C 623.082031 262.570312 632.480469 255.785156 632.480469 255.785156 C 632.480469 255.785156 625.964844 268.363281 623.804688 270.378906 C 621.628906 272.402344 618.011719 274.867188 613.671875 288.222656 C 609.332031 301.566406 607.15625 303.074219 607.15625 303.074219 C 607.15625 303.074219 618.011719 303.808594 621.628906 296.777344 C 625.246094 289.746094 631.039062 291.515625 638.996094 288.222656 C 646.949219 284.929688 652.023438 278.484375 657.082031 270.378906 C 662.140625 262.285156 672.996094 255.785156 672.996094 255.785156 L 667.214844 261.265625 C 667.214844 261.265625 662.140625 274.867188 662.863281 281.378906 C 663.597656 287.894531 655.640625 287.175781 655.640625 293.71875 C 655.640625 300.273438 653.464844 302.367188 650.566406 306.707031 C 649.03125 309.019531 649.140625 313.355469 649.5625 316.933594 L 561.925781 316.8125 C 566.765625 311.074219 569.621094 310.867188 573.15625 303.074219 " fill-opacity="1" fill-rule="nonzero"/><path fill="#364161" d="M 442.570312 313.941406 C 446.1875 311.765625 457.394531 307.074219 461.707031 303.089844 C 466.015625 299.117188 494.292969 291.148438 497.1875 291.148438 C 500.085938 291.148438 506.601562 286.453125 508.410156 286.359375 C 510.21875 286.261719 511.660156 289.703125 509.851562 291.515625 C 508.042969 293.324219 510.21875 297.660156 508.410156 301.28125 C 506.601562 304.898438 503.335938 307.425781 505.867188 306.992188 C 508.410156 306.558594 509.484375 306.707031 511.660156 305.265625 C 513.820312 303.808594 514.1875 303.457031 518.878906 302.734375 C 523.558594 302 527.21875 296.777344 527.21875 296.777344 L 526.128906 303.089844 L 524.320312 307.304688 C 524.320312 307.304688 527.9375 305.617188 530.835938 307.304688 C 533.730469 308.976562 534.085938 309.957031 537.335938 310.324219 C 540.597656 310.691406 548.921875 305.265625 552.171875 308.148438 C 554.933594 310.609375 554.703125 315.398438 554.566406 316.796875 L 439.074219 316.636719 C 440.410156 315.480469 441.632812 314.5 442.570312 313.941406 " fill-opacity="1" fill-rule="nonzero"/><path fill="#364161" d="M 372.410156 313.222656 C 374.246094 312.132812 377.808594 308.882812 379.617188 307.792969 C 381.425781 306.707031 386.5 303.808594 389.75 303.089844 C 393 302.367188 392.644531 300.191406 393.734375 298.328125 C 394.808594 296.449219 399.664062 292.601562 399.664062 292.601562 C 399.664062 292.601562 404.585938 288.25 403.5 291.148438 C 402.410156 294.042969 400.601562 296.941406 400.234375 298.328125 C 399.882812 299.714844 399.160156 305.617188 400.234375 307.792969 C 401.324219 309.957031 403.132812 307.074219 404.21875 304.175781 C 405.308594 301.28125 408.925781 299.117188 410.734375 296.574219 C 412.542969 294.042969 410.734375 291.148438 410.734375 291.148438 L 410.734375 276.566406 C 410.734375 276.566406 412.894531 282.101562 412.894531 283.558594 C 412.894531 285 415.792969 291.515625 415.792969 291.515625 C 415.792969 291.515625 418.324219 296.21875 417.96875 298.75 C 417.601562 301.28125 419.058594 307.074219 419.777344 309.957031 C 420.160156 311.519531 420.132812 314.335938 420.023438 316.609375 L 365.296875 316.539062 C 368.804688 314.960938 371.757812 313.601562 372.410156 313.222656 " fill-opacity="1" fill-rule="nonzero"/><path fill="#3899c6" d="M -14.398438 639.515625 L 1465.949219 639.515625 L 1465.949219 295.621094 L -14.398438 295.621094 Z M -14.398438 639.515625 " fill-opacity="1" fill-rule="nonzero"/><path fill="#52b5c0" d="M -14.398438 639.515625 L -14.398438 323.476562 L 1465.949219 323.476562 L 1465.949219 363.234375 L -14.398438 363.234375 L -14.398438 639.515625 " fill-opacity="1" fill-rule="nonzero"/><g clip-path="url(#7d10153e2f)"><path fill="#a2dfd1" d="M 1465.949219 707.140625 L -14.398438 707.140625 L -14.398438 667.371094 L 1465.949219 667.371094 L 1465.949219 363.234375 L 1465.949219 707.140625 " fill-opacity="1" fill-rule="nonzero"/></g><path fill="#7dd3c3" d="M 1465.949219 667.371094 L -14.398438 667.371094 L -14.398438 639.515625 L 1465.949219 639.515625 L 1465.949219 363.234375 L 1465.949219 667.371094 " fill-opacity="1" fill-rule="nonzero"/><path fill="#5dc2bd" d="M -14.398438 639.515625 L 1465.949219 639.515625 L 1465.949219 363.234375 L -14.398438 363.234375 Z M -14.398438 639.515625 " fill-opacity="1" fill-rule="nonzero"/><path fill="#f9ca94" d="M 1465.949219 840.296875 L 1465.949219 531.128906 C 1170.4375 552.46875 1209.972656 510.683594 1209.972656 510.683594 C 1221.574219 459.613281 845.5625 457.285156 762.003906 457.285156 C 678.449219 457.285156 687.738281 428.65625 687.738281 428.65625 C 687.738281 362.242188 140.761719 350.558594 -14.398438 348.585938 L -14.398438 840.296875 L 1465.949219 840.296875 " fill-opacity="1" fill-rule="nonzero"/><g clip-path="url(#249e3d08d9)"><path fill="#b97342" d="M 1209.972656 510.683594 C 1221.574219 459.613281 845.5625 457.285156 762.003906 457.285156 C 678.449219 457.285156 687.738281 428.65625 687.738281 428.65625 C 687.738281 362.242188 140.761719 350.558594 -14.398438 348.585938 L -14.398438 363.234375 C 140.761719 365.21875 667.5 365.246094 687.738281 450.199219 C 687.738281 450.199219 678.449219 478.832031 762.003906 478.832031 C 845.5625 478.832031 1212.433594 466.125 1200.832031 517.199219 C 1200.832031 517.199219 1170.4375 574.011719 1465.949219 552.671875 L 1465.949219 531.128906 C 1170.4375 552.46875 1209.972656 510.683594 1209.972656 510.683594 " fill-opacity="1" fill-rule="nonzero"/></g><path fill="#f3b16d" d="M 1094.535156 840.296875 C 1058.890625 791.484375 720.484375 670.402344 648.285156 640.671875 C 569.363281 608.179688 372.070312 610.492188 362.792969 603.527344 C 353.503906 596.5625 437.0625 582.636719 420.8125 557.105469 C 404.574219 531.574219 146.9375 522.285156 126.046875 506.03125 C 105.15625 489.777344 662.210938 448.011719 636.667969 428.65625 C 615.480469 412.59375 144.910156 380.546875 -14.398438 370.117188 L -14.398438 840.296875 L 1094.535156 840.296875 " fill-opacity="1" fill-rule="nonzero"/><path fill="#d39256" d="M -14.398438 686.046875 C 76.828125 646.996094 262.414062 596.5625 274.597656 582.636719 C 290.835938 564.070312 79.628906 552.46875 28.5625 522.285156 C -22.492188 492.117188 225.855469 434.082031 258.347656 417.828125 C 285.683594 404.160156 58.441406 388.859375 -14.398438 384.328125 L -14.398438 686.046875 " fill-opacity="1" fill-rule="nonzero"/><path fill="#d39256" d="M 732.617188 840.296875 C 606.789062 817.839844 125.355469 793.210938 -14.398438 786.421875 L -14.398438 840.296875 L 732.617188 840.296875 " fill-opacity="1" fill-rule="nonzero"/><path fill="#f3b16d" d="M 1465.949219 639.515625 C 1264.507812 617.726562 716.71875 561.648438 680.789062 591.925781 C 641.183594 625.273438 1325.695312 707.277344 1465.949219 723.679688 L 1465.949219 639.515625 " fill-opacity="1" fill-rule="nonzero"/><g clip-path="url(#418749b2f6)"><path fill="#d5bab8" d="M 1465.609375 485.332031 C 1427 510.738281 1336.492188 508.535156 1307.90625 507.082031 C 1273.839844 505.339844 1347.183594 496.632812 1362.808594 480.964844 C 1378.449219 465.296875 1310.613281 444.40625 1280.324219 446.554688 C 1250.039062 448.703125 1218.296875 446.554688 1218.296875 446.554688 C 1218.296875 446.554688 1141.675781 442.664062 1123 440.664062 C 1104.34375 438.679688 1089.421875 454.851562 1089.476562 440.664062 C 1089.546875 426.492188 1069.703125 428.738281 1069.703125 428.738281 C 910.652344 416.550781 742.84375 475.742188 725.777344 406.105469 C 710 341.769531 81.019531 335.378906 -14.753906 334.78125 L -14.753906 348.585938 C 140.492188 350.558594 687.722656 362.242188 687.722656 428.65625 C 687.722656 428.65625 678.433594 457.285156 762.03125 457.285156 C 845.617188 457.285156 1221.804688 459.613281 1210.191406 510.683594 C 1210.191406 510.683594 1170.710938 552.398438 1465.609375 531.167969 L 1465.609375 485.332031 " fill-opacity="1" fill-rule="nonzero"/></g><path fill="#d5bab8" d="M 567.023438 363.449219 C 567.023438 363.449219 591.394531 359.96875 602.710938 358.226562 C 614.023438 356.488281 635.785156 362.582031 649.710938 358.226562 C 663.636719 353.875 664.957031 352.570312 672.996094 357.902344 C 681.046875 363.234375 652.324219 369.828125 654.0625 370.117188 C 655.804688 370.414062 661.597656 376.085938 661.597656 376.085938 L 567.023438 363.449219 " fill-opacity="1" fill-rule="nonzero"/><path fill="#d5bab8" d="M 688.199219 389.566406 C 688.199219 389.566406 707.15625 388.695312 719.34375 389.566406 C 731.527344 390.4375 729 398.269531 744.625 398.269531 C 760.25 398.269531 831.625 394.789062 827.273438 398.269531 C 822.917969 401.75 756.023438 410.292969 744.625 415.679688 C 733.226562 421.050781 718.472656 420.03125 718.472656 420.03125 C 718.472656 420.03125 767.59375 404.050781 757.832031 404.636719 C 748.066406 405.234375 727.175781 401.75 717.601562 399.140625 C 708.027344 396.527344 688.199219 389.566406 688.199219 389.566406 " fill-opacity="1" fill-rule="nonzero"/><path fill="#d5bab8" d="M 816.527344 435.984375 C 816.527344 435.984375 845.550781 435.117188 857.152344 429.308594 C 868.75 423.515625 887.898438 416.550781 898.34375 415.378906 C 908.789062 414.222656 1004.53125 410.714844 998.738281 404.636719 C 992.933594 398.554688 920.445312 406.675781 891.125 411.898438 C 861.789062 417.121094 790.414062 419.445312 796.808594 424.085938 C 803.1875 428.738281 848.527344 413.027344 843.808594 423.515625 C 839.089844 433.988281 799.121094 426.996094 816.527344 435.984375 " fill-opacity="1" fill-rule="nonzero"/><path fill="#d5bab8" d="M 947.332031 419.230469 C 947.332031 419.230469 1027.746094 403.75 1031.230469 404.636719 C 1034.710938 405.519531 1019.042969 416.929688 947.332031 419.230469 " fill-opacity="1" fill-rule="nonzero"/><path fill="#d5bab8" d="M 1031.679688 411.910156 C 1031.679688 411.910156 1081.359375 406.703125 1072.546875 411.910156 C 1063.71875 417.121094 1017.042969 419.472656 1031.679688 411.910156 " fill-opacity="1" fill-rule="nonzero"/><path fill="#d5bab8" d="M 1160.78125 422.929688 C 1160.78125 422.929688 1169.90625 431.632812 1188.484375 431.632812 C 1207.050781 431.632812 1232.003906 426.996094 1243.019531 431.632812 C 1254.050781 436.273438 1242.136719 440.339844 1252.730469 440.339844 C 1263.339844 440.339844 1313.046875 436.855469 1307.632812 440.339844 C 1302.207031 443.820312 1267.976562 451.941406 1276.09375 452.527344 C 1284.226562 453.109375 1300.519531 450.785156 1308.042969 452.527344 C 1315.5625 454.265625 1402.015625 440.339844 1390.988281 431.050781 C 1379.972656 421.773438 1291.191406 433.375 1283.058594 428.738281 C 1274.941406 424.085938 1310.910156 414.441406 1293.503906 413.175781 C 1276.09375 411.898438 1109.277344 411.328125 1160.78125 422.929688 " fill-opacity="1" fill-rule="nonzero"/><path fill="#d5bab8" d="M 1154.242188 404.609375 C 1154.242188 404.609375 1245.929688 410.074219 1234.902344 404.609375 C 1223.871094 399.140625 1112.503906 395.808594 1154.242188 404.609375 " fill-opacity="1" fill-rule="nonzero"/><path fill="#d5bab8" d="M 1229.679688 390.4375 C 1229.679688 390.4375 1348.050781 392.746094 1343.984375 386.953125 C 1339.933594 381.144531 1216.335938 384.042969 1229.679688 390.4375 " fill-opacity="1" fill-rule="nonzero"/><path fill="#d5bab8" d="M 1397.949219 464.128906 C 1397.949219 464.128906 1452.5 474.574219 1450.175781 464.128906 C 1447.863281 453.679688 1378.109375 461.027344 1397.949219 464.128906 " fill-opacity="1" fill-rule="nonzero"/><path fill="#d5bab8" d="M 451.546875 341.6875 C 451.546875 341.6875 492.742188 345.742188 487.519531 341.6875 C 482.296875 337.621094 441.6875 338.207031 451.546875 341.6875 " fill-opacity="1" fill-rule="nonzero"/><path fill="#d5bab8" d="M 409.769531 354.40625 C 409.769531 354.40625 414.992188 342.980469 397.582031 341.171875 C 380.175781 339.363281 373.796875 336.003906 376.109375 334.78125 C 378.433594 333.554688 371.292969 335.417969 365.296875 334.78125 C 359.285156 334.140625 363.761719 337.757812 365.296875 338.847656 C 366.832031 339.949219 371.292969 343.632812 365.296875 344.382812 C 359.285156 345.117188 347.101562 348.515625 348.839844 348.585938 C 350.582031 348.652344 409.769531 354.40625 409.769531 354.40625 " fill-opacity="1" fill-rule="nonzero"/><path fill="#d5bab8" d="M 271.089844 334.359375 C 271.089844 334.359375 309.386719 338.902344 302.425781 334.78125 C 295.460938 330.65625 259.855469 333.1875 271.089844 334.359375 " fill-opacity="1" fill-rule="nonzero"/><path fill="#d5bab8" d="M 492.171875 348.585938 C 492.171875 348.585938 538.585938 361.316406 535.105469 354.40625 C 531.625 347.484375 489.328125 343.023438 492.171875 348.585938 " fill-opacity="1" fill-rule="nonzero"/></svg>