<svg xmlns="http://www.w3.org/2000/svg" xmlns:xlink="http://www.w3.org/1999/xlink" width="1024" zoomAndPan="magnify" viewBox="0 0 768 767.999994" height="1024" preserveAspectRatio="xMidYMid meet" version="1.0"><path fill="#41b8d5" d="M 293.308594 145.4375 L 315.160156 146.570312 C 384.914062 150.144531 426.855469 151.597656 440.988281 150.929688 L 456.65625 152.199219 C 479.039062 154.441406 491.222656 158.464844 493.195312 164.261719 C 497.207031 168.867188 501.839844 176.1875 507.09375 186.222656 L 613.433594 411.589844 C 616.632812 421.683594 616.101562 430.761719 611.839844 438.828125 C 606.527344 448.191406 600.171875 452.382812 592.769531 451.398438 C 587.445312 451.636719 583.042969 450.035156 579.558594 446.601562 C 571.636719 438.304688 565.277344 429.714844 560.484375 420.824219 C 546.402344 399.972656 517.746094 345.257812 474.519531 256.675781 L 402.300781 211.144531 C 368.402344 206.804688 303.992188 203.25 209.070312 200.480469 C 183.621094 197.667969 167.542969 193.511719 160.832031 188.015625 C 156.890625 184.738281 153.375 177.9375 150.289062 167.605469 C 149.753906 160.046875 154.765625 154.5 165.316406 150.964844 C 170.59375 149.195312 177.253906 147.933594 185.296875 147.171875 L 293.308594 145.4375 " fill-opacity="1" fill-rule="nonzero"/><path fill="#41b8d5" d="M 431.550781 1.339844 L 439.421875 1.671875 C 457.667969 3.089844 473.027344 8.964844 485.5 19.304688 C 491.796875 24.851562 496.542969 30.648438 499.734375 36.699219 C 503.257812 44.144531 504.964844 48.621094 504.855469 50.132812 C 505.484375 53.132812 505.773438 56.140625 505.726562 59.160156 C 505.757812 66.953125 503.066406 75.328125 497.652344 84.277344 C 493.257812 90.011719 490.394531 93.5 489.058594 94.746094 C 485.199219 98.578125 481.671875 101.574219 478.476562 103.734375 C 477.210938 105.667969 474.324219 108.59375 469.820312 112.507812 L 465.761719 115.4375 C 463.035156 117.273438 460.261719 118.867188 457.445312 120.222656 C 454.628906 121.582031 451.769531 122.699219 448.863281 123.578125 C 443.050781 125.335938 437.0625 126.136719 430.894531 125.984375 C 412.632812 125.652344 395.617188 118.375 379.851562 104.152344 C 377.425781 101.613281 375.257812 99.023438 373.347656 96.378906 L 370.675781 92.367188 C 369.023438 89.667969 367.628906 86.917969 366.496094 84.113281 C 364.238281 79.003906 362.996094 72.671875 362.769531 65.121094 C 362.65625 59.316406 363.753906 52.753906 366.0625 45.4375 C 369.730469 36.328125 375.917969 27.269531 384.621094 18.269531 C 397.710938 6.136719 413.355469 0.496094 431.550781 1.339844 " fill-opacity="1" fill-rule="nonzero"/><path fill="#41b8d5" d="M 383.535156 184.3125 L 389.378906 184.707031 C 406.042969 186.707031 431.386719 196.203125 465.40625 213.203125 L 499.898438 294.332031 C 495.796875 353.878906 494.457031 400 495.875 432.699219 C 496.382812 442.109375 497.238281 451.304688 498.433594 460.289062 C 509.234375 526.832031 516.222656 577.949219 519.40625 613.652344 C 523.75 664.222656 525.3125 698.207031 524.09375 715.601562 C 523.484375 729.058594 521.910156 737.625 519.367188 741.300781 C 511.214844 754.21875 504.941406 760.96875 500.546875 761.550781 C 488.777344 764.171875 478.871094 756.535156 470.835938 738.640625 C 464.84375 719.4375 460.648438 698.382812 458.25 675.480469 L 440.480469 490.902344 C 439.808594 483.84375 433.675781 479.425781 422.074219 477.644531 C 419.980469 478.363281 418.601562 482.050781 417.929688 488.695312 C 414.3125 526.703125 409.792969 581.5625 404.359375 653.28125 C 402.367188 672.890625 399.828125 689.269531 396.75 702.414062 C 385.910156 744.246094 370.0625 765.933594 349.199219 767.476562 C 339.671875 767.832031 332.476562 758.707031 327.617188 740.105469 L 326.1875 730.402344 C 325.386719 723.179688 324.894531 714.460938 324.707031 704.242188 C 324.332031 683.804688 325.1875 657.367188 327.273438 624.9375 C 333.894531 519.410156 340.085938 432.730469 345.839844 364.902344 C 352.847656 288.359375 356.917969 248.089844 358.058594 244.09375 C 360.257812 226.253906 363.054688 209.25 366.445312 193.082031 C 370.367188 186.382812 376.066406 183.460938 383.535156 184.3125 " fill-opacity="1" fill-rule="nonzero"/></svg>