<svg xmlns="http://www.w3.org/2000/svg" xmlns:xlink="http://www.w3.org/1999/xlink" width="1024" zoomAndPan="magnify" viewBox="0 0 768 767.999994" height="1024" preserveAspectRatio="xMidYMid meet" version="1.0"><path fill="#e9bc06" d="M 547.640625 145.4375 L 525.789062 146.570312 C 456.035156 150.144531 414.09375 151.597656 399.960938 150.929688 L 384.292969 152.199219 C 361.90625 154.441406 349.726562 158.464844 347.75 164.261719 C 343.742188 168.867188 339.109375 176.1875 333.855469 186.222656 L 227.515625 411.589844 C 224.316406 421.683594 224.847656 430.761719 229.109375 438.828125 C 234.421875 448.191406 240.777344 452.382812 248.175781 451.398438 C 253.503906 451.636719 257.90625 450.035156 261.390625 446.601562 C 269.3125 438.304688 275.671875 429.714844 280.464844 420.824219 C 294.546875 399.972656 323.199219 345.257812 366.429688 256.675781 L 438.648438 211.144531 C 472.546875 206.804688 536.957031 203.25 631.878906 200.480469 C 657.328125 197.667969 673.40625 193.511719 680.117188 188.015625 C 684.058594 184.738281 687.574219 177.9375 690.660156 167.605469 C 691.191406 160.046875 686.183594 154.5 675.632812 150.964844 C 670.355469 149.195312 663.695312 147.933594 655.648438 147.171875 L 547.640625 145.4375 " fill-opacity="1" fill-rule="nonzero"/><path fill="#e9bc06" d="M 409.394531 1.339844 L 401.527344 1.671875 C 383.28125 3.089844 367.921875 8.964844 355.449219 19.304688 C 349.152344 24.851562 344.40625 30.648438 341.214844 36.699219 C 337.691406 44.144531 335.984375 48.621094 336.09375 50.132812 C 335.464844 53.132812 335.171875 56.140625 335.21875 59.160156 C 335.191406 66.953125 337.882812 75.328125 343.296875 84.277344 C 347.691406 90.011719 350.554688 93.5 351.890625 94.746094 C 355.75 98.578125 359.277344 101.574219 362.472656 103.734375 C 363.738281 105.667969 366.625 108.59375 371.128906 112.507812 L 375.1875 115.4375 C 377.914062 117.273438 380.6875 118.867188 383.503906 120.222656 C 386.320312 121.582031 389.179688 122.699219 392.085938 123.578125 C 397.898438 125.335938 403.886719 126.136719 410.054688 125.984375 C 428.316406 125.652344 445.332031 118.375 461.097656 104.152344 C 463.523438 101.613281 465.691406 99.023438 467.601562 96.378906 L 470.273438 92.367188 C 471.925781 89.667969 473.320312 86.917969 474.453125 84.113281 C 476.710938 79.003906 477.953125 72.671875 478.179688 65.121094 C 478.292969 59.316406 477.195312 52.753906 474.886719 45.4375 C 471.21875 36.328125 465.03125 27.269531 456.328125 18.269531 C 443.238281 6.136719 427.59375 0.496094 409.394531 1.339844 " fill-opacity="1" fill-rule="nonzero"/><path fill="#e9bc06" d="M 457.414062 184.3125 L 451.570312 184.707031 C 434.902344 186.707031 409.5625 196.203125 375.542969 213.203125 L 341.050781 294.332031 C 345.152344 353.878906 346.492188 400 345.074219 432.699219 C 344.566406 442.109375 343.710938 451.304688 342.515625 460.289062 C 331.714844 526.832031 324.722656 577.949219 321.542969 613.652344 C 317.199219 664.222656 315.636719 698.207031 316.855469 715.601562 C 317.464844 729.058594 319.039062 737.625 321.582031 741.300781 C 329.730469 754.21875 336.003906 760.96875 340.402344 761.550781 C 352.171875 764.171875 362.074219 756.535156 370.113281 738.640625 C 376.105469 719.4375 380.296875 698.382812 382.695312 675.480469 L 400.46875 490.902344 C 401.136719 483.84375 407.273438 479.425781 418.875 477.644531 C 420.964844 478.363281 422.347656 482.050781 423.019531 488.695312 C 426.636719 526.703125 431.15625 581.5625 436.589844 653.28125 C 438.582031 672.890625 441.121094 689.269531 444.199219 702.414062 C 455.035156 744.246094 470.886719 765.933594 491.746094 767.476562 C 501.277344 767.832031 508.46875 758.707031 513.332031 740.105469 L 514.761719 730.402344 C 515.5625 723.179688 516.054688 714.460938 516.242188 704.242188 C 516.613281 683.804688 515.761719 657.367188 513.675781 624.9375 C 507.054688 519.410156 500.863281 432.730469 495.109375 364.902344 C 488.101562 288.359375 484.03125 248.089844 482.890625 244.09375 C 480.691406 226.253906 477.894531 209.25 474.503906 193.082031 C 470.582031 186.382812 464.882812 183.460938 457.414062 184.3125 " fill-opacity="1" fill-rule="nonzero"/></svg>