<svg xmlns="http://www.w3.org/2000/svg" xmlns:xlink="http://www.w3.org/1999/xlink" width="1024" zoomAndPan="magnify" viewBox="0 0 768 767.999994" height="1024" preserveAspectRatio="xMidYMid meet" version="1.0"><defs><clipPath id="ab37c4505f"><path d="M 387.363281 264.054688 L 752.320312 264.054688 L 752.320312 645.988281 L 387.363281 645.988281 Z M 387.363281 264.054688 " clip-rule="nonzero"/></clipPath><clipPath id="26665d7f4e"><path d="M 1.320312 269 L 368.113281 269 L 368.113281 649.558594 L 1.320312 649.558594 Z M 1.320312 269 " clip-rule="nonzero"/></clipPath></defs><g clip-path="url(#ab37c4505f)"><path fill="#1a1a1a" d="M 580.699219 265.386719 C 589.777344 266.15625 593.324219 266.796875 602.269531 268.730469 C 643.230469 277.574219 681.054688 303.210938 706.753906 336.765625 C 766.839844 415.214844 772.679688 546.296875 692.898438 602.589844 C 625.332031 650.265625 559.773438 659.578125 481.214844 624.375 C 375.160156 576.84375 362.707031 410.320312 426.027344 330.300781 C 447.414062 303.269531 472.558594 284.925781 505.265625 273.109375 C 531.179688 263.742188 554.015625 263.128906 580.699219 265.386719 " fill-opacity="1" fill-rule="evenodd"/></g><path fill="#cccccc" d="M 579.933594 279.3125 C 588.347656 280.023438 591.632812 280.621094 599.925781 282.410156 C 637.882812 290.605469 672.925781 314.359375 696.742188 345.453125 C 752.417969 418.148438 757.832031 539.613281 683.902344 591.773438 C 621.292969 635.953125 560.546875 644.582031 487.753906 611.960938 C 389.476562 567.921875 377.933594 413.613281 436.609375 339.464844 C 456.429688 314.414062 479.730469 297.417969 510.035156 286.46875 C 534.042969 277.789062 555.210938 277.21875 579.933594 279.3125 " fill-opacity="1" fill-rule="evenodd"/><path fill="#ffffff" d="M 579.9375 279.3125 C 588.347656 280.023438 591.632812 280.621094 599.925781 282.410156 C 637.882812 290.605469 672.929688 314.359375 696.742188 345.453125 C 723.691406 380.640625 738.863281 427.25 738.964844 471.898438 C 735.34375 513.011719 718.132812 550.886719 684.632812 574.523438 C 622.023438 618.699219 561.273438 627.332031 488.480469 594.710938 C 429.117188 568.105469 401.410156 501.261719 401.703125 436.15625 C 404.671875 399.625 416.523438 364.847656 436.609375 339.464844 C 456.433594 314.414062 479.730469 297.417969 510.035156 286.46875 C 534.046875 277.789062 555.214844 277.21875 579.9375 279.3125 " fill-opacity="1" fill-rule="evenodd"/><path fill="#1a1a1a" d="M 550.976562 375.886719 C 547.203125 376.925781 545.757812 377.476562 542.132812 378.996094 C 525.539062 385.953125 511.589844 399.753906 503.378906 415.9375 C 484.183594 453.785156 492.03125 509.578125 530.136719 527.0625 C 562.40625 541.871094 590.816406 540.644531 621.207031 519.601562 C 662.238281 491.191406 654.398438 419.914062 621.375 391.117188 C 610.222656 381.390625 598.164062 375.625 583.425781 373.210938 C 571.753906 371.296875 562.0625 372.835938 550.976562 375.886719 " fill-opacity="1" fill-rule="evenodd"/><path fill="#ffffff" d="M 562.695312 383.03125 C 564.050781 382.84375 566.195312 382.628906 567.554688 382.566406 C 573.316406 382.296875 579.546875 382.5625 584.867188 384.757812 C 594.257812 388.625 598.78125 387.753906 589.664062 403.707031 C 588.90625 405.03125 588.222656 406.410156 586.941406 407.253906 C 582.507812 410.171875 569.699219 409.824219 563.742188 410.371094 C 559.667969 410.746094 558.535156 411.234375 554.285156 410.617188 C 547.292969 409.605469 533.78125 408.722656 533.011719 399.863281 C 532.175781 390.292969 555.753906 384.003906 562.695312 383.03125 Z M 620.238281 404.253906 C 616.851562 398.726562 610.351562 392.230469 603.4375 396.402344 C 599.851562 398.5625 595.453125 406.949219 599.085938 410.289062 C 601.402344 412.417969 602.136719 408.886719 610.425781 412.324219 C 613.648438 413.660156 615.519531 414.367188 618.109375 411.335938 C 620.011719 409.113281 622.382812 407.75 620.238281 404.253906 " fill-opacity="1" fill-rule="evenodd"/><path fill="#1a1a1a" d="M 444.144531 198.453125 C 448.800781 134.050781 603.546875 119.292969 657.296875 204.167969 C 589.648438 146.363281 478.910156 147.011719 444.144531 198.453125 " fill-opacity="1" fill-rule="evenodd"/><g clip-path="url(#26665d7f4e)"><path fill="#1a1a1a" d="M 190.640625 269.253906 C 181.53125 269.253906 177.941406 269.59375 168.863281 270.765625 C 127.304688 276.121094 87.457031 298.472656 59.015625 329.742188 C -7.472656 402.839844 -24.34375 532.964844 50.40625 595.785156 C 113.710938 648.992188 178.253906 663.804688 259.496094 635.351562 C 369.179688 596.941406 395.636719 432.0625 339.292969 346.984375 C 320.257812 318.242188 296.75 297.847656 265.15625 283.3125 C 240.125 271.792969 217.417969 269.253906 190.640625 269.253906 " fill-opacity="1" fill-rule="evenodd"/></g><path fill="#cccccc" d="M 190.226562 283.191406 C 181.785156 283.191406 178.460938 283.507812 170.046875 284.59375 C 131.535156 289.558594 94.613281 310.269531 68.261719 339.242188 C 6.652344 406.980469 -8.984375 527.558594 60.28125 585.769531 C 118.941406 635.074219 178.746094 648.796875 254.03125 622.433594 C 355.667969 586.839844 380.183594 434.054688 327.972656 355.222656 C 310.332031 328.589844 288.550781 309.691406 259.277344 296.222656 C 236.082031 285.546875 215.039062 283.195312 190.226562 283.191406 " fill-opacity="1" fill-rule="evenodd"/><path fill="#ffffff" d="M 190.226562 283.191406 C 181.785156 283.191406 178.460938 283.507812 170.046875 284.59375 C 131.535156 289.558594 94.613281 310.269531 68.261719 339.242188 C 38.605469 371.847656 19.609375 416.691406 15.597656 460.929688 C 15.898438 501.941406 29.863281 540.828125 61.070312 567.058594 C 119.734375 616.359375 179.539062 630.082031 254.824219 603.71875 C 315.972656 582.304688 349.191406 518.46875 354.59375 453.835938 C 354.609375 417.425781 345.734375 382.042969 327.972656 355.222656 C 310.332031 328.589844 288.550781 309.691406 259.277344 296.222656 C 236.082031 285.546875 215.039062 283.195312 190.226562 283.191406 " fill-opacity="1" fill-rule="evenodd"/><path fill="#1a1a1a" d="M 168.203125 379.382812 C 164.402344 380.300781 162.9375 380.804688 159.265625 382.210938 C 142.457031 388.636719 128.078125 401.984375 119.359375 417.90625 C 98.976562 455.121094 105.050781 511.136719 142.585938 529.820312 C 174.371094 545.644531 202.804688 545.316406 233.847656 525.246094 C 275.757812 498.152344 270.179688 426.664062 238.085938 396.835938 C 227.242188 386.757812 215.375 380.617188 200.722656 377.734375 C 189.113281 375.453125 179.378906 376.683594 168.203125 379.382812 " fill-opacity="1" fill-rule="evenodd"/><path fill="#ffffff" d="M 179.695312 386.894531 C 181.054688 386.746094 183.203125 386.601562 184.5625 386.582031 C 190.332031 386.496094 196.550781 386.960938 201.796875 389.320312 C 211.0625 393.484375 215.609375 392.757812 205.988281 408.414062 C 205.195312 409.710938 204.464844 411.070312 203.15625 411.871094 C 198.632812 414.648438 185.84375 413.894531 179.871094 414.253906 C 175.785156 414.496094 174.640625 414.949219 170.414062 414.199219 C 163.453125 412.964844 149.980469 411.652344 149.488281 402.777344 C 148.957031 393.1875 172.722656 387.644531 179.695312 386.894531 " fill-opacity="1" fill-rule="evenodd"/><path fill="#ffffff" d="M 236.535156 409.929688 C 238.566406 413.492188 236.152344 414.777344 234.179688 416.941406 C 231.496094 419.886719 229.648438 419.121094 226.472656 417.6875 C 218.292969 413.988281 217.445312 417.496094 215.199219 415.292969 C 211.675781 411.839844 216.335938 403.597656 219.988281 401.550781 C 227.035156 397.597656 233.320312 404.296875 236.535156 409.929688 " fill-opacity="1" fill-rule="evenodd"/><path fill="#1a1a1a" d="M 266.367188 184.996094 C 254.808594 121.226562 98.65625 118.578125 54.066406 207.285156 C 115.441406 144.457031 226.125 136.476562 266.367188 184.996094 " fill-opacity="1" fill-rule="evenodd"/></svg>