<svg xmlns="http://www.w3.org/2000/svg" xmlns:xlink="http://www.w3.org/1999/xlink" width="1024" zoomAndPan="magnify" viewBox="0 0 768 767.999994" height="1024" preserveAspectRatio="xMidYMid meet" version="1.0"><defs><clipPath id="a9a12d08d2"><path d="M 43.738281 203.773438 L 366 203.773438 L 366 690 L 43.738281 690 Z M 43.738281 203.773438 " clip-rule="nonzero"/></clipPath><clipPath id="32c0e465f6"><path d="M 401 204 L 723.988281 204 L 723.988281 691.191406 L 401 691.191406 Z M 401 204 " clip-rule="nonzero"/></clipPath></defs><path fill="#ffffff" d="M 204.203125 680.304688 C 289.445312 680.6875 359.015625 576.316406 359.597656 447.1875 C 360.183594 318.054688 291.546875 213.066406 206.304688 212.683594 C 121.066406 212.300781 51.496094 316.671875 50.910156 445.804688 C 50.324219 574.933594 118.960938 679.921875 204.203125 680.304688 " fill-opacity="1" fill-rule="nonzero"/><g clip-path="url(#a9a12d08d2)"><path fill="#000000" d="M 204.246094 670.78125 C 241.082031 671.492188 274.960938 650.816406 301.035156 616.753906 C 332.632812 575.464844 352.714844 514.808594 353.671875 447.164062 C 353.796875 421.96875 351.363281 397.667969 346.390625 374.980469 C 337.976562 336.648438 322.679688 302.917969 303 276.785156 C 277.097656 242.355469 243.257812 221.316406 206.261719 221.699219 C 187.351562 221.773438 169.417969 227.621094 152.894531 237.792969 C 137.40625 247.328125 123.1875 260.714844 110.714844 277.167969 C 79.46875 318.40625 59.144531 378.511719 58.070312 445.835938 C 57.507812 484.394531 63.140625 520.867188 73.902344 552.886719 C 78.671875 567.089844 84.386719 580.453125 91.09375 592.667969 C 95.839844 601.308594 101.089844 609.355469 106.742188 616.753906 C 132.898438 651.070312 167.195312 671.609375 204.246094 670.78125 Z M 204.160156 689.832031 C 162.296875 688.523438 124.867188 663.921875 96.703125 624.132812 C 86.300781 609.453125 77.035156 592.792969 69.289062 574.433594 C 53.609375 537.238281 43.984375 493.195312 43.75 445.773438 C 43.261719 374.484375 63.425781 310.230469 95.863281 266.082031 C 109.589844 247.382812 125.539062 232.222656 142.972656 221.59375 C 162.542969 209.65625 184.015625 203.394531 206.347656 203.667969 C 248.230469 204.476562 286.265625 228.554688 314.570312 268.3125 C 334.523438 296.335938 349.527344 332.121094 357.917969 372.527344 C 362.816406 396.0625 365.632812 421.140625 365.515625 447.21875 C 365.886719 518.167969 345.46875 581.90625 313.402344 625.992188 C 284.597656 665.59375 246.210938 689.414062 204.160156 689.832031 " fill-opacity="1" fill-rule="nonzero"/></g><path fill="#ffffff" d="M 562.390625 681.632812 C 647.632812 682.015625 717.203125 577.65625 717.789062 448.523438 C 718.371094 319.394531 649.738281 214.394531 564.496094 214.011719 C 479.253906 213.628906 409.683594 318.003906 409.097656 447.132812 C 408.515625 576.261719 477.148438 681.25 562.390625 681.632812 " fill-opacity="1" fill-rule="nonzero"/><g clip-path="url(#32c0e465f6)"><path fill="#000000" d="M 562.433594 672.109375 C 599.269531 672.820312 633.152344 652.15625 659.222656 618.085938 C 690.820312 576.792969 710.902344 516.136719 711.871094 448.492188 C 711.988281 423.296875 709.5625 399.007812 704.582031 376.320312 C 696.167969 337.988281 680.867188 304.246094 661.191406 278.117188 C 635.289062 243.695312 601.457031 222.65625 564.453125 223.027344 C 545.550781 223.101562 527.605469 228.960938 511.085938 239.121094 C 495.59375 248.660156 481.378906 262.042969 468.90625 278.507812 C 437.65625 319.746094 417.332031 379.839844 416.261719 447.164062 C 415.695312 485.734375 421.328125 522.195312 432.089844 554.214844 C 436.859375 568.429688 442.578125 581.792969 449.28125 593.996094 C 454.03125 602.648438 459.277344 610.683594 464.929688 618.09375 C 491.101562 652.410156 525.386719 672.9375 562.433594 672.109375 Z M 562.347656 691.160156 C 520.488281 689.863281 483.058594 665.253906 454.890625 625.460938 C 444.5 610.78125 435.226562 594.132812 427.480469 575.761719 C 411.796875 538.566406 402.171875 494.535156 401.9375 447.101562 C 401.449219 375.8125 421.625 311.570312 454.050781 267.410156 C 467.777344 248.710938 483.726562 233.5625 501.171875 222.921875 C 520.730469 210.984375 542.203125 204.722656 564.539062 205 C 606.429688 205.804688 644.457031 229.894531 672.761719 269.644531 C 692.714844 297.664062 707.714844 333.449219 716.109375 373.855469 C 721.007812 397.390625 723.824219 422.46875 723.707031 448.546875 C 724.078125 519.496094 703.65625 583.238281 671.589844 627.320312 C 642.789062 666.933594 604.402344 690.746094 562.347656 691.160156 " fill-opacity="1" fill-rule="nonzero"/></g><path fill="#000000" d="M 168.609375 501.53125 C 230.273438 501.816406 280.53125 445.132812 280.839844 374.929688 C 281.15625 304.722656 231.421875 247.59375 169.746094 247.320312 C 108.082031 247.042969 57.828125 303.726562 57.507812 373.917969 C 57.199219 444.125 106.933594 501.253906 168.609375 501.53125 " fill-opacity="1" fill-rule="nonzero"/><path fill="#000000" d="M 528.085938 502.488281 C 589.75 502.761719 640.003906 446.082031 640.324219 375.875 C 640.632812 305.679688 590.898438 248.542969 529.230469 248.265625 C 467.554688 247.988281 417.3125 304.671875 416.992188 374.875 C 416.675781 445.070312 466.410156 502.210938 528.085938 502.488281 " fill-opacity="1" fill-rule="nonzero"/><path fill="#ffffff" d="M 132.039062 453.597656 C 151.460938 453.679688 167.28125 438 167.367188 418.566406 C 167.453125 399.125 151.78125 383.304688 132.359375 383.210938 C 112.925781 383.125 97.105469 398.816406 97.019531 418.25 C 96.9375 437.683594 112.605469 453.511719 132.039062 453.597656 " fill-opacity="1" fill-rule="nonzero"/><path fill="#ffffff" d="M 491.515625 454.554688 C 510.9375 454.636719 526.757812 438.957031 526.839844 419.515625 C 526.925781 400.082031 511.253906 384.253906 491.832031 384.167969 C 472.402344 384.082031 456.589844 399.761719 456.507812 419.195312 C 456.410156 438.640625 472.082031 454.457031 491.515625 454.554688 " fill-opacity="1" fill-rule="nonzero"/><path fill="#1a1a1a" d="M 455.898438 156.128906 C 460.515625 92.179688 614.054688 77.527344 667.382812 161.800781 C 600.261719 104.40625 490.386719 105.050781 455.898438 156.128906 " fill-opacity="1" fill-rule="evenodd"/><path fill="#1a1a1a" d="M 279.503906 142.769531 C 268.039062 79.445312 113.105469 76.816406 68.867188 164.898438 C 129.761719 102.511719 239.582031 94.589844 279.503906 142.769531 " fill-opacity="1" fill-rule="evenodd"/></svg>