<svg xmlns="http://www.w3.org/2000/svg" xmlns:xlink="http://www.w3.org/1999/xlink" width="1024" zoomAndPan="magnify" viewBox="0 0 768 767.999994" height="1024" preserveAspectRatio="xMidYMid meet" version="1.0"><defs><clipPath id="e42f7e523e"><path d="M 402 181.207031 L 723.621094 181.207031 L 723.621094 667 L 402 667 Z M 402 181.207031 " clip-rule="nonzero"/></clipPath><clipPath id="2dc1c60c2d"><path d="M 44.367188 182 L 367 182 L 367 667.839844 L 44.367188 667.839844 Z M 44.367188 182 " clip-rule="nonzero"/></clipPath></defs><path fill="#ffffff" d="M 563.582031 657.085938 C 478.433594 657.46875 408.9375 553.257812 408.355469 424.324219 C 407.773438 295.394531 476.332031 190.566406 561.480469 190.1875 C 646.625 189.804688 716.121094 294.015625 716.703125 422.945312 C 717.289062 551.875 648.726562 656.703125 563.582031 657.085938 " fill-opacity="1" fill-rule="nonzero"/><g clip-path="url(#e42f7e523e)"><path fill="#000000" d="M 563.539062 647.574219 C 526.742188 648.285156 492.898438 627.640625 466.855469 593.632812 C 435.292969 552.40625 415.234375 491.84375 414.277344 424.304688 C 414.148438 399.148438 416.582031 374.882812 421.546875 352.234375 C 429.953125 313.957031 445.234375 280.28125 464.890625 254.191406 C 490.765625 219.808594 524.566406 198.804688 561.519531 199.1875 C 580.414062 199.261719 598.328125 205.097656 614.832031 215.257812 C 630.304688 224.777344 644.503906 238.140625 656.964844 254.570312 C 688.175781 295.746094 708.480469 355.757812 709.550781 422.976562 C 710.113281 461.476562 704.488281 497.894531 693.738281 529.863281 C 688.972656 544.042969 683.261719 557.386719 676.566406 569.582031 C 671.820312 578.210938 666.578125 586.246094 660.933594 593.632812 C 634.804688 627.894531 600.546875 648.402344 563.539062 647.574219 Z M 563.621094 666.59375 C 605.4375 665.289062 642.828125 640.726562 670.960938 601 C 681.351562 586.339844 690.605469 569.707031 698.34375 551.378906 C 714.007812 514.238281 723.625 470.265625 723.855469 422.914062 C 724.34375 351.734375 704.203125 287.582031 671.800781 243.5 C 658.089844 224.832031 642.160156 209.695312 624.742188 199.082031 C 605.195312 187.160156 583.746094 180.910156 561.4375 181.183594 C 519.601562 181.992188 481.605469 206.035156 453.332031 245.730469 C 433.402344 273.710938 418.417969 309.4375 410.03125 349.78125 C 405.140625 373.28125 402.328125 398.320312 402.445312 424.355469 C 402.074219 495.195312 422.46875 558.839844 454.5 602.855469 C 483.273438 642.394531 521.617188 666.179688 563.621094 666.59375 " fill-opacity="1" fill-rule="nonzero"/></g><path fill="#ffffff" d="M 205.785156 658.410156 C 120.636719 658.792969 51.144531 554.59375 50.5625 425.664062 C 49.976562 296.730469 118.539062 191.894531 203.683594 191.511719 C 288.832031 191.132812 358.324219 295.339844 358.910156 424.273438 C 359.492188 553.203125 290.933594 658.03125 205.785156 658.410156 " fill-opacity="1" fill-rule="nonzero"/><g clip-path="url(#2dc1c60c2d)"><path fill="#000000" d="M 205.742188 648.902344 C 168.949219 649.613281 135.105469 628.976562 109.058594 594.960938 C 77.496094 553.734375 57.4375 493.167969 56.472656 425.632812 C 56.355469 400.476562 58.777344 376.222656 63.753906 353.570312 C 72.160156 315.296875 87.441406 281.605469 107.097656 255.515625 C 132.972656 221.148438 166.761719 200.140625 203.726562 200.515625 C 222.609375 200.589844 240.53125 206.4375 257.035156 216.582031 C 272.511719 226.105469 286.710938 239.46875 299.167969 255.910156 C 330.382812 297.082031 350.683594 357.085938 351.757812 424.304688 C 352.320312 462.8125 346.695312 499.21875 335.945312 531.191406 C 331.179688 545.378906 325.46875 558.722656 318.773438 570.90625 C 314.027344 579.546875 308.785156 587.574219 303.140625 594.96875 C 277 629.234375 242.75 649.730469 205.742188 648.902344 Z M 205.828125 667.921875 C 247.644531 666.628906 285.03125 642.054688 313.167969 602.324219 C 323.546875 587.667969 332.8125 571.046875 340.550781 552.703125 C 356.214844 515.566406 365.828125 471.601562 366.0625 424.242188 C 366.550781 353.0625 346.398438 288.917969 314.007812 244.828125 C 300.292969 226.15625 284.363281 211.03125 266.9375 200.40625 C 247.398438 188.488281 225.949219 182.234375 203.640625 182.511719 C 161.796875 183.320312 123.8125 207.371094 95.539062 247.058594 C 75.609375 275.035156 60.621094 310.765625 52.238281 351.109375 C 47.34375 374.609375 44.535156 399.648438 44.648438 425.683594 C 44.277344 496.523438 64.675781 560.167969 96.707031 604.183594 C 125.476562 643.730469 163.824219 667.507812 205.828125 667.921875 " fill-opacity="1" fill-rule="nonzero"/></g><path fill="#000000" d="M 599.132812 478.585938 C 537.535156 478.871094 487.335938 422.277344 487.027344 352.179688 C 486.710938 282.085938 536.390625 225.042969 598 224.765625 C 659.59375 224.492188 709.792969 281.085938 710.113281 351.171875 C 710.421875 421.269531 660.742188 478.308594 599.132812 478.585938 " fill-opacity="1" fill-rule="nonzero"/><path fill="#000000" d="M 240.054688 479.539062 C 178.457031 479.816406 128.257812 423.222656 127.941406 353.125 C 127.632812 283.039062 177.3125 225.988281 238.910156 225.710938 C 300.515625 225.4375 350.707031 282.03125 351.023438 352.128906 C 351.34375 422.214844 301.664062 479.265625 240.054688 479.539062 " fill-opacity="1" fill-rule="nonzero"/><path fill="#ffffff" d="M 635.664062 430.726562 C 616.261719 430.8125 600.460938 415.15625 600.375 395.753906 C 600.289062 376.339844 615.945312 360.542969 635.34375 360.449219 C 654.757812 360.363281 670.558594 376.03125 670.644531 395.433594 C 670.730469 414.835938 655.074219 430.640625 635.664062 430.726562 " fill-opacity="1" fill-rule="nonzero"/><path fill="#ffffff" d="M 276.585938 431.679688 C 257.183594 431.765625 241.382812 416.109375 241.296875 396.695312 C 241.210938 377.292969 256.867188 361.488281 276.265625 361.40625 C 295.679688 361.320312 311.46875 376.976562 311.554688 396.378906 C 311.648438 415.792969 295.996094 431.585938 276.585938 431.679688 " fill-opacity="1" fill-rule="nonzero"/></svg>