<svg xmlns="http://www.w3.org/2000/svg" xmlns:xlink="http://www.w3.org/1999/xlink" width="2379" zoomAndPan="magnify" viewBox="0 0 1784.88 1784.99993" height="2379" preserveAspectRatio="xMidYMid meet" version="1.0"><defs><clipPath id="c272cae116"><path d="M 351.199219 0.0585938 L 1406.378906 0.0585938 L 1406.378906 1784.9375 L 351.199219 1784.9375 Z M 351.199219 0.0585938 " clip-rule="nonzero"/></clipPath><clipPath id="aef7c08a0d"><path d="M 969 0.0585938 L 985 0.0585938 L 985 421 L 969 421 Z M 969 0.0585938 " clip-rule="nonzero"/></clipPath><clipPath id="5f60023319"><path d="M 771.058594 468 L 1182.777344 468 L 1182.777344 1205 L 771.058594 1205 Z M 771.058594 468 " clip-rule="nonzero"/></clipPath></defs><g clip-path="url(#c272cae116)"><path fill="#000000" d="M 351.222656 1784.570312 L 932.589844 1.046875 L 1041.296875 0.441406 C 1163.007812 594.613281 1284.71875 1188.785156 1406.429688 1782.953125 L 351.222656 1784.570312 " fill-opacity="1" fill-rule="nonzero"/></g><path fill="#ffffff" d="M 967.011719 831.304688 L 967.011719 772.808594 L 986.511719 772.808594 L 986.511719 831.304688 M 967.011719 753.308594 L 967.011719 694.8125 L 986.511719 694.8125 L 986.511719 753.308594 M 967.011719 675.316406 L 967.011719 616.820312 L 986.511719 616.820312 L 986.511719 675.316406 M 967.011719 597.320312 L 967.011719 538.824219 L 986.511719 538.824219 L 986.511719 597.320312 M 967.011719 519.324219 L 967.011719 460.828125 L 986.511719 460.828125 L 986.511719 519.324219 " fill-opacity="1" fill-rule="nonzero"/><g clip-path="url(#aef7c08a0d)"><path fill="#ffffff" d="M 969.261719 420.792969 L 969.261719 375.796875 L 984.261719 375.796875 L 984.261719 420.792969 M 969.261719 360.796875 L 969.261719 315.800781 L 984.261719 315.800781 L 984.261719 360.796875 M 969.261719 300.800781 L 969.261719 255.804688 L 984.261719 255.804688 L 984.261719 300.800781 M 969.261719 240.804688 L 969.261719 195.808594 L 984.261719 195.808594 L 984.261719 240.804688 M 969.261719 180.808594 L 969.261719 135.8125 L 984.261719 135.8125 L 984.261719 180.808594 M 969.261719 120.8125 L 969.261719 75.816406 L 984.261719 75.816406 L 984.261719 120.8125 M 969.261719 60.816406 L 969.261719 15.820312 L 984.261719 15.820312 L 984.261719 60.816406 M 969.261719 0.820312 L 969.261719 0.0585938 L 984.261719 0.0585938 L 984.261719 0.820312 " fill-opacity="1" fill-rule="nonzero"/></g><path fill="#ffffff" d="M 969.261719 1252.039062 L 969.261719 1207.042969 L 984.261719 1207.042969 L 984.261719 1252.039062 M 969.261719 1192.042969 L 969.261719 1147.046875 L 984.261719 1147.046875 L 984.261719 1192.042969 M 969.261719 1132.046875 L 969.261719 1087.050781 L 984.261719 1087.050781 L 984.261719 1132.046875 M 969.261719 1072.050781 L 969.261719 1027.054688 L 984.261719 1027.054688 L 984.261719 1072.050781 M 969.261719 1012.054688 L 969.261719 967.058594 L 984.261719 967.058594 L 984.261719 1012.054688 M 969.261719 952.058594 L 969.261719 907.0625 L 984.261719 907.0625 L 984.261719 952.058594 M 969.261719 892.0625 L 969.261719 847.066406 L 984.261719 847.066406 L 984.261719 892.0625 M 969.261719 832.066406 L 969.261719 831.304688 L 984.261719 831.304688 L 984.261719 832.066406 " fill-opacity="1" fill-rule="nonzero"/><path fill="#ffffff" d="M 969.261719 1672.773438 L 969.261719 1627.777344 L 984.261719 1627.777344 L 984.261719 1672.773438 M 969.261719 1612.777344 L 969.261719 1567.78125 L 984.261719 1567.78125 L 984.261719 1612.777344 M 969.261719 1552.78125 L 969.261719 1507.785156 L 984.261719 1507.785156 L 984.261719 1552.78125 M 969.261719 1492.785156 L 969.261719 1447.789062 L 984.261719 1447.789062 L 984.261719 1492.785156 M 969.261719 1432.789062 L 969.261719 1387.792969 L 984.261719 1387.792969 L 984.261719 1432.789062 M 969.261719 1372.792969 L 969.261719 1327.796875 L 984.261719 1327.796875 L 984.261719 1372.792969 M 969.261719 1312.796875 L 969.261719 1267.800781 L 984.261719 1267.800781 L 984.261719 1312.796875 M 969.261719 1252.800781 L 969.261719 1252.039062 L 984.261719 1252.039062 L 984.261719 1252.800781 " fill-opacity="1" fill-rule="nonzero"/><path fill="#e9bc06" d="M 996.929688 266.230469 C 998.34375 266.5625 999.753906 266.925781 1001.152344 267.324219 C 1002.550781 267.722656 1003.941406 268.15625 1005.316406 268.625 C 1006.695312 269.089844 1008.0625 269.59375 1009.414062 270.125 C 1010.769531 270.660156 1012.105469 271.226562 1013.433594 271.828125 C 1014.757812 272.429688 1016.066406 273.0625 1017.363281 273.726562 C 1018.65625 274.390625 1019.933594 275.085938 1021.195312 275.8125 C 1022.453125 276.539062 1023.695312 277.296875 1024.917969 278.085938 C 1026.140625 278.875 1027.34375 279.691406 1028.527344 280.539062 C 1029.710938 281.386719 1030.871094 282.261719 1032.011719 283.164062 C 1033.152344 284.070312 1034.269531 285 1035.363281 285.960938 C 1036.457031 286.917969 1037.527344 287.902344 1038.574219 288.914062 C 1039.617188 289.925781 1040.640625 290.964844 1041.632812 292.023438 C 1042.628906 293.085938 1043.597656 294.171875 1044.539062 295.28125 C 1045.480469 296.390625 1046.394531 297.523438 1047.28125 298.675781 C 1048.164062 299.828125 1049.023438 301.003906 1049.851562 302.203125 C 1050.679688 303.398438 1051.476562 304.613281 1052.246094 305.847656 C 1053.015625 307.082031 1053.753906 308.335938 1054.460938 309.609375 C 1055.167969 310.878906 1055.84375 312.167969 1056.488281 313.472656 C 1057.128906 314.777344 1057.742188 316.097656 1058.320312 317.433594 C 1058.898438 318.765625 1059.445312 320.113281 1059.960938 321.476562 C 1060.472656 322.839844 1060.953125 324.210938 1061.398438 325.597656 C 1061.84375 326.980469 1062.253906 328.375 1062.628906 329.78125 C 1063.007812 331.1875 1063.347656 332.601562 1063.65625 334.023438 C 1063.964844 335.445312 1064.238281 336.875 1064.472656 338.308594 C 1064.710938 339.746094 1064.914062 341.183594 1065.082031 342.628906 C 1065.246094 344.074219 1065.378906 345.523438 1065.472656 346.976562 C 1065.570312 348.425781 1065.628906 349.882812 1065.652344 351.335938 C 1065.679688 352.789062 1065.667969 354.246094 1065.621094 355.699219 C 1065.570312 357.152344 1065.488281 358.605469 1065.371094 360.054688 C 1065.253906 361.503906 1065.097656 362.953125 1064.910156 364.394531 C 1064.71875 365.835938 1064.496094 367.273438 1064.234375 368.707031 C 1063.972656 370.136719 1063.679688 371.5625 1063.347656 372.976562 C 1063.019531 374.394531 1062.65625 375.804688 1062.253906 377.203125 C 1061.855469 378.601562 1061.421875 379.988281 1060.957031 381.367188 C 1060.488281 382.746094 1059.988281 384.109375 1059.453125 385.464844 C 1058.917969 386.816406 1058.351562 388.15625 1057.75 389.484375 C 1057.152344 390.808594 1056.519531 392.117188 1055.855469 393.414062 C 1055.191406 394.707031 1054.496094 395.984375 1053.769531 397.242188 C 1053.039062 398.503906 1052.28125 399.746094 1051.496094 400.96875 C 1050.707031 402.191406 1049.890625 403.394531 1049.042969 404.578125 C 1048.195312 405.761719 1047.320312 406.921875 1046.414062 408.0625 C 1045.511719 409.203125 1044.578125 410.320312 1043.621094 411.414062 C 1042.660156 412.507812 1041.675781 413.578125 1040.664062 414.621094 C 1039.652344 415.667969 1038.617188 416.6875 1037.554688 417.683594 C 1036.492188 418.679688 1035.40625 419.648438 1034.300781 420.589844 C 1033.191406 421.53125 1032.058594 422.445312 1030.902344 423.328125 C 1029.75 424.214844 1028.574219 425.074219 1027.378906 425.902344 C 1026.183594 426.730469 1024.96875 427.527344 1023.730469 428.296875 C 1022.496094 429.066406 1021.242188 429.804688 1019.972656 430.511719 C 1018.699219 431.21875 1017.410156 431.894531 1016.105469 432.535156 C 1014.800781 433.179688 1013.484375 433.792969 1012.148438 434.371094 C 1010.8125 434.949219 1009.464844 435.496094 1008.105469 436.007812 C 1006.742188 436.523438 1005.367188 437 1003.984375 437.445312 C 1002.597656 437.890625 1001.203125 438.304688 999.796875 438.679688 C 998.394531 439.058594 996.980469 439.398438 995.558594 439.707031 C 994.136719 440.015625 992.707031 440.285156 991.269531 440.523438 C 989.835938 440.761719 988.394531 440.964844 986.949219 441.128906 C 985.503906 441.296875 984.054688 441.429688 982.605469 441.523438 C 981.152344 441.621094 979.699219 441.679688 978.246094 441.703125 C 976.789062 441.726562 975.335938 441.714844 973.882812 441.667969 C 972.425781 441.621094 970.976562 441.539062 969.523438 441.421875 C 968.074219 441.300781 966.628906 441.148438 965.1875 440.957031 C 963.742188 440.769531 962.304688 440.542969 960.875 440.285156 C 959.441406 440.023438 958.019531 439.730469 956.601562 439.398438 C 955.183594 439.070312 953.777344 438.703125 952.378906 438.304688 C 950.980469 437.90625 949.589844 437.472656 948.210938 437.007812 C 946.835938 436.539062 945.46875 436.039062 944.117188 435.503906 C 942.761719 434.96875 941.421875 434.402344 940.097656 433.800781 C 938.773438 433.203125 937.460938 432.570312 936.167969 431.90625 C 934.875 431.242188 933.597656 430.546875 932.335938 429.816406 C 931.074219 429.089844 929.835938 428.332031 928.613281 427.546875 C 927.386719 426.757812 926.183594 425.9375 925.003906 425.09375 C 923.820312 424.246094 922.660156 423.371094 921.519531 422.464844 C 920.378906 421.5625 919.261719 420.628906 918.167969 419.671875 C 917.074219 418.710938 916.003906 417.726562 914.957031 416.714844 C 913.910156 415.703125 912.890625 414.667969 911.898438 413.605469 C 910.902344 412.542969 909.933594 411.457031 908.992188 410.347656 C 908.050781 409.238281 907.136719 408.109375 906.25 406.953125 C 905.363281 405.800781 904.507812 404.625 903.679688 403.429688 C 902.851562 402.234375 902.050781 401.015625 901.285156 399.78125 C 900.515625 398.546875 899.777344 397.292969 899.070312 396.023438 C 898.363281 394.75 897.6875 393.460938 897.042969 392.15625 C 896.398438 390.851562 895.789062 389.53125 895.207031 388.199219 C 894.628906 386.863281 894.082031 385.515625 893.570312 384.152344 C 893.058594 382.792969 892.578125 381.417969 892.132812 380.035156 C 891.6875 378.648438 891.277344 377.253906 890.898438 375.847656 C 890.523438 374.441406 890.179688 373.03125 889.875 371.605469 C 889.566406 370.183594 889.292969 368.757812 889.054688 367.320312 C 888.816406 365.886719 888.617188 364.445312 888.449219 363 C 888.28125 361.554688 888.152344 360.105469 888.054688 358.652344 C 887.960938 357.203125 887.902344 355.75 887.875 354.292969 C 887.851562 352.839844 887.863281 351.386719 887.910156 349.929688 C 887.957031 348.476562 888.042969 347.023438 888.160156 345.574219 C 888.277344 344.125 888.433594 342.679688 888.621094 341.234375 C 888.8125 339.792969 889.035156 338.355469 889.296875 336.925781 C 889.554688 335.492188 889.851562 334.070312 890.179688 332.652344 C 890.511719 331.234375 890.875 329.828125 891.273438 328.429688 C 891.671875 327.027344 892.105469 325.640625 892.574219 324.261719 C 893.042969 322.882812 893.542969 321.519531 894.078125 320.164062 C 894.609375 318.8125 895.179688 317.472656 895.777344 316.148438 C 896.378906 314.824219 897.011719 313.511719 897.675781 312.21875 C 898.339844 310.921875 899.035156 309.644531 899.761719 308.386719 C 900.488281 307.125 901.246094 305.882812 902.035156 304.660156 C 902.824219 303.4375 903.640625 302.234375 904.488281 301.050781 C 905.335938 299.871094 906.210938 298.707031 907.113281 297.570312 C 908.019531 296.429688 908.949219 295.3125 909.910156 294.21875 C 910.867188 293.125 911.855469 292.054688 912.867188 291.007812 C 913.875 289.960938 914.914062 288.941406 915.976562 287.945312 C 917.035156 286.953125 918.121094 285.984375 919.230469 285.042969 C 920.339844 284.101562 921.472656 283.1875 922.625 282.300781 C 923.78125 281.414062 924.957031 280.558594 926.152344 279.730469 C 927.347656 278.902344 928.5625 278.101562 929.796875 277.332031 C 931.035156 276.566406 932.285156 275.828125 933.558594 275.121094 C 934.832031 274.414062 936.117188 273.738281 937.421875 273.09375 C 938.726562 272.449219 940.046875 271.839844 941.382812 271.257812 C 942.71875 270.679688 944.066406 270.132812 945.425781 269.621094 C 946.789062 269.109375 948.160156 268.628906 949.546875 268.183594 C 950.929688 267.738281 952.328125 267.328125 953.730469 266.949219 C 955.136719 266.574219 956.550781 266.230469 957.972656 265.921875 C 959.394531 265.617188 960.824219 265.34375 962.257812 265.105469 C 963.695312 264.867188 965.136719 264.667969 966.582031 264.5 C 968.027344 264.332031 969.472656 264.203125 970.925781 264.105469 C 972.378906 264.011719 973.832031 263.949219 975.285156 263.925781 C 976.742188 263.902344 978.195312 263.914062 979.648438 263.960938 C 981.101562 264.007812 982.554688 264.089844 984.003906 264.210938 C 985.457031 264.328125 986.902344 264.480469 988.34375 264.671875 C 989.785156 264.859375 991.222656 265.085938 992.65625 265.347656 C 994.085938 265.605469 995.511719 265.902344 996.929688 266.230469 Z M 996.929688 266.230469 " fill-opacity="1" fill-rule="nonzero"/><g clip-path="url(#5f60023319)"><path fill="#e9bc06" d="M 1088.027344 478.917969 C 1076.828125 472.214844 1066.6875 469.746094 1059.847656 468.96875 C 1057.671875 468.480469 1055.425781 468.199219 1053.105469 468.199219 L 900.414062 468.199219 C 898.085938 468.199219 895.832031 468.484375 893.652344 468.972656 C 886.8125 469.75 876.675781 472.222656 865.480469 478.925781 C 843.28125 492.09375 819.457031 519.710938 801.746094 572.648438 C 783.921875 625.820312 771.101562 705.507812 771.058594 829.296875 C 771.058594 846.757812 785.214844 860.917969 802.671875 860.917969 C 820.140625 860.917969 834.289062 846.757812 834.289062 829.296875 C 834.125 687.742188 852.335938 610.644531 869.871094 571.585938 L 869.871094 732.484375 L 843.945312 1152.878906 C 842.28125 1179.816406 862.777344 1203 889.699219 1204.660156 C 916.632812 1206.320312 939.820312 1185.835938 941.484375 1158.902344 L 963.640625 799.570312 L 989.867188 799.570312 L 1012.023438 1158.902344 C 1013.683594 1185.835938 1036.871094 1206.320312 1063.804688 1204.660156 C 1090.726562 1203 1111.222656 1179.820312 1109.558594 1152.878906 L 1083.636719 732.484375 L 1083.636719 571.742188 C 1088.210938 581.9375 1092.863281 594.648438 1097.210938 610.5625 C 1109.527344 655.417969 1119.238281 724.863281 1119.207031 829.304688 C 1119.207031 846.761719 1133.367188 860.921875 1150.832031 860.921875 C 1168.285156 860.921875 1182.449219 846.761719 1182.449219 829.304688 C 1182.265625 664.292969 1159.875 577.488281 1132.289062 527.75 C 1118.46875 503 1102.695312 487.605469 1088.027344 478.917969 Z M 1088.027344 478.917969 " fill-opacity="1" fill-rule="nonzero"/></g></svg>