<svg xmlns="http://www.w3.org/2000/svg" xmlns:xlink="http://www.w3.org/1999/xlink" width="2379" zoomAndPan="magnify" viewBox="0 0 1784.88 1784.99993" height="2379" preserveAspectRatio="xMidYMid meet" version="1.0"><defs><clipPath id="17d1c3da1b"><path d="M 351.199219 0.0585938 L 1406.378906 0.0585938 L 1406.378906 1784.9375 L 351.199219 1784.9375 Z M 351.199219 0.0585938 " clip-rule="nonzero"/></clipPath><clipPath id="46a399f23b"><path d="M 969 0.0585938 L 985 0.0585938 L 985 421 L 969 421 Z M 969 0.0585938 " clip-rule="nonzero"/></clipPath><clipPath id="4404ccad1f"><path d="M 771.058594 1045 L 1182.777344 1045 L 1182.777344 1783 L 771.058594 1783 Z M 771.058594 1045 " clip-rule="nonzero"/></clipPath></defs><g clip-path="url(#17d1c3da1b)"><path fill="#000000" d="M 351.222656 1784.570312 L 932.589844 1.046875 L 1041.296875 0.441406 C 1163.007812 594.613281 1284.71875 1188.785156 1406.429688 1782.953125 L 351.222656 1784.570312 " fill-opacity="1" fill-rule="nonzero"/></g><path fill="#ffffff" d="M 967.011719 831.304688 L 967.011719 772.808594 L 986.511719 772.808594 L 986.511719 831.304688 M 967.011719 753.308594 L 967.011719 694.8125 L 986.511719 694.8125 L 986.511719 753.308594 M 967.011719 675.316406 L 967.011719 616.820312 L 986.511719 616.820312 L 986.511719 675.316406 M 967.011719 597.320312 L 967.011719 538.824219 L 986.511719 538.824219 L 986.511719 597.320312 M 967.011719 519.324219 L 967.011719 460.828125 L 986.511719 460.828125 L 986.511719 519.324219 " fill-opacity="1" fill-rule="nonzero"/><g clip-path="url(#46a399f23b)"><path fill="#ffffff" d="M 969.261719 420.792969 L 969.261719 375.796875 L 984.261719 375.796875 L 984.261719 420.792969 M 969.261719 360.796875 L 969.261719 315.800781 L 984.261719 315.800781 L 984.261719 360.796875 M 969.261719 300.800781 L 969.261719 255.804688 L 984.261719 255.804688 L 984.261719 300.800781 M 969.261719 240.804688 L 969.261719 195.808594 L 984.261719 195.808594 L 984.261719 240.804688 M 969.261719 180.808594 L 969.261719 135.8125 L 984.261719 135.8125 L 984.261719 180.808594 M 969.261719 120.8125 L 969.261719 75.816406 L 984.261719 75.816406 L 984.261719 120.8125 M 969.261719 60.816406 L 969.261719 15.820312 L 984.261719 15.820312 L 984.261719 60.816406 M 969.261719 0.820312 L 969.261719 0.0585938 L 984.261719 0.0585938 L 984.261719 0.820312 " fill-opacity="1" fill-rule="nonzero"/></g><path fill="#ffffff" d="M 969.261719 1252.039062 L 969.261719 1207.042969 L 984.261719 1207.042969 L 984.261719 1252.039062 M 969.261719 1192.042969 L 969.261719 1147.046875 L 984.261719 1147.046875 L 984.261719 1192.042969 M 969.261719 1132.046875 L 969.261719 1087.050781 L 984.261719 1087.050781 L 984.261719 1132.046875 M 969.261719 1072.050781 L 969.261719 1027.054688 L 984.261719 1027.054688 L 984.261719 1072.050781 M 969.261719 1012.054688 L 969.261719 967.058594 L 984.261719 967.058594 L 984.261719 1012.054688 M 969.261719 952.058594 L 969.261719 907.0625 L 984.261719 907.0625 L 984.261719 952.058594 M 969.261719 892.0625 L 969.261719 847.066406 L 984.261719 847.066406 L 984.261719 892.0625 M 969.261719 832.066406 L 969.261719 831.304688 L 984.261719 831.304688 L 984.261719 832.066406 " fill-opacity="1" fill-rule="nonzero"/><path fill="#ffffff" d="M 969.261719 1672.773438 L 969.261719 1627.777344 L 984.261719 1627.777344 L 984.261719 1672.773438 M 969.261719 1612.777344 L 969.261719 1567.78125 L 984.261719 1567.78125 L 984.261719 1612.777344 M 969.261719 1552.78125 L 969.261719 1507.785156 L 984.261719 1507.785156 L 984.261719 1552.78125 M 969.261719 1492.785156 L 969.261719 1447.789062 L 984.261719 1447.789062 L 984.261719 1492.785156 M 969.261719 1432.789062 L 969.261719 1387.792969 L 984.261719 1387.792969 L 984.261719 1432.789062 M 969.261719 1372.792969 L 969.261719 1327.796875 L 984.261719 1327.796875 L 984.261719 1372.792969 M 969.261719 1312.796875 L 969.261719 1267.800781 L 984.261719 1267.800781 L 984.261719 1312.796875 M 969.261719 1252.800781 L 969.261719 1252.039062 L 984.261719 1252.039062 L 984.261719 1252.800781 " fill-opacity="1" fill-rule="nonzero"/><path fill="#e9bc06" d="M 996.929688 843.597656 C 998.34375 843.925781 999.753906 844.289062 1001.152344 844.691406 C 1002.550781 845.089844 1003.941406 845.523438 1005.316406 845.988281 C 1006.695312 846.457031 1008.0625 846.957031 1009.414062 847.492188 C 1010.769531 848.027344 1012.105469 848.59375 1013.433594 849.195312 C 1014.757812 849.792969 1016.066406 850.425781 1017.363281 851.089844 C 1018.65625 851.753906 1019.933594 852.449219 1021.195312 853.179688 C 1022.453125 853.90625 1023.695312 854.664062 1024.917969 855.449219 C 1026.140625 856.238281 1027.34375 857.054688 1028.527344 857.902344 C 1029.710938 858.75 1030.871094 859.625 1032.011719 860.53125 C 1033.152344 861.433594 1034.269531 862.367188 1035.363281 863.324219 C 1036.457031 864.285156 1037.527344 865.269531 1038.574219 866.28125 C 1039.617188 867.292969 1040.640625 868.328125 1041.632812 869.390625 C 1042.628906 870.453125 1043.597656 871.539062 1044.539062 872.648438 C 1045.480469 873.753906 1046.394531 874.886719 1047.28125 876.042969 C 1048.164062 877.195312 1049.023438 878.371094 1049.851562 879.566406 C 1050.679688 880.761719 1051.476562 881.976562 1052.246094 883.214844 C 1053.015625 884.449219 1053.753906 885.703125 1054.460938 886.972656 C 1055.167969 888.246094 1055.84375 889.535156 1056.488281 890.839844 C 1057.128906 892.144531 1057.742188 893.460938 1058.320312 894.796875 C 1058.898438 896.132812 1059.445312 897.480469 1059.960938 898.84375 C 1060.472656 900.203125 1060.953125 901.578125 1061.398438 902.960938 C 1061.84375 904.347656 1062.253906 905.742188 1062.628906 907.148438 C 1063.007812 908.550781 1063.347656 909.964844 1063.65625 911.386719 C 1063.964844 912.808594 1064.238281 914.238281 1064.472656 915.675781 C 1064.710938 917.109375 1064.914062 918.550781 1065.082031 919.996094 C 1065.246094 921.441406 1065.378906 922.890625 1065.472656 924.339844 C 1065.570312 925.792969 1065.628906 927.246094 1065.652344 928.699219 C 1065.679688 930.15625 1065.667969 931.609375 1065.621094 933.0625 C 1065.570312 934.519531 1065.488281 935.972656 1065.371094 937.421875 C 1065.253906 938.871094 1065.097656 940.316406 1064.910156 941.757812 C 1064.71875 943.203125 1064.496094 944.640625 1064.234375 946.070312 C 1063.972656 947.503906 1063.679688 948.925781 1063.347656 950.34375 C 1063.019531 951.761719 1062.65625 953.167969 1062.253906 954.566406 C 1061.855469 955.96875 1061.421875 957.355469 1060.957031 958.734375 C 1060.488281 960.109375 1059.988281 961.476562 1059.453125 962.828125 C 1058.917969 964.183594 1058.351562 965.523438 1057.75 966.847656 C 1057.152344 968.171875 1056.519531 969.484375 1055.855469 970.777344 C 1055.191406 972.070312 1054.496094 973.347656 1053.769531 974.609375 C 1053.039062 975.871094 1052.28125 977.109375 1051.496094 978.335938 C 1050.707031 979.558594 1049.890625 980.761719 1049.042969 981.941406 C 1048.195312 983.125 1047.320312 984.289062 1046.414062 985.425781 C 1045.511719 986.566406 1044.578125 987.683594 1043.621094 988.777344 C 1042.660156 989.871094 1041.675781 990.941406 1040.664062 991.988281 C 1039.652344 993.035156 1038.617188 994.054688 1037.554688 995.050781 C 1036.492188 996.042969 1035.40625 997.011719 1034.300781 997.953125 C 1033.191406 998.894531 1032.058594 999.808594 1030.902344 1000.695312 C 1029.75 1001.582031 1028.574219 1002.4375 1027.378906 1003.265625 C 1026.183594 1004.09375 1024.96875 1004.894531 1023.730469 1005.664062 C 1022.496094 1006.429688 1021.242188 1007.167969 1019.972656 1007.875 C 1018.699219 1008.582031 1017.410156 1009.257812 1016.105469 1009.902344 C 1014.800781 1010.546875 1013.484375 1011.15625 1012.148438 1011.738281 C 1010.8125 1012.316406 1009.464844 1012.863281 1008.105469 1013.375 C 1006.742188 1013.886719 1005.367188 1014.367188 1003.984375 1014.8125 C 1002.597656 1015.257812 1001.203125 1015.667969 999.796875 1016.046875 C 998.394531 1016.421875 996.980469 1016.765625 995.558594 1017.074219 C 994.136719 1017.378906 992.707031 1017.652344 991.269531 1017.890625 C 989.835938 1018.128906 988.394531 1018.328125 986.949219 1018.496094 C 985.503906 1018.664062 984.054688 1018.792969 982.605469 1018.890625 C 981.152344 1018.984375 979.699219 1019.042969 978.246094 1019.070312 C 976.789062 1019.09375 975.335938 1019.082031 973.882812 1019.035156 C 972.425781 1018.988281 970.976562 1018.90625 969.523438 1018.785156 C 968.074219 1018.667969 966.628906 1018.511719 965.1875 1018.324219 C 963.742188 1018.132812 962.304688 1017.910156 960.875 1017.648438 C 959.441406 1017.390625 958.019531 1017.09375 956.601562 1016.765625 C 955.183594 1016.433594 953.777344 1016.070312 952.378906 1015.671875 C 950.980469 1015.273438 949.589844 1014.839844 948.210938 1014.371094 C 946.835938 1013.902344 945.46875 1013.402344 944.117188 1012.867188 C 942.761719 1012.335938 941.421875 1011.765625 940.097656 1011.167969 C 938.773438 1010.566406 937.460938 1009.933594 936.167969 1009.269531 C 934.875 1008.605469 933.597656 1007.910156 932.335938 1007.183594 C 931.074219 1006.457031 929.835938 1005.699219 928.613281 1004.910156 C 927.386719 1004.121094 926.183594 1003.304688 925.003906 1002.457031 C 923.820312 1001.609375 922.660156 1000.734375 921.519531 999.832031 C 920.378906 998.925781 919.261719 997.996094 918.167969 997.035156 C 917.074219 996.078125 916.003906 995.09375 914.957031 994.082031 C 913.910156 993.070312 912.890625 992.03125 911.898438 990.96875 C 910.902344 989.910156 909.933594 988.824219 908.992188 987.714844 C 908.050781 986.605469 907.136719 985.472656 906.25 984.320312 C 905.363281 983.164062 904.507812 981.992188 903.679688 980.792969 C 902.851562 979.597656 902.050781 978.382812 901.285156 977.148438 C 900.515625 975.910156 899.777344 974.660156 899.070312 973.386719 C 898.363281 972.117188 897.6875 970.828125 897.042969 969.523438 C 896.398438 968.21875 895.789062 966.898438 895.207031 965.5625 C 894.628906 964.230469 894.082031 962.878906 893.570312 961.519531 C 893.058594 960.15625 892.578125 958.785156 892.132812 957.398438 C 891.6875 956.015625 891.277344 954.617188 890.898438 953.214844 C 890.523438 951.808594 890.179688 950.394531 889.875 948.972656 C 889.566406 947.550781 889.292969 946.121094 889.054688 944.6875 C 888.816406 943.25 888.617188 941.8125 888.449219 940.367188 C 888.28125 938.921875 888.152344 937.472656 888.054688 936.019531 C 887.960938 934.566406 887.902344 933.113281 887.875 931.660156 C 887.851562 930.207031 887.863281 928.75 887.910156 927.296875 C 887.957031 925.84375 888.042969 924.390625 888.160156 922.941406 C 888.277344 921.488281 888.433594 920.042969 888.621094 918.601562 C 888.8125 917.160156 889.035156 915.722656 889.296875 914.289062 C 889.554688 912.859375 889.851562 911.433594 890.179688 910.015625 C 890.511719 908.601562 890.875 907.191406 891.273438 905.792969 C 891.671875 904.394531 892.105469 903.003906 892.574219 901.628906 C 893.042969 900.25 893.542969 898.882812 894.078125 897.53125 C 894.609375 896.179688 895.179688 894.839844 895.777344 893.511719 C 896.378906 892.1875 897.011719 890.878906 897.675781 889.582031 C 898.339844 888.289062 899.035156 887.011719 899.761719 885.75 C 900.488281 884.492188 901.246094 883.25 902.035156 882.027344 C 902.824219 880.804688 903.640625 879.601562 904.488281 878.417969 C 905.335938 877.234375 906.210938 876.074219 907.113281 874.933594 C 908.019531 873.792969 908.949219 872.675781 909.910156 871.582031 C 910.867188 870.488281 911.855469 869.417969 912.867188 868.371094 C 913.875 867.328125 914.914062 866.308594 915.976562 865.3125 C 917.035156 864.316406 918.121094 863.347656 919.230469 862.40625 C 920.339844 861.464844 921.472656 860.550781 922.625 859.664062 C 923.78125 858.78125 924.957031 857.921875 926.152344 857.09375 C 927.347656 856.265625 928.5625 855.46875 929.796875 854.699219 C 931.035156 853.929688 932.285156 853.191406 933.558594 852.484375 C 934.832031 851.777344 936.117188 851.101562 937.421875 850.457031 C 938.726562 849.816406 940.046875 849.203125 941.382812 848.625 C 942.71875 848.046875 944.066406 847.5 945.425781 846.988281 C 946.789062 846.472656 948.160156 845.996094 949.546875 845.550781 C 950.929688 845.105469 952.328125 844.691406 953.730469 844.316406 C 955.136719 843.9375 956.550781 843.597656 957.972656 843.289062 C 959.394531 842.980469 960.824219 842.707031 962.257812 842.472656 C 963.695312 842.234375 965.136719 842.03125 966.582031 841.863281 C 968.027344 841.699219 969.472656 841.566406 970.925781 841.472656 C 972.378906 841.375 973.832031 841.316406 975.285156 841.292969 C 976.742188 841.269531 978.195312 841.28125 979.648438 841.328125 C 981.101562 841.375 982.554688 841.457031 984.003906 841.574219 C 985.457031 841.695312 986.902344 841.847656 988.34375 842.035156 C 989.785156 842.226562 991.222656 842.453125 992.65625 842.710938 C 994.085938 842.972656 995.511719 843.265625 996.929688 843.597656 Z M 996.929688 843.597656 " fill-opacity="1" fill-rule="nonzero"/><g clip-path="url(#4404ccad1f)"><path fill="#e9bc06" d="M 1088.027344 1056.28125 C 1076.828125 1049.582031 1066.6875 1047.109375 1059.847656 1046.335938 C 1057.671875 1045.84375 1055.425781 1045.566406 1053.105469 1045.566406 L 900.414062 1045.566406 C 898.085938 1045.566406 895.832031 1045.847656 893.652344 1046.339844 C 886.8125 1047.113281 876.675781 1049.589844 865.480469 1056.289062 C 843.28125 1069.460938 819.457031 1097.074219 801.746094 1150.011719 C 783.921875 1203.1875 771.101562 1282.871094 771.058594 1406.660156 C 771.058594 1424.121094 785.214844 1438.28125 802.671875 1438.28125 C 820.140625 1438.28125 834.289062 1424.121094 834.289062 1406.660156 C 834.125 1265.109375 852.335938 1188.011719 869.871094 1148.949219 L 869.871094 1309.847656 L 843.945312 1730.246094 C 842.28125 1757.183594 862.777344 1780.367188 889.699219 1782.023438 C 916.632812 1783.683594 939.820312 1763.203125 941.484375 1736.269531 L 963.640625 1376.933594 L 989.867188 1376.933594 L 1012.023438 1736.269531 C 1013.683594 1763.203125 1036.871094 1783.683594 1063.804688 1782.023438 C 1090.726562 1780.367188 1111.222656 1757.1875 1109.558594 1730.246094 L 1083.636719 1309.847656 L 1083.636719 1149.109375 C 1088.210938 1159.304688 1092.863281 1172.015625 1097.210938 1187.929688 C 1109.527344 1232.785156 1119.238281 1302.230469 1119.207031 1406.667969 C 1119.207031 1424.125 1133.367188 1438.285156 1150.832031 1438.285156 C 1168.285156 1438.285156 1182.449219 1424.125 1182.449219 1406.667969 C 1182.265625 1241.65625 1159.875 1154.855469 1132.289062 1105.113281 C 1118.46875 1080.367188 1102.695312 1064.96875 1088.027344 1056.28125 Z M 1088.027344 1056.28125 " fill-opacity="1" fill-rule="nonzero"/></g></svg>