<svg xmlns="http://www.w3.org/2000/svg" xmlns:xlink="http://www.w3.org/1999/xlink" width="2379" zoomAndPan="magnify" viewBox="0 0 1784.88 1784.99993" height="2379" preserveAspectRatio="xMidYMid meet" version="1.0"><defs><clipPath id="581633a83f"><path d="M 351.199219 0.0585938 L 1406.378906 0.0585938 L 1406.378906 1784.9375 L 351.199219 1784.9375 Z M 351.199219 0.0585938 " clip-rule="nonzero"/></clipPath><clipPath id="96c8dea876"><path d="M 969 0.0585938 L 985 0.0585938 L 985 421 L 969 421 Z M 969 0.0585938 " clip-rule="nonzero"/></clipPath><clipPath id="b342607fbd"><path d="M 771.058594 643 L 1182.777344 643 L 1182.777344 1381 L 771.058594 1381 Z M 771.058594 643 " clip-rule="nonzero"/></clipPath></defs><g clip-path="url(#581633a83f)"><path fill="#000000" d="M 351.222656 1784.570312 L 932.589844 1.046875 L 1041.296875 0.441406 C 1163.007812 594.613281 1284.71875 1188.785156 1406.429688 1782.953125 L 351.222656 1784.570312 " fill-opacity="1" fill-rule="nonzero"/></g><path fill="#ffffff" d="M 967.011719 831.304688 L 967.011719 772.808594 L 986.511719 772.808594 L 986.511719 831.304688 M 967.011719 753.308594 L 967.011719 694.8125 L 986.511719 694.8125 L 986.511719 753.308594 M 967.011719 675.316406 L 967.011719 616.820312 L 986.511719 616.820312 L 986.511719 675.316406 M 967.011719 597.320312 L 967.011719 538.824219 L 986.511719 538.824219 L 986.511719 597.320312 M 967.011719 519.324219 L 967.011719 460.828125 L 986.511719 460.828125 L 986.511719 519.324219 " fill-opacity="1" fill-rule="nonzero"/><g clip-path="url(#96c8dea876)"><path fill="#ffffff" d="M 969.261719 420.792969 L 969.261719 375.796875 L 984.261719 375.796875 L 984.261719 420.792969 M 969.261719 360.796875 L 969.261719 315.800781 L 984.261719 315.800781 L 984.261719 360.796875 M 969.261719 300.800781 L 969.261719 255.804688 L 984.261719 255.804688 L 984.261719 300.800781 M 969.261719 240.804688 L 969.261719 195.808594 L 984.261719 195.808594 L 984.261719 240.804688 M 969.261719 180.808594 L 969.261719 135.8125 L 984.261719 135.8125 L 984.261719 180.808594 M 969.261719 120.8125 L 969.261719 75.816406 L 984.261719 75.816406 L 984.261719 120.8125 M 969.261719 60.816406 L 969.261719 15.820312 L 984.261719 15.820312 L 984.261719 60.816406 M 969.261719 0.820312 L 969.261719 0.0585938 L 984.261719 0.0585938 L 984.261719 0.820312 " fill-opacity="1" fill-rule="nonzero"/></g><path fill="#ffffff" d="M 969.261719 1252.039062 L 969.261719 1207.042969 L 984.261719 1207.042969 L 984.261719 1252.039062 M 969.261719 1192.042969 L 969.261719 1147.046875 L 984.261719 1147.046875 L 984.261719 1192.042969 M 969.261719 1132.046875 L 969.261719 1087.050781 L 984.261719 1087.050781 L 984.261719 1132.046875 M 969.261719 1072.050781 L 969.261719 1027.054688 L 984.261719 1027.054688 L 984.261719 1072.050781 M 969.261719 1012.054688 L 969.261719 967.058594 L 984.261719 967.058594 L 984.261719 1012.054688 M 969.261719 952.058594 L 969.261719 907.0625 L 984.261719 907.0625 L 984.261719 952.058594 M 969.261719 892.0625 L 969.261719 847.066406 L 984.261719 847.066406 L 984.261719 892.0625 M 969.261719 832.066406 L 969.261719 831.304688 L 984.261719 831.304688 L 984.261719 832.066406 " fill-opacity="1" fill-rule="nonzero"/><path fill="#ffffff" d="M 969.261719 1672.773438 L 969.261719 1627.777344 L 984.261719 1627.777344 L 984.261719 1672.773438 M 969.261719 1612.777344 L 969.261719 1567.78125 L 984.261719 1567.78125 L 984.261719 1612.777344 M 969.261719 1552.78125 L 969.261719 1507.785156 L 984.261719 1507.785156 L 984.261719 1552.78125 M 969.261719 1492.785156 L 969.261719 1447.789062 L 984.261719 1447.789062 L 984.261719 1492.785156 M 969.261719 1432.789062 L 969.261719 1387.792969 L 984.261719 1387.792969 L 984.261719 1432.789062 M 969.261719 1372.792969 L 969.261719 1327.796875 L 984.261719 1327.796875 L 984.261719 1372.792969 M 969.261719 1312.796875 L 969.261719 1267.800781 L 984.261719 1267.800781 L 984.261719 1312.796875 M 969.261719 1252.800781 L 969.261719 1252.039062 L 984.261719 1252.039062 L 984.261719 1252.800781 " fill-opacity="1" fill-rule="nonzero"/><path fill="#e9bc06" d="M 996.929688 441.9375 C 998.34375 442.269531 999.753906 442.632812 1001.152344 443.03125 C 1002.550781 443.429688 1003.941406 443.863281 1005.316406 444.332031 C 1006.695312 444.800781 1008.0625 445.300781 1009.414062 445.835938 C 1010.769531 446.367188 1012.105469 446.9375 1013.433594 447.535156 C 1014.757812 448.136719 1016.066406 448.769531 1017.363281 449.433594 C 1018.65625 450.097656 1019.933594 450.792969 1021.195312 451.519531 C 1022.453125 452.246094 1023.695312 453.003906 1024.917969 453.792969 C 1026.140625 454.582031 1027.34375 455.398438 1028.527344 456.246094 C 1029.710938 457.09375 1030.871094 457.96875 1032.011719 458.871094 C 1033.152344 459.777344 1034.269531 460.707031 1035.363281 461.667969 C 1036.457031 462.625 1037.527344 463.613281 1038.574219 464.625 C 1039.617188 465.632812 1040.640625 466.671875 1041.632812 467.734375 C 1042.628906 468.792969 1043.597656 469.878906 1044.539062 470.988281 C 1045.480469 472.097656 1046.394531 473.230469 1047.28125 474.382812 C 1048.164062 475.539062 1049.023438 476.710938 1049.851562 477.910156 C 1050.679688 479.105469 1051.476562 480.320312 1052.246094 481.554688 C 1053.015625 482.792969 1053.753906 484.042969 1054.460938 485.316406 C 1055.167969 486.585938 1055.84375 487.875 1056.488281 489.179688 C 1057.128906 490.484375 1057.742188 491.804688 1058.320312 493.140625 C 1058.898438 494.472656 1059.445312 495.824219 1059.960938 497.183594 C 1060.472656 498.546875 1060.953125 499.917969 1061.398438 501.304688 C 1061.84375 502.6875 1062.253906 504.085938 1062.628906 505.488281 C 1063.007812 506.894531 1063.347656 508.308594 1063.65625 509.730469 C 1063.964844 511.152344 1064.238281 512.582031 1064.472656 514.015625 C 1064.710938 515.453125 1064.914062 516.890625 1065.082031 518.339844 C 1065.246094 519.785156 1065.378906 521.230469 1065.472656 522.683594 C 1065.570312 524.136719 1065.628906 525.589844 1065.652344 527.042969 C 1065.679688 528.5 1065.667969 529.953125 1065.621094 531.40625 C 1065.570312 532.859375 1065.488281 534.3125 1065.371094 535.761719 C 1065.253906 537.214844 1065.097656 538.660156 1064.910156 540.101562 C 1064.71875 541.542969 1064.496094 542.980469 1064.234375 544.414062 C 1063.972656 545.84375 1063.679688 547.269531 1063.347656 548.6875 C 1063.019531 550.101562 1062.65625 551.511719 1062.253906 552.910156 C 1061.855469 554.308594 1061.421875 555.699219 1060.957031 557.074219 C 1060.488281 558.453125 1059.988281 559.820312 1059.453125 561.171875 C 1058.917969 562.527344 1058.351562 563.863281 1057.75 565.191406 C 1057.152344 566.515625 1056.519531 567.824219 1055.855469 569.121094 C 1055.191406 570.414062 1054.496094 571.691406 1053.769531 572.953125 C 1053.039062 574.210938 1052.28125 575.453125 1051.496094 576.675781 C 1050.707031 577.898438 1049.890625 579.101562 1049.042969 580.285156 C 1048.195312 581.46875 1047.320312 582.628906 1046.414062 583.769531 C 1045.511719 584.910156 1044.578125 586.027344 1043.621094 587.121094 C 1042.660156 588.214844 1041.675781 589.285156 1040.664062 590.332031 C 1039.652344 591.375 1038.617188 592.394531 1037.554688 593.390625 C 1036.492188 594.386719 1035.40625 595.355469 1034.300781 596.296875 C 1033.191406 597.238281 1032.058594 598.152344 1030.902344 599.039062 C 1029.75 599.921875 1028.574219 600.78125 1027.378906 601.609375 C 1026.183594 602.4375 1024.96875 603.234375 1023.730469 604.003906 C 1022.496094 604.773438 1021.242188 605.511719 1019.972656 606.21875 C 1018.699219 606.925781 1017.410156 607.601562 1016.105469 608.246094 C 1014.800781 608.886719 1013.484375 609.5 1012.148438 610.078125 C 1010.8125 610.65625 1009.464844 611.203125 1008.105469 611.71875 C 1006.742188 612.230469 1005.367188 612.707031 1003.984375 613.15625 C 1002.597656 613.601562 1001.203125 614.011719 999.796875 614.386719 C 998.394531 614.765625 996.980469 615.105469 995.558594 615.414062 C 994.136719 615.722656 992.707031 615.996094 991.269531 616.230469 C 989.835938 616.46875 988.394531 616.671875 986.949219 616.839844 C 985.503906 617.003906 984.054688 617.136719 982.605469 617.230469 C 981.152344 617.328125 979.699219 617.386719 978.246094 617.410156 C 976.789062 617.433594 975.335938 617.425781 973.882812 617.375 C 972.425781 617.328125 970.976562 617.246094 969.523438 617.128906 C 968.074219 617.011719 966.628906 616.855469 965.1875 616.667969 C 963.742188 616.476562 962.304688 616.253906 960.875 615.992188 C 959.441406 615.730469 958.019531 615.4375 956.601562 615.105469 C 955.183594 614.777344 953.777344 614.414062 952.378906 614.011719 C 950.980469 613.613281 949.589844 613.179688 948.210938 612.714844 C 946.835938 612.246094 945.46875 611.746094 944.117188 611.210938 C 942.761719 610.675781 941.421875 610.109375 940.097656 609.507812 C 938.773438 608.910156 937.460938 608.277344 936.167969 607.613281 C 934.875 606.949219 933.597656 606.253906 932.335938 605.527344 C 931.074219 604.796875 929.835938 604.039062 928.613281 603.253906 C 927.386719 602.464844 926.183594 601.648438 925.003906 600.800781 C 923.820312 599.953125 922.660156 599.078125 921.519531 598.171875 C 920.378906 597.269531 919.261719 596.335938 918.167969 595.378906 C 917.074219 594.417969 916.003906 593.433594 914.957031 592.421875 C 913.910156 591.410156 912.890625 590.375 911.898438 589.3125 C 910.902344 588.25 909.933594 587.164062 908.992188 586.058594 C 908.050781 584.949219 907.136719 583.816406 906.25 582.660156 C 905.363281 581.507812 904.507812 580.332031 903.679688 579.136719 C 902.851562 577.941406 902.050781 576.726562 901.285156 575.488281 C 900.515625 574.253906 899.777344 573 899.070312 571.730469 C 898.363281 570.457031 897.6875 569.167969 897.042969 567.863281 C 896.398438 566.558594 895.789062 565.242188 895.207031 563.90625 C 894.628906 562.570312 894.082031 561.222656 893.570312 559.863281 C 893.058594 558.5 892.578125 557.125 892.132812 555.742188 C 891.6875 554.355469 891.277344 552.960938 890.898438 551.554688 C 890.523438 550.152344 890.179688 548.738281 889.875 547.316406 C 889.566406 545.894531 889.292969 544.464844 889.054688 543.027344 C 888.816406 541.59375 888.617188 540.152344 888.449219 538.707031 C 888.28125 537.261719 888.152344 535.8125 888.054688 534.363281 C 887.960938 532.910156 887.902344 531.457031 887.875 530.003906 C 887.851562 528.546875 887.863281 527.09375 887.910156 525.640625 C 887.957031 524.183594 888.042969 522.734375 888.160156 521.28125 C 888.277344 519.832031 888.433594 518.386719 888.621094 516.945312 C 888.8125 515.5 889.035156 514.0625 889.296875 512.632812 C 889.554688 511.199219 889.851562 509.777344 890.179688 508.359375 C 890.511719 506.941406 890.875 505.535156 891.273438 504.136719 C 891.671875 502.738281 892.105469 501.347656 892.574219 499.96875 C 893.042969 498.59375 893.542969 497.226562 894.078125 495.875 C 894.609375 494.519531 895.179688 493.179688 895.777344 491.855469 C 896.378906 490.53125 897.011719 489.21875 897.675781 487.925781 C 898.339844 486.632812 899.035156 485.355469 899.761719 484.09375 C 900.488281 482.832031 901.246094 481.59375 902.035156 480.367188 C 902.824219 479.144531 903.640625 477.941406 904.488281 476.761719 C 905.335938 475.578125 906.210938 474.414062 907.113281 473.277344 C 908.019531 472.136719 908.949219 471.019531 909.910156 469.925781 C 910.867188 468.832031 911.855469 467.761719 912.867188 466.714844 C 913.875 465.667969 914.914062 464.648438 915.976562 463.652344 C 917.035156 462.660156 918.121094 461.691406 919.230469 460.75 C 920.339844 459.808594 921.472656 458.894531 922.625 458.007812 C 923.78125 457.121094 924.957031 456.265625 926.152344 455.4375 C 927.347656 454.609375 928.5625 453.808594 929.796875 453.042969 C 931.035156 452.273438 932.285156 451.535156 933.558594 450.828125 C 934.832031 450.121094 936.117188 449.445312 937.421875 448.800781 C 938.726562 448.15625 940.046875 447.546875 941.382812 446.964844 C 942.71875 446.386719 944.066406 445.839844 945.425781 445.328125 C 946.789062 444.816406 948.160156 444.335938 949.546875 443.890625 C 950.929688 443.445312 952.328125 443.035156 953.730469 442.65625 C 955.136719 442.28125 956.550781 441.9375 957.972656 441.632812 C 959.394531 441.324219 960.824219 441.050781 962.257812 440.8125 C 963.695312 440.574219 965.136719 440.375 966.582031 440.207031 C 968.027344 440.039062 969.472656 439.910156 970.925781 439.8125 C 972.378906 439.71875 973.832031 439.660156 975.285156 439.632812 C 976.742188 439.609375 978.195312 439.621094 979.648438 439.667969 C 981.101562 439.714844 982.554688 439.796875 984.003906 439.917969 C 985.457031 440.035156 986.902344 440.191406 988.34375 440.378906 C 989.785156 440.570312 991.222656 440.792969 992.65625 441.054688 C 994.085938 441.3125 995.511719 441.609375 996.929688 441.9375 Z M 996.929688 441.9375 " fill-opacity="1" fill-rule="nonzero"/><g clip-path="url(#b342607fbd)"><path fill="#e9bc06" d="M 1088.027344 654.625 C 1076.828125 647.921875 1066.6875 645.453125 1059.847656 644.679688 C 1057.671875 644.1875 1055.425781 643.90625 1053.105469 643.90625 L 900.414062 643.90625 C 898.085938 643.90625 895.832031 644.191406 893.652344 644.683594 C 886.8125 645.457031 876.675781 647.929688 865.480469 654.632812 C 843.28125 667.800781 819.457031 695.417969 801.746094 748.355469 C 783.921875 801.53125 771.101562 881.214844 771.058594 1005.003906 C 771.058594 1022.464844 785.214844 1036.625 802.671875 1036.625 C 820.140625 1036.625 834.289062 1022.464844 834.289062 1005.003906 C 834.125 863.449219 852.335938 786.355469 869.871094 747.292969 L 869.871094 908.191406 L 843.945312 1328.589844 C 842.28125 1355.523438 862.777344 1378.707031 889.699219 1380.367188 C 916.632812 1382.027344 939.820312 1361.542969 941.484375 1334.609375 L 963.640625 975.277344 L 989.867188 975.277344 L 1012.023438 1334.609375 C 1013.683594 1361.542969 1036.871094 1382.027344 1063.804688 1380.367188 C 1090.726562 1378.707031 1111.222656 1355.527344 1109.558594 1328.589844 L 1083.636719 908.191406 L 1083.636719 747.449219 C 1088.210938 757.648438 1092.863281 770.355469 1097.210938 786.269531 C 1109.527344 831.125 1119.238281 900.570312 1119.207031 1005.011719 C 1119.207031 1022.46875 1133.367188 1036.628906 1150.832031 1036.628906 C 1168.285156 1036.628906 1182.449219 1022.46875 1182.449219 1005.011719 C 1182.265625 840 1159.875 753.195312 1132.289062 703.457031 C 1118.46875 678.707031 1102.695312 663.3125 1088.027344 654.625 Z M 1088.027344 654.625 " fill-opacity="1" fill-rule="nonzero"/></g></svg>