<svg xmlns="http://www.w3.org/2000/svg" xmlns:xlink="http://www.w3.org/1999/xlink" width="2379" zoomAndPan="magnify" viewBox="0 0 1784.88 1784.99993" height="2379" preserveAspectRatio="xMidYMid meet" version="1.0"><defs><clipPath id="17f921a7d8"><path d="M 351.199219 0.0585938 L 1406.378906 0.0585938 L 1406.378906 1784.9375 L 351.199219 1784.9375 Z M 351.199219 0.0585938 " clip-rule="nonzero"/></clipPath><clipPath id="deaca1a2d3"><path d="M 969 0.0585938 L 985 0.0585938 L 985 421 L 969 421 Z M 969 0.0585938 " clip-rule="nonzero"/></clipPath><clipPath id="090d5e86fc"><path d="M 771.058594 867 L 1182.777344 867 L 1182.777344 1604 L 771.058594 1604 Z M 771.058594 867 " clip-rule="nonzero"/></clipPath></defs><g clip-path="url(#17f921a7d8)"><path fill="#000000" d="M 351.222656 1784.570312 L 932.589844 1.046875 L 1041.296875 0.441406 C 1163.007812 594.613281 1284.71875 1188.785156 1406.429688 1782.953125 L 351.222656 1784.570312 " fill-opacity="1" fill-rule="nonzero"/></g><path fill="#ffffff" d="M 967.011719 831.304688 L 967.011719 772.808594 L 986.511719 772.808594 L 986.511719 831.304688 M 967.011719 753.308594 L 967.011719 694.8125 L 986.511719 694.8125 L 986.511719 753.308594 M 967.011719 675.316406 L 967.011719 616.820312 L 986.511719 616.820312 L 986.511719 675.316406 M 967.011719 597.320312 L 967.011719 538.824219 L 986.511719 538.824219 L 986.511719 597.320312 M 967.011719 519.324219 L 967.011719 460.828125 L 986.511719 460.828125 L 986.511719 519.324219 " fill-opacity="1" fill-rule="nonzero"/><g clip-path="url(#deaca1a2d3)"><path fill="#ffffff" d="M 969.261719 420.792969 L 969.261719 375.796875 L 984.261719 375.796875 L 984.261719 420.792969 M 969.261719 360.796875 L 969.261719 315.800781 L 984.261719 315.800781 L 984.261719 360.796875 M 969.261719 300.800781 L 969.261719 255.804688 L 984.261719 255.804688 L 984.261719 300.800781 M 969.261719 240.804688 L 969.261719 195.808594 L 984.261719 195.808594 L 984.261719 240.804688 M 969.261719 180.808594 L 969.261719 135.8125 L 984.261719 135.8125 L 984.261719 180.808594 M 969.261719 120.8125 L 969.261719 75.816406 L 984.261719 75.816406 L 984.261719 120.8125 M 969.261719 60.816406 L 969.261719 15.820312 L 984.261719 15.820312 L 984.261719 60.816406 M 969.261719 0.820312 L 969.261719 0.0585938 L 984.261719 0.0585938 L 984.261719 0.820312 " fill-opacity="1" fill-rule="nonzero"/></g><path fill="#ffffff" d="M 969.261719 1252.039062 L 969.261719 1207.042969 L 984.261719 1207.042969 L 984.261719 1252.039062 M 969.261719 1192.042969 L 969.261719 1147.046875 L 984.261719 1147.046875 L 984.261719 1192.042969 M 969.261719 1132.046875 L 969.261719 1087.050781 L 984.261719 1087.050781 L 984.261719 1132.046875 M 969.261719 1072.050781 L 969.261719 1027.054688 L 984.261719 1027.054688 L 984.261719 1072.050781 M 969.261719 1012.054688 L 969.261719 967.058594 L 984.261719 967.058594 L 984.261719 1012.054688 M 969.261719 952.058594 L 969.261719 907.0625 L 984.261719 907.0625 L 984.261719 952.058594 M 969.261719 892.0625 L 969.261719 847.066406 L 984.261719 847.066406 L 984.261719 892.0625 M 969.261719 832.066406 L 969.261719 831.304688 L 984.261719 831.304688 L 984.261719 832.066406 " fill-opacity="1" fill-rule="nonzero"/><path fill="#ffffff" d="M 969.261719 1672.773438 L 969.261719 1627.777344 L 984.261719 1627.777344 L 984.261719 1672.773438 M 969.261719 1612.777344 L 969.261719 1567.78125 L 984.261719 1567.78125 L 984.261719 1612.777344 M 969.261719 1552.78125 L 969.261719 1507.785156 L 984.261719 1507.785156 L 984.261719 1552.78125 M 969.261719 1492.785156 L 969.261719 1447.789062 L 984.261719 1447.789062 L 984.261719 1492.785156 M 969.261719 1432.789062 L 969.261719 1387.792969 L 984.261719 1387.792969 L 984.261719 1432.789062 M 969.261719 1372.792969 L 969.261719 1327.796875 L 984.261719 1327.796875 L 984.261719 1372.792969 M 969.261719 1312.796875 L 969.261719 1267.800781 L 984.261719 1267.800781 L 984.261719 1312.796875 M 969.261719 1252.800781 L 969.261719 1252.039062 L 984.261719 1252.039062 L 984.261719 1252.800781 " fill-opacity="1" fill-rule="nonzero"/><path fill="#e9bc06" d="M 996.929688 665.121094 C 998.34375 665.449219 999.753906 665.816406 1001.152344 666.214844 C 1002.550781 666.613281 1003.941406 667.046875 1005.316406 667.515625 C 1006.695312 667.980469 1008.0625 668.480469 1009.414062 669.015625 C 1010.769531 669.550781 1012.105469 670.117188 1013.433594 670.71875 C 1014.757812 671.316406 1016.066406 671.949219 1017.363281 672.613281 C 1018.65625 673.277344 1019.933594 673.976562 1021.195312 674.703125 C 1022.453125 675.429688 1023.695312 676.1875 1024.917969 676.976562 C 1026.140625 677.761719 1027.34375 678.582031 1028.527344 679.425781 C 1029.710938 680.273438 1030.871094 681.148438 1032.011719 682.054688 C 1033.152344 682.957031 1034.269531 683.890625 1035.363281 684.847656 C 1036.457031 685.808594 1037.527344 686.792969 1038.574219 687.804688 C 1039.617188 688.816406 1040.640625 689.851562 1041.632812 690.914062 C 1042.628906 691.976562 1043.597656 693.0625 1044.539062 694.171875 C 1045.480469 695.28125 1046.394531 696.410156 1047.28125 697.566406 C 1048.164062 698.71875 1049.023438 699.894531 1049.851562 701.089844 C 1050.679688 702.285156 1051.476562 703.503906 1052.246094 704.738281 C 1053.015625 705.972656 1053.753906 707.226562 1054.460938 708.5 C 1055.167969 709.769531 1055.84375 711.058594 1056.488281 712.363281 C 1057.128906 713.667969 1057.742188 714.988281 1058.320312 716.320312 C 1058.898438 717.65625 1059.445312 719.003906 1059.960938 720.367188 C 1060.472656 721.726562 1060.953125 723.101562 1061.398438 724.484375 C 1061.84375 725.871094 1062.253906 727.265625 1062.628906 728.671875 C 1063.007812 730.078125 1063.347656 731.492188 1063.65625 732.914062 C 1063.964844 734.335938 1064.238281 735.761719 1064.472656 737.199219 C 1064.710938 738.632812 1064.914062 740.074219 1065.082031 741.519531 C 1065.246094 742.964844 1065.378906 744.414062 1065.472656 745.867188 C 1065.570312 747.316406 1065.628906 748.769531 1065.652344 750.226562 C 1065.679688 751.679688 1065.667969 753.132812 1065.621094 754.589844 C 1065.570312 756.042969 1065.488281 757.496094 1065.371094 758.945312 C 1065.253906 760.394531 1065.097656 761.839844 1064.910156 763.285156 C 1064.71875 764.726562 1064.496094 766.164062 1064.234375 767.59375 C 1063.972656 769.027344 1063.679688 770.449219 1063.347656 771.867188 C 1063.019531 773.285156 1062.65625 774.691406 1062.253906 776.09375 C 1061.855469 777.492188 1061.421875 778.878906 1060.957031 780.257812 C 1060.488281 781.636719 1059.988281 783 1059.453125 784.355469 C 1058.917969 785.707031 1058.351562 787.046875 1057.75 788.371094 C 1057.152344 789.699219 1056.519531 791.007812 1055.855469 792.300781 C 1055.191406 793.597656 1054.496094 794.875 1053.769531 796.132812 C 1053.039062 797.394531 1052.28125 798.636719 1051.496094 799.859375 C 1050.707031 801.082031 1049.890625 802.285156 1049.042969 803.46875 C 1048.195312 804.648438 1047.320312 805.8125 1046.414062 806.953125 C 1045.511719 808.089844 1044.578125 809.207031 1043.621094 810.300781 C 1042.660156 811.394531 1041.675781 812.464844 1040.664062 813.511719 C 1039.652344 814.558594 1038.617188 815.578125 1037.554688 816.574219 C 1036.492188 817.566406 1035.40625 818.535156 1034.300781 819.476562 C 1033.191406 820.417969 1032.058594 821.332031 1030.902344 822.21875 C 1029.75 823.105469 1028.574219 823.960938 1027.378906 824.789062 C 1026.183594 825.617188 1024.96875 826.417969 1023.730469 827.1875 C 1022.496094 827.953125 1021.242188 828.691406 1019.972656 829.398438 C 1018.699219 830.105469 1017.410156 830.78125 1016.105469 831.425781 C 1014.800781 832.070312 1013.484375 832.683594 1012.148438 833.261719 C 1010.8125 833.839844 1009.464844 834.386719 1008.105469 834.898438 C 1006.742188 835.410156 1005.367188 835.890625 1003.984375 836.335938 C 1002.597656 836.78125 1001.203125 837.191406 999.796875 837.570312 C 998.394531 837.945312 996.980469 838.289062 995.558594 838.597656 C 994.136719 838.902344 992.707031 839.175781 991.269531 839.414062 C 989.835938 839.652344 988.394531 839.851562 986.949219 840.019531 C 985.503906 840.1875 984.054688 840.316406 982.605469 840.414062 C 981.152344 840.507812 979.699219 840.570312 978.246094 840.59375 C 976.789062 840.617188 975.335938 840.605469 973.882812 840.558594 C 972.425781 840.511719 970.976562 840.429688 969.523438 840.308594 C 968.074219 840.191406 966.628906 840.039062 965.1875 839.847656 C 963.742188 839.660156 962.304688 839.433594 960.875 839.171875 C 959.441406 838.914062 958.019531 838.617188 956.601562 838.289062 C 955.183594 837.957031 953.777344 837.59375 952.378906 837.195312 C 950.980469 836.796875 949.589844 836.363281 948.210938 835.894531 C 946.835938 835.429688 945.46875 834.925781 944.117188 834.394531 C 942.761719 833.859375 941.421875 833.292969 940.097656 832.691406 C 938.773438 832.089844 937.460938 831.460938 936.167969 830.792969 C 934.875 830.128906 933.597656 829.433594 932.335938 828.707031 C 931.074219 827.980469 929.835938 827.222656 928.613281 826.433594 C 927.386719 825.648438 926.183594 824.828125 925.003906 823.980469 C 923.820312 823.132812 922.660156 822.257812 921.519531 821.355469 C 920.378906 820.449219 919.261719 819.519531 918.167969 818.558594 C 917.074219 817.601562 916.003906 816.617188 914.957031 815.605469 C 913.910156 814.59375 912.890625 813.554688 911.898438 812.496094 C 910.902344 811.433594 909.933594 810.347656 908.992188 809.238281 C 908.050781 808.128906 907.136719 806.996094 906.25 805.84375 C 905.363281 804.691406 904.507812 803.515625 903.679688 802.320312 C 902.851562 801.121094 902.050781 799.90625 901.285156 798.671875 C 900.515625 797.4375 899.777344 796.183594 899.070312 794.910156 C 898.363281 793.640625 897.6875 792.351562 897.042969 791.046875 C 896.398438 789.742188 895.789062 788.421875 895.207031 787.085938 C 894.628906 785.753906 894.082031 784.40625 893.570312 783.042969 C 893.058594 781.679688 892.578125 780.308594 892.132812 778.921875 C 891.6875 777.539062 891.277344 776.144531 890.898438 774.738281 C 890.523438 773.332031 890.179688 771.917969 889.875 770.496094 C 889.566406 769.074219 889.292969 767.644531 889.054688 766.210938 C 888.816406 764.773438 888.617188 763.335938 888.449219 761.890625 C 888.28125 760.445312 888.152344 758.996094 888.054688 757.542969 C 887.960938 756.09375 887.902344 754.640625 887.875 753.183594 C 887.851562 751.730469 887.863281 750.273438 887.910156 748.820312 C 887.957031 747.367188 888.042969 745.914062 888.160156 744.464844 C 888.277344 743.015625 888.433594 741.566406 888.621094 740.125 C 888.8125 738.683594 889.035156 737.246094 889.296875 735.8125 C 889.554688 734.382812 889.851562 732.957031 890.179688 731.542969 C 890.511719 730.125 890.875 728.714844 891.273438 727.316406 C 891.671875 725.917969 892.105469 724.53125 892.574219 723.152344 C 893.042969 721.773438 893.542969 720.410156 894.078125 719.054688 C 894.609375 717.703125 895.179688 716.363281 895.777344 715.039062 C 896.378906 713.710938 897.011719 712.402344 897.675781 711.109375 C 898.339844 709.8125 899.035156 708.535156 899.761719 707.277344 C 900.488281 706.015625 901.246094 704.773438 902.035156 703.550781 C 902.824219 702.328125 903.640625 701.125 904.488281 699.941406 C 905.335938 698.757812 906.210938 697.597656 907.113281 696.457031 C 908.019531 695.316406 908.949219 694.199219 909.910156 693.105469 C 910.867188 692.011719 911.855469 690.941406 912.867188 689.898438 C 913.875 688.851562 914.914062 687.832031 915.976562 686.835938 C 917.035156 685.839844 918.121094 684.871094 919.230469 683.929688 C 920.339844 682.988281 921.472656 682.074219 922.625 681.191406 C 923.78125 680.304688 924.957031 679.445312 926.152344 678.617188 C 927.347656 677.789062 928.5625 676.992188 929.796875 676.222656 C 931.035156 675.453125 932.285156 674.714844 933.558594 674.007812 C 934.832031 673.300781 936.117188 672.625 937.421875 671.984375 C 938.726562 671.339844 940.046875 670.726562 941.382812 670.148438 C 942.71875 669.570312 944.066406 669.023438 945.425781 668.511719 C 946.789062 667.996094 948.160156 667.519531 949.546875 667.074219 C 950.929688 666.628906 952.328125 666.214844 953.730469 665.839844 C 955.136719 665.460938 956.550781 665.121094 957.972656 664.8125 C 959.394531 664.503906 960.824219 664.234375 962.257812 663.996094 C 963.695312 663.757812 965.136719 663.554688 966.582031 663.390625 C 968.027344 663.222656 969.472656 663.089844 970.925781 662.996094 C 972.378906 662.898438 973.832031 662.839844 975.285156 662.816406 C 976.742188 662.792969 978.195312 662.804688 979.648438 662.851562 C 981.101562 662.898438 982.554688 662.980469 984.003906 663.097656 C 985.457031 663.21875 986.902344 663.371094 988.34375 663.5625 C 989.785156 663.75 991.222656 663.976562 992.65625 664.234375 C 994.085938 664.496094 995.511719 664.789062 996.929688 665.121094 Z M 996.929688 665.121094 " fill-opacity="1" fill-rule="nonzero"/><g clip-path="url(#090d5e86fc)"><path fill="#e9bc06" d="M 1088.027344 877.808594 C 1076.828125 871.105469 1066.6875 868.632812 1059.847656 867.859375 C 1057.671875 867.371094 1055.425781 867.089844 1053.105469 867.089844 L 900.414062 867.089844 C 898.085938 867.089844 895.832031 867.375 893.652344 867.863281 C 886.8125 868.636719 876.675781 871.113281 865.480469 877.816406 C 843.28125 890.984375 819.457031 918.601562 801.746094 971.539062 C 783.921875 1024.710938 771.101562 1104.394531 771.058594 1228.1875 C 771.058594 1245.644531 785.214844 1259.804688 802.671875 1259.804688 C 820.140625 1259.804688 834.289062 1245.644531 834.289062 1228.1875 C 834.125 1086.632812 852.335938 1009.535156 869.871094 970.472656 L 869.871094 1131.371094 L 843.945312 1551.769531 C 842.28125 1578.707031 862.777344 1601.890625 889.699219 1603.550781 C 916.632812 1605.210938 939.820312 1584.726562 941.484375 1557.792969 L 963.640625 1198.457031 L 989.867188 1198.457031 L 1012.023438 1557.792969 C 1013.683594 1584.726562 1036.871094 1605.210938 1063.804688 1603.550781 C 1090.726562 1601.890625 1111.222656 1578.710938 1109.558594 1551.769531 L 1083.636719 1131.371094 L 1083.636719 970.632812 C 1088.210938 980.828125 1092.863281 993.539062 1097.210938 1009.453125 C 1109.527344 1054.308594 1119.238281 1123.753906 1119.207031 1228.195312 C 1119.207031 1245.648438 1133.367188 1259.808594 1150.832031 1259.808594 C 1168.285156 1259.808594 1182.449219 1245.648438 1182.449219 1228.195312 C 1182.265625 1063.179688 1159.875 976.378906 1132.289062 926.636719 C 1118.46875 901.890625 1102.695312 886.492188 1088.027344 877.808594 Z M 1088.027344 877.808594 " fill-opacity="1" fill-rule="nonzero"/></g></svg>