<svg xmlns="http://www.w3.org/2000/svg" xmlns:xlink="http://www.w3.org/1999/xlink" width="2379" zoomAndPan="magnify" viewBox="0 0 1784.88 1784.99993" height="2379" preserveAspectRatio="xMidYMid meet" version="1.0"><defs><clipPath id="ea2d31b87d"><path d="M 351.199219 0.0585938 L 1406.378906 0.0585938 L 1406.378906 1784.9375 L 351.199219 1784.9375 Z M 351.199219 0.0585938 " clip-rule="nonzero"/></clipPath><clipPath id="a55091daf0"><path d="M 969 0.0585938 L 985 0.0585938 L 985 421 L 969 421 Z M 969 0.0585938 " clip-rule="nonzero"/></clipPath></defs><g clip-path="url(#ea2d31b87d)"><path fill="#000000" d="M 351.222656 1784.570312 L 932.589844 1.046875 L 1041.296875 0.441406 C 1163.007812 594.613281 1284.71875 1188.785156 1406.429688 1782.953125 L 351.222656 1784.570312 " fill-opacity="1" fill-rule="nonzero"/></g><path fill="#ffffff" d="M 967.011719 892.4375 L 967.011719 833.941406 L 986.511719 833.941406 L 986.511719 892.4375 M 967.011719 814.445312 L 967.011719 755.949219 L 986.511719 755.949219 L 986.511719 814.445312 M 967.011719 736.449219 L 967.011719 677.953125 L 986.511719 677.953125 L 986.511719 736.449219 M 967.011719 658.457031 L 967.011719 599.960938 L 986.511719 599.960938 L 986.511719 658.457031 M 967.011719 580.460938 L 967.011719 521.964844 L 986.511719 521.964844 L 986.511719 580.460938 " fill-opacity="1" fill-rule="nonzero"/><g clip-path="url(#a55091daf0)"><path fill="#ffffff" d="M 969.261719 420.792969 L 969.261719 375.796875 L 984.261719 375.796875 L 984.261719 420.792969 M 969.261719 360.796875 L 969.261719 315.800781 L 984.261719 315.800781 L 984.261719 360.796875 M 969.261719 300.800781 L 969.261719 255.804688 L 984.261719 255.804688 L 984.261719 300.800781 M 969.261719 240.804688 L 969.261719 195.808594 L 984.261719 195.808594 L 984.261719 240.804688 M 969.261719 180.808594 L 969.261719 135.8125 L 984.261719 135.8125 L 984.261719 180.808594 M 969.261719 120.8125 L 969.261719 75.816406 L 984.261719 75.816406 L 984.261719 120.8125 M 969.261719 60.816406 L 969.261719 15.820312 L 984.261719 15.820312 L 984.261719 60.816406 M 969.261719 0.820312 L 969.261719 0.0585938 L 984.261719 0.0585938 L 984.261719 0.820312 " fill-opacity="1" fill-rule="nonzero"/></g><path fill="#e9bc06" d="M 976.960938 891.238281 C 1020.832031 894.789062 1058.835938 862.195312 1062.386719 818.476562 C 1065.785156 774.761719 1033.1875 736.761719 989.316406 733.050781 C 945.910156 729.808594 907.601562 762.402344 904.355469 806.121094 C 900.648438 849.53125 933.242188 887.839844 976.957031 891.238281 " fill-opacity="1" fill-rule="nonzero"/><path fill="#e9bc06" d="M 909.757812 923.832031 C 925.359375 912.863281 944.359375 905.601562 965.523438 907.457031 C 992.710938 909.617188 1014.957031 926.457031 1028.550781 947.003906 L 1108.570312 1105.648438 L 1217.785156 1180.878906 C 1227.054688 1187.984375 1232.921875 1199.570312 1231.6875 1212.238281 C 1230.144531 1231.859375 1212.996094 1246.535156 1193.375 1244.835938 C 1187.351562 1244.527344 1182.410156 1242.054688 1177 1239.582031 L 1057.902344 1157.554688 C 1054.195312 1154.621094 1051.257812 1150.910156 1048.785156 1147.050781 L 1018.972656 1087.578125 L 982.980469 1245.761719 L 1123.707031 1411.980469 C 1126.953125 1417.078125 1129.117188 1423.101562 1130.351562 1429.125 L 1168.351562 1629.792969 C 1168.042969 1634.273438 1168.660156 1637.054688 1168.351562 1640.605469 C 1166.1875 1670.574219 1140.238281 1692.203125 1110.730469 1690.039062 C 1086.171875 1688.03125 1068.097656 1669.957031 1062.378906 1647.558594 L 1026.542969 1459.558594 L 912.074219 1334.433594 L 885.65625 1456.316406 C 884.730469 1462.03125 877.160156 1474.082031 875 1478.871094 L 765.164062 1663.933594 C 754.351562 1680.769531 735.96875 1691.585938 715.117188 1689.886719 C 685.300781 1687.722656 663.214844 1661.773438 665.683594 1632.113281 C 666.300781 1623.769531 669.855469 1614.964844 672.945312 1608.941406 L 774.898438 1437.933594 L 860.015625 1061.011719 L 804.40625 1105.960938 L 774.898438 1240.203125 C 770.882812 1257.507812 755.28125 1271.5625 736.898438 1270.171875 C 716.972656 1268.628906 702.449219 1251.480469 703.996094 1231.554688 C 703.996094 1230.007812 704.304688 1228.464844 704.613281 1226.609375 L 739.523438 1070.125 C 741.6875 1063.480469 745.242188 1057.457031 750.492188 1052.824219 L 909.757812 923.835938 Z M 909.757812 923.832031 " fill-opacity="1" fill-rule="nonzero"/></svg>