<svg xmlns="http://www.w3.org/2000/svg" xmlns:xlink="http://www.w3.org/1999/xlink" width="1024" zoomAndPan="magnify" viewBox="0 0 768 767.999994" height="1024" preserveAspectRatio="xMidYMid meet" version="1.0"><defs><clipPath id="6e9254df5a"><path d="M 219.839844 178 L 548.339844 178 L 548.339844 766 L 219.839844 766 Z M 219.839844 178 " clip-rule="nonzero"/></clipPath></defs><path fill="#e9bc06" d="M 400.195312 16.878906 C 401.324219 17.144531 402.449219 17.433594 403.566406 17.753906 C 404.683594 18.070312 405.792969 18.417969 406.894531 18.789062 C 407.992188 19.164062 409.082031 19.5625 410.164062 19.988281 C 411.246094 20.414062 412.3125 20.867188 413.371094 21.347656 C 414.429688 21.824219 415.476562 22.328125 416.511719 22.859375 C 417.542969 23.390625 418.5625 23.945312 419.570312 24.527344 C 420.574219 25.105469 421.566406 25.710938 422.542969 26.339844 C 423.519531 26.96875 424.480469 27.621094 425.425781 28.296875 C 426.371094 28.972656 427.296875 29.671875 428.207031 30.394531 C 429.117188 31.113281 430.007812 31.859375 430.882812 32.625 C 431.757812 33.390625 432.613281 34.175781 433.445312 34.980469 C 434.28125 35.789062 435.097656 36.617188 435.890625 37.464844 C 436.683594 38.3125 437.457031 39.175781 438.210938 40.0625 C 438.960938 40.949219 439.691406 41.851562 440.398438 42.769531 C 441.105469 43.691406 441.789062 44.628906 442.453125 45.585938 C 443.113281 46.539062 443.75 47.507812 444.363281 48.496094 C 444.980469 49.480469 445.566406 50.480469 446.132812 51.496094 C 446.695312 52.511719 447.238281 53.539062 447.75 54.578125 C 448.265625 55.621094 448.753906 56.675781 449.214844 57.738281 C 449.675781 58.804688 450.113281 59.878906 450.523438 60.96875 C 450.933594 62.054688 451.316406 63.148438 451.671875 64.253906 C 452.027344 65.359375 452.355469 66.472656 452.65625 67.59375 C 452.957031 68.714844 453.230469 69.84375 453.476562 70.980469 C 453.722656 72.113281 453.9375 73.253906 454.128906 74.398438 C 454.316406 75.546875 454.480469 76.695312 454.613281 77.847656 C 454.746094 79 454.851562 80.15625 454.925781 81.316406 C 455.003906 82.472656 455.050781 83.632812 455.070312 84.796875 C 455.089844 85.957031 455.082031 87.117188 455.042969 88.277344 C 455.003906 89.4375 454.9375 90.597656 454.84375 91.753906 C 454.75 92.910156 454.625 94.066406 454.476562 95.214844 C 454.324219 96.367188 454.144531 97.515625 453.9375 98.65625 C 453.730469 99.800781 453.492188 100.9375 453.230469 102.066406 C 452.964844 103.199219 452.675781 104.320312 452.355469 105.4375 C 452.039062 106.554688 451.691406 107.660156 451.320312 108.761719 C 450.945312 109.859375 450.546875 110.949219 450.121094 112.03125 C 449.691406 113.109375 449.238281 114.179688 448.761719 115.238281 C 448.28125 116.296875 447.777344 117.339844 447.246094 118.375 C 446.714844 119.40625 446.160156 120.425781 445.578125 121.429688 C 445 122.4375 444.394531 123.429688 443.765625 124.402344 C 443.136719 125.378906 442.484375 126.339844 441.804688 127.285156 C 441.128906 128.226562 440.429688 129.15625 439.707031 130.0625 C 438.988281 130.972656 438.242188 131.863281 437.476562 132.738281 C 436.710938 133.613281 435.925781 134.464844 435.117188 135.300781 C 434.308594 136.132812 433.480469 136.949219 432.632812 137.742188 C 431.785156 138.535156 430.917969 139.308594 430.035156 140.0625 C 429.148438 140.8125 428.246094 141.542969 427.324219 142.25 C 426.402344 142.957031 425.464844 143.640625 424.507812 144.300781 C 423.554688 144.960938 422.582031 145.597656 421.597656 146.210938 C 420.609375 146.824219 419.609375 147.414062 418.59375 147.980469 C 417.578125 148.542969 416.550781 149.082031 415.507812 149.597656 C 414.464844 150.109375 413.414062 150.597656 412.347656 151.058594 C 411.28125 151.523438 410.203125 151.957031 409.117188 152.367188 C 408.03125 152.777344 406.933594 153.160156 405.828125 153.515625 C 404.722656 153.871094 403.609375 154.199219 402.484375 154.5 C 401.363281 154.800781 400.234375 155.074219 399.097656 155.316406 C 397.964844 155.5625 396.824219 155.78125 395.675781 155.96875 C 394.53125 156.160156 393.378906 156.320312 392.226562 156.453125 C 391.074219 156.585938 389.914062 156.691406 388.757812 156.769531 C 387.597656 156.84375 386.4375 156.890625 385.277344 156.910156 C 384.113281 156.929688 382.953125 156.921875 381.792969 156.882812 C 380.628906 156.847656 379.472656 156.78125 378.3125 156.683594 C 377.15625 156.589844 376 156.46875 374.847656 156.316406 C 373.695312 156.164062 372.550781 155.984375 371.40625 155.777344 C 370.261719 155.570312 369.125 155.335938 367.996094 155.070312 C 366.863281 154.808594 365.738281 154.519531 364.621094 154.199219 C 363.503906 153.882812 362.394531 153.535156 361.296875 153.164062 C 360.195312 152.789062 359.105469 152.390625 358.023438 151.964844 C 356.945312 151.535156 355.875 151.085938 354.816406 150.605469 C 353.757812 150.125 352.710938 149.621094 351.679688 149.089844 C 350.644531 148.5625 349.625 148.007812 348.617188 147.425781 C 347.613281 146.847656 346.621094 146.242188 345.644531 145.613281 C 344.667969 144.984375 343.707031 144.332031 342.761719 143.65625 C 341.816406 142.980469 340.890625 142.28125 339.980469 141.558594 C 339.070312 140.835938 338.179688 140.09375 337.304688 139.328125 C 336.429688 138.5625 335.578125 137.777344 334.742188 136.96875 C 333.90625 136.164062 333.09375 135.335938 332.296875 134.488281 C 331.503906 133.640625 330.730469 132.773438 329.980469 131.890625 C 329.226562 131.003906 328.496094 130.101562 327.789062 129.179688 C 327.082031 128.257812 326.398438 127.320312 325.734375 126.367188 C 325.074219 125.414062 324.4375 124.441406 323.824219 123.457031 C 323.210938 122.472656 322.621094 121.46875 322.054688 120.457031 C 321.492188 119.441406 320.953125 118.414062 320.4375 117.371094 C 319.921875 116.332031 319.4375 115.277344 318.972656 114.210938 C 318.511719 113.148438 318.074219 112.070312 317.664062 110.984375 C 317.253906 109.898438 316.875 108.800781 316.515625 107.695312 C 316.160156 106.589844 315.832031 105.476562 315.53125 104.355469 C 315.230469 103.234375 314.957031 102.105469 314.710938 100.972656 C 314.46875 99.835938 314.25 98.699219 314.058594 97.550781 C 313.871094 96.40625 313.710938 95.257812 313.574219 94.105469 C 313.441406 92.949219 313.339844 91.792969 313.261719 90.636719 C 313.1875 89.476562 313.136719 88.316406 313.117188 87.15625 C 313.097656 85.996094 313.109375 84.835938 313.144531 83.675781 C 313.183594 82.515625 313.25 81.355469 313.34375 80.199219 C 313.4375 79.039062 313.5625 77.886719 313.714844 76.734375 C 313.863281 75.585938 314.042969 74.4375 314.25 73.296875 C 314.460938 72.152344 314.695312 71.015625 314.957031 69.886719 C 315.222656 68.753906 315.511719 67.628906 315.832031 66.515625 C 316.152344 65.398438 316.496094 64.289062 316.871094 63.191406 C 317.242188 62.089844 317.640625 61 318.070312 59.921875 C 318.496094 58.839844 318.949219 57.773438 319.429688 56.714844 C 319.90625 55.65625 320.410156 54.609375 320.941406 53.578125 C 321.472656 52.546875 322.027344 51.527344 322.609375 50.519531 C 323.191406 49.515625 323.792969 48.523438 324.421875 47.546875 C 325.054688 46.570312 325.707031 45.613281 326.382812 44.667969 C 327.058594 43.722656 327.757812 42.796875 328.480469 41.886719 C 329.203125 40.976562 329.945312 40.085938 330.710938 39.214844 C 331.476562 38.339844 332.265625 37.488281 333.070312 36.652344 C 333.878906 35.816406 334.707031 35.003906 335.554688 34.210938 C 336.402344 33.414062 337.269531 32.640625 338.15625 31.890625 C 339.039062 31.140625 339.945312 30.410156 340.863281 29.703125 C 341.785156 28.996094 342.726562 28.3125 343.679688 27.652344 C 344.636719 26.988281 345.605469 26.351562 346.59375 25.738281 C 347.578125 25.125 348.578125 24.539062 349.59375 23.972656 C 350.609375 23.410156 351.636719 22.871094 352.679688 22.355469 C 353.722656 21.84375 354.777344 21.355469 355.839844 20.890625 C 356.90625 20.429688 357.984375 19.992188 359.070312 19.585938 C 360.15625 19.175781 361.253906 18.792969 362.359375 18.4375 C 363.464844 18.082031 364.582031 17.753906 365.703125 17.453125 C 366.824219 17.152344 367.953125 16.878906 369.089844 16.632812 C 370.222656 16.386719 371.367188 16.171875 372.511719 15.980469 C 373.65625 15.792969 374.808594 15.628906 375.960938 15.496094 C 377.117188 15.363281 378.273438 15.261719 379.433594 15.183594 C 380.589844 15.109375 381.75 15.058594 382.914062 15.039062 C 384.074219 15.019531 385.234375 15.03125 386.398438 15.066406 C 387.558594 15.105469 388.71875 15.171875 389.875 15.265625 C 391.035156 15.359375 392.1875 15.484375 393.339844 15.636719 C 394.492188 15.785156 395.640625 15.964844 396.78125 16.171875 C 397.925781 16.378906 399.0625 16.617188 400.195312 16.878906 Z M 400.195312 16.878906 " fill-opacity="1" fill-rule="nonzero"/><g clip-path="url(#6e9254df5a)"><path fill="#e9bc06" d="M 472.9375 186.609375 C 463.992188 181.261719 455.894531 179.289062 450.433594 178.671875 C 448.699219 178.28125 446.902344 178.054688 445.050781 178.054688 L 323.128906 178.054688 C 321.269531 178.054688 319.46875 178.28125 317.730469 178.671875 C 312.269531 179.292969 304.175781 181.265625 295.234375 186.613281 C 277.507812 197.125 258.488281 219.164062 244.34375 261.40625 C 230.113281 303.84375 219.875 367.433594 219.839844 466.21875 C 219.839844 480.152344 231.144531 491.453125 245.085938 491.453125 C 259.03125 491.453125 270.328125 480.152344 270.328125 466.21875 C 270.199219 353.257812 284.738281 291.730469 298.738281 260.558594 L 298.738281 388.960938 L 278.039062 724.449219 C 276.710938 745.945312 293.074219 764.445312 314.574219 765.769531 C 336.082031 767.09375 354.59375 750.75 355.921875 729.253906 L 373.613281 442.496094 L 394.558594 442.496094 L 412.246094 729.253906 C 413.574219 750.75 432.085938 767.09375 453.59375 765.769531 C 475.089844 764.445312 491.457031 745.949219 490.128906 724.449219 L 469.429688 388.960938 L 469.429688 260.6875 C 473.082031 268.824219 476.796875 278.964844 480.265625 291.664062 C 490.101562 327.460938 497.855469 382.878906 497.832031 466.226562 C 497.832031 480.15625 509.136719 491.457031 523.082031 491.457031 C 537.019531 491.457031 548.332031 480.15625 548.332031 466.226562 C 548.183594 334.542969 530.304688 265.269531 508.277344 225.578125 C 497.242188 205.828125 484.648438 193.539062 472.9375 186.609375 Z M 472.9375 186.609375 " fill-opacity="1" fill-rule="nonzero"/></g></svg>