<svg xmlns="http://www.w3.org/2000/svg" xmlns:xlink="http://www.w3.org/1999/xlink" width="1024" zoomAndPan="magnify" viewBox="0 0 768 767.999994" height="1024" preserveAspectRatio="xMidYMid meet" version="1.0"><defs><clipPath id="2dc3d925be"><path d="M 397 215.664062 L 761.886719 215.664062 L 761.886719 597.601562 L 397 597.601562 Z M 397 215.664062 " clip-rule="nonzero"/></clipPath><clipPath id="416c229c7c"><path d="M 10.890625 220.566406 L 377.683594 220.566406 L 377.683594 601.171875 L 10.890625 601.171875 Z M 10.890625 220.566406 " clip-rule="nonzero"/></clipPath></defs><g clip-path="url(#2dc3d925be)"><path fill="#1a1a1a" d="M 590.269531 216.996094 C 599.34375 217.765625 602.894531 218.410156 611.839844 220.339844 C 652.800781 229.183594 690.621094 254.820312 716.324219 288.378906 C 776.410156 366.824219 782.246094 497.90625 702.46875 554.199219 C 634.902344 601.875 569.339844 611.1875 490.785156 575.984375 C 384.730469 528.457031 372.273438 361.929688 435.59375 281.910156 C 456.984375 254.878906 482.125 236.539062 514.835938 224.71875 C 540.746094 215.355469 563.585938 214.742188 590.269531 216.996094 " fill-opacity="1" fill-rule="evenodd"/></g><path fill="#cccccc" d="M 589.503906 230.921875 C 597.917969 231.632812 601.203125 232.230469 609.496094 234.023438 C 647.453125 242.214844 682.496094 265.972656 706.3125 297.066406 C 761.988281 369.757812 767.402344 491.222656 693.46875 543.386719 C 630.863281 587.5625 570.113281 596.191406 497.320312 563.570312 C 399.046875 519.53125 387.503906 365.222656 446.179688 291.074219 C 466 266.027344 489.300781 249.03125 519.605469 238.078125 C 543.613281 229.402344 564.777344 228.832031 589.503906 230.921875 " fill-opacity="1" fill-rule="evenodd"/><path fill="#ffffff" d="M 589.503906 230.921875 C 597.917969 231.632812 601.203125 232.230469 609.492188 234.023438 C 647.453125 242.214844 682.496094 265.972656 706.3125 297.066406 C 733.261719 332.25 748.433594 378.859375 748.53125 423.507812 C 744.914062 464.625 727.703125 502.496094 694.199219 526.132812 C 631.589844 570.3125 570.84375 578.941406 498.050781 546.320312 C 438.683594 519.714844 410.980469 452.871094 411.273438 387.765625 C 414.242188 351.234375 426.09375 316.457031 446.179688 291.074219 C 466 266.027344 489.296875 249.03125 519.605469 238.078125 C 543.617188 229.402344 564.78125 228.832031 589.503906 230.921875 " fill-opacity="1" fill-rule="evenodd"/><path fill="#1a1a1a" d="M 560.546875 327.5 C 556.773438 328.535156 555.328125 329.085938 551.703125 330.609375 C 535.109375 337.566406 521.160156 351.363281 512.949219 367.550781 C 493.753906 405.394531 501.597656 461.1875 539.707031 478.671875 C 571.976562 493.480469 600.382812 492.253906 630.777344 471.210938 C 671.808594 442.800781 663.964844 371.523438 630.945312 342.730469 C 619.789062 333 607.730469 327.238281 592.996094 324.824219 C 581.324219 322.90625 571.632812 324.445312 560.546875 327.5 " fill-opacity="1" fill-rule="evenodd"/><path fill="#ffffff" d="M 572.265625 334.640625 C 573.621094 334.453125 575.765625 334.242188 577.125 334.175781 C 582.886719 333.90625 589.113281 334.175781 594.433594 336.367188 C 603.828125 340.238281 608.347656 339.367188 599.230469 355.320312 C 598.476562 356.640625 597.789062 358.023438 596.511719 358.863281 C 592.074219 361.78125 579.269531 361.4375 573.308594 361.984375 C 569.238281 362.355469 568.105469 362.84375 563.851562 362.226562 C 556.863281 361.214844 543.351562 360.332031 542.582031 351.472656 C 541.746094 341.90625 565.324219 335.613281 572.265625 334.640625 Z M 629.808594 355.863281 C 626.421875 350.335938 619.921875 343.839844 613.003906 348.015625 C 609.417969 350.175781 605.023438 358.5625 608.652344 361.902344 C 610.96875 364.03125 611.707031 360.496094 619.996094 363.9375 C 623.214844 365.273438 625.085938 365.976562 627.679688 362.945312 C 629.578125 360.722656 631.953125 359.359375 629.808594 355.863281 " fill-opacity="1" fill-rule="evenodd"/><g clip-path="url(#416c229c7c)"><path fill="#1a1a1a" d="M 200.210938 220.863281 C 191.097656 220.863281 187.511719 221.203125 178.433594 222.375 C 136.871094 227.730469 97.023438 250.082031 68.585938 281.351562 C 2.097656 354.449219 -14.777344 484.574219 59.976562 547.398438 C 123.28125 600.601562 187.820312 615.414062 269.066406 586.964844 C 378.75 548.550781 405.207031 383.671875 348.859375 298.59375 C 329.824219 269.855469 306.316406 249.457031 274.726562 234.921875 C 249.695312 223.402344 226.988281 220.863281 200.210938 220.863281 " fill-opacity="1" fill-rule="evenodd"/></g><path fill="#cccccc" d="M 199.796875 234.804688 C 191.355469 234.804688 188.03125 235.121094 179.617188 236.203125 C 141.105469 241.167969 104.179688 261.878906 77.828125 290.855469 C 16.21875 358.589844 0.585938 479.167969 69.851562 537.378906 C 128.511719 586.683594 188.316406 600.40625 263.601562 574.042969 C 365.238281 538.449219 389.753906 385.667969 337.539062 306.832031 C 319.902344 280.199219 298.117188 261.300781 268.84375 247.832031 C 245.652344 237.15625 224.609375 234.804688 199.796875 234.804688 " fill-opacity="1" fill-rule="evenodd"/><path fill="#ffffff" d="M 199.796875 234.804688 C 191.355469 234.804688 188.03125 235.121094 179.617188 236.203125 C 141.105469 241.167969 104.179688 261.878906 77.828125 290.855469 C 48.175781 323.457031 29.179688 368.300781 25.167969 412.542969 C 25.46875 453.550781 39.433594 492.441406 70.640625 518.667969 C 129.300781 567.96875 189.105469 581.695312 264.390625 555.332031 C 325.542969 533.914062 358.761719 470.078125 364.164062 405.449219 C 364.175781 369.035156 355.304688 333.652344 337.539062 306.832031 C 319.902344 280.199219 298.117188 261.300781 268.84375 247.832031 C 245.652344 237.15625 224.609375 234.804688 199.796875 234.804688 " fill-opacity="1" fill-rule="evenodd"/><path fill="#1a1a1a" d="M 177.773438 330.992188 C 173.96875 331.910156 172.503906 332.417969 168.835938 333.820312 C 152.027344 340.246094 137.648438 353.597656 128.929688 369.515625 C 108.546875 406.730469 114.621094 462.746094 152.152344 481.429688 C 183.941406 497.253906 212.371094 496.925781 243.414062 476.859375 C 285.324219 449.765625 279.75 378.273438 247.652344 348.449219 C 236.8125 338.371094 224.941406 332.226562 210.292969 329.347656 C 198.683594 327.0625 188.949219 328.292969 177.773438 330.992188 " fill-opacity="1" fill-rule="evenodd"/><path fill="#ffffff" d="M 189.261719 338.503906 C 190.621094 338.359375 192.769531 338.214844 194.132812 338.191406 C 199.902344 338.105469 206.117188 338.570312 211.363281 340.929688 C 220.628906 345.097656 225.175781 344.371094 215.558594 360.023438 C 214.761719 361.320312 214.03125 362.683594 212.726562 363.484375 C 208.203125 366.257812 195.414062 365.507812 189.441406 365.863281 C 185.355469 366.105469 184.210938 366.558594 179.980469 365.808594 C 173.019531 364.574219 159.546875 363.265625 159.054688 354.386719 C 158.527344 344.796875 182.292969 339.253906 189.261719 338.503906 " fill-opacity="1" fill-rule="evenodd"/><path fill="#ffffff" d="M 246.101562 361.539062 C 248.136719 365.101562 245.71875 366.390625 243.75 368.550781 C 241.066406 371.496094 239.21875 370.730469 236.042969 369.296875 C 227.863281 365.597656 227.015625 369.105469 224.769531 366.902344 C 221.246094 363.449219 225.90625 355.207031 229.554688 353.160156 C 236.601562 349.210938 242.890625 355.910156 246.101562 361.539062 " fill-opacity="1" fill-rule="evenodd"/></svg>