<svg xmlns="http://www.w3.org/2000/svg" xmlns:xlink="http://www.w3.org/1999/xlink" width="1024" zoomAndPan="magnify" viewBox="0 0 768 767.999994" height="1024" preserveAspectRatio="xMidYMid meet" version="1.0"><defs><clipPath id="a96a18d740"><path d="M 0 136.320312 L 342 136.320312 L 342 691.320312 L 0 691.320312 Z M 0 136.320312 " clip-rule="nonzero"/></clipPath><clipPath id="d443779ec9"><path d="M 0 136.320312 L 342 136.320312 L 342 500 L 0 500 Z M 0 136.320312 " clip-rule="nonzero"/></clipPath><clipPath id="1205925985"><path d="M 426 136.320312 L 768 136.320312 L 768 691.320312 L 426 691.320312 Z M 426 136.320312 " clip-rule="nonzero"/></clipPath><clipPath id="424db9f332"><path d="M 426 136.320312 L 768 136.320312 L 768 500 L 426 500 Z M 426 136.320312 " clip-rule="nonzero"/></clipPath></defs><path fill="#ffffff" d="M 332.011719 413.820312 C 332.011719 418.199219 331.949219 422.574219 331.820312 426.949219 C 331.6875 431.324219 331.496094 435.691406 331.238281 440.046875 C 330.980469 444.40625 330.65625 448.753906 330.269531 453.082031 C 329.882812 457.414062 329.433594 461.730469 328.917969 466.023438 C 328.40625 470.320312 327.828125 474.589844 327.1875 478.839844 C 326.546875 483.085938 325.84375 487.308594 325.082031 491.496094 C 324.316406 495.6875 323.488281 499.84375 322.601562 503.96875 C 321.714844 508.09375 320.765625 512.175781 319.757812 516.222656 C 318.75 520.269531 317.683594 524.269531 316.558594 528.230469 C 315.429688 532.1875 314.246094 536.101562 313.003906 539.960938 C 311.761719 543.824219 310.464844 547.632812 309.109375 551.390625 C 307.753906 555.144531 306.347656 558.84375 304.882812 562.484375 C 303.417969 566.128906 301.902344 569.707031 300.332031 573.222656 C 298.765625 576.742188 297.144531 580.191406 295.472656 583.578125 C 293.800781 586.964844 292.082031 590.277344 290.3125 593.523438 C 288.542969 596.769531 286.726562 599.9375 284.863281 603.035156 C 283 606.132812 281.09375 609.152344 279.140625 612.09375 C 277.191406 615.035156 275.195312 617.894531 273.160156 620.671875 C 271.121094 623.449219 269.046875 626.144531 266.929688 628.75 C 264.8125 631.359375 262.660156 633.882812 260.46875 636.316406 C 258.28125 638.746094 256.054688 641.089844 253.796875 643.339844 C 251.535156 645.59375 249.246094 647.75 246.921875 649.816406 C 244.597656 651.878906 242.246094 653.847656 239.863281 655.71875 C 237.480469 657.59375 235.074219 659.367188 232.640625 661.042969 C 230.207031 662.71875 227.75 664.292969 225.269531 665.769531 C 222.789062 667.246094 220.289062 668.617188 217.765625 669.890625 C 215.246094 671.160156 212.707031 672.328125 210.152344 673.390625 C 207.597656 674.457031 205.027344 675.414062 202.441406 676.269531 C 199.859375 677.125 197.265625 677.871094 194.65625 678.515625 C 192.050781 679.15625 189.4375 679.695312 186.816406 680.125 C 184.195312 680.550781 181.566406 680.875 178.9375 681.089844 C 176.304688 681.304688 173.671875 681.410156 171.039062 681.410156 C 168.402344 681.410156 165.769531 681.304688 163.140625 681.089844 C 160.507812 680.875 157.882812 680.550781 155.261719 680.125 C 152.636719 679.695312 150.023438 679.15625 147.417969 678.515625 C 144.8125 677.871094 142.21875 677.125 139.632812 676.269531 C 137.050781 675.414062 134.480469 674.457031 131.925781 673.390625 C 129.371094 672.328125 126.832031 671.160156 124.308594 669.890625 C 121.789062 668.617188 119.289062 667.246094 116.808594 665.769531 C 114.328125 664.292969 111.871094 662.71875 109.4375 661.042969 C 107.003906 659.367188 104.59375 657.59375 102.214844 655.71875 C 99.832031 653.847656 97.480469 651.878906 95.15625 649.816406 C 92.832031 647.75 90.539062 645.59375 88.28125 643.339844 C 86.019531 641.089844 83.796875 638.746094 81.605469 636.3125 C 79.414062 633.882812 77.261719 631.359375 75.144531 628.75 C 73.03125 626.144531 70.953125 623.449219 68.917969 620.671875 C 66.882812 617.894531 64.886719 615.035156 62.933594 612.09375 C 60.984375 609.152344 59.074219 606.132812 57.210938 603.035156 C 55.351562 599.9375 53.535156 596.769531 51.765625 593.523438 C 49.996094 590.277344 48.273438 586.964844 46.605469 583.578125 C 44.933594 580.191406 43.3125 576.742188 41.742188 573.222656 C 40.171875 569.707031 38.65625 566.128906 37.191406 562.484375 C 35.730469 558.84375 34.320312 555.144531 32.964844 551.390625 C 31.613281 547.632812 30.3125 543.824219 29.070312 539.960938 C 27.828125 536.101562 26.644531 532.1875 25.519531 528.230469 C 24.394531 524.269531 23.324219 520.269531 22.316406 516.222656 C 21.308594 512.175781 20.363281 508.09375 19.472656 503.96875 C 18.585938 499.84375 17.761719 495.6875 16.996094 491.496094 C 16.230469 487.308594 15.527344 483.085938 14.886719 478.839844 C 14.25 474.589844 13.671875 470.320312 13.15625 466.023438 C 12.644531 461.730469 12.191406 457.414062 11.804688 453.082031 C 11.421875 448.753906 11.097656 444.40625 10.839844 440.046875 C 10.582031 435.691406 10.386719 431.324219 10.257812 426.949219 C 10.128906 422.574219 10.0625 418.199219 10.0625 413.820312 C 10.0625 409.441406 10.128906 405.0625 10.257812 400.691406 C 10.386719 396.316406 10.582031 391.949219 10.839844 387.589844 C 11.097656 383.234375 11.421875 378.886719 11.804688 374.554688 C 12.191406 370.222656 12.644531 365.910156 13.15625 361.617188 C 13.671875 357.320312 14.25 353.046875 14.886719 348.800781 C 15.527344 344.550781 16.230469 340.332031 16.996094 336.140625 C 17.761719 331.953125 18.585938 327.792969 19.472656 323.671875 C 20.363281 319.546875 21.308594 315.464844 22.316406 311.417969 C 23.324219 307.371094 24.394531 303.367188 25.519531 299.410156 C 26.644531 295.449219 27.828125 291.539062 29.070312 287.679688 C 30.3125 283.816406 31.613281 280.007812 32.964844 276.25 C 34.320312 272.492188 35.730469 268.796875 37.191406 265.152344 C 38.65625 261.511719 40.171875 257.933594 41.742188 254.414062 C 43.3125 250.898438 44.933594 247.445312 46.605469 244.0625 C 48.273438 240.675781 49.996094 237.359375 51.765625 234.117188 C 53.535156 230.871094 55.351562 227.699219 57.210938 224.605469 C 59.074219 221.507812 60.984375 218.488281 62.933594 215.546875 C 64.886719 212.605469 66.882812 209.746094 68.917969 206.96875 C 70.953125 204.191406 73.03125 201.496094 75.144531 198.886719 C 77.261719 196.28125 79.414062 193.757812 81.605469 191.324219 C 83.796875 188.890625 86.019531 186.550781 88.28125 184.300781 C 90.539062 182.046875 92.832031 179.890625 95.15625 177.824219 C 97.480469 175.761719 99.832031 173.792969 102.214844 171.917969 C 104.59375 170.046875 107.003906 168.273438 109.4375 166.597656 C 111.871094 164.921875 114.328125 163.347656 116.808594 161.871094 C 119.289062 160.394531 121.789062 159.023438 124.308594 157.75 C 126.832031 156.480469 129.371094 155.3125 131.925781 154.246094 C 134.480469 153.183594 137.050781 152.222656 139.632812 151.371094 C 142.21875 150.515625 144.8125 149.765625 147.417969 149.125 C 150.023438 148.480469 152.636719 147.945312 155.261719 147.515625 C 157.882812 147.085938 160.507812 146.765625 163.140625 146.550781 C 165.769531 146.335938 168.402344 146.226562 171.039062 146.226562 C 173.671875 146.226562 176.304688 146.335938 178.9375 146.550781 C 181.566406 146.765625 184.195312 147.085938 186.816406 147.515625 C 189.4375 147.945312 192.050781 148.480469 194.65625 149.125 C 197.265625 149.765625 199.859375 150.515625 202.441406 151.371094 C 205.027344 152.222656 207.597656 153.183594 210.152344 154.246094 C 212.707031 155.3125 215.246094 156.480469 217.765625 157.75 C 220.289062 159.023438 222.789062 160.394531 225.269531 161.871094 C 227.75 163.347656 230.207031 164.921875 232.640625 166.597656 C 235.074219 168.273438 237.480469 170.046875 239.863281 171.917969 C 242.246094 173.792969 244.597656 175.761719 246.921875 177.824219 C 249.246094 179.890625 251.535156 182.046875 253.796875 184.300781 C 256.054688 186.550781 258.28125 188.890625 260.46875 191.324219 C 262.660156 193.757812 264.8125 196.28125 266.929688 198.886719 C 269.046875 201.496094 271.121094 204.191406 273.160156 206.96875 C 275.195312 209.746094 277.191406 212.605469 279.140625 215.546875 C 281.09375 218.488281 283 221.507812 284.863281 224.605469 C 286.726562 227.699219 288.542969 230.871094 290.3125 234.117188 C 292.082031 237.359375 293.800781 240.675781 295.472656 244.0625 C 297.144531 247.445312 298.765625 250.898438 300.332031 254.414062 C 301.902344 257.933594 303.417969 261.511719 304.882812 265.152344 C 306.347656 268.796875 307.753906 272.492188 309.109375 276.25 C 310.464844 280.007812 311.761719 283.816406 313.003906 287.679688 C 314.246094 291.539062 315.429688 295.449219 316.558594 299.410156 C 317.683594 303.367188 318.75 307.371094 319.757812 311.417969 C 320.765625 315.464844 321.714844 319.546875 322.601562 323.671875 C 323.488281 327.792969 324.316406 331.953125 325.082031 336.140625 C 325.84375 340.332031 326.546875 344.550781 327.1875 348.800781 C 327.828125 353.046875 328.40625 357.320312 328.917969 361.617188 C 329.433594 365.910156 329.882812 370.222656 330.269531 374.554688 C 330.65625 378.886719 330.980469 383.234375 331.238281 387.589844 C 331.496094 391.949219 331.6875 396.316406 331.820312 400.691406 C 331.949219 405.0625 332.011719 409.441406 332.011719 413.820312 Z M 332.011719 413.820312 " fill-opacity="1" fill-rule="nonzero"/><g clip-path="url(#a96a18d740)"><path fill="#000000" d="M 171.039062 691.320312 C 147.226562 691.320312 124.230469 683.640625 102.683594 668.488281 C 82.378906 654.210938 64.222656 633.910156 48.722656 608.144531 C 33.441406 582.738281 21.460938 553.226562 13.113281 520.421875 C 4.515625 486.632812 0.15625 450.769531 0.15625 413.820312 C 0.15625 376.871094 4.515625 341.003906 13.113281 307.21875 C 21.460938 274.414062 33.441406 244.902344 48.722656 219.496094 C 64.222656 193.730469 82.378906 173.425781 102.683594 159.152344 C 124.230469 144 147.226562 136.320312 171.039062 136.320312 C 194.847656 136.320312 217.847656 144 239.394531 159.152344 C 259.699219 173.425781 277.851562 193.730469 293.351562 219.496094 C 308.636719 244.902344 320.617188 274.414062 328.960938 307.21875 C 337.558594 341.003906 341.917969 376.871094 341.917969 413.820312 C 341.917969 450.769531 337.558594 486.632812 328.960938 520.421875 C 320.617188 553.226562 308.636719 582.738281 293.351562 608.144531 C 277.851562 633.910156 259.699219 654.210938 239.394531 668.488281 C 217.847656 683.640625 194.847656 691.320312 171.039062 691.320312 Z M 171.039062 156.136719 C 131.652344 156.136719 94.242188 182.265625 65.699219 229.710938 C 36.210938 278.734375 19.96875 344.117188 19.96875 413.820312 C 19.96875 483.523438 36.210938 548.90625 65.699219 597.925781 C 94.242188 645.375 131.652344 671.503906 171.039062 671.503906 C 210.425781 671.503906 247.835938 645.375 276.375 597.925781 C 305.867188 548.90625 322.105469 483.523438 322.105469 413.820312 C 322.105469 344.117188 305.867188 278.734375 276.375 229.710938 C 247.835938 182.265625 210.425781 156.136719 171.039062 156.136719 Z M 171.039062 156.136719 " fill-opacity="1" fill-rule="nonzero"/></g><path fill="#000000" d="M 193.328125 500.347656 C 193.328125 502.3125 193.296875 504.277344 193.242188 506.242188 C 193.183594 508.207031 193.097656 510.167969 192.980469 512.125 C 192.867188 514.082031 192.722656 516.035156 192.550781 517.980469 C 192.378906 519.925781 192.175781 521.863281 191.945312 523.792969 C 191.71875 525.722656 191.460938 527.640625 191.175781 529.546875 C 190.890625 531.453125 190.574219 533.351562 190.234375 535.230469 C 189.894531 537.113281 189.523438 538.980469 189.128906 540.832031 C 188.734375 542.683594 188.308594 544.519531 187.859375 546.335938 C 187.410156 548.152344 186.933594 549.949219 186.433594 551.726562 C 185.929688 553.507812 185.402344 555.261719 184.847656 556.996094 C 184.292969 558.730469 183.714844 560.441406 183.109375 562.128906 C 182.503906 563.816406 181.875 565.476562 181.222656 567.113281 C 180.570312 568.746094 179.894531 570.355469 179.195312 571.933594 C 178.492188 573.515625 177.769531 575.066406 177.023438 576.585938 C 176.28125 578.105469 175.511719 579.59375 174.722656 581.050781 C 173.933594 582.507812 173.121094 583.933594 172.292969 585.324219 C 171.460938 586.714844 170.609375 588.070312 169.738281 589.390625 C 168.867188 590.710938 167.976562 591.996094 167.070312 593.242188 C 166.160156 594.492188 165.234375 595.703125 164.289062 596.871094 C 163.347656 598.042969 162.386719 599.175781 161.410156 600.269531 C 160.429688 601.363281 159.4375 602.414062 158.429688 603.425781 C 157.421875 604.4375 156.398438 605.40625 155.363281 606.332031 C 154.328125 607.257812 153.277344 608.144531 152.214844 608.984375 C 151.152344 609.824219 150.078125 610.621094 148.992188 611.375 C 147.90625 612.128906 146.808594 612.835938 145.703125 613.496094 C 144.597656 614.160156 143.480469 614.777344 142.355469 615.347656 C 141.230469 615.917969 140.097656 616.441406 138.957031 616.921875 C 137.820312 617.398438 136.671875 617.828125 135.519531 618.214844 C 134.367188 618.597656 133.207031 618.933594 132.046875 619.222656 C 130.882812 619.511719 129.71875 619.75 128.546875 619.945312 C 127.378906 620.136719 126.207031 620.28125 125.03125 620.378906 C 123.859375 620.472656 122.683594 620.523438 121.507812 620.523438 C 120.332031 620.523438 119.15625 620.472656 117.984375 620.378906 C 116.808594 620.28125 115.636719 620.136719 114.46875 619.945312 C 113.300781 619.75 112.132812 619.511719 110.96875 619.222656 C 109.808594 618.933594 108.648438 618.597656 107.496094 618.214844 C 106.34375 617.828125 105.199219 617.398438 104.058594 616.921875 C 102.917969 616.441406 101.785156 615.917969 100.660156 615.347656 C 99.535156 614.777344 98.417969 614.160156 97.3125 613.496094 C 96.207031 612.835938 95.109375 612.128906 94.023438 611.375 C 92.9375 610.621094 91.863281 609.824219 90.800781 608.984375 C 89.738281 608.144531 88.6875 607.257812 87.652344 606.332031 C 86.617188 605.40625 85.59375 604.4375 84.585938 603.425781 C 83.578125 602.414062 82.585938 601.363281 81.609375 600.269531 C 80.628906 599.175781 79.667969 598.042969 78.726562 596.871094 C 77.78125 595.699219 76.855469 594.492188 75.945312 593.242188 C 75.039062 591.996094 74.148438 590.710938 73.277344 589.390625 C 72.40625 588.070312 71.554688 586.714844 70.722656 585.324219 C 69.894531 583.933594 69.082031 582.507812 68.292969 581.050781 C 67.503906 579.59375 66.738281 578.105469 65.992188 576.585938 C 65.246094 575.066406 64.523438 573.515625 63.824219 571.933594 C 63.121094 570.355469 62.445312 568.746094 61.792969 567.113281 C 61.140625 565.476562 60.511719 563.816406 59.90625 562.128906 C 59.300781 560.441406 58.722656 558.730469 58.167969 556.996094 C 57.613281 555.261719 57.085938 553.507812 56.585938 551.726562 C 56.082031 549.949219 55.605469 548.152344 55.15625 546.335938 C 54.707031 544.519531 54.28125 542.683594 53.886719 540.832031 C 53.492188 538.980469 53.121094 537.113281 52.78125 535.230469 C 52.441406 533.351562 52.125 531.453125 51.839844 529.546875 C 51.554688 527.640625 51.296875 525.722656 51.070312 523.792969 C 50.839844 521.863281 50.640625 519.925781 50.464844 517.980469 C 50.292969 516.035156 50.148438 514.082031 50.035156 512.125 C 49.917969 510.167969 49.832031 508.207031 49.777344 506.242188 C 49.71875 504.277344 49.6875 502.3125 49.6875 500.347656 C 49.6875 498.378906 49.71875 496.414062 49.777344 494.449219 C 49.832031 492.484375 49.917969 490.523438 50.035156 488.566406 C 50.148438 486.609375 50.292969 484.660156 50.464844 482.714844 C 50.640625 480.769531 50.839844 478.832031 51.070312 476.902344 C 51.296875 474.972656 51.554688 473.054688 51.839844 471.144531 C 52.125 469.238281 52.441406 467.34375 52.78125 465.460938 C 53.121094 463.578125 53.492188 461.710938 53.886719 459.859375 C 54.28125 458.007812 54.707031 456.175781 55.15625 454.355469 C 55.605469 452.539062 56.082031 450.742188 56.585938 448.964844 C 57.085938 447.1875 57.613281 445.429688 58.167969 443.695312 C 58.722656 441.960938 59.300781 440.25 59.90625 438.5625 C 60.511719 436.875 61.140625 435.214844 61.792969 433.582031 C 62.445312 431.945312 63.121094 430.335938 63.824219 428.757812 C 64.523438 427.179688 65.246094 425.628906 65.992188 424.109375 C 66.738281 422.585938 67.503906 421.097656 68.292969 419.640625 C 69.082031 418.183594 69.894531 416.761719 70.722656 415.371094 C 71.554688 413.980469 72.40625 412.621094 73.277344 411.300781 C 74.148438 409.980469 75.039062 408.695312 75.945312 407.449219 C 76.855469 406.203125 77.78125 404.992188 78.726562 403.820312 C 79.667969 402.648438 80.628906 401.515625 81.609375 400.425781 C 82.585938 399.332031 83.578125 398.28125 84.585938 397.269531 C 85.59375 396.257812 86.617188 395.289062 87.652344 394.359375 C 88.6875 393.433594 89.738281 392.550781 90.800781 391.707031 C 91.863281 390.867188 92.9375 390.070312 94.023438 389.320312 C 95.109375 388.566406 96.207031 387.859375 97.3125 387.195312 C 98.417969 386.53125 99.535156 385.917969 100.660156 385.34375 C 101.785156 384.773438 102.917969 384.25 104.058594 383.773438 C 105.199219 383.292969 106.34375 382.863281 107.496094 382.480469 C 108.648438 382.097656 109.808594 381.761719 110.96875 381.472656 C 112.132812 381.183594 113.300781 380.941406 114.46875 380.75 C 115.636719 380.558594 116.808594 380.410156 117.984375 380.316406 C 119.15625 380.21875 120.332031 380.171875 121.507812 380.171875 C 122.683594 380.171875 123.859375 380.21875 125.03125 380.316406 C 126.207031 380.410156 127.378906 380.558594 128.546875 380.75 C 129.71875 380.941406 130.882812 381.183594 132.046875 381.472656 C 133.207031 381.761719 134.367188 382.097656 135.519531 382.480469 C 136.671875 382.863281 137.820312 383.292969 138.957031 383.773438 C 140.097656 384.25 141.230469 384.773438 142.355469 385.34375 C 143.480469 385.917969 144.597656 386.53125 145.703125 387.195312 C 146.808594 387.859375 147.90625 388.566406 148.992188 389.320312 C 150.078125 390.070312 151.152344 390.867188 152.214844 391.707031 C 153.277344 392.550781 154.328125 393.433594 155.363281 394.359375 C 156.398438 395.289062 157.421875 396.257812 158.429688 397.269531 C 159.4375 398.28125 160.429688 399.332031 161.410156 400.425781 C 162.386719 401.515625 163.347656 402.648438 164.289062 403.820312 C 165.234375 404.992188 166.160156 406.203125 167.070312 407.449219 C 167.976562 408.695312 168.867188 409.980469 169.738281 411.300781 C 170.609375 412.621094 171.460938 413.980469 172.292969 415.371094 C 173.121094 416.761719 173.933594 418.183594 174.722656 419.640625 C 175.511719 421.097656 176.28125 422.585938 177.023438 424.109375 C 177.769531 425.628906 178.492188 427.179688 179.195312 428.757812 C 179.894531 430.335938 180.570312 431.945312 181.222656 433.582031 C 181.875 435.214844 182.503906 436.875 183.109375 438.5625 C 183.714844 440.25 184.292969 441.960938 184.847656 443.695312 C 185.402344 445.429688 185.929688 447.1875 186.433594 448.964844 C 186.933594 450.742188 187.410156 452.539062 187.859375 454.355469 C 188.308594 456.175781 188.734375 458.007812 189.128906 459.859375 C 189.523438 461.710938 189.894531 463.578125 190.234375 465.460938 C 190.574219 467.34375 190.890625 469.238281 191.175781 471.144531 C 191.460938 473.054688 191.71875 474.972656 191.945312 476.902344 C 192.175781 478.832031 192.378906 480.769531 192.550781 482.714844 C 192.722656 484.660156 192.867188 486.609375 192.980469 488.566406 C 193.097656 490.523438 193.183594 492.484375 193.242188 494.449219 C 193.296875 496.414062 193.328125 498.378906 193.328125 500.347656 Z M 193.328125 500.347656 " fill-opacity="1" fill-rule="nonzero"/><path fill="#c7b299" d="M 171.039062 146.226562 C 82.136719 146.226562 10.0625 266.03125 10.0625 413.820312 C 10.0625 426.597656 10.632812 439.148438 11.6875 451.441406 C 12.25 458.03125 18.113281 463.980469 27.234375 466.941406 C 71.09375 481.164062 119.753906 489.128906 171.039062 489.128906 C 222.324219 489.128906 270.984375 481.164062 314.839844 466.941406 C 323.964844 463.980469 329.824219 458.03125 330.390625 451.441406 C 331.445312 439.148438 332.011719 426.597656 332.011719 413.820312 C 332.011719 266.03125 259.941406 146.226562 171.039062 146.226562 Z M 171.039062 146.226562 " fill-opacity="1" fill-rule="nonzero"/><g clip-path="url(#d443779ec9)"><path fill="#000000" d="M 171.039062 499.039062 C 119.976562 499.039062 70.566406 491.410156 24.179688 476.363281 C 11.300781 472.1875 2.730469 462.960938 1.816406 452.289062 C 0.714844 439.464844 0.15625 426.523438 0.15625 413.820312 C 0.15625 376.871094 4.515625 341.003906 13.113281 307.21875 C 21.460938 274.414062 33.441406 244.902344 48.722656 219.496094 C 64.222656 193.730469 82.378906 173.425781 102.683594 159.152344 C 124.230469 144 147.226562 136.320312 171.039062 136.320312 C 194.847656 136.320312 217.847656 144 239.394531 159.152344 C 259.699219 173.425781 277.851562 193.730469 293.351562 219.496094 C 308.636719 244.902344 320.617188 274.414062 328.960938 307.21875 C 337.558594 341.003906 341.917969 376.871094 341.917969 413.820312 C 341.917969 426.523438 341.359375 439.464844 340.261719 452.289062 C 339.34375 462.960938 330.777344 472.1875 317.898438 476.363281 C 271.511719 491.410156 222.101562 499.039062 171.039062 499.039062 Z M 171.039062 156.136719 C 131.652344 156.136719 94.242188 182.265625 65.699219 229.710938 C 36.210938 278.734375 19.96875 344.117188 19.96875 413.820312 C 19.96875 425.960938 20.503906 438.332031 21.554688 450.59375 C 21.734375 452.683594 24.792969 455.730469 30.292969 457.515625 C 74.699219 471.917969 122.054688 479.222656 171.039062 479.222656 C 220.023438 479.222656 267.378906 471.917969 311.785156 457.515625 C 317.285156 455.730469 320.34375 452.683594 320.519531 450.59375 C 321.574219 438.332031 322.105469 425.960938 322.105469 413.820312 C 322.105469 344.117188 305.867188 278.734375 276.375 229.710938 C 247.835938 182.265625 210.425781 156.136719 171.039062 156.136719 Z M 171.039062 156.136719 " fill-opacity="1" fill-rule="nonzero"/></g><path fill="#ffffff" d="M 757.976562 413.820312 C 757.976562 418.199219 757.910156 422.574219 757.78125 426.949219 C 757.652344 431.324219 757.457031 435.691406 757.199219 440.046875 C 756.941406 444.40625 756.621094 448.753906 756.234375 453.082031 C 755.847656 457.414062 755.394531 461.730469 754.882812 466.023438 C 754.367188 470.320312 753.789062 474.589844 753.152344 478.839844 C 752.511719 483.085938 751.808594 487.308594 751.042969 491.496094 C 750.277344 495.6875 749.453125 499.84375 748.566406 503.96875 C 747.675781 508.09375 746.730469 512.175781 745.722656 516.222656 C 744.714844 520.269531 743.644531 524.269531 742.519531 528.230469 C 741.394531 532.1875 740.210938 536.101562 738.96875 539.960938 C 737.726562 543.824219 736.425781 547.632812 735.074219 551.390625 C 733.71875 555.144531 732.308594 558.84375 730.847656 562.484375 C 729.382812 566.128906 727.867188 569.707031 726.296875 573.222656 C 724.726562 576.742188 723.105469 580.191406 721.4375 583.578125 C 719.765625 586.964844 718.042969 590.277344 716.273438 593.523438 C 714.503906 596.769531 712.691406 599.9375 710.828125 603.035156 C 708.964844 606.132812 707.054688 609.152344 705.105469 612.09375 C 703.152344 615.035156 701.160156 617.894531 699.121094 620.671875 C 697.085938 623.449219 695.007812 626.144531 692.894531 628.75 C 690.777344 631.359375 688.625 633.882812 686.433594 636.316406 C 684.242188 638.746094 682.019531 641.089844 679.757812 643.339844 C 677.5 645.59375 675.207031 647.75 672.882812 649.816406 C 670.558594 651.878906 668.207031 653.847656 665.828125 655.71875 C 663.445312 657.59375 661.035156 659.367188 658.601562 661.042969 C 656.167969 662.71875 653.710938 664.292969 651.230469 665.769531 C 648.75 667.246094 646.25 668.617188 643.730469 669.890625 C 641.207031 671.160156 638.671875 672.328125 636.113281 673.390625 C 633.558594 674.457031 630.988281 675.414062 628.40625 676.269531 C 625.820312 677.125 623.226562 677.871094 620.621094 678.515625 C 618.015625 679.15625 615.402344 679.695312 612.777344 680.125 C 610.15625 680.550781 607.53125 680.875 604.898438 681.089844 C 602.269531 681.304688 599.636719 681.410156 597 681.410156 C 594.367188 681.410156 591.734375 681.304688 589.101562 681.089844 C 586.472656 680.875 583.84375 680.550781 581.222656 680.125 C 578.601562 679.695312 575.988281 679.15625 573.382812 678.515625 C 570.773438 677.871094 568.179688 677.125 565.597656 676.269531 C 563.011719 675.414062 560.441406 674.457031 557.886719 673.390625 C 555.332031 672.328125 552.792969 671.160156 550.273438 669.890625 C 547.75 668.617188 545.25 667.246094 542.769531 665.769531 C 540.289062 664.292969 537.832031 662.71875 535.398438 661.042969 C 532.964844 659.367188 530.558594 657.59375 528.175781 655.71875 C 525.792969 653.847656 523.441406 651.878906 521.117188 649.816406 C 518.796875 647.75 516.503906 645.59375 514.242188 643.339844 C 511.984375 641.089844 509.757812 638.746094 507.570312 636.3125 C 505.378906 633.882812 503.226562 631.359375 501.109375 628.75 C 498.992188 626.144531 496.917969 623.449219 494.878906 620.671875 C 492.84375 617.894531 490.847656 615.035156 488.898438 612.09375 C 486.945312 609.152344 485.039062 606.132812 483.175781 603.035156 C 481.3125 599.9375 479.496094 596.769531 477.726562 593.523438 C 475.957031 590.277344 474.238281 586.964844 472.566406 583.578125 C 470.894531 580.191406 469.273438 576.742188 467.707031 573.222656 C 466.136719 569.707031 464.621094 566.128906 463.15625 562.484375 C 461.691406 558.84375 460.285156 555.144531 458.929688 551.390625 C 457.574219 547.632812 456.277344 543.824219 455.035156 539.960938 C 453.792969 536.101562 452.609375 532.1875 451.480469 528.230469 C 450.355469 524.269531 449.289062 520.269531 448.28125 516.222656 C 447.273438 512.175781 446.324219 508.09375 445.4375 503.96875 C 444.550781 499.84375 443.722656 495.6875 442.957031 491.496094 C 442.195312 487.308594 441.492188 483.085938 440.851562 478.839844 C 440.210938 474.589844 439.632812 470.320312 439.121094 466.023438 C 438.605469 461.730469 438.15625 457.414062 437.769531 453.082031 C 437.382812 448.753906 437.058594 444.40625 436.800781 440.046875 C 436.542969 435.691406 436.351562 431.324219 436.222656 426.949219 C 436.089844 422.574219 436.027344 418.199219 436.027344 413.820312 C 436.027344 409.441406 436.089844 405.0625 436.222656 400.691406 C 436.351562 396.316406 436.542969 391.949219 436.800781 387.589844 C 437.058594 383.234375 437.382812 378.886719 437.769531 374.554688 C 438.15625 370.222656 438.605469 365.910156 439.121094 361.617188 C 439.632812 357.320312 440.210938 353.046875 440.851562 348.800781 C 441.492188 344.550781 442.195312 340.332031 442.957031 336.140625 C 443.722656 331.953125 444.550781 327.792969 445.4375 323.671875 C 446.324219 319.546875 447.273438 315.464844 448.28125 311.417969 C 449.289062 307.371094 450.355469 303.367188 451.480469 299.410156 C 452.609375 295.449219 453.792969 291.539062 455.035156 287.679688 C 456.277344 283.816406 457.574219 280.007812 458.929688 276.25 C 460.285156 272.492188 461.691406 268.796875 463.15625 265.152344 C 464.621094 261.511719 466.136719 257.933594 467.707031 254.414062 C 469.273438 250.898438 470.894531 247.445312 472.566406 244.0625 C 474.238281 240.675781 475.957031 237.359375 477.726562 234.117188 C 479.496094 230.871094 481.3125 227.699219 483.175781 224.605469 C 485.039062 221.507812 486.945312 218.488281 488.898438 215.546875 C 490.847656 212.605469 492.84375 209.746094 494.878906 206.96875 C 496.917969 204.191406 498.992188 201.496094 501.109375 198.886719 C 503.226562 196.28125 505.378906 193.757812 507.570312 191.324219 C 509.757812 188.890625 511.984375 186.550781 514.242188 184.300781 C 516.503906 182.046875 518.796875 179.890625 521.117188 177.824219 C 523.441406 175.761719 525.792969 173.792969 528.175781 171.917969 C 530.558594 170.046875 532.964844 168.273438 535.398438 166.597656 C 537.832031 164.921875 540.289062 163.347656 542.769531 161.871094 C 545.25 160.394531 547.75 159.023438 550.273438 157.75 C 552.792969 156.480469 555.332031 155.3125 557.886719 154.246094 C 560.441406 153.183594 563.011719 152.222656 565.597656 151.371094 C 568.179688 150.515625 570.773438 149.765625 573.382812 149.125 C 575.988281 148.480469 578.601562 147.945312 581.222656 147.515625 C 583.84375 147.085938 586.472656 146.765625 589.101562 146.550781 C 591.734375 146.335938 594.367188 146.226562 597 146.226562 C 599.636719 146.226562 602.269531 146.335938 604.898438 146.550781 C 607.53125 146.765625 610.15625 147.085938 612.777344 147.515625 C 615.402344 147.945312 618.015625 148.480469 620.621094 149.125 C 623.226562 149.765625 625.820312 150.515625 628.40625 151.371094 C 630.988281 152.222656 633.558594 153.183594 636.113281 154.246094 C 638.671875 155.3125 641.207031 156.480469 643.730469 157.75 C 646.25 159.023438 648.75 160.394531 651.230469 161.871094 C 653.710938 163.347656 656.167969 164.921875 658.601562 166.597656 C 661.035156 168.273438 663.445312 170.046875 665.828125 171.917969 C 668.207031 173.792969 670.558594 175.761719 672.882812 177.824219 C 675.207031 179.890625 677.5 182.046875 679.757812 184.300781 C 682.019531 186.550781 684.242188 188.890625 686.433594 191.324219 C 688.625 193.757812 690.777344 196.28125 692.894531 198.886719 C 695.007812 201.496094 697.085938 204.191406 699.121094 206.96875 C 701.160156 209.746094 703.152344 212.605469 705.105469 215.546875 C 707.054688 218.488281 708.964844 221.507812 710.828125 224.605469 C 712.691406 227.699219 714.503906 230.871094 716.273438 234.117188 C 718.042969 237.359375 719.765625 240.675781 721.4375 244.0625 C 723.105469 247.445312 724.726562 250.898438 726.296875 254.414062 C 727.867188 257.933594 729.382812 261.511719 730.847656 265.152344 C 732.308594 268.796875 733.71875 272.492188 735.074219 276.25 C 736.425781 280.007812 737.726562 283.816406 738.96875 287.679688 C 740.210938 291.539062 741.394531 295.449219 742.519531 299.410156 C 743.644531 303.367188 744.714844 307.371094 745.722656 311.417969 C 746.730469 315.464844 747.675781 319.546875 748.566406 323.671875 C 749.453125 327.792969 750.277344 331.953125 751.042969 336.140625 C 751.808594 340.332031 752.511719 344.550781 753.152344 348.800781 C 753.789062 353.046875 754.367188 357.320312 754.882812 361.617188 C 755.394531 365.910156 755.847656 370.222656 756.234375 374.554688 C 756.621094 378.886719 756.941406 383.234375 757.199219 387.589844 C 757.457031 391.949219 757.652344 396.316406 757.78125 400.691406 C 757.910156 405.0625 757.976562 409.441406 757.976562 413.820312 Z M 757.976562 413.820312 " fill-opacity="1" fill-rule="nonzero"/><g clip-path="url(#1205925985)"><path fill="#000000" d="M 597 691.320312 C 573.191406 691.320312 550.191406 683.640625 528.644531 668.488281 C 508.339844 654.210938 490.1875 633.910156 474.6875 608.144531 C 459.402344 582.738281 447.421875 553.226562 439.078125 520.421875 C 430.480469 486.632812 426.121094 450.769531 426.121094 413.820312 C 426.121094 376.871094 430.480469 341.003906 439.078125 307.21875 C 447.421875 274.414062 459.402344 244.902344 474.6875 219.496094 C 490.1875 193.730469 508.339844 173.425781 528.644531 159.152344 C 550.191406 144 573.191406 136.320312 597 136.320312 C 620.8125 136.320312 643.808594 144 665.355469 159.152344 C 685.660156 173.425781 703.816406 193.730469 719.316406 219.496094 C 734.597656 244.902344 746.578125 274.414062 754.925781 307.21875 C 763.523438 341.003906 767.882812 376.871094 767.882812 413.820312 C 767.882812 450.769531 763.523438 486.632812 754.925781 520.421875 C 746.578125 553.226562 734.597656 582.738281 719.316406 608.144531 C 703.816406 633.910156 685.660156 654.210938 665.355469 668.488281 C 643.808594 683.640625 620.8125 691.320312 597 691.320312 Z M 597 156.136719 C 557.613281 156.136719 520.203125 182.265625 491.664062 229.710938 C 462.171875 278.734375 445.933594 344.117188 445.933594 413.820312 C 445.933594 483.523438 462.171875 548.90625 491.664062 597.925781 C 520.203125 645.375 557.613281 671.503906 597 671.503906 C 636.386719 671.503906 673.796875 645.375 702.339844 597.925781 C 731.828125 548.90625 748.070312 483.523438 748.070312 413.820312 C 748.070312 344.117188 731.828125 278.734375 702.339844 229.710938 C 673.796875 182.265625 636.386719 156.136719 597 156.136719 Z M 597 156.136719 " fill-opacity="1" fill-rule="nonzero"/></g><path fill="#000000" d="M 619.289062 500.347656 C 619.289062 502.3125 619.261719 504.277344 619.203125 506.242188 C 619.144531 508.207031 619.058594 510.167969 618.945312 512.125 C 618.828125 514.082031 618.683594 516.035156 618.511719 517.980469 C 618.339844 519.925781 618.140625 521.863281 617.910156 523.792969 C 617.679688 525.722656 617.421875 527.640625 617.136719 529.546875 C 616.851562 531.453125 616.539062 533.351562 616.195312 535.230469 C 615.855469 537.113281 615.488281 538.980469 615.089844 540.832031 C 614.695312 542.683594 614.273438 544.519531 613.824219 546.335938 C 613.371094 548.152344 612.898438 549.949219 612.394531 551.726562 C 611.890625 553.507812 611.363281 555.261719 610.808594 556.996094 C 610.253906 558.730469 609.675781 560.441406 609.070312 562.128906 C 608.46875 563.816406 607.839844 565.476562 607.1875 567.113281 C 606.53125 568.746094 605.855469 570.355469 605.15625 571.933594 C 604.457031 573.515625 603.734375 575.066406 602.988281 576.585938 C 602.242188 578.105469 601.472656 579.59375 600.683594 581.050781 C 599.894531 582.507812 599.085938 583.933594 598.253906 585.324219 C 597.421875 586.714844 596.570312 588.070312 595.699219 589.390625 C 594.832031 590.710938 593.941406 591.996094 593.03125 593.242188 C 592.125 594.492188 591.195312 595.703125 590.253906 596.871094 C 589.308594 598.042969 588.347656 599.175781 587.371094 600.269531 C 586.394531 601.363281 585.402344 602.414062 584.394531 603.425781 C 583.382812 604.4375 582.363281 605.40625 581.324219 606.332031 C 580.289062 607.257812 579.238281 608.144531 578.175781 608.984375 C 577.113281 609.824219 576.039062 610.621094 574.953125 611.375 C 573.867188 612.128906 572.773438 612.835938 571.664062 613.496094 C 570.558594 614.160156 569.441406 614.777344 568.320312 615.347656 C 567.195312 615.917969 566.0625 616.441406 564.921875 616.921875 C 563.78125 617.398438 562.632812 617.828125 561.480469 618.214844 C 560.328125 618.597656 559.171875 618.933594 558.007812 619.222656 C 556.847656 619.511719 555.679688 619.75 554.511719 619.945312 C 553.339844 620.136719 552.167969 620.28125 550.996094 620.378906 C 549.820312 620.472656 548.644531 620.523438 547.46875 620.523438 C 546.296875 620.523438 545.121094 620.472656 543.945312 620.378906 C 542.773438 620.28125 541.601562 620.136719 540.429688 619.945312 C 539.261719 619.75 538.09375 619.511719 536.933594 619.222656 C 535.769531 618.933594 534.613281 618.597656 533.460938 618.214844 C 532.304688 617.828125 531.160156 617.398438 530.019531 616.921875 C 528.878906 616.441406 527.746094 615.917969 526.621094 615.347656 C 525.496094 614.777344 524.382812 614.160156 523.273438 613.496094 C 522.167969 612.835938 521.074219 612.128906 519.988281 611.375 C 518.902344 610.621094 517.828125 609.824219 516.765625 608.984375 C 515.703125 608.144531 514.652344 607.257812 513.613281 606.332031 C 512.578125 605.40625 511.554688 604.4375 510.546875 603.425781 C 509.539062 602.414062 508.546875 601.363281 507.570312 600.269531 C 506.59375 599.175781 505.632812 598.042969 504.6875 596.871094 C 503.742188 595.699219 502.816406 594.492188 501.910156 593.242188 C 501 591.996094 500.109375 590.710938 499.238281 589.390625 C 498.367188 588.070312 497.519531 586.714844 496.6875 585.324219 C 495.855469 583.933594 495.046875 582.507812 494.257812 581.050781 C 493.464844 579.59375 492.699219 578.105469 491.953125 576.585938 C 491.207031 575.066406 490.484375 573.515625 489.785156 571.933594 C 489.085938 570.355469 488.40625 568.746094 487.753906 567.113281 C 487.101562 565.476562 486.472656 563.816406 485.871094 562.128906 C 485.265625 560.441406 484.6875 558.730469 484.132812 556.996094 C 483.578125 555.261719 483.050781 553.507812 482.546875 551.726562 C 482.042969 549.949219 481.566406 548.152344 481.117188 546.335938 C 480.667969 544.519531 480.246094 542.683594 479.851562 540.832031 C 479.453125 538.980469 479.085938 537.113281 478.742188 535.230469 C 478.402344 533.351562 478.089844 531.453125 477.804688 529.546875 C 477.519531 527.640625 477.261719 525.722656 477.03125 523.792969 C 476.800781 521.863281 476.601562 519.925781 476.429688 517.980469 C 476.257812 516.035156 476.113281 514.082031 475.996094 512.125 C 475.882812 510.167969 475.796875 508.207031 475.738281 506.242188 C 475.679688 504.277344 475.652344 502.3125 475.652344 500.347656 C 475.652344 498.378906 475.679688 496.414062 475.738281 494.449219 C 475.796875 492.484375 475.882812 490.523438 475.996094 488.566406 C 476.113281 486.609375 476.257812 484.660156 476.429688 482.714844 C 476.601562 480.769531 476.800781 478.832031 477.03125 476.902344 C 477.261719 474.972656 477.519531 473.054688 477.804688 471.144531 C 478.089844 469.238281 478.402344 467.34375 478.742188 465.460938 C 479.085938 463.578125 479.453125 461.710938 479.851562 459.859375 C 480.246094 458.007812 480.667969 456.175781 481.117188 454.355469 C 481.566406 452.539062 482.042969 450.742188 482.546875 448.964844 C 483.050781 447.1875 483.578125 445.429688 484.132812 443.695312 C 484.6875 441.960938 485.265625 440.25 485.867188 438.5625 C 486.472656 436.875 487.101562 435.214844 487.753906 433.582031 C 488.40625 431.945312 489.085938 430.335938 489.785156 428.757812 C 490.484375 427.179688 491.207031 425.628906 491.953125 424.109375 C 492.699219 422.585938 493.464844 421.097656 494.257812 419.640625 C 495.046875 418.183594 495.855469 416.761719 496.6875 415.371094 C 497.519531 413.980469 498.367188 412.621094 499.238281 411.300781 C 500.109375 409.980469 501 408.695312 501.910156 407.449219 C 502.816406 406.203125 503.742188 404.992188 504.6875 403.820312 C 505.632812 402.648438 506.59375 401.515625 507.570312 400.425781 C 508.546875 399.332031 509.539062 398.28125 510.546875 397.269531 C 511.554688 396.257812 512.578125 395.289062 513.613281 394.359375 C 514.652344 393.433594 515.703125 392.550781 516.765625 391.707031 C 517.828125 390.867188 518.902344 390.070312 519.988281 389.320312 C 521.074219 388.566406 522.167969 387.859375 523.273438 387.195312 C 524.382812 386.53125 525.496094 385.917969 526.621094 385.34375 C 527.746094 384.773438 528.878906 384.25 530.019531 383.773438 C 531.160156 383.292969 532.304688 382.863281 533.460938 382.480469 C 534.613281 382.097656 535.769531 381.761719 536.933594 381.472656 C 538.09375 381.183594 539.261719 380.941406 540.429688 380.75 C 541.601562 380.558594 542.773438 380.410156 543.945312 380.316406 C 545.121094 380.21875 546.296875 380.171875 547.46875 380.171875 C 548.644531 380.171875 549.820312 380.21875 550.996094 380.316406 C 552.167969 380.410156 553.339844 380.558594 554.511719 380.75 C 555.679688 380.941406 556.847656 381.183594 558.007812 381.472656 C 559.171875 381.761719 560.328125 382.097656 561.480469 382.480469 C 562.632812 382.863281 563.78125 383.292969 564.921875 383.773438 C 566.0625 384.25 567.195312 384.773438 568.320312 385.34375 C 569.441406 385.917969 570.558594 386.53125 571.664062 387.195312 C 572.773438 387.859375 573.867188 388.566406 574.953125 389.320312 C 576.039062 390.070312 577.113281 390.867188 578.175781 391.707031 C 579.238281 392.550781 580.289062 393.433594 581.324219 394.359375 C 582.363281 395.289062 583.382812 396.257812 584.394531 397.269531 C 585.402344 398.28125 586.394531 399.332031 587.371094 400.425781 C 588.347656 401.515625 589.308594 402.648438 590.253906 403.820312 C 591.195312 404.992188 592.125 406.203125 593.03125 407.449219 C 593.941406 408.695312 594.832031 409.980469 595.699219 411.300781 C 596.570312 412.621094 597.421875 413.980469 598.253906 415.371094 C 599.085938 416.761719 599.894531 418.183594 600.683594 419.640625 C 601.472656 421.097656 602.242188 422.585938 602.988281 424.109375 C 603.734375 425.628906 604.457031 427.179688 605.15625 428.757812 C 605.855469 430.335938 606.53125 431.945312 607.1875 433.582031 C 607.839844 435.214844 608.46875 436.875 609.070312 438.5625 C 609.675781 440.25 610.253906 441.960938 610.808594 443.695312 C 611.363281 445.429688 611.890625 447.1875 612.394531 448.964844 C 612.898438 450.742188 613.371094 452.539062 613.824219 454.355469 C 614.273438 456.175781 614.695312 458.007812 615.089844 459.859375 C 615.488281 461.710938 615.855469 463.578125 616.195312 465.460938 C 616.539062 467.34375 616.851562 469.238281 617.136719 471.144531 C 617.421875 473.054688 617.679688 474.972656 617.910156 476.902344 C 618.140625 478.832031 618.339844 480.769531 618.511719 482.714844 C 618.683594 484.660156 618.828125 486.609375 618.945312 488.566406 C 619.058594 490.523438 619.144531 492.484375 619.203125 494.449219 C 619.261719 496.414062 619.289062 498.378906 619.289062 500.347656 Z M 619.289062 500.347656 " fill-opacity="1" fill-rule="nonzero"/><path fill="#c7b299" d="M 597 146.226562 C 508.097656 146.226562 436.027344 266.03125 436.027344 413.820312 C 436.027344 427.945312 436.71875 441.796875 438 455.324219 C 438.398438 459.574219 442.335938 463.300781 448.167969 465.273438 C 493.324219 480.542969 543.746094 489.128906 597 489.128906 C 650.253906 489.128906 700.679688 480.542969 745.835938 465.273438 C 751.664062 463.300781 755.601562 459.574219 756.003906 455.324219 C 757.28125 441.796875 757.976562 427.945312 757.976562 413.820312 C 757.976562 266.03125 685.902344 146.226562 597 146.226562 Z M 597 146.226562 " fill-opacity="1" fill-rule="nonzero"/><g clip-path="url(#424db9f332)"><path fill="#000000" d="M 597 499.039062 C 543.980469 499.039062 492.835938 490.835938 444.996094 474.660156 C 435.214844 471.351562 428.914062 464.472656 428.136719 456.257812 C 426.800781 442.105469 426.121094 427.828125 426.121094 413.820312 C 426.121094 376.871094 430.480469 341.003906 439.078125 307.21875 C 447.421875 274.414062 459.402344 244.902344 474.6875 219.496094 C 490.1875 193.730469 508.339844 173.425781 528.644531 159.152344 C 550.191406 144 573.191406 136.320312 597 136.320312 C 620.8125 136.320312 643.808594 144 665.355469 159.152344 C 685.660156 173.425781 703.816406 193.730469 719.316406 219.496094 C 734.597656 244.902344 746.578125 274.414062 754.925781 307.21875 C 763.523438 341.003906 767.882812 376.871094 767.882812 413.820312 C 767.882812 427.828125 767.203125 442.105469 765.863281 456.257812 C 765.089844 464.472656 758.785156 471.351562 749.007812 474.660156 C 701.164062 490.835938 650.023438 499.039062 597 499.039062 Z M 447.816406 453.914062 C 448.191406 454.328125 449.269531 455.1875 451.339844 455.886719 C 497.132812 471.371094 546.140625 479.222656 597 479.222656 C 647.859375 479.222656 696.867188 471.371094 742.664062 455.886719 C 744.734375 455.1875 745.808594 454.328125 746.1875 453.914062 C 747.433594 440.539062 748.070312 427.050781 748.070312 413.820312 C 748.070312 344.117188 731.828125 278.734375 702.339844 229.710938 C 673.796875 182.265625 636.386719 156.136719 597 156.136719 C 557.613281 156.136719 520.207031 182.265625 491.664062 229.710938 C 462.171875 278.734375 445.933594 344.117188 445.933594 413.820312 C 445.933594 427.050781 446.566406 440.539062 447.816406 453.914062 Z M 447.816406 453.914062 " fill-opacity="1" fill-rule="nonzero"/></g><path fill="#1a1a1a" d="M 459.726562 114.886719 C 464.78125 45.027344 632.675781 29.019531 690.992188 121.085938 C 617.59375 58.382812 497.445312 59.085938 459.726562 114.886719 " fill-opacity="1" fill-rule="evenodd"/><path fill="#1a1a1a" d="M 266.839844 100.292969 C 254.304688 31.117188 84.882812 28.246094 36.503906 124.46875 C 103.09375 56.316406 223.183594 47.660156 266.839844 100.292969 " fill-opacity="1" fill-rule="evenodd"/></svg>