<svg xmlns="http://www.w3.org/2000/svg" xmlns:xlink="http://www.w3.org/1999/xlink" width="1024" zoomAndPan="magnify" viewBox="0 0 768 767.999994" height="1024" preserveAspectRatio="xMidYMid meet" version="1.0"><defs><clipPath id="d95f294de8"><path d="M 0 156.625 L 411 156.625 L 411 510.625 L 0 510.625 Z M 0 156.625 " clip-rule="nonzero"/></clipPath><clipPath id="64906acc6f"><path d="M 356 156.625 L 768 156.625 L 768 510.625 L 356 510.625 Z M 356 156.625 " clip-rule="nonzero"/></clipPath></defs><path fill="#ffffff" d="M 2.398438 333.730469 C 2.398438 430.347656 80.769531 508.675781 177.460938 508.675781 C 274.144531 508.675781 352.515625 430.347656 352.515625 333.730469 C 352.515625 237.109375 274.144531 158.78125 177.460938 158.78125 C 80.769531 158.78125 2.398438 237.109375 2.398438 333.730469 " fill-opacity="1" fill-rule="nonzero"/><g clip-path="url(#d95f294de8)"><path stroke-linecap="butt" transform="matrix(0.20607, 0, 0, -0.205934, -54.207911, 771.541278)" fill="none" stroke-linejoin="miter" d="M 274.694736 2125.979538 C 274.694736 1656.813041 655.007676 1276.456989 1124.223955 1276.456989 C 1593.402322 1276.456989 1973.715262 1656.813041 1973.715262 2125.979538 C 1973.715262 2595.165004 1593.402322 2975.521056 1124.223955 2975.521056 C 655.007676 2975.521056 274.694736 2595.165004 274.694736 2125.979538 Z M 274.694736 2125.979538 " stroke="#100f0d" stroke-width="20" stroke-opacity="1" stroke-miterlimit="10"/></g><path fill="#100f0d" d="M 220.203125 424.429688 C 210.859375 424.429688 203.273438 416.851562 203.273438 407.511719 C 203.273438 398.171875 210.859375 390.601562 220.203125 390.601562 C 229.550781 390.601562 237.125 398.171875 237.125 407.511719 C 237.125 416.851562 229.550781 424.429688 220.203125 424.429688 Z M 177.460938 206.992188 C 155.410156 206.992188 134.683594 212.621094 116.628906 222.507812 C 135.738281 228.492188 149.601562 246.320312 149.601562 267.394531 C 149.601562 293.371094 128.535156 314.421875 102.542969 314.421875 C 83.457031 314.421875 67.066406 303.054688 59.679688 286.75 C 53.867188 301.277344 50.636719 317.117188 50.636719 333.730469 C 50.636719 403.722656 107.421875 460.460938 177.460938 460.460938 C 247.492188 460.460938 304.273438 403.722656 304.273438 333.730469 C 304.273438 263.734375 247.492188 206.992188 177.460938 206.992188 " fill-opacity="1" fill-rule="nonzero"/><path fill="#ffffff" d="M 765.402344 333.730469 C 765.402344 430.347656 687.023438 508.675781 590.339844 508.675781 C 493.65625 508.675781 415.277344 430.347656 415.277344 333.730469 C 415.277344 237.109375 493.65625 158.78125 590.339844 158.78125 C 687.023438 158.78125 765.402344 237.109375 765.402344 333.730469 " fill-opacity="1" fill-rule="nonzero"/><g clip-path="url(#64906acc6f)"><path stroke-linecap="butt" transform="matrix(0.20607, 0, 0, -0.205934, -54.207911, 771.541206)" fill="none" stroke-linejoin="miter" d="M 3977.338166 2125.979337 C 3977.338166 1656.812807 3596.987367 1276.456728 3127.809065 1276.456728 C 2658.630764 1276.456728 2278.279965 1656.812807 2278.279965 2125.979337 C 2278.279965 2595.164836 2658.630764 2975.520915 3127.809065 2975.520915 C 3596.987367 2975.520915 3977.338166 2595.164836 3977.338166 2125.979337 Z M 3977.338166 2125.979337 " stroke="#100f0d" stroke-width="20" stroke-opacity="1" stroke-miterlimit="10"/></g><path fill="#100f0d" d="M 530.667969 407.511719 C 530.667969 398.171875 538.242188 390.601562 547.589844 390.601562 C 556.941406 390.601562 564.515625 398.171875 564.515625 407.511719 C 564.515625 416.851562 556.941406 424.429688 547.589844 424.429688 C 538.242188 424.429688 530.667969 416.851562 530.667969 407.511719 Z M 463.519531 333.730469 C 463.519531 403.722656 520.300781 460.460938 590.339844 460.460938 C 660.378906 460.460938 717.152344 403.722656 717.152344 333.730469 C 717.152344 317.117188 713.925781 301.277344 708.113281 286.75 C 700.726562 303.054688 684.335938 314.421875 665.257812 314.421875 C 639.257812 314.421875 618.191406 293.371094 618.191406 267.394531 C 618.191406 246.320312 632.054688 228.492188 651.171875 222.507812 C 633.109375 212.621094 612.378906 206.992188 590.339844 206.992188 C 520.300781 206.992188 463.519531 263.734375 463.519531 333.730469 " fill-opacity="1" fill-rule="nonzero"/></svg>