<svg xmlns="http://www.w3.org/2000/svg" xmlns:xlink="http://www.w3.org/1999/xlink" width="1024" zoomAndPan="magnify" viewBox="0 0 768 767.999994" height="1024" preserveAspectRatio="xMidYMid meet" version="1.0"><defs><clipPath id="8c24b9f88d"><path d="M 281 461 L 434 461 L 434 553.289062 L 281 553.289062 Z M 281 461 " clip-rule="nonzero"/></clipPath></defs><g clip-path="url(#8c24b9f88d)"><path fill="#000000" d="M 357.171875 553.039062 C 399.160156 553.039062 433.328125 518.835938 433.328125 476.804688 C 433.328125 468.507812 426.601562 461.773438 418.300781 461.773438 C 410.007812 461.773438 403.269531 468.507812 403.269531 476.804688 C 403.269531 502.253906 382.582031 522.960938 357.15625 522.960938 C 331.734375 522.960938 311.046875 502.253906 311.046875 476.804688 C 311.046875 468.507812 304.320312 461.773438 296.015625 461.773438 C 287.726562 461.773438 281 468.507812 281 476.804688 C 281.015625 518.835938 315.183594 553.039062 357.171875 553.039062 Z M 357.171875 553.039062 " fill-opacity="1" fill-rule="nonzero"/></g><path fill="#000000" d="M 73.355469 288.769531 C 72.15625 289.96875 70.988281 291.199219 69.847656 292.457031 C 68.707031 293.714844 67.601562 295 66.523438 296.3125 C 65.449219 297.625 64.402344 298.964844 63.394531 300.328125 C 62.382812 301.691406 61.40625 303.082031 60.464844 304.492188 C 59.523438 305.90625 58.613281 307.339844 57.742188 308.796875 C 56.871094 310.253906 56.035156 311.730469 55.234375 313.226562 C 54.433594 314.722656 53.671875 316.242188 52.945312 317.777344 C 52.222656 319.3125 51.535156 320.863281 50.882812 322.433594 C 50.234375 324 49.625 325.585938 49.054688 327.183594 C 48.480469 328.78125 47.949219 330.394531 47.457031 332.019531 C 46.964844 333.644531 46.511719 335.28125 46.101562 336.925781 C 45.6875 338.574219 45.316406 340.230469 44.984375 341.898438 C 44.65625 343.5625 44.363281 345.234375 44.117188 346.914062 C 43.867188 348.59375 43.660156 350.277344 43.492188 351.96875 C 43.328125 353.660156 43.203125 355.351562 43.117188 357.046875 C 43.035156 358.746094 42.992188 360.441406 42.992188 362.140625 C 42.992188 363.835938 43.035156 365.535156 43.117188 367.230469 C 43.203125 368.925781 43.328125 370.621094 43.492188 372.308594 C 43.660156 374 43.867188 375.683594 44.117188 377.363281 C 44.363281 379.042969 44.652344 380.71875 44.984375 382.382812 C 45.316406 384.046875 45.6875 385.703125 46.101562 387.351562 C 46.511719 389 46.964844 390.636719 47.457031 392.261719 C 47.949219 393.886719 48.480469 395.496094 49.050781 397.097656 C 49.625 398.695312 50.234375 400.277344 50.882812 401.847656 C 51.53125 403.417969 52.21875 404.96875 52.945312 406.503906 C 53.671875 408.039062 54.433594 409.554688 55.234375 411.050781 C 56.03125 412.550781 56.867188 414.027344 57.738281 415.484375 C 58.613281 416.941406 59.519531 418.375 60.460938 419.785156 C 61.40625 421.199219 62.382812 422.585938 63.390625 423.949219 C 64.402344 425.3125 65.445312 426.652344 66.523438 427.964844 C 67.597656 429.277344 68.707031 430.5625 69.84375 431.820312 C 70.984375 433.082031 72.152344 434.308594 73.351562 435.511719 C 74.550781 436.710938 75.78125 437.882812 77.039062 439.023438 C 78.292969 440.164062 79.578125 441.273438 80.890625 442.347656 C 82.203125 443.425781 83.539062 444.46875 84.902344 445.480469 C 86.261719 446.492188 87.648438 447.472656 89.058594 448.414062 C 90.472656 449.359375 91.902344 450.265625 93.359375 451.140625 C 94.8125 452.011719 96.289062 452.847656 97.785156 453.648438 C 99.28125 454.449219 100.796875 455.214844 102.328125 455.941406 C 103.863281 456.664062 105.414062 457.355469 106.980469 458.003906 C 108.546875 458.652344 110.128906 459.265625 111.726562 459.835938 C 113.324219 460.410156 114.9375 460.941406 116.558594 461.433594 C 118.183594 461.925781 119.816406 462.378906 121.460938 462.792969 C 123.109375 463.207031 124.761719 463.578125 126.425781 463.910156 C 128.089844 464.238281 129.761719 464.53125 131.4375 464.78125 C 133.117188 465.027344 134.800781 465.238281 136.488281 465.402344 C 138.175781 465.570312 139.867188 465.695312 141.5625 465.777344 C 143.257812 465.859375 144.953125 465.902344 146.648438 465.902344 C 148.34375 465.902344 150.039062 465.859375 151.734375 465.777344 C 153.429688 465.695312 155.121094 465.570312 156.808594 465.402344 C 158.496094 465.238281 160.179688 465.027344 161.859375 464.78125 C 163.535156 464.53125 165.207031 464.242188 166.871094 463.910156 C 168.535156 463.578125 170.191406 463.207031 171.835938 462.792969 C 173.480469 462.382812 175.117188 461.929688 176.738281 461.433594 C 178.363281 460.941406 179.972656 460.410156 181.570312 459.835938 C 183.167969 459.265625 184.75 458.65625 186.316406 458.003906 C 187.882812 457.355469 189.433594 456.667969 190.96875 455.941406 C 192.503906 455.214844 194.015625 454.453125 195.511719 453.652344 C 197.007812 452.851562 198.484375 452.015625 199.941406 451.140625 C 201.394531 450.269531 202.828125 449.359375 204.238281 448.417969 C 205.648438 447.472656 207.035156 446.496094 208.398438 445.484375 C 209.761719 444.472656 211.097656 443.429688 212.410156 442.351562 C 213.71875 441.273438 215.003906 440.164062 216.261719 439.023438 C 217.519531 437.882812 218.746094 436.714844 219.945312 435.511719 C 221.144531 434.3125 222.316406 433.082031 223.453125 431.824219 C 224.59375 430.566406 225.703125 429.28125 226.777344 427.96875 C 227.855469 426.65625 228.898438 425.316406 229.90625 423.953125 C 230.917969 422.589844 231.894531 421.203125 232.835938 419.789062 C 233.78125 418.378906 234.6875 416.945312 235.558594 415.488281 C 236.433594 414.03125 237.269531 412.554688 238.066406 411.054688 C 238.867188 409.558594 239.628906 408.042969 240.355469 406.507812 C 241.082031 404.972656 241.769531 403.417969 242.417969 401.851562 C 243.066406 400.28125 243.675781 398.699219 244.25 397.097656 C 244.820312 395.5 245.351562 393.886719 245.84375 392.261719 C 246.335938 390.636719 246.789062 389.003906 247.203125 387.355469 C 247.613281 385.707031 247.984375 384.050781 248.316406 382.386719 C 248.648438 380.71875 248.9375 379.046875 249.1875 377.367188 C 249.433594 375.6875 249.644531 374.003906 249.808594 372.3125 C 249.976562 370.625 250.101562 368.929688 250.183594 367.234375 C 250.265625 365.539062 250.308594 363.839844 250.308594 362.144531 C 250.308594 360.445312 250.265625 358.746094 250.183594 357.050781 C 250.101562 355.355469 249.976562 353.664062 249.808594 351.972656 C 249.644531 350.28125 249.433594 348.597656 249.1875 346.917969 C 248.9375 345.238281 248.648438 343.566406 248.316406 341.898438 C 247.984375 340.234375 247.613281 338.578125 247.203125 336.929688 C 246.789062 335.285156 246.335938 333.648438 245.84375 332.023438 C 245.351562 330.398438 244.820312 328.785156 244.25 327.1875 C 243.679688 325.585938 243.066406 324.003906 242.417969 322.433594 C 241.769531 320.867188 241.082031 319.3125 240.355469 317.777344 C 239.632812 316.242188 238.867188 314.726562 238.070312 313.230469 C 237.269531 311.730469 236.433594 310.253906 235.5625 308.796875 C 234.691406 307.34375 233.78125 305.90625 232.839844 304.496094 C 231.898438 303.082031 230.921875 301.695312 229.910156 300.332031 C 228.898438 298.96875 227.855469 297.628906 226.78125 296.316406 C 225.703125 295.003906 224.597656 293.71875 223.457031 292.460938 C 222.316406 291.203125 221.148438 289.972656 219.949219 288.773438 C 218.75 287.570312 217.519531 286.402344 216.265625 285.261719 C 215.007812 284.121094 213.722656 283.011719 212.410156 281.933594 C 211.101562 280.855469 209.761719 279.8125 208.402344 278.800781 C 207.039062 277.789062 205.652344 276.8125 204.242188 275.867188 C 202.832031 274.925781 201.398438 274.015625 199.941406 273.144531 C 198.488281 272.269531 197.011719 271.433594 195.515625 270.632812 C 194.019531 269.832031 192.503906 269.070312 190.972656 268.34375 C 189.4375 267.617188 187.886719 266.929688 186.320312 266.277344 C 184.753906 265.628906 183.171875 265.019531 181.574219 264.445312 C 179.976562 263.875 178.367188 263.339844 176.742188 262.847656 C 175.121094 262.355469 173.484375 261.902344 171.839844 261.488281 C 170.195312 261.078125 168.539062 260.703125 166.875 260.375 C 165.210938 260.042969 163.539062 259.753906 161.863281 259.503906 C 160.183594 259.253906 158.5 259.046875 156.8125 258.878906 C 155.125 258.714844 153.433594 258.589844 151.738281 258.503906 C 150.042969 258.421875 148.347656 258.378906 146.652344 258.378906 C 144.957031 258.378906 143.261719 258.421875 141.566406 258.503906 C 139.871094 258.585938 138.179688 258.710938 136.492188 258.878906 C 134.804688 259.046875 133.121094 259.253906 131.441406 259.503906 C 129.765625 259.75 128.09375 260.042969 126.429688 260.371094 C 124.765625 260.703125 123.113281 261.078125 121.464844 261.488281 C 119.820312 261.902344 118.1875 262.355469 116.5625 262.847656 C 114.9375 263.339844 113.328125 263.871094 111.730469 264.445312 C 110.132812 265.015625 108.550781 265.628906 106.984375 266.277344 C 105.417969 266.925781 103.867188 267.613281 102.332031 268.339844 C 100.800781 269.066406 99.285156 269.832031 97.789062 270.628906 C 96.292969 271.429688 94.816406 272.269531 93.363281 273.140625 C 91.90625 274.015625 90.472656 274.921875 89.0625 275.867188 C 87.652344 276.808594 86.265625 277.785156 84.902344 278.796875 C 83.542969 279.808594 82.203125 280.855469 80.894531 281.929688 C 79.582031 283.007812 78.296875 284.117188 77.039062 285.257812 C 75.785156 286.398438 74.554688 287.570312 73.355469 288.769531 Z M 73.355469 288.769531 " fill-opacity="1" fill-rule="nonzero"/><path fill="#ffffff" d="M 105.960938 310.957031 C 105.222656 311.375 104.507812 311.832031 103.8125 312.320312 C 103.117188 312.808594 102.449219 313.332031 101.808594 313.886719 C 101.164062 314.441406 100.550781 315.027344 99.964844 315.640625 C 99.378906 316.257812 98.824219 316.898438 98.300781 317.570312 C 97.78125 318.238281 97.292969 318.933594 96.835938 319.652344 C 96.382812 320.367188 95.964844 321.105469 95.582031 321.867188 C 95.199219 322.625 94.855469 323.402344 94.550781 324.195312 C 94.246094 324.988281 93.980469 325.792969 93.753906 326.613281 C 93.527344 327.429688 93.339844 328.257812 93.195312 329.097656 C 93.050781 329.933594 92.945312 330.777344 92.882812 331.621094 C 92.820312 332.46875 92.800781 333.320312 92.820312 334.167969 C 92.839844 335.019531 92.902344 335.863281 93.007812 336.707031 C 93.109375 337.550781 93.253906 338.386719 93.441406 339.21875 C 93.625 340.046875 93.851562 340.863281 94.117188 341.671875 C 94.382812 342.476562 94.691406 343.269531 95.035156 344.046875 C 95.378906 344.824219 95.757812 345.582031 96.175781 346.320312 C 96.59375 347.0625 97.046875 347.777344 97.535156 348.472656 C 98.027344 349.167969 98.546875 349.839844 99.101562 350.480469 C 99.65625 351.125 100.242188 351.738281 100.855469 352.328125 C 101.46875 352.914062 102.113281 353.46875 102.78125 353.988281 C 103.449219 354.511719 104.144531 355 104.859375 355.457031 C 105.578125 355.910156 106.316406 356.328125 107.074219 356.710938 C 107.832031 357.09375 108.605469 357.4375 109.398438 357.746094 C 110.191406 358.050781 110.996094 358.316406 111.8125 358.542969 C 112.632812 358.769531 113.460938 358.957031 114.296875 359.101562 C 115.132812 359.246094 115.972656 359.351562 116.820312 359.414062 C 117.667969 359.476562 118.515625 359.5 119.363281 359.476562 C 120.210938 359.457031 121.058594 359.394531 121.902344 359.292969 C 122.742188 359.1875 123.578125 359.042969 124.40625 358.855469 C 125.234375 358.671875 126.054688 358.445312 126.859375 358.175781 C 127.664062 357.910156 128.457031 357.605469 129.234375 357.261719 C 130.007812 356.917969 130.765625 356.535156 131.503906 356.117188 C 132.242188 355.699219 132.960938 355.246094 133.65625 354.753906 C 134.347656 354.265625 135.015625 353.746094 135.660156 353.191406 C 136.304688 352.632812 136.917969 352.050781 137.503906 351.433594 C 138.089844 350.820312 138.644531 350.175781 139.164062 349.507812 C 139.6875 348.835938 140.175781 348.144531 140.628906 347.425781 C 141.085938 346.707031 141.503906 345.96875 141.886719 345.210938 C 142.265625 344.449219 142.609375 343.675781 142.917969 342.882812 C 143.222656 342.089844 143.488281 341.28125 143.714844 340.464844 C 143.941406 339.644531 144.128906 338.816406 144.273438 337.980469 C 144.417969 337.140625 144.523438 336.300781 144.585938 335.453125 C 144.648438 334.605469 144.667969 333.757812 144.648438 332.90625 C 144.628906 332.058594 144.566406 331.210938 144.460938 330.367188 C 144.359375 329.523438 144.210938 328.6875 144.027344 327.859375 C 143.839844 327.027344 143.613281 326.210938 143.347656 325.402344 C 143.082031 324.597656 142.777344 323.804688 142.433594 323.027344 C 142.089844 322.25 141.710938 321.492188 141.289062 320.753906 C 140.871094 320.015625 140.417969 319.296875 139.929688 318.601562 C 139.441406 317.90625 138.921875 317.238281 138.367188 316.59375 C 137.8125 315.949219 137.226562 315.335938 136.613281 314.75 C 135.996094 314.164062 135.355469 313.609375 134.6875 313.085938 C 134.015625 312.5625 133.324219 312.074219 132.605469 311.617188 C 131.890625 311.164062 131.152344 310.746094 130.394531 310.363281 C 129.636719 309.980469 128.859375 309.636719 128.070312 309.332031 C 127.277344 309.023438 126.472656 308.757812 125.652344 308.53125 C 124.835938 308.304688 124.007812 308.117188 123.171875 307.972656 C 122.335938 307.828125 121.492188 307.722656 120.648438 307.660156 C 119.800781 307.597656 118.953125 307.578125 118.105469 307.597656 C 117.253906 307.617188 116.410156 307.679688 115.566406 307.785156 C 114.722656 307.886719 113.886719 308.035156 113.058594 308.21875 C 112.230469 308.40625 111.414062 308.632812 110.609375 308.898438 C 109.800781 309.164062 109.011719 309.46875 108.234375 309.8125 C 107.457031 310.15625 106.699219 310.539062 105.960938 310.957031 Z M 105.960938 310.957031 " fill-opacity="1" fill-rule="nonzero"/><path fill="#ffffff" d="M 147.984375 397.394531 C 147.984375 397.9375 148.011719 398.484375 148.066406 399.023438 C 148.117188 399.566406 148.199219 400.105469 148.304688 400.636719 C 148.410156 401.171875 148.542969 401.699219 148.699219 402.222656 C 148.859375 402.742188 149.042969 403.253906 149.25 403.757812 C 149.457031 404.261719 149.691406 404.75 149.945312 405.230469 C 150.203125 405.710938 150.484375 406.179688 150.785156 406.632812 C 151.085938 407.085938 151.410156 407.519531 151.753906 407.941406 C 152.101562 408.363281 152.464844 408.765625 152.851562 409.152344 C 153.234375 409.535156 153.636719 409.902344 154.058594 410.246094 C 154.476562 410.59375 154.914062 410.914062 155.367188 411.21875 C 155.820312 411.519531 156.285156 411.800781 156.765625 412.058594 C 157.246094 412.3125 157.734375 412.546875 158.238281 412.753906 C 158.742188 412.964844 159.253906 413.144531 159.773438 413.304688 C 160.292969 413.460938 160.820312 413.59375 161.355469 413.699219 C 161.886719 413.808594 162.425781 413.886719 162.964844 413.941406 C 163.507812 413.992188 164.050781 414.019531 164.59375 414.019531 C 165.136719 414.019531 165.679688 413.992188 166.222656 413.941406 C 166.761719 413.886719 167.300781 413.808594 167.835938 413.699219 C 168.367188 413.59375 168.894531 413.460938 169.414062 413.304688 C 169.9375 413.144531 170.449219 412.964844 170.949219 412.753906 C 171.453125 412.546875 171.945312 412.3125 172.421875 412.058594 C 172.902344 411.800781 173.371094 411.519531 173.820312 411.21875 C 174.273438 410.914062 174.710938 410.59375 175.128906 410.246094 C 175.550781 409.902344 175.953125 409.535156 176.339844 409.152344 C 176.722656 408.765625 177.085938 408.363281 177.433594 407.941406 C 177.777344 407.519531 178.101562 407.085938 178.402344 406.632812 C 178.707031 406.179688 178.984375 405.710938 179.242188 405.230469 C 179.5 404.75 179.730469 404.261719 179.9375 403.757812 C 180.148438 403.253906 180.328125 402.742188 180.488281 402.222656 C 180.644531 401.699219 180.777344 401.171875 180.882812 400.636719 C 180.988281 400.105469 181.070312 399.566406 181.121094 399.023438 C 181.175781 398.484375 181.203125 397.9375 181.203125 397.394531 C 181.203125 396.851562 181.175781 396.308594 181.121094 395.765625 C 181.070312 395.222656 180.988281 394.6875 180.882812 394.152344 C 180.777344 393.617188 180.644531 393.089844 180.488281 392.570312 C 180.328125 392.046875 180.148438 391.535156 179.9375 391.03125 C 179.730469 390.53125 179.5 390.039062 179.242188 389.558594 C 178.984375 389.078125 178.707031 388.609375 178.402344 388.160156 C 178.101562 387.707031 177.777344 387.269531 177.433594 386.847656 C 177.085938 386.425781 176.722656 386.023438 176.339844 385.640625 C 175.953125 385.253906 175.550781 384.890625 175.128906 384.542969 C 174.710938 384.199219 174.273438 383.875 173.820312 383.570312 C 173.371094 383.269531 172.902344 382.988281 172.421875 382.734375 C 171.945312 382.476562 171.453125 382.242188 170.949219 382.035156 C 170.449219 381.828125 169.9375 381.644531 169.414062 381.484375 C 168.894531 381.328125 168.367188 381.195312 167.835938 381.089844 C 167.300781 380.984375 166.761719 380.902344 166.222656 380.851562 C 165.679688 380.796875 165.136719 380.769531 164.59375 380.769531 C 164.050781 380.769531 163.507812 380.796875 162.964844 380.851562 C 162.425781 380.902344 161.886719 380.984375 161.355469 381.089844 C 160.820312 381.195312 160.292969 381.328125 159.773438 381.484375 C 159.253906 381.644531 158.742188 381.828125 158.238281 382.035156 C 157.734375 382.242188 157.246094 382.476562 156.765625 382.734375 C 156.285156 382.988281 155.820312 383.269531 155.367188 383.570312 C 154.914062 383.875 154.476562 384.199219 154.058594 384.542969 C 153.636719 384.890625 153.234375 385.253906 152.851562 385.640625 C 152.464844 386.023438 152.101562 386.425781 151.753906 386.847656 C 151.410156 387.269531 151.085938 387.707031 150.785156 388.160156 C 150.484375 388.609375 150.203125 389.078125 149.945312 389.558594 C 149.691406 390.039062 149.457031 390.53125 149.25 391.03125 C 149.042969 391.535156 148.859375 392.046875 148.699219 392.570312 C 148.542969 393.089844 148.410156 393.617188 148.304688 394.152344 C 148.199219 394.683594 148.117188 395.222656 148.066406 395.765625 C 148.011719 396.308594 147.984375 396.851562 147.984375 397.394531 Z M 147.984375 397.394531 " fill-opacity="1" fill-rule="nonzero"/><path fill="#000000" d="M 603.304688 293.605469 C 655.117188 293.605469 699.269531 327.015625 715.425781 373.4375 C 720.015625 370.117188 724.59375 365.550781 728.1875 359.125 C 730.996094 354.089844 737.339844 352.289062 742.371094 355.101562 C 747.398438 357.910156 749.199219 364.261719 746.390625 369.296875 C 739.125 382.304688 729.285156 390.035156 720.703125 394.789062 C 721.011719 396.898438 721.273438 399.019531 721.476562 401.15625 C 729.199219 399.035156 738.042969 394.9375 745.835938 386.625 C 750.398438 381.765625 758.027344 381.515625 762.898438 386.082031 C 767.75 390.648438 768 398.289062 763.4375 403.160156 C 743.378906 424.558594 719.226562 426.722656 708.90625 427.644531 L 708.378906 427.6875 C 708.011719 427.71875 707.648438 427.734375 707.28125 427.734375 C 705.660156 427.734375 704.109375 427.398438 702.675781 426.8125 C 696.476562 424.953125 691.960938 419.214844 691.960938 412.410156 C 691.960938 363.484375 652.191406 323.679688 603.316406 323.679688 C 554.441406 323.679688 514.675781 363.484375 514.675781 412.410156 C 514.675781 420.707031 507.949219 427.453125 499.644531 427.453125 C 491.355469 427.453125 484.617188 420.722656 484.617188 412.410156 C 484.617188 346.890625 537.863281 293.605469 603.304688 293.605469 Z M 603.304688 293.605469 " fill-opacity="1" fill-rule="nonzero"/></svg>