<svg xmlns="http://www.w3.org/2000/svg" xmlns:xlink="http://www.w3.org/1999/xlink" width="1024" zoomAndPan="magnify" viewBox="0 0 768 767.999994" height="1024" preserveAspectRatio="xMidYMid meet" version="1.0"><defs><clipPath id="83fb27c1ad"><path d="M 334 461 L 487 461 L 487 553.289062 L 334 553.289062 Z M 334 461 " clip-rule="nonzero"/></clipPath></defs><g clip-path="url(#83fb27c1ad)"><path fill="#000000" d="M 410.828125 553.039062 C 368.839844 553.039062 334.671875 518.835938 334.671875 476.804688 C 334.671875 468.507812 341.398438 461.773438 349.699219 461.773438 C 357.992188 461.773438 364.730469 468.507812 364.730469 476.804688 C 364.730469 502.253906 385.417969 522.960938 410.84375 522.960938 C 436.265625 522.960938 456.953125 502.253906 456.953125 476.804688 C 456.953125 468.507812 463.679688 461.773438 471.984375 461.773438 C 480.273438 461.773438 487 468.507812 487 476.804688 C 486.984375 518.835938 452.816406 553.039062 410.828125 553.039062 Z M 410.828125 553.039062 " fill-opacity="1" fill-rule="nonzero"/></g><path fill="#000000" d="M 694.644531 288.769531 C 695.84375 289.96875 697.011719 291.199219 698.152344 292.457031 C 699.292969 293.714844 700.398438 295 701.476562 296.3125 C 702.550781 297.625 703.597656 298.964844 704.605469 300.328125 C 705.617188 301.691406 706.59375 303.082031 707.535156 304.492188 C 708.476562 305.90625 709.386719 307.339844 710.257812 308.796875 C 711.128906 310.253906 711.964844 311.730469 712.765625 313.226562 C 713.566406 314.722656 714.328125 316.242188 715.054688 317.777344 C 715.777344 319.3125 716.464844 320.863281 717.113281 322.433594 C 717.765625 324 718.375 325.585938 718.945312 327.183594 C 719.519531 328.78125 720.050781 330.394531 720.542969 332.019531 C 721.035156 333.644531 721.488281 335.28125 721.898438 336.925781 C 722.3125 338.574219 722.683594 340.230469 723.015625 341.898438 C 723.34375 343.5625 723.636719 345.234375 723.882812 346.914062 C 724.132812 348.59375 724.339844 350.277344 724.507812 351.96875 C 724.671875 353.660156 724.796875 355.351562 724.882812 357.046875 C 724.964844 358.746094 725.007812 360.441406 725.007812 362.140625 C 725.007812 363.835938 724.964844 365.535156 724.882812 367.230469 C 724.796875 368.925781 724.671875 370.621094 724.507812 372.308594 C 724.339844 374 724.132812 375.683594 723.882812 377.363281 C 723.636719 379.042969 723.347656 380.71875 723.015625 382.382812 C 722.683594 384.046875 722.3125 385.703125 721.898438 387.351562 C 721.488281 389 721.035156 390.636719 720.542969 392.261719 C 720.050781 393.886719 719.519531 395.496094 718.949219 397.097656 C 718.375 398.695312 717.765625 400.277344 717.117188 401.847656 C 716.46875 403.417969 715.78125 404.96875 715.054688 406.503906 C 714.328125 408.039062 713.566406 409.554688 712.765625 411.050781 C 711.96875 412.550781 711.132812 414.027344 710.261719 415.484375 C 709.386719 416.941406 708.480469 418.375 707.539062 419.785156 C 706.59375 421.199219 705.617188 422.585938 704.609375 423.949219 C 703.597656 425.3125 702.554688 426.652344 701.476562 427.964844 C 700.402344 429.277344 699.292969 430.5625 698.15625 431.820312 C 697.015625 433.082031 695.847656 434.308594 694.648438 435.511719 C 693.449219 436.710938 692.21875 437.882812 690.960938 439.023438 C 689.707031 440.164062 688.421875 441.273438 687.109375 442.347656 C 685.796875 443.425781 684.460938 444.46875 683.097656 445.480469 C 681.738281 446.492188 680.351562 447.472656 678.941406 448.414062 C 677.527344 449.359375 676.097656 450.265625 674.640625 451.140625 C 673.1875 452.011719 671.710938 452.847656 670.214844 453.648438 C 668.71875 454.449219 667.203125 455.214844 665.667969 455.941406 C 664.136719 456.664062 662.585938 457.355469 661.019531 458.003906 C 659.453125 458.652344 657.867188 459.265625 656.273438 459.835938 C 654.675781 460.410156 653.0625 460.941406 651.441406 461.433594 C 649.816406 461.925781 648.183594 462.378906 646.539062 462.792969 C 644.890625 463.207031 643.238281 463.578125 641.574219 463.910156 C 639.910156 464.238281 638.238281 464.53125 636.558594 464.78125 C 634.882812 465.027344 633.199219 465.238281 631.511719 465.402344 C 629.824219 465.570312 628.132812 465.695312 626.4375 465.777344 C 624.742188 465.859375 623.046875 465.902344 621.351562 465.902344 C 619.65625 465.902344 617.960938 465.859375 616.265625 465.777344 C 614.570312 465.695312 612.878906 465.570312 611.191406 465.402344 C 609.503906 465.238281 607.820312 465.027344 606.140625 464.78125 C 604.464844 464.53125 602.792969 464.242188 601.128906 463.910156 C 599.464844 463.578125 597.808594 463.207031 596.164062 462.792969 C 594.519531 462.382812 592.882812 461.929688 591.261719 461.433594 C 589.636719 460.941406 588.027344 460.410156 586.429688 459.835938 C 584.832031 459.265625 583.25 458.65625 581.683594 458.003906 C 580.117188 457.355469 578.566406 456.667969 577.03125 455.941406 C 575.496094 455.214844 573.984375 454.453125 572.488281 453.652344 C 570.992188 452.851562 569.515625 452.015625 568.058594 451.140625 C 566.605469 450.269531 565.171875 449.359375 563.761719 448.417969 C 562.351562 447.472656 560.964844 446.496094 559.601562 445.484375 C 558.238281 444.472656 556.902344 443.429688 555.589844 442.351562 C 554.28125 441.273438 552.996094 440.164062 551.738281 439.023438 C 550.480469 437.882812 549.253906 436.714844 548.054688 435.511719 C 546.855469 434.3125 545.683594 433.082031 544.546875 431.824219 C 543.40625 430.566406 542.296875 429.28125 541.222656 427.96875 C 540.144531 426.65625 539.101562 425.316406 538.089844 423.953125 C 537.082031 422.589844 536.105469 421.203125 535.164062 419.789062 C 534.21875 418.378906 533.3125 416.945312 532.441406 415.488281 C 531.566406 414.03125 530.730469 412.554688 529.933594 411.054688 C 529.132812 409.558594 528.371094 408.042969 527.644531 406.507812 C 526.917969 404.972656 526.230469 403.417969 525.582031 401.851562 C 524.933594 400.28125 524.324219 398.699219 523.75 397.097656 C 523.179688 395.5 522.648438 393.886719 522.15625 392.261719 C 521.664062 390.636719 521.210938 389.003906 520.796875 387.355469 C 520.386719 385.707031 520.015625 384.050781 519.683594 382.386719 C 519.351562 380.71875 519.0625 379.046875 518.8125 377.367188 C 518.566406 375.6875 518.355469 374.003906 518.191406 372.3125 C 518.023438 370.625 517.898438 368.929688 517.816406 367.234375 C 517.734375 365.539062 517.691406 363.839844 517.691406 362.144531 C 517.691406 360.445312 517.734375 358.746094 517.816406 357.050781 C 517.898438 355.355469 518.023438 353.664062 518.191406 351.972656 C 518.355469 350.28125 518.566406 348.597656 518.8125 346.917969 C 519.0625 345.238281 519.351562 343.566406 519.683594 341.898438 C 520.015625 340.234375 520.386719 338.578125 520.796875 336.929688 C 521.210938 335.285156 521.664062 333.648438 522.15625 332.023438 C 522.648438 330.398438 523.179688 328.785156 523.75 327.1875 C 524.320312 325.585938 524.933594 324.003906 525.582031 322.433594 C 526.230469 320.867188 526.917969 319.3125 527.644531 317.777344 C 528.367188 316.242188 529.132812 314.726562 529.929688 313.230469 C 530.730469 311.730469 531.566406 310.253906 532.4375 308.796875 C 533.308594 307.34375 534.21875 305.90625 535.160156 304.496094 C 536.101562 303.082031 537.078125 301.695312 538.089844 300.332031 C 539.101562 298.96875 540.144531 297.628906 541.21875 296.316406 C 542.296875 295.003906 543.402344 293.71875 544.542969 292.460938 C 545.683594 291.203125 546.851562 289.972656 548.050781 288.773438 C 549.25 287.570312 550.480469 286.402344 551.734375 285.261719 C 552.992188 284.121094 554.277344 283.011719 555.589844 281.933594 C 556.898438 280.855469 558.238281 279.8125 559.597656 278.800781 C 560.960938 277.789062 562.347656 276.8125 563.757812 275.867188 C 565.167969 274.925781 566.601562 274.015625 568.058594 273.144531 C 569.511719 272.269531 570.988281 271.433594 572.484375 270.632812 C 573.980469 269.832031 575.496094 269.070312 577.027344 268.34375 C 578.5625 267.617188 580.113281 266.929688 581.679688 266.277344 C 583.246094 265.628906 584.828125 265.019531 586.425781 264.445312 C 588.023438 263.875 589.632812 263.339844 591.257812 262.847656 C 592.878906 262.355469 594.515625 261.902344 596.160156 261.488281 C 597.804688 261.078125 599.460938 260.703125 601.125 260.375 C 602.789062 260.042969 604.460938 259.753906 606.136719 259.503906 C 607.816406 259.253906 609.5 259.046875 611.1875 258.878906 C 612.875 258.714844 614.566406 258.589844 616.261719 258.503906 C 617.957031 258.421875 619.652344 258.378906 621.347656 258.378906 C 623.042969 258.378906 624.738281 258.421875 626.433594 258.503906 C 628.128906 258.585938 629.820312 258.710938 631.507812 258.878906 C 633.195312 259.046875 634.878906 259.253906 636.558594 259.503906 C 638.234375 259.75 639.90625 260.042969 641.570312 260.371094 C 643.234375 260.703125 644.886719 261.078125 646.535156 261.488281 C 648.179688 261.902344 649.8125 262.355469 651.4375 262.847656 C 653.0625 263.339844 654.671875 263.871094 656.269531 264.445312 C 657.867188 265.015625 659.449219 265.628906 661.015625 266.277344 C 662.582031 266.925781 664.132812 267.613281 665.667969 268.339844 C 667.199219 269.066406 668.714844 269.832031 670.210938 270.628906 C 671.707031 271.429688 673.183594 272.269531 674.636719 273.140625 C 676.09375 274.015625 677.527344 274.921875 678.9375 275.867188 C 680.347656 276.808594 681.734375 277.785156 683.097656 278.796875 C 684.457031 279.808594 685.796875 280.855469 687.105469 281.929688 C 688.417969 283.007812 689.703125 284.117188 690.960938 285.257812 C 692.214844 286.398438 693.445312 287.570312 694.644531 288.769531 Z M 694.644531 288.769531 " fill-opacity="1" fill-rule="nonzero"/><path fill="#ffffff" d="M 662.039062 310.957031 C 662.777344 311.375 663.492188 311.832031 664.1875 312.320312 C 664.882812 312.808594 665.550781 313.332031 666.191406 313.886719 C 666.835938 314.441406 667.449219 315.027344 668.035156 315.640625 C 668.621094 316.257812 669.175781 316.898438 669.699219 317.570312 C 670.21875 318.238281 670.707031 318.933594 671.164062 319.652344 C 671.617188 320.367188 672.035156 321.105469 672.417969 321.867188 C 672.800781 322.625 673.144531 323.402344 673.449219 324.195312 C 673.753906 324.988281 674.019531 325.792969 674.246094 326.613281 C 674.472656 327.429688 674.660156 328.257812 674.804688 329.097656 C 674.949219 329.933594 675.054688 330.777344 675.117188 331.621094 C 675.179688 332.46875 675.199219 333.320312 675.179688 334.167969 C 675.160156 335.019531 675.097656 335.863281 674.992188 336.707031 C 674.890625 337.550781 674.746094 338.386719 674.558594 339.21875 C 674.375 340.046875 674.148438 340.863281 673.882812 341.671875 C 673.617188 342.476562 673.308594 343.269531 672.964844 344.046875 C 672.621094 344.824219 672.242188 345.582031 671.824219 346.320312 C 671.40625 347.0625 670.953125 347.777344 670.460938 348.472656 C 669.972656 349.167969 669.453125 349.839844 668.898438 350.480469 C 668.34375 351.125 667.757812 351.738281 667.144531 352.328125 C 666.53125 352.914062 665.886719 353.46875 665.21875 353.988281 C 664.550781 354.511719 663.855469 355 663.140625 355.457031 C 662.421875 355.910156 661.683594 356.328125 660.925781 356.710938 C 660.167969 357.09375 659.394531 357.4375 658.601562 357.746094 C 657.808594 358.050781 657.003906 358.316406 656.1875 358.542969 C 655.367188 358.769531 654.539062 358.957031 653.703125 359.101562 C 652.867188 359.246094 652.027344 359.351562 651.179688 359.414062 C 650.332031 359.476562 649.484375 359.5 648.636719 359.476562 C 647.789062 359.457031 646.941406 359.394531 646.097656 359.292969 C 645.257812 359.1875 644.421875 359.042969 643.59375 358.855469 C 642.765625 358.671875 641.945312 358.445312 641.140625 358.175781 C 640.335938 357.910156 639.542969 357.605469 638.765625 357.261719 C 637.992188 356.917969 637.234375 356.535156 636.496094 356.117188 C 635.757812 355.699219 635.039062 355.246094 634.34375 354.753906 C 633.652344 354.265625 632.984375 353.746094 632.339844 353.191406 C 631.695312 352.632812 631.082031 352.050781 630.496094 351.433594 C 629.910156 350.820312 629.355469 350.175781 628.835938 349.507812 C 628.3125 348.835938 627.824219 348.144531 627.371094 347.425781 C 626.914062 346.707031 626.496094 345.96875 626.113281 345.210938 C 625.734375 344.449219 625.390625 343.675781 625.082031 342.882812 C 624.777344 342.089844 624.511719 341.28125 624.285156 340.464844 C 624.058594 339.644531 623.871094 338.816406 623.726562 337.980469 C 623.582031 337.140625 623.476562 336.300781 623.414062 335.453125 C 623.351562 334.605469 623.332031 333.757812 623.351562 332.90625 C 623.371094 332.058594 623.433594 331.210938 623.539062 330.367188 C 623.640625 329.523438 623.789062 328.6875 623.972656 327.859375 C 624.160156 327.027344 624.386719 326.210938 624.652344 325.402344 C 624.917969 324.597656 625.222656 323.804688 625.566406 323.027344 C 625.910156 322.25 626.289062 321.492188 626.710938 320.753906 C 627.128906 320.015625 627.582031 319.296875 628.070312 318.601562 C 628.558594 317.90625 629.078125 317.238281 629.632812 316.59375 C 630.1875 315.949219 630.773438 315.335938 631.386719 314.75 C 632.003906 314.164062 632.644531 313.609375 633.3125 313.085938 C 633.984375 312.5625 634.675781 312.074219 635.394531 311.617188 C 636.109375 311.164062 636.847656 310.746094 637.605469 310.363281 C 638.363281 309.980469 639.140625 309.636719 639.929688 309.332031 C 640.722656 309.023438 641.527344 308.757812 642.347656 308.53125 C 643.164062 308.304688 643.992188 308.117188 644.828125 307.972656 C 645.664062 307.828125 646.507812 307.722656 647.351562 307.660156 C 648.199219 307.597656 649.046875 307.578125 649.894531 307.597656 C 650.746094 307.617188 651.589844 307.679688 652.433594 307.785156 C 653.277344 307.886719 654.113281 308.035156 654.941406 308.21875 C 655.769531 308.40625 656.585938 308.632812 657.390625 308.898438 C 658.199219 309.164062 658.988281 309.46875 659.765625 309.8125 C 660.542969 310.15625 661.300781 310.539062 662.039062 310.957031 Z M 662.039062 310.957031 " fill-opacity="1" fill-rule="nonzero"/><path fill="#ffffff" d="M 620.015625 397.394531 C 620.015625 397.9375 619.988281 398.484375 619.933594 399.023438 C 619.882812 399.566406 619.800781 400.105469 619.695312 400.636719 C 619.589844 401.171875 619.457031 401.699219 619.300781 402.222656 C 619.140625 402.742188 618.957031 403.253906 618.75 403.757812 C 618.542969 404.261719 618.308594 404.75 618.054688 405.230469 C 617.796875 405.710938 617.515625 406.179688 617.214844 406.632812 C 616.914062 407.085938 616.589844 407.519531 616.246094 407.941406 C 615.898438 408.363281 615.535156 408.765625 615.148438 409.152344 C 614.765625 409.535156 614.363281 409.902344 613.941406 410.246094 C 613.519531 410.59375 613.085938 410.914062 612.632812 411.21875 C 612.179688 411.519531 611.714844 411.800781 611.234375 412.058594 C 610.753906 412.3125 610.265625 412.546875 609.761719 412.753906 C 609.257812 412.964844 608.746094 413.144531 608.226562 413.304688 C 607.707031 413.460938 607.179688 413.59375 606.644531 413.699219 C 606.113281 413.808594 605.574219 413.886719 605.035156 413.941406 C 604.492188 413.992188 603.949219 414.019531 603.40625 414.019531 C 602.863281 414.019531 602.320312 413.992188 601.777344 413.941406 C 601.238281 413.886719 600.699219 413.808594 600.164062 413.699219 C 599.632812 413.59375 599.105469 413.460938 598.585938 413.304688 C 598.0625 413.144531 597.550781 412.964844 597.050781 412.753906 C 596.546875 412.546875 596.054688 412.3125 595.578125 412.058594 C 595.097656 411.800781 594.628906 411.519531 594.179688 411.21875 C 593.726562 410.914062 593.289062 410.59375 592.871094 410.246094 C 592.449219 409.902344 592.046875 409.535156 591.660156 409.152344 C 591.277344 408.765625 590.910156 408.363281 590.566406 407.941406 C 590.222656 407.519531 589.898438 407.085938 589.597656 406.632812 C 589.292969 406.179688 589.015625 405.710938 588.757812 405.230469 C 588.5 404.75 588.269531 404.261719 588.0625 403.757812 C 587.851562 403.253906 587.671875 402.742188 587.511719 402.222656 C 587.355469 401.699219 587.222656 401.171875 587.117188 400.636719 C 587.011719 400.105469 586.929688 399.566406 586.878906 399.023438 C 586.824219 398.484375 586.796875 397.9375 586.796875 397.394531 C 586.796875 396.851562 586.824219 396.308594 586.878906 395.765625 C 586.929688 395.222656 587.011719 394.6875 587.117188 394.152344 C 587.222656 393.617188 587.355469 393.089844 587.511719 392.570312 C 587.671875 392.046875 587.851562 391.535156 588.0625 391.03125 C 588.269531 390.53125 588.5 390.039062 588.757812 389.558594 C 589.015625 389.078125 589.292969 388.609375 589.597656 388.160156 C 589.898438 387.707031 590.222656 387.269531 590.566406 386.847656 C 590.910156 386.425781 591.277344 386.023438 591.660156 385.640625 C 592.046875 385.253906 592.449219 384.890625 592.871094 384.542969 C 593.289062 384.199219 593.726562 383.875 594.179688 383.570312 C 594.628906 383.269531 595.097656 382.988281 595.578125 382.734375 C 596.054688 382.476562 596.546875 382.242188 597.050781 382.035156 C 597.550781 381.828125 598.0625 381.644531 598.585938 381.484375 C 599.105469 381.328125 599.632812 381.195312 600.164062 381.089844 C 600.699219 380.984375 601.238281 380.902344 601.777344 380.851562 C 602.320312 380.796875 602.863281 380.769531 603.40625 380.769531 C 603.949219 380.769531 604.492188 380.796875 605.035156 380.851562 C 605.574219 380.902344 606.113281 380.984375 606.644531 381.089844 C 607.179688 381.195312 607.707031 381.328125 608.226562 381.484375 C 608.746094 381.644531 609.257812 381.828125 609.761719 382.035156 C 610.265625 382.242188 610.753906 382.476562 611.234375 382.734375 C 611.714844 382.988281 612.179688 383.269531 612.632812 383.570312 C 613.085938 383.875 613.519531 384.199219 613.941406 384.542969 C 614.363281 384.890625 614.765625 385.253906 615.148438 385.640625 C 615.535156 386.023438 615.898438 386.425781 616.246094 386.847656 C 616.589844 387.269531 616.914062 387.707031 617.214844 388.160156 C 617.515625 388.609375 617.796875 389.078125 618.054688 389.558594 C 618.308594 390.039062 618.542969 390.53125 618.75 391.03125 C 618.957031 391.535156 619.140625 392.046875 619.300781 392.570312 C 619.457031 393.089844 619.589844 393.617188 619.695312 394.152344 C 619.800781 394.683594 619.882812 395.222656 619.933594 395.765625 C 619.988281 396.308594 620.015625 396.851562 620.015625 397.394531 Z M 620.015625 397.394531 " fill-opacity="1" fill-rule="nonzero"/><path fill="#000000" d="M 164.695312 293.605469 C 112.882812 293.605469 68.730469 327.015625 52.574219 373.4375 C 47.984375 370.117188 43.40625 365.550781 39.8125 359.125 C 37.003906 354.089844 30.660156 352.289062 25.628906 355.101562 C 20.601562 357.910156 18.800781 364.261719 21.609375 369.296875 C 28.875 382.304688 38.714844 390.035156 47.296875 394.789062 C 46.988281 396.898438 46.726562 399.019531 46.523438 401.15625 C 38.800781 399.035156 29.957031 394.9375 22.164062 386.625 C 17.601562 381.765625 9.972656 381.515625 5.101562 386.082031 C 0.25 390.648438 0 398.289062 4.5625 403.160156 C 24.621094 424.558594 48.773438 426.722656 59.09375 427.644531 L 59.621094 427.6875 C 59.988281 427.71875 60.351562 427.734375 60.71875 427.734375 C 62.339844 427.734375 63.890625 427.398438 65.324219 426.8125 C 71.523438 424.953125 76.039062 419.214844 76.039062 412.410156 C 76.039062 363.484375 115.808594 323.679688 164.683594 323.679688 C 213.558594 323.679688 253.324219 363.484375 253.324219 412.410156 C 253.324219 420.707031 260.050781 427.453125 268.355469 427.453125 C 276.644531 427.453125 283.382812 420.722656 283.382812 412.410156 C 283.382812 346.890625 230.136719 293.605469 164.695312 293.605469 Z M 164.695312 293.605469 " fill-opacity="1" fill-rule="nonzero"/></svg>