<svg xmlns="http://www.w3.org/2000/svg" xmlns:xlink="http://www.w3.org/1999/xlink" width="1024" zoomAndPan="magnify" viewBox="0 0 768 767.999994" height="1024" preserveAspectRatio="xMidYMid meet" version="1.0"><defs><clipPath id="4ddf23b866"><path d="M 31 306 L 240 306 L 240 508.886719 L 31 508.886719 Z M 31 306 " clip-rule="nonzero"/></clipPath></defs><g clip-path="url(#4ddf23b866)"><path fill="#000000" d="M 62.144531 336.617188 C 60.945312 337.816406 59.777344 339.046875 58.636719 340.304688 C 57.5 341.5625 56.390625 342.847656 55.316406 344.164062 C 54.238281 345.476562 53.195312 346.8125 52.183594 348.175781 C 51.175781 349.539062 50.199219 350.929688 49.253906 352.339844 C 48.3125 353.753906 47.40625 355.1875 46.53125 356.644531 C 45.660156 358.101562 44.824219 359.578125 44.023438 361.074219 C 43.226562 362.574219 42.460938 364.089844 41.738281 365.625 C 41.011719 367.160156 40.324219 368.710938 39.675781 370.28125 C 39.027344 371.847656 38.414062 373.433594 37.84375 375.03125 C 37.273438 376.628906 36.742188 378.242188 36.25 379.867188 C 35.757812 381.492188 35.304688 383.128906 34.890625 384.777344 C 34.480469 386.421875 34.109375 388.078125 33.777344 389.746094 C 33.445312 391.410156 33.15625 393.082031 32.90625 394.761719 C 32.65625 396.441406 32.449219 398.125 32.285156 399.816406 C 32.117188 401.507812 31.992188 403.199219 31.910156 404.894531 C 31.824219 406.59375 31.785156 408.289062 31.785156 409.988281 C 31.785156 411.683594 31.824219 413.382812 31.910156 415.078125 C 31.992188 416.773438 32.117188 418.46875 32.285156 420.15625 C 32.449219 421.847656 32.65625 423.53125 32.90625 425.210938 C 33.15625 426.890625 33.445312 428.566406 33.777344 430.230469 C 34.105469 431.894531 34.476562 433.550781 34.890625 435.199219 C 35.300781 436.847656 35.753906 438.484375 36.246094 440.109375 C 36.738281 441.734375 37.273438 443.34375 37.84375 444.945312 C 38.414062 446.542969 39.023438 448.125 39.675781 449.695312 C 40.324219 451.265625 41.011719 452.816406 41.734375 454.351562 C 42.460938 455.886719 43.222656 457.402344 44.023438 458.902344 C 44.824219 460.398438 45.660156 461.875 46.53125 463.332031 C 47.402344 464.789062 48.308594 466.222656 49.253906 467.632812 C 50.195312 469.046875 51.171875 470.433594 52.183594 471.796875 C 53.191406 473.164062 54.234375 474.5 55.3125 475.8125 C 56.386719 477.125 57.496094 478.410156 58.636719 479.667969 C 59.773438 480.929688 60.945312 482.15625 62.144531 483.359375 C 63.34375 484.558594 64.570312 485.730469 65.828125 486.871094 C 67.085938 488.011719 68.371094 489.121094 69.679688 490.195312 C 70.992188 491.273438 72.328125 492.320312 73.691406 493.332031 C 75.054688 494.339844 76.441406 495.320312 77.851562 496.261719 C 79.261719 497.207031 80.695312 498.113281 82.148438 498.988281 C 83.605469 499.859375 85.082031 500.699219 86.578125 501.496094 C 88.074219 502.296875 89.585938 503.0625 91.121094 503.789062 C 92.65625 504.515625 94.203125 505.203125 95.773438 505.851562 C 97.339844 506.5 98.921875 507.113281 100.519531 507.683594 C 102.117188 508.257812 103.726562 508.789062 105.351562 509.28125 C 106.972656 509.773438 108.609375 510.226562 110.253906 510.640625 C 111.898438 511.054688 113.554688 511.425781 115.21875 511.757812 C 116.882812 512.089844 118.550781 512.378906 120.230469 512.628906 C 121.910156 512.875 123.589844 513.085938 125.28125 513.25 C 126.96875 513.417969 128.660156 513.542969 130.355469 513.625 C 132.046875 513.710938 133.742188 513.75 135.441406 513.75 C 137.136719 513.75 138.832031 513.710938 140.527344 513.625 C 142.21875 513.542969 143.910156 513.417969 145.601562 513.25 C 147.289062 513.085938 148.972656 512.878906 150.648438 512.628906 C 152.328125 512.378906 154 512.089844 155.664062 511.757812 C 157.328125 511.425781 158.980469 511.054688 160.625 510.640625 C 162.273438 510.230469 163.90625 509.777344 165.53125 509.285156 C 167.152344 508.789062 168.765625 508.257812 170.359375 507.6875 C 171.957031 507.113281 173.539062 506.503906 175.109375 505.851562 C 176.675781 505.203125 178.226562 504.515625 179.757812 503.789062 C 181.292969 503.0625 182.808594 502.300781 184.304688 501.5 C 185.800781 500.699219 187.277344 499.863281 188.730469 498.988281 C 190.1875 498.117188 191.617188 497.207031 193.027344 496.265625 C 194.441406 495.320312 195.828125 494.34375 197.1875 493.332031 C 198.550781 492.320312 199.886719 491.277344 201.199219 490.199219 C 202.511719 489.121094 203.796875 488.011719 205.050781 486.871094 C 206.308594 485.730469 207.539062 484.5625 208.738281 483.359375 C 209.9375 482.160156 211.105469 480.929688 212.246094 479.671875 C 213.382812 478.414062 214.492188 477.128906 215.570312 475.816406 C 216.644531 474.503906 217.6875 473.164062 218.699219 471.800781 C 219.710938 470.4375 220.6875 469.050781 221.628906 467.636719 C 222.570312 466.226562 223.476562 464.792969 224.351562 463.335938 C 225.222656 461.878906 226.058594 460.402344 226.859375 458.902344 C 227.65625 457.40625 228.421875 455.890625 229.144531 454.355469 C 229.871094 452.820312 230.558594 451.265625 231.207031 449.699219 C 231.855469 448.128906 232.46875 446.546875 233.039062 444.945312 C 233.609375 443.347656 234.140625 441.734375 234.636719 440.109375 C 235.128906 438.484375 235.578125 436.851562 235.992188 435.203125 C 236.402344 433.554688 236.777344 431.898438 237.105469 430.234375 C 237.4375 428.566406 237.726562 426.894531 237.976562 425.214844 C 238.226562 423.535156 238.433594 421.851562 238.601562 420.160156 C 238.765625 418.472656 238.890625 416.777344 238.972656 415.082031 C 239.058594 413.386719 239.097656 411.6875 239.097656 409.992188 C 239.097656 408.292969 239.058594 406.59375 238.972656 404.898438 C 238.890625 403.203125 238.765625 401.511719 238.601562 399.820312 C 238.433594 398.128906 238.226562 396.445312 237.976562 394.765625 C 237.726562 393.085938 237.4375 391.414062 237.109375 389.75 C 236.777344 388.082031 236.40625 386.425781 235.992188 384.777344 C 235.582031 383.132812 235.128906 381.496094 234.636719 379.871094 C 234.144531 378.246094 233.613281 376.632812 233.039062 375.035156 C 232.46875 373.4375 231.859375 371.851562 231.210938 370.28125 C 230.558594 368.714844 229.871094 367.164062 229.148438 365.628906 C 228.421875 364.09375 227.660156 362.574219 226.859375 361.078125 C 226.058594 359.582031 225.226562 358.101562 224.351562 356.648438 C 223.480469 355.191406 222.574219 353.753906 221.628906 352.34375 C 220.6875 350.933594 219.710938 349.542969 218.699219 348.179688 C 217.691406 346.816406 216.648438 345.476562 215.570312 344.164062 C 214.496094 342.851562 213.386719 341.566406 212.246094 340.308594 C 211.109375 339.050781 209.9375 337.820312 208.738281 336.621094 C 207.539062 335.417969 206.3125 334.25 205.054688 333.109375 C 203.796875 331.96875 202.515625 330.859375 201.203125 329.78125 C 199.890625 328.703125 198.554688 327.660156 197.191406 326.648438 C 195.828125 325.636719 194.441406 324.660156 193.03125 323.714844 C 191.621094 322.773438 190.1875 321.863281 188.734375 320.992188 C 187.277344 320.117188 185.804688 319.28125 184.308594 318.480469 C 182.8125 317.679688 181.296875 316.917969 179.761719 316.191406 C 178.230469 315.464844 176.679688 314.777344 175.109375 314.125 C 173.542969 313.476562 171.960938 312.867188 170.363281 312.292969 C 168.765625 311.722656 167.15625 311.1875 165.535156 310.695312 C 163.910156 310.203125 162.277344 309.75 160.628906 309.335938 C 158.984375 308.925781 157.328125 308.554688 155.664062 308.222656 C 154.003906 307.890625 152.332031 307.601562 150.652344 307.351562 C 148.976562 307.101562 147.292969 306.894531 145.605469 306.726562 C 143.914062 306.5625 142.222656 306.4375 140.53125 306.351562 C 138.835938 306.269531 137.140625 306.226562 135.445312 306.226562 C 133.746094 306.226562 132.050781 306.269531 130.355469 306.351562 C 128.664062 306.4375 126.972656 306.5625 125.285156 306.726562 C 123.59375 306.894531 121.910156 307.101562 120.234375 307.351562 C 118.554688 307.597656 116.882812 307.890625 115.222656 308.222656 C 113.558594 308.550781 111.902344 308.925781 110.257812 309.335938 C 108.609375 309.75 106.976562 310.203125 105.351562 310.695312 C 103.730469 311.1875 102.121094 311.71875 100.523438 312.292969 C 98.925781 312.863281 97.34375 313.476562 95.777344 314.125 C 94.207031 314.773438 92.65625 315.464844 91.125 316.1875 C 89.589844 316.914062 88.074219 317.679688 86.578125 318.480469 C 85.082031 319.277344 83.609375 320.117188 82.152344 320.988281 C 80.699219 321.863281 79.265625 322.769531 77.855469 323.714844 C 76.445312 324.65625 75.058594 325.632812 73.695312 326.644531 C 72.332031 327.65625 70.996094 328.703125 69.683594 329.777344 C 68.371094 330.855469 67.089844 331.964844 65.832031 333.105469 C 64.574219 334.246094 63.347656 335.417969 62.144531 336.617188 Z M 62.144531 336.617188 " fill-opacity="1" fill-rule="nonzero"/></g><path fill="#ffffff" d="M 94.753906 358.804688 C 94.015625 359.222656 93.296875 359.679688 92.601562 360.167969 C 91.910156 360.65625 91.242188 361.179688 90.597656 361.734375 C 89.953125 362.289062 89.339844 362.875 88.753906 363.488281 C 88.167969 364.105469 87.617188 364.746094 87.09375 365.417969 C 86.570312 366.085938 86.082031 366.78125 85.628906 367.5 C 85.171875 368.214844 84.753906 368.953125 84.375 369.714844 C 83.992188 370.472656 83.648438 371.25 83.34375 372.042969 C 83.035156 372.835938 82.769531 373.640625 82.542969 374.460938 C 82.316406 375.277344 82.128906 376.105469 81.984375 376.945312 C 81.839844 377.78125 81.734375 378.625 81.671875 379.472656 C 81.609375 380.320312 81.589844 381.167969 81.609375 382.015625 C 81.632812 382.867188 81.695312 383.710938 81.796875 384.554688 C 81.902344 385.398438 82.046875 386.234375 82.230469 387.066406 C 82.417969 387.894531 82.644531 388.710938 82.910156 389.519531 C 83.175781 390.328125 83.480469 391.117188 83.824219 391.894531 C 84.167969 392.671875 84.550781 393.429688 84.96875 394.171875 C 85.386719 394.910156 85.839844 395.625 86.328125 396.320312 C 86.816406 397.015625 87.339844 397.6875 87.890625 398.328125 C 88.445312 398.972656 89.03125 399.589844 89.644531 400.175781 C 90.261719 400.761719 90.902344 401.316406 91.570312 401.835938 C 92.242188 402.359375 92.933594 402.851562 93.652344 403.304688 C 94.367188 403.757812 95.105469 404.179688 95.863281 404.558594 C 96.621094 404.941406 97.398438 405.285156 98.191406 405.59375 C 98.980469 405.898438 99.785156 406.164062 100.605469 406.390625 C 101.421875 406.617188 102.25 406.804688 103.085938 406.949219 C 103.921875 407.097656 104.765625 407.199219 105.613281 407.261719 C 106.457031 407.324219 107.304688 407.347656 108.15625 407.324219 C 109.003906 407.304688 109.847656 407.242188 110.691406 407.140625 C 111.535156 407.035156 112.371094 406.890625 113.199219 406.703125 C 114.027344 406.519531 114.84375 406.292969 115.648438 406.027344 C 116.457031 405.757812 117.246094 405.453125 118.023438 405.109375 C 118.800781 404.765625 119.558594 404.382812 120.296875 403.964844 C 121.035156 403.546875 121.75 403.09375 122.445312 402.601562 C 123.140625 402.113281 123.808594 401.59375 124.453125 401.039062 C 125.09375 400.480469 125.707031 399.898438 126.292969 399.28125 C 126.878906 398.667969 127.433594 398.023438 127.957031 397.355469 C 128.476562 396.683594 128.96875 395.992188 129.421875 395.273438 C 129.875 394.554688 130.292969 393.816406 130.675781 393.058594 C 131.058594 392.296875 131.402344 391.523438 131.707031 390.730469 C 132.011719 389.9375 132.277344 389.132812 132.503906 388.3125 C 132.730469 387.492188 132.917969 386.664062 133.0625 385.828125 C 133.207031 384.992188 133.3125 384.148438 133.375 383.300781 C 133.4375 382.453125 133.460938 381.605469 133.4375 380.753906 C 133.417969 379.90625 133.355469 379.058594 133.25 378.214844 C 133.148438 377.371094 133.003906 376.535156 132.816406 375.707031 C 132.632812 374.878906 132.40625 374.058594 132.140625 373.253906 C 131.875 372.445312 131.570312 371.652344 131.226562 370.875 C 130.878906 370.097656 130.5 369.339844 130.082031 368.601562 C 129.664062 367.863281 129.210938 367.144531 128.722656 366.449219 C 128.230469 365.753906 127.710938 365.085938 127.15625 364.441406 C 126.601562 363.796875 126.019531 363.183594 125.402344 362.597656 C 124.789062 362.011719 124.144531 361.457031 123.476562 360.933594 C 122.808594 360.410156 122.113281 359.921875 121.398438 359.46875 C 120.679688 359.011719 119.941406 358.59375 119.183594 358.210938 C 118.425781 357.828125 117.652344 357.484375 116.859375 357.179688 C 116.066406 356.871094 115.261719 356.605469 114.445312 356.378906 C 113.625 356.152344 112.796875 355.964844 111.960938 355.820312 C 111.125 355.675781 110.285156 355.570312 109.4375 355.507812 C 108.589844 355.445312 107.742188 355.425781 106.894531 355.445312 C 106.046875 355.464844 105.199219 355.527344 104.359375 355.632812 C 103.515625 355.734375 102.679688 355.882812 101.851562 356.066406 C 101.023438 356.253906 100.207031 356.480469 99.398438 356.746094 C 98.59375 357.011719 97.800781 357.316406 97.027344 357.660156 C 96.25 358.003906 95.492188 358.386719 94.753906 358.804688 Z M 94.753906 358.804688 " fill-opacity="1" fill-rule="nonzero"/><path fill="#ffffff" d="M 136.777344 445.242188 C 136.777344 445.789062 136.804688 446.332031 136.855469 446.871094 C 136.910156 447.414062 136.988281 447.953125 137.097656 448.484375 C 137.203125 449.019531 137.332031 449.546875 137.492188 450.070312 C 137.648438 450.589844 137.832031 451.101562 138.039062 451.605469 C 138.25 452.109375 138.480469 452.601562 138.738281 453.078125 C 138.992188 453.558594 139.273438 454.027344 139.574219 454.480469 C 139.878906 454.933594 140.203125 455.367188 140.546875 455.789062 C 140.890625 456.210938 141.257812 456.613281 141.640625 457 C 142.027344 457.382812 142.429688 457.75 142.847656 458.09375 C 143.269531 458.441406 143.707031 458.765625 144.15625 459.066406 C 144.609375 459.367188 145.078125 459.648438 145.554688 459.90625 C 146.035156 460.160156 146.527344 460.394531 147.03125 460.601562 C 147.53125 460.8125 148.042969 460.996094 148.5625 461.152344 C 149.085938 461.308594 149.613281 461.441406 150.144531 461.546875 C 150.679688 461.65625 151.214844 461.734375 151.757812 461.789062 C 152.296875 461.839844 152.839844 461.867188 153.386719 461.867188 C 153.929688 461.867188 154.472656 461.839844 155.011719 461.789062 C 155.554688 461.734375 156.09375 461.65625 156.625 461.546875 C 157.160156 461.441406 157.6875 461.308594 158.207031 461.152344 C 158.726562 460.996094 159.238281 460.8125 159.742188 460.601562 C 160.242188 460.394531 160.734375 460.160156 161.214844 459.90625 C 161.695312 459.648438 162.160156 459.367188 162.613281 459.066406 C 163.066406 458.765625 163.5 458.441406 163.921875 458.09375 C 164.34375 457.75 164.746094 457.382812 165.128906 457 C 165.515625 456.613281 165.878906 456.210938 166.222656 455.789062 C 166.570312 455.367188 166.890625 454.933594 167.195312 454.480469 C 167.496094 454.027344 167.777344 453.558594 168.03125 453.078125 C 168.289062 452.601562 168.519531 452.109375 168.730469 451.605469 C 168.9375 451.101562 169.121094 450.589844 169.277344 450.070312 C 169.4375 449.546875 169.570312 449.019531 169.675781 448.484375 C 169.78125 447.953125 169.859375 447.414062 169.914062 446.871094 C 169.96875 446.332031 169.992188 445.789062 169.992188 445.242188 C 169.992188 444.699219 169.96875 444.15625 169.914062 443.613281 C 169.859375 443.070312 169.78125 442.535156 169.675781 442 C 169.570312 441.464844 169.4375 440.9375 169.277344 440.417969 C 169.121094 439.894531 168.9375 439.382812 168.730469 438.878906 C 168.519531 438.378906 168.289062 437.886719 168.03125 437.40625 C 167.777344 436.925781 167.496094 436.460938 167.195312 436.007812 C 166.890625 435.554688 166.570312 435.117188 166.222656 434.695312 C 165.878906 434.273438 165.515625 433.871094 165.128906 433.488281 C 164.746094 433.101562 164.34375 432.738281 163.921875 432.390625 C 163.5 432.046875 163.066406 431.722656 162.613281 431.417969 C 162.160156 431.117188 161.695312 430.835938 161.214844 430.582031 C 160.734375 430.324219 160.242188 430.089844 159.742188 429.882812 C 159.238281 429.675781 158.726562 429.492188 158.207031 429.332031 C 157.6875 429.175781 157.160156 429.042969 156.625 428.9375 C 156.09375 428.832031 155.554688 428.75 155.011719 428.699219 C 154.472656 428.644531 153.929688 428.617188 153.386719 428.617188 C 152.839844 428.617188 152.296875 428.644531 151.757812 428.699219 C 151.214844 428.75 150.679688 428.832031 150.144531 428.9375 C 149.613281 429.042969 149.085938 429.175781 148.5625 429.332031 C 148.042969 429.492188 147.53125 429.675781 147.03125 429.882812 C 146.527344 430.089844 146.035156 430.324219 145.554688 430.582031 C 145.078125 430.835938 144.609375 431.117188 144.15625 431.417969 C 143.707031 431.722656 143.269531 432.046875 142.847656 432.390625 C 142.429688 432.738281 142.027344 433.101562 141.640625 433.488281 C 141.257812 433.871094 140.890625 434.273438 140.546875 434.695312 C 140.203125 435.117188 139.878906 435.554688 139.574219 436.007812 C 139.273438 436.460938 138.996094 436.925781 138.738281 437.40625 C 138.480469 437.886719 138.25 438.378906 138.039062 438.878906 C 137.832031 439.382812 137.648438 439.894531 137.492188 440.417969 C 137.332031 440.9375 137.203125 441.464844 137.097656 442 C 136.988281 442.535156 136.910156 443.070312 136.855469 443.613281 C 136.804688 444.15625 136.777344 444.699219 136.777344 445.242188 Z M 136.777344 445.242188 " fill-opacity="1" fill-rule="nonzero"/><path fill="#000000" d="M 592.09375 341.453125 C 643.90625 341.453125 688.0625 374.863281 704.214844 421.285156 C 708.808594 417.964844 713.382812 413.398438 716.980469 406.972656 C 719.785156 401.9375 726.132812 400.136719 731.160156 402.949219 C 736.191406 405.757812 737.988281 412.109375 735.183594 417.144531 C 727.914062 430.152344 718.078125 437.882812 709.496094 442.636719 C 709.800781 444.746094 710.066406 446.867188 710.269531 449.003906 C 717.988281 446.882812 726.832031 442.785156 734.625 434.472656 C 739.1875 429.613281 746.820312 429.363281 751.6875 433.929688 C 756.542969 438.496094 756.789062 446.136719 752.230469 451.007812 C 732.171875 472.40625 708.019531 474.570312 697.695312 475.492188 L 697.167969 475.539062 C 696.804688 475.566406 696.4375 475.582031 696.074219 475.582031 C 694.449219 475.582031 692.902344 475.246094 691.46875 474.660156 C 685.269531 472.800781 680.75 467.0625 680.75 460.257812 C 680.75 411.332031 640.984375 371.527344 592.109375 371.527344 C 543.234375 371.527344 503.464844 411.332031 503.464844 460.257812 C 503.464844 468.554688 496.742188 475.304688 488.4375 475.304688 C 480.148438 475.304688 473.40625 468.570312 473.40625 460.257812 C 473.40625 394.738281 526.652344 341.453125 592.09375 341.453125 Z M 592.09375 341.453125 " fill-opacity="1" fill-rule="nonzero"/></svg>