<svg xmlns="http://www.w3.org/2000/svg" xmlns:xlink="http://www.w3.org/1999/xlink" width="1024" zoomAndPan="magnify" viewBox="0 0 768 767.999994" height="1024" preserveAspectRatio="xMidYMid meet" version="1.0"><defs><clipPath id="447a861d13"><path d="M 517 280 L 726 280 L 726 482.996094 L 517 482.996094 Z M 517 280 " clip-rule="nonzero"/></clipPath></defs><g clip-path="url(#447a861d13)"><path fill="#000000" d="M 694.644531 310.726562 C 695.84375 311.929688 697.011719 313.15625 698.152344 314.414062 C 699.292969 315.675781 700.398438 316.960938 701.476562 318.273438 C 702.550781 319.585938 703.597656 320.921875 704.605469 322.285156 C 705.617188 323.652344 706.59375 325.039062 707.535156 326.449219 C 708.476562 327.863281 709.386719 329.296875 710.257812 330.753906 C 711.128906 332.210938 711.964844 333.6875 712.765625 335.183594 C 713.566406 336.683594 714.328125 338.199219 715.054688 339.734375 C 715.777344 341.269531 716.464844 342.820312 717.113281 344.390625 C 717.765625 345.957031 718.375 347.542969 718.945312 349.140625 C 719.519531 350.738281 720.050781 352.351562 720.542969 353.976562 C 721.035156 355.601562 721.488281 357.238281 721.898438 358.886719 C 722.3125 360.53125 722.683594 362.1875 723.015625 363.855469 C 723.34375 365.519531 723.636719 367.191406 723.882812 368.871094 C 724.132812 370.550781 724.339844 372.238281 724.507812 373.925781 C 724.671875 375.617188 724.796875 377.308594 724.882812 379.007812 C 724.964844 380.703125 725.007812 382.398438 725.007812 384.097656 C 725.007812 385.796875 724.964844 387.492188 724.882812 389.1875 C 724.796875 390.886719 724.671875 392.578125 724.507812 394.269531 C 724.339844 395.957031 724.132812 397.644531 723.882812 399.324219 C 723.636719 401.003906 723.347656 402.675781 723.015625 404.339844 C 722.683594 406.003906 722.3125 407.664062 721.898438 409.308594 C 721.488281 410.957031 721.035156 412.59375 720.542969 414.21875 C 720.050781 415.84375 719.519531 417.453125 718.949219 419.054688 C 718.375 420.652344 717.765625 422.238281 717.117188 423.804688 C 716.46875 425.375 715.78125 426.925781 715.054688 428.460938 C 714.328125 429.996094 713.566406 431.511719 712.765625 433.011719 C 711.96875 434.507812 711.132812 435.984375 710.261719 437.441406 C 709.386719 438.898438 708.480469 440.332031 707.539062 441.746094 C 706.59375 443.15625 705.617188 444.542969 704.609375 445.910156 C 703.597656 447.273438 702.554688 448.609375 701.476562 449.921875 C 700.402344 451.234375 699.292969 452.523438 698.15625 453.78125 C 697.015625 455.039062 695.847656 456.265625 694.648438 457.46875 C 693.449219 458.667969 692.21875 459.839844 690.960938 460.980469 C 689.707031 462.121094 688.421875 463.230469 687.109375 464.308594 C 685.796875 465.382812 684.460938 466.429688 683.097656 467.441406 C 681.738281 468.453125 680.351562 469.429688 678.941406 470.371094 C 677.527344 471.316406 676.097656 472.222656 674.640625 473.097656 C 673.1875 473.96875 671.710938 474.808594 670.214844 475.609375 C 668.71875 476.410156 667.203125 477.171875 665.667969 477.898438 C 664.136719 478.625 662.585938 479.3125 661.019531 479.960938 C 659.453125 480.613281 657.867188 481.222656 656.273438 481.792969 C 654.675781 482.367188 653.0625 482.898438 651.441406 483.390625 C 649.816406 483.886719 648.183594 484.339844 646.539062 484.75 C 644.890625 485.164062 643.238281 485.535156 641.574219 485.867188 C 639.910156 486.199219 638.238281 486.488281 636.558594 486.738281 C 634.882812 486.988281 633.199219 487.195312 631.511719 487.359375 C 629.824219 487.527344 628.132812 487.652344 626.4375 487.734375 C 624.742188 487.820312 623.046875 487.859375 621.351562 487.859375 C 619.65625 487.859375 617.960938 487.820312 616.265625 487.734375 C 614.570312 487.652344 612.878906 487.527344 611.191406 487.359375 C 609.503906 487.195312 607.820312 486.988281 606.140625 486.738281 C 604.464844 486.488281 602.792969 486.199219 601.128906 485.867188 C 599.464844 485.535156 597.808594 485.164062 596.164062 484.75 C 594.519531 484.339844 592.882812 483.886719 591.261719 483.394531 C 589.636719 482.898438 588.027344 482.367188 586.429688 481.796875 C 584.832031 481.222656 583.25 480.613281 581.683594 479.964844 C 580.117188 479.3125 578.566406 478.625 577.03125 477.898438 C 575.496094 477.171875 573.984375 476.410156 572.488281 475.609375 C 570.992188 474.808594 569.515625 473.972656 568.058594 473.097656 C 566.605469 472.226562 565.171875 471.316406 563.761719 470.375 C 562.351562 469.429688 560.964844 468.453125 559.601562 467.441406 C 558.238281 466.429688 556.902344 465.386719 555.589844 464.308594 C 554.28125 463.230469 552.996094 462.121094 551.738281 460.984375 C 550.480469 459.84375 549.253906 458.671875 548.054688 457.472656 C 546.855469 456.269531 545.683594 455.039062 544.546875 453.78125 C 543.40625 452.523438 542.296875 451.238281 541.222656 449.925781 C 540.144531 448.613281 539.101562 447.273438 538.089844 445.910156 C 537.082031 444.546875 536.105469 443.160156 535.164062 441.746094 C 534.21875 440.335938 533.3125 438.902344 532.441406 437.445312 C 531.566406 435.988281 530.730469 434.511719 529.933594 433.011719 C 529.132812 431.515625 528.371094 430 527.644531 428.464844 C 526.917969 426.929688 526.230469 425.378906 525.582031 423.808594 C 524.933594 422.238281 524.324219 420.65625 523.75 419.058594 C 523.179688 417.457031 522.648438 415.847656 522.15625 414.222656 C 521.664062 412.597656 521.210938 410.960938 520.796875 409.3125 C 520.386719 407.664062 520.015625 406.007812 519.683594 404.34375 C 519.351562 402.679688 519.0625 401.003906 518.8125 399.324219 C 518.566406 397.644531 518.355469 395.960938 518.191406 394.269531 C 518.023438 392.582031 517.898438 390.886719 517.816406 389.191406 C 517.734375 387.496094 517.691406 385.800781 517.691406 384.101562 C 517.691406 382.402344 517.734375 380.707031 517.816406 379.007812 C 517.898438 377.3125 518.023438 375.621094 518.191406 373.929688 C 518.355469 372.242188 518.566406 370.554688 518.8125 368.875 C 519.0625 367.195312 519.351562 365.523438 519.683594 363.859375 C 520.015625 362.191406 520.386719 360.535156 520.796875 358.890625 C 521.210938 357.242188 521.664062 355.605469 522.15625 353.980469 C 522.648438 352.355469 523.179688 350.742188 523.75 349.144531 C 524.320312 347.546875 524.933594 345.960938 525.582031 344.394531 C 526.230469 342.824219 526.917969 341.273438 527.644531 339.738281 C 528.367188 338.203125 529.132812 336.683594 529.929688 335.1875 C 530.730469 333.691406 531.566406 332.214844 532.4375 330.757812 C 533.308594 329.300781 534.21875 327.867188 535.160156 326.453125 C 536.101562 325.042969 537.078125 323.652344 538.089844 322.289062 C 539.101562 320.925781 540.144531 319.585938 541.21875 318.273438 C 542.296875 316.960938 543.402344 315.675781 544.542969 314.417969 C 545.683594 313.160156 546.851562 311.929688 548.050781 310.730469 C 549.25 309.527344 550.480469 308.359375 551.734375 307.21875 C 552.992188 306.078125 554.277344 304.96875 555.589844 303.890625 C 556.898438 302.8125 558.238281 301.769531 559.597656 300.757812 C 560.960938 299.746094 562.347656 298.769531 563.757812 297.824219 C 565.167969 296.882812 566.601562 295.972656 568.058594 295.101562 C 569.511719 294.226562 570.988281 293.390625 572.484375 292.589844 C 573.980469 291.789062 575.496094 291.027344 577.027344 290.300781 C 578.5625 289.574219 580.113281 288.886719 581.679688 288.238281 C 583.246094 287.585938 584.828125 286.976562 586.425781 286.402344 C 588.023438 285.832031 589.632812 285.300781 591.257812 284.804688 C 592.878906 284.3125 594.515625 283.859375 596.160156 283.449219 C 597.804688 283.035156 599.460938 282.664062 601.125 282.332031 C 602.789062 282 604.460938 281.710938 606.136719 281.460938 C 607.816406 281.210938 609.5 281.003906 611.1875 280.835938 C 612.875 280.671875 614.566406 280.546875 616.261719 280.460938 C 617.957031 280.378906 619.652344 280.335938 621.347656 280.335938 C 623.042969 280.335938 624.738281 280.378906 626.433594 280.460938 C 628.128906 280.546875 629.820312 280.671875 631.507812 280.835938 C 633.195312 281.003906 634.878906 281.210938 636.558594 281.460938 C 638.234375 281.710938 639.90625 282 641.570312 282.332031 C 643.234375 282.664062 644.886719 283.035156 646.535156 283.445312 C 648.179688 283.859375 649.8125 284.3125 651.4375 284.804688 C 653.0625 285.296875 654.671875 285.832031 656.269531 286.402344 C 657.867188 286.972656 659.449219 287.585938 661.015625 288.234375 C 662.582031 288.886719 664.132812 289.574219 665.667969 290.300781 C 667.199219 291.023438 668.714844 291.789062 670.210938 292.589844 C 671.707031 293.390625 673.183594 294.226562 674.636719 295.097656 C 676.09375 295.972656 677.527344 296.878906 678.9375 297.824219 C 680.347656 298.765625 681.734375 299.746094 683.097656 300.757812 C 684.457031 301.769531 685.796875 302.8125 687.105469 303.890625 C 688.417969 304.964844 689.703125 306.074219 690.960938 307.214844 C 692.214844 308.355469 693.445312 309.527344 694.644531 310.726562 Z M 694.644531 310.726562 " fill-opacity="1" fill-rule="nonzero"/></g><path fill="#ffffff" d="M 662.039062 332.914062 C 662.777344 333.335938 663.492188 333.789062 664.1875 334.277344 C 664.882812 334.765625 665.550781 335.289062 666.191406 335.84375 C 666.835938 336.398438 667.449219 336.984375 668.035156 337.597656 C 668.621094 338.214844 669.175781 338.855469 669.699219 339.527344 C 670.21875 340.195312 670.707031 340.890625 671.164062 341.609375 C 671.617188 342.328125 672.035156 343.066406 672.417969 343.824219 C 672.800781 344.582031 673.144531 345.359375 673.449219 346.152344 C 673.753906 346.945312 674.019531 347.75 674.246094 348.570312 C 674.472656 349.386719 674.660156 350.214844 674.804688 351.054688 C 674.949219 351.890625 675.054688 352.734375 675.117188 353.582031 C 675.179688 354.429688 675.199219 355.277344 675.179688 356.125 C 675.160156 356.976562 675.097656 357.824219 674.992188 358.664062 C 674.890625 359.507812 674.746094 360.347656 674.558594 361.175781 C 674.375 362.003906 674.148438 362.824219 673.882812 363.628906 C 673.617188 364.4375 673.308594 365.226562 672.964844 366.003906 C 672.621094 366.78125 672.242188 367.539062 671.824219 368.28125 C 671.40625 369.019531 670.953125 369.738281 670.460938 370.429688 C 669.972656 371.125 669.453125 371.796875 668.898438 372.441406 C 668.34375 373.082031 667.757812 373.699219 667.144531 374.285156 C 666.53125 374.871094 665.886719 375.425781 665.21875 375.949219 C 664.550781 376.472656 663.855469 376.960938 663.140625 377.414062 C 662.421875 377.871094 661.683594 378.289062 660.925781 378.671875 C 660.167969 379.050781 659.394531 379.394531 658.601562 379.703125 C 657.808594 380.007812 657.003906 380.273438 656.1875 380.5 C 655.367188 380.730469 654.539062 380.914062 653.703125 381.058594 C 652.867188 381.207031 652.027344 381.308594 651.179688 381.371094 C 650.332031 381.433594 649.484375 381.457031 648.636719 381.4375 C 647.789062 381.414062 646.941406 381.351562 646.097656 381.25 C 645.257812 381.144531 644.421875 381 643.59375 380.8125 C 642.765625 380.628906 641.945312 380.402344 641.140625 380.136719 C 640.335938 379.871094 639.542969 379.5625 638.765625 379.21875 C 637.992188 378.875 637.234375 378.492188 636.496094 378.074219 C 635.757812 377.65625 635.039062 377.203125 634.34375 376.714844 C 633.652344 376.222656 632.984375 375.703125 632.339844 375.148438 C 631.695312 374.59375 631.082031 374.007812 630.496094 373.390625 C 629.910156 372.777344 629.355469 372.132812 628.835938 371.464844 C 628.3125 370.792969 627.824219 370.101562 627.371094 369.382812 C 626.914062 368.664062 626.496094 367.925781 626.113281 367.167969 C 625.734375 366.410156 625.390625 365.632812 625.082031 364.839844 C 624.777344 364.046875 624.511719 363.242188 624.285156 362.421875 C 624.058594 361.601562 623.871094 360.773438 623.726562 359.9375 C 623.582031 359.101562 623.476562 358.257812 623.414062 357.410156 C 623.351562 356.5625 623.332031 355.714844 623.351562 354.863281 C 623.371094 354.015625 623.433594 353.167969 623.539062 352.324219 C 623.640625 351.480469 623.789062 350.644531 623.972656 349.816406 C 624.160156 348.988281 624.386719 348.167969 624.652344 347.363281 C 624.917969 346.554688 625.222656 345.761719 625.566406 344.984375 C 625.910156 344.210938 626.289062 343.449219 626.710938 342.710938 C 627.128906 341.972656 627.582031 341.253906 628.070312 340.558594 C 628.558594 339.863281 629.078125 339.195312 629.632812 338.550781 C 630.1875 337.910156 630.773438 337.292969 631.386719 336.707031 C 632.003906 336.121094 632.644531 335.566406 633.3125 335.042969 C 633.984375 334.519531 634.675781 334.03125 635.394531 333.578125 C 636.109375 333.121094 636.847656 332.703125 637.605469 332.320312 C 638.363281 331.9375 639.140625 331.59375 639.929688 331.289062 C 640.722656 330.984375 641.527344 330.714844 642.347656 330.488281 C 643.164062 330.261719 643.992188 330.078125 644.828125 329.929688 C 645.664062 329.785156 646.507812 329.679688 647.351562 329.617188 C 648.199219 329.554688 649.046875 329.535156 649.894531 329.554688 C 650.746094 329.578125 651.589844 329.636719 652.433594 329.742188 C 653.277344 329.847656 654.113281 329.992188 654.941406 330.175781 C 655.769531 330.363281 656.585938 330.589844 657.390625 330.855469 C 658.199219 331.121094 658.988281 331.425781 659.765625 331.773438 C 660.542969 332.117188 661.300781 332.496094 662.039062 332.914062 Z M 662.039062 332.914062 " fill-opacity="1" fill-rule="nonzero"/><path fill="#ffffff" d="M 620.015625 419.351562 C 620.015625 419.898438 619.988281 420.441406 619.933594 420.980469 C 619.882812 421.523438 619.800781 422.0625 619.695312 422.597656 C 619.589844 423.128906 619.457031 423.65625 619.300781 424.179688 C 619.140625 424.699219 618.957031 425.210938 618.75 425.714844 C 618.542969 426.21875 618.308594 426.710938 618.054688 427.191406 C 617.796875 427.671875 617.515625 428.136719 617.214844 428.589844 C 616.914062 429.042969 616.589844 429.480469 616.246094 429.898438 C 615.898438 430.320312 615.535156 430.722656 615.148438 431.109375 C 614.765625 431.492188 614.363281 431.859375 613.941406 432.203125 C 613.519531 432.550781 613.085938 432.875 612.632812 433.175781 C 612.179688 433.480469 611.714844 433.757812 611.234375 434.015625 C 610.753906 434.273438 610.265625 434.503906 609.761719 434.710938 C 609.257812 434.921875 608.746094 435.105469 608.226562 435.261719 C 607.707031 435.421875 607.179688 435.550781 606.644531 435.660156 C 606.113281 435.765625 605.574219 435.84375 605.035156 435.898438 C 604.492188 435.953125 603.949219 435.976562 603.40625 435.976562 C 602.863281 435.976562 602.320312 435.953125 601.777344 435.898438 C 601.238281 435.84375 600.699219 435.765625 600.164062 435.660156 C 599.632812 435.550781 599.105469 435.421875 598.585938 435.261719 C 598.0625 435.105469 597.550781 434.921875 597.050781 434.710938 C 596.546875 434.503906 596.054688 434.273438 595.578125 434.015625 C 595.097656 433.757812 594.628906 433.480469 594.179688 433.175781 C 593.726562 432.875 593.289062 432.550781 592.871094 432.203125 C 592.449219 431.859375 592.046875 431.492188 591.660156 431.109375 C 591.277344 430.722656 590.910156 430.320312 590.566406 429.898438 C 590.222656 429.480469 589.898438 429.042969 589.597656 428.589844 C 589.292969 428.136719 589.015625 427.671875 588.757812 427.191406 C 588.5 426.710938 588.269531 426.21875 588.0625 425.714844 C 587.851562 425.210938 587.671875 424.699219 587.511719 424.179688 C 587.355469 423.65625 587.222656 423.128906 587.117188 422.597656 C 587.011719 422.0625 586.929688 421.523438 586.878906 420.980469 C 586.824219 420.441406 586.796875 419.898438 586.796875 419.351562 C 586.796875 418.808594 586.824219 418.265625 586.878906 417.722656 C 586.929688 417.179688 587.011719 416.644531 587.117188 416.109375 C 587.222656 415.574219 587.355469 415.046875 587.511719 414.527344 C 587.671875 414.003906 587.851562 413.492188 588.0625 412.992188 C 588.269531 412.488281 588.5 411.996094 588.757812 411.515625 C 589.015625 411.035156 589.292969 410.570312 589.597656 410.117188 C 589.898438 409.664062 590.222656 409.226562 590.566406 408.804688 C 590.910156 408.386719 591.277344 407.980469 591.660156 407.597656 C 592.046875 407.210938 592.449219 406.847656 592.871094 406.5 C 593.289062 406.15625 593.726562 405.832031 594.179688 405.53125 C 594.628906 405.226562 595.097656 404.949219 595.578125 404.691406 C 596.054688 404.433594 596.546875 404.203125 597.050781 403.992188 C 597.550781 403.785156 598.0625 403.601562 598.585938 403.445312 C 599.105469 403.285156 599.632812 403.152344 600.164062 403.046875 C 600.699219 402.941406 601.238281 402.859375 601.777344 402.808594 C 602.320312 402.753906 602.863281 402.726562 603.40625 402.726562 C 603.949219 402.726562 604.492188 402.753906 605.035156 402.808594 C 605.574219 402.859375 606.113281 402.941406 606.644531 403.046875 C 607.179688 403.152344 607.707031 403.285156 608.226562 403.445312 C 608.746094 403.601562 609.257812 403.785156 609.761719 403.992188 C 610.265625 404.203125 610.753906 404.433594 611.234375 404.691406 C 611.714844 404.949219 612.179688 405.226562 612.632812 405.53125 C 613.085938 405.832031 613.519531 406.15625 613.941406 406.5 C 614.363281 406.847656 614.765625 407.210938 615.148438 407.597656 C 615.535156 407.980469 615.898438 408.386719 616.246094 408.804688 C 616.589844 409.226562 616.914062 409.664062 617.214844 410.117188 C 617.515625 410.570312 617.796875 411.035156 618.054688 411.515625 C 618.308594 411.996094 618.542969 412.488281 618.75 412.992188 C 618.957031 413.492188 619.140625 414.003906 619.300781 414.527344 C 619.457031 415.046875 619.589844 415.574219 619.695312 416.109375 C 619.800781 416.644531 619.882812 417.179688 619.933594 417.722656 C 619.988281 418.265625 620.015625 418.808594 620.015625 419.351562 Z M 620.015625 419.351562 " fill-opacity="1" fill-rule="nonzero"/><path fill="#000000" d="M 164.695312 315.5625 C 112.882812 315.5625 68.730469 348.972656 52.574219 395.394531 C 47.984375 392.074219 43.40625 387.507812 39.8125 381.082031 C 37.003906 376.046875 30.660156 374.246094 25.628906 377.058594 C 20.601562 379.867188 18.800781 386.21875 21.609375 391.253906 C 28.875 404.265625 38.714844 411.992188 47.296875 416.746094 C 46.988281 418.855469 46.726562 420.976562 46.523438 423.113281 C 38.800781 420.992188 29.957031 416.894531 22.164062 408.582031 C 17.601562 403.722656 9.972656 403.472656 5.101562 408.039062 C 0.25 412.605469 0 420.246094 4.5625 425.117188 C 24.621094 446.515625 48.773438 448.679688 59.09375 449.601562 L 59.621094 449.648438 C 59.988281 449.675781 60.351562 449.691406 60.71875 449.691406 C 62.339844 449.691406 63.890625 449.355469 65.324219 448.769531 C 71.523438 446.910156 76.039062 441.171875 76.039062 434.367188 C 76.039062 385.445312 115.808594 345.636719 164.683594 345.636719 C 213.558594 345.636719 253.324219 385.445312 253.324219 434.367188 C 253.324219 442.667969 260.050781 449.414062 268.355469 449.414062 C 276.644531 449.414062 283.382812 442.679688 283.382812 434.367188 C 283.382812 368.847656 230.136719 315.5625 164.695312 315.5625 Z M 164.695312 315.5625 " fill-opacity="1" fill-rule="nonzero"/></svg>