<svg xmlns="http://www.w3.org/2000/svg" xmlns:xlink="http://www.w3.org/1999/xlink" width="85" zoomAndPan="magnify" viewBox="0 0 63.75 63.749998" height="85" preserveAspectRatio="xMidYMid meet" version="1.0"><defs><clipPath id="9ea6757f71"><path d="M 0 0 L 63.5 0 L 63.5 63.5 L 0 63.5 Z M 0 0 " clip-rule="nonzero"/></clipPath><clipPath id="c347dc2771"><path d="M 63.75 31.875 C 63.75 32.917969 63.699219 33.960938 63.597656 35 C 63.496094 36.039062 63.339844 37.070312 63.136719 38.09375 C 62.933594 39.117188 62.679688 40.128906 62.378906 41.128906 C 62.074219 42.125 61.722656 43.109375 61.324219 44.074219 C 60.925781 45.039062 60.476562 45.980469 59.984375 46.902344 C 59.492188 47.820312 58.957031 48.714844 58.378906 49.582031 C 57.796875 50.453125 57.175781 51.289062 56.515625 52.097656 C 55.851562 52.902344 55.152344 53.675781 54.414062 54.414062 C 53.675781 55.152344 52.902344 55.851562 52.097656 56.515625 C 51.289062 57.175781 50.453125 57.796875 49.582031 58.378906 C 48.714844 58.957031 47.820312 59.492188 46.902344 59.984375 C 45.980469 60.476562 45.039062 60.925781 44.074219 61.324219 C 43.109375 61.722656 42.125 62.074219 41.128906 62.378906 C 40.128906 62.679688 39.117188 62.933594 38.09375 63.136719 C 37.070312 63.339844 36.039062 63.496094 35 63.597656 C 33.960938 63.699219 32.917969 63.75 31.875 63.75 C 30.832031 63.75 29.789062 63.699219 28.75 63.597656 C 27.710938 63.496094 26.679688 63.339844 25.65625 63.136719 C 24.632812 62.933594 23.621094 62.679688 22.621094 62.378906 C 21.625 62.074219 20.640625 61.722656 19.675781 61.324219 C 18.710938 60.925781 17.769531 60.476562 16.847656 59.984375 C 15.929688 59.492188 15.035156 58.957031 14.167969 58.378906 C 13.296875 57.796875 12.460938 57.175781 11.652344 56.515625 C 10.847656 55.851562 10.074219 55.152344 9.335938 54.414062 C 8.597656 53.675781 7.898438 52.902344 7.234375 52.097656 C 6.574219 51.289062 5.953125 50.453125 5.371094 49.582031 C 4.792969 48.714844 4.257812 47.820312 3.765625 46.902344 C 3.273438 45.980469 2.824219 45.039062 2.425781 44.074219 C 2.027344 43.109375 1.675781 42.125 1.371094 41.128906 C 1.070312 40.128906 0.816406 39.117188 0.613281 38.09375 C 0.410156 37.070312 0.253906 36.039062 0.152344 35 C 0.0507812 33.960938 0 32.917969 0 31.875 C 0 30.832031 0.0507812 29.789062 0.152344 28.75 C 0.253906 27.710938 0.410156 26.679688 0.613281 25.65625 C 0.816406 24.632812 1.070312 23.621094 1.371094 22.621094 C 1.675781 21.625 2.027344 20.640625 2.425781 19.675781 C 2.824219 18.710938 3.273438 17.769531 3.765625 16.847656 C 4.257812 15.929688 4.792969 15.035156 5.371094 14.167969 C 5.953125 13.296875 6.574219 12.460938 7.234375 11.652344 C 7.898438 10.847656 8.597656 10.074219 9.335938 9.335938 C 10.074219 8.597656 10.847656 7.898438 11.652344 7.234375 C 12.460938 6.574219 13.296875 5.953125 14.167969 5.371094 C 15.035156 4.792969 15.929688 4.257812 16.847656 3.765625 C 17.769531 3.273438 18.710938 2.824219 19.675781 2.425781 C 20.640625 2.027344 21.625 1.675781 22.621094 1.371094 C 23.621094 1.070312 24.632812 0.816406 25.65625 0.613281 C 26.679688 0.410156 27.710938 0.253906 28.75 0.152344 C 29.789062 0.0507812 30.832031 0 31.875 0 C 32.917969 0 33.960938 0.0507812 35 0.152344 C 36.039062 0.253906 37.070312 0.410156 38.09375 0.613281 C 39.117188 0.816406 40.128906 1.070312 41.128906 1.371094 C 42.125 1.675781 43.109375 2.027344 44.074219 2.425781 C 45.039062 2.824219 45.980469 3.273438 46.902344 3.765625 C 47.820312 4.257812 48.714844 4.792969 49.582031 5.371094 C 50.453125 5.953125 51.289062 6.574219 52.097656 7.234375 C 52.902344 7.898438 53.675781 8.597656 54.414062 9.335938 C 55.152344 10.074219 55.851562 10.847656 56.515625 11.652344 C 57.175781 12.460938 57.796875 13.296875 58.378906 14.167969 C 58.957031 15.035156 59.492188 15.929688 59.984375 16.847656 C 60.476562 17.769531 60.925781 18.710938 61.324219 19.675781 C 61.722656 20.640625 62.074219 21.625 62.378906 22.621094 C 62.679688 23.621094 62.933594 24.632812 63.136719 25.65625 C 63.339844 26.679688 63.496094 27.710938 63.597656 28.75 C 63.699219 29.789062 63.75 30.832031 63.75 31.875 Z M 63.75 31.875 " clip-rule="nonzero"/></clipPath><radialGradient gradientTransform="matrix(1, 0, 0, 1, 0.000001, 0)" gradientUnits="userSpaceOnUse" r="31.874998" cx="31.874998" id="0b1ee58edd" cy="31.874998" fx="31.874998" fy="31.874998"><stop stop-opacity="1" stop-color="rgb(100%, 99.842834%, 0%)" offset="0"/><stop stop-opacity="1" stop-color="rgb(100%, 99.569702%, 0%)" offset="0.015625"/><stop stop-opacity="1" stop-color="rgb(100%, 99.334717%, 0%)" offset="0.0273438"/><stop stop-opacity="1" stop-color="rgb(100%, 99.101257%, 0%)" offset="0.0390625"/><stop stop-opacity="1" stop-color="rgb(100%, 98.866272%, 0%)" offset="0.0507812"/><stop stop-opacity="1" stop-color="rgb(100%, 98.631287%, 0%)" offset="0.0625"/><stop stop-opacity="1" stop-color="rgb(100%, 98.397827%, 0%)" offset="0.0742188"/><stop stop-opacity="1" stop-color="rgb(100%, 98.162842%, 0%)" offset="0.0859375"/><stop stop-opacity="1" stop-color="rgb(100%, 97.929382%, 0%)" offset="0.0976562"/><stop stop-opacity="1" stop-color="rgb(100%, 97.694397%, 0%)" offset="0.109375"/><stop stop-opacity="1" stop-color="rgb(100%, 97.459412%, 0%)" offset="0.121094"/><stop stop-opacity="1" stop-color="rgb(100%, 97.225952%, 0%)" offset="0.132812"/><stop stop-opacity="1" stop-color="rgb(100%, 96.990967%, 0%)" offset="0.144531"/><stop stop-opacity="1" stop-color="rgb(100%, 96.757507%, 0%)" offset="0.15625"/><stop stop-opacity="1" stop-color="rgb(100%, 96.522522%, 0%)" offset="0.167969"/><stop stop-opacity="1" stop-color="rgb(100%, 96.287537%, 0%)" offset="0.179688"/><stop stop-opacity="1" stop-color="rgb(100%, 96.054077%, 0%)" offset="0.191406"/><stop stop-opacity="1" stop-color="rgb(100%, 95.819092%, 0%)" offset="0.203125"/><stop stop-opacity="1" stop-color="rgb(100%, 95.585632%, 0%)" offset="0.214844"/><stop stop-opacity="1" stop-color="rgb(100%, 95.350647%, 0%)" offset="0.226562"/><stop stop-opacity="1" stop-color="rgb(100%, 95.115662%, 0%)" offset="0.238281"/><stop stop-opacity="1" stop-color="rgb(100%, 94.882202%, 0%)" offset="0.25"/><stop stop-opacity="1" stop-color="rgb(100%, 94.569397%, 0%)" offset="0.261719"/><stop stop-opacity="1" stop-color="rgb(100%, 94.178772%, 0%)" offset="0.28125"/><stop stop-opacity="1" stop-color="rgb(100%, 93.788147%, 0%)" offset="0.300781"/><stop stop-opacity="1" stop-color="rgb(100%, 93.397522%, 0%)" offset="0.320312"/><stop stop-opacity="1" stop-color="rgb(100%, 93.006897%, 0%)" offset="0.339844"/><stop stop-opacity="1" stop-color="rgb(100%, 92.616272%, 0%)" offset="0.359375"/><stop stop-opacity="1" stop-color="rgb(100%, 92.263794%, 0%)" offset="0.378906"/><stop stop-opacity="1" stop-color="rgb(100%, 91.952515%, 0%)" offset="0.394531"/><stop stop-opacity="1" stop-color="rgb(100%, 91.639709%, 0%)" offset="0.410156"/><stop stop-opacity="1" stop-color="rgb(100%, 91.326904%, 0%)" offset="0.425781"/><stop stop-opacity="1" stop-color="rgb(100%, 91.014099%, 0%)" offset="0.441406"/><stop stop-opacity="1" stop-color="rgb(100%, 90.701294%, 0%)" offset="0.457031"/><stop stop-opacity="1" stop-color="rgb(100%, 90.390015%, 0%)" offset="0.472656"/><stop stop-opacity="1" stop-color="rgb(100%, 90.077209%, 0%)" offset="0.488281"/><stop stop-opacity="1" stop-color="rgb(100%, 89.804077%, 0%)" offset="0.503906"/><stop stop-opacity="1" stop-color="rgb(100%, 89.569092%, 0%)" offset="0.515625"/><stop stop-opacity="1" stop-color="rgb(100%, 89.335632%, 0%)" offset="0.527344"/><stop stop-opacity="1" stop-color="rgb(100%, 89.100647%, 0%)" offset="0.539062"/><stop stop-opacity="1" stop-color="rgb(100%, 88.865662%, 0%)" offset="0.550781"/><stop stop-opacity="1" stop-color="rgb(100%, 88.632202%, 0%)" offset="0.5625"/><stop stop-opacity="1" stop-color="rgb(100%, 88.397217%, 0%)" offset="0.574219"/><stop stop-opacity="1" stop-color="rgb(100%, 88.163757%, 0%)" offset="0.585938"/><stop stop-opacity="1" stop-color="rgb(100%, 87.928772%, 0%)" offset="0.597656"/><stop stop-opacity="1" stop-color="rgb(100%, 87.693787%, 0%)" offset="0.609375"/><stop stop-opacity="1" stop-color="rgb(100%, 87.460327%, 0%)" offset="0.621094"/><stop stop-opacity="1" stop-color="rgb(100%, 87.147522%, 0%)" offset="0.632812"/><stop stop-opacity="1" stop-color="rgb(100%, 86.756897%, 0%)" offset="0.652344"/><stop stop-opacity="1" stop-color="rgb(100%, 86.366272%, 0%)" offset="0.671875"/><stop stop-opacity="1" stop-color="rgb(100%, 86.013794%, 0%)" offset="0.691406"/><stop stop-opacity="1" stop-color="rgb(100%, 85.702515%, 0%)" offset="0.707031"/><stop stop-opacity="1" stop-color="rgb(100%, 85.389709%, 0%)" offset="0.722656"/><stop stop-opacity="1" stop-color="rgb(100%, 85.076904%, 0%)" offset="0.738281"/><stop stop-opacity="1" stop-color="rgb(100%, 84.803772%, 0%)" offset="0.753906"/><stop stop-opacity="1" stop-color="rgb(100%, 84.568787%, 0%)" offset="0.765625"/><stop stop-opacity="1" stop-color="rgb(100%, 84.335327%, 0%)" offset="0.777344"/><stop stop-opacity="1" stop-color="rgb(100%, 84.100342%, 0%)" offset="0.789062"/><stop stop-opacity="1" stop-color="rgb(100%, 83.866882%, 0%)" offset="0.800781"/><stop stop-opacity="1" stop-color="rgb(100%, 83.631897%, 0%)" offset="0.8125"/><stop stop-opacity="1" stop-color="rgb(100%, 83.319092%, 0%)" offset="0.824219"/><stop stop-opacity="1" stop-color="rgb(100%, 82.928467%, 0%)" offset="0.84375"/><stop stop-opacity="1" stop-color="rgb(100%, 82.577515%, 0%)" offset="0.863281"/><stop stop-opacity="1" stop-color="rgb(100%, 82.304382%, 0%)" offset="0.878906"/><stop stop-opacity="1" stop-color="rgb(100%, 82.069397%, 0%)" offset="0.890625"/><stop stop-opacity="1" stop-color="rgb(100%, 81.834412%, 0%)" offset="0.902344"/><stop stop-opacity="1" stop-color="rgb(100%, 81.523132%, 0%)" offset="0.914062"/><stop stop-opacity="1" stop-color="rgb(100%, 81.170654%, 0%)" offset="0.933594"/><stop stop-opacity="1" stop-color="rgb(100%, 80.897522%, 0%)" offset="0.949219"/><stop stop-opacity="1" stop-color="rgb(100%, 80.584717%, 0%)" offset="0.960938"/><stop stop-opacity="1" stop-color="rgb(100%, 80.194092%, 0%)" offset="0.980469"/><stop stop-opacity="1" stop-color="rgb(100%, 79.998779%, 0%)" offset="1"/></radialGradient><clipPath id="a8b589bdf7"><path d="M 11 6 L 52.972656 6 L 52.972656 57.125 L 11 57.125 Z M 11 6 " clip-rule="nonzero"/></clipPath></defs><g clip-path="url(#9ea6757f71)"><g clip-path="url(#c347dc2771)"><path fill="url(#0b1ee58edd)" d="M 0 0 L 0 63.5 L 63.5 63.5 L 63.5 0 Z M 0 0 " fill-rule="nonzero"/></g></g><g clip-path="url(#a8b589bdf7)"><path fill="#096cef" d="M 43.4375 35.664062 C 40.804688 38.714844 36.96875 40.71875 32.660156 40.957031 C 32.371094 40.972656 32.082031 40.980469 31.789062 40.980469 C 31.617188 40.980469 31.445312 40.980469 31.273438 40.972656 C 26.9375 40.832031 23.054688 38.902344 20.355469 35.902344 C 17.957031 33.242188 16.496094 29.738281 16.472656 25.894531 C 16.429688 17.613281 23.195312 10.761719 31.554688 10.640625 C 40.121094 10.511719 47.105469 17.351562 47.105469 25.808594 C 47.105469 29.570312 45.726562 33.015625 43.4375 35.664062 M 52.765625 50.53125 L 45.714844 39.292969 C 45.609375 39.125 45.632812 38.90625 45.769531 38.761719 C 49.851562 34.4375 51.914062 28.222656 50.46875 21.585938 C 48.921875 14.460938 43.269531 8.855469 36.082031 7.3125 C 23.640625 4.636719 12.652344 13.953125 12.652344 25.808594 C 12.652344 30.929688 14.699219 35.574219 18.027344 38.984375 C 18.167969 39.128906 18.195312 39.351562 18.085938 39.523438 L 11.175781 50.53125 C 10.972656 50.855469 11.21875 51.277344 11.605469 51.261719 L 17.582031 51.046875 C 17.78125 51.039062 17.960938 51.152344 18.042969 51.328125 L 20.492188 56.734375 C 20.652344 57.085938 21.140625 57.117188 21.347656 56.792969 L 28.863281 44.8125 C 28.957031 44.667969 29.125 44.589844 29.300781 44.609375 C 30.113281 44.714844 30.945312 44.769531 31.789062 44.769531 C 32.75 44.769531 33.6875 44.699219 34.609375 44.566406 C 34.785156 44.539062 34.957031 44.617188 35.050781 44.765625 L 42.597656 56.792969 C 42.800781 57.117188 43.292969 57.085938 43.453125 56.734375 L 45.898438 51.328125 C 45.980469 51.152344 46.164062 51.039062 46.359375 51.046875 L 52.339844 51.261719 C 52.726562 51.277344 52.972656 50.855469 52.765625 50.53125 " fill-opacity="1" fill-rule="nonzero"/></g><path fill="#096cef" d="M 40.210938 22.738281 L 36.429688 26.539062 C 36.367188 26.601562 36.335938 26.695312 36.351562 26.785156 L 37.152344 32.058594 C 37.1875 32.289062 36.949219 32.464844 36.738281 32.359375 L 31.921875 29.972656 C 31.839844 29.933594 31.742188 29.933594 31.660156 29.972656 L 26.84375 32.359375 C 26.636719 32.464844 26.390625 32.289062 26.425781 32.058594 L 27.230469 26.785156 C 27.246094 26.695312 27.214844 26.601562 27.148438 26.539062 L 23.371094 22.738281 C 23.207031 22.574219 23.296875 22.289062 23.53125 22.253906 L 28.84375 21.378906 C 28.933594 21.367188 29.011719 21.308594 29.054688 21.230469 L 31.53125 16.492188 C 31.640625 16.285156 31.941406 16.285156 32.046875 16.492188 L 34.527344 21.230469 C 34.570312 21.308594 34.648438 21.367188 34.738281 21.378906 L 40.050781 22.253906 C 40.285156 22.289062 40.375 22.574219 40.210938 22.738281 M 31.792969 12.3125 C 24.265625 12.3125 18.164062 18.355469 18.164062 25.808594 C 18.164062 33.265625 24.265625 39.304688 31.792969 39.304688 C 39.316406 39.304688 45.414062 33.265625 45.414062 25.808594 C 45.414062 18.355469 39.316406 12.3125 31.792969 12.3125 " fill-opacity="1" fill-rule="nonzero"/></svg>