<svg xmlns="http://www.w3.org/2000/svg" xmlns:xlink="http://www.w3.org/1999/xlink" width="85" zoomAndPan="magnify" viewBox="0 0 63.75 63.749998" height="85" preserveAspectRatio="xMidYMid meet" version="1.0"><defs><clipPath id="1c510a524c"><path d="M 0.496094 2.460938 L 55 2.460938 L 55 60.960938 L 0.496094 60.960938 Z M 0.496094 2.460938 " clip-rule="nonzero"/></clipPath><clipPath id="b32629b582"><path d="M 49 24 L 63.496094 24 L 63.496094 39 L 49 39 Z M 49 24 " clip-rule="nonzero"/></clipPath></defs><g clip-path="url(#1c510a524c)"><path fill="#8e99a2" d="M 13.257812 55.609375 C 10.03125 53.382812 7.332031 50.585938 5.242188 47.304688 C 3.222656 44.136719 1.855469 40.648438 1.175781 36.941406 C 0.496094 33.234375 0.539062 29.488281 1.300781 25.8125 C 2.09375 22 3.625 18.433594 5.851562 15.210938 C 8.082031 11.988281 10.878906 9.292969 14.167969 7.207031 C 17.34375 5.191406 20.835938 3.824219 24.546875 3.148438 C 28.261719 2.46875 32.011719 2.511719 35.695312 3.273438 C 39.507812 4.0625 43.082031 5.589844 46.3125 7.816406 C 49.539062 10.042969 52.238281 12.835938 54.328125 16.121094 C 54.398438 16.234375 54.472656 16.347656 54.542969 16.460938 C 55.0625 17.308594 54.800781 18.417969 53.953125 18.9375 C 53.328125 19.324219 52.554688 19.28125 51.984375 18.886719 C 51.785156 18.75 51.609375 18.570312 51.476562 18.351562 C 51.414062 18.25 51.351562 18.148438 51.285156 18.050781 C 49.457031 15.175781 47.09375 12.726562 44.261719 10.777344 C 41.433594 8.824219 38.304688 7.484375 34.964844 6.796875 C 31.738281 6.128906 28.453125 6.089844 25.195312 6.6875 C 21.941406 7.28125 18.882812 8.476562 16.101562 10.242188 C 13.222656 12.070312 10.773438 14.429688 8.816406 17.253906 C 6.863281 20.082031 5.523438 23.207031 4.828125 26.539062 C 4.160156 29.761719 4.125 33.042969 4.722656 36.292969 C 5.316406 39.542969 6.515625 42.597656 8.28125 45.375 C 10.113281 48.25 12.476562 50.695312 15.304688 52.648438 C 18.136719 54.597656 21.265625 55.9375 24.605469 56.628906 C 27.832031 57.296875 31.117188 57.332031 34.371094 56.738281 C 37.625 56.144531 40.6875 54.945312 43.46875 53.183594 C 46.347656 51.355469 48.796875 48.996094 50.75 46.167969 C 51.316406 45.351562 52.4375 45.148438 53.257812 45.710938 C 54.074219 46.277344 54.28125 47.394531 53.714844 48.214844 C 51.484375 51.4375 48.6875 54.132812 45.398438 56.21875 C 42.226562 58.234375 38.734375 59.597656 35.019531 60.277344 C 31.308594 60.957031 27.558594 60.914062 23.875 60.152344 C 20.058594 59.363281 16.488281 57.835938 13.257812 55.609375 Z M 13.257812 55.609375 " fill-opacity="1" fill-rule="nonzero"/></g><path fill="#8e99a2" d="M 25.886719 22.683594 L 17.367188 22.675781 L 16.339844 28.476562 C 18.039062 27.574219 19.605469 27.121094 21.039062 27.121094 C 22.1875 27.125 23.261719 27.339844 24.257812 27.769531 C 25.257812 28.199219 26.132812 28.796875 26.886719 29.554688 C 27.636719 30.3125 28.230469 31.214844 28.660156 32.253906 C 29.085938 33.292969 29.300781 34.410156 29.300781 35.601562 C 29.296875 37.332031 28.90625 38.910156 28.128906 40.328125 C 27.351562 41.75 26.226562 42.875 24.761719 43.710938 C 23.296875 44.542969 21.605469 44.960938 19.695312 44.957031 C 17.554688 44.957031 15.816406 44.558594 14.484375 43.769531 C 13.152344 42.980469 12.207031 42.074219 11.652344 41.054688 C 11.097656 40.03125 10.820312 39.140625 10.820312 38.375 C 10.824219 37.910156 11.015625 37.46875 11.40625 37.050781 C 11.796875 36.632812 12.28125 36.425781 12.871094 36.425781 C 13.875 36.425781 14.621094 37.007812 15.109375 38.164062 C 15.585938 39.230469 16.230469 40.054688 17.042969 40.648438 C 17.855469 41.242188 18.765625 41.535156 19.769531 41.539062 C 20.691406 41.539062 21.496094 41.300781 22.191406 40.824219 C 22.886719 40.347656 23.421875 39.691406 23.800781 38.855469 C 24.175781 38.019531 24.367188 37.070312 24.367188 36.007812 C 24.367188 34.863281 24.167969 33.882812 23.761719 33.070312 C 23.355469 32.257812 22.8125 31.652344 22.128906 31.25 C 21.449219 30.851562 20.691406 30.648438 19.851562 30.648438 C 18.824219 30.648438 18.089844 30.773438 17.644531 31.023438 C 17.203125 31.273438 16.566406 31.710938 15.734375 32.335938 C 14.902344 32.960938 14.21875 33.273438 13.679688 33.273438 C 13.09375 33.273438 12.574219 33.0625 12.121094 32.636719 C 11.664062 32.214844 11.441406 31.730469 11.441406 31.195312 C 11.441406 31.136719 11.507812 30.730469 11.640625 29.976562 L 13.15625 21.398438 C 13.324219 20.375 13.636719 19.628906 14.089844 19.160156 C 14.546875 18.695312 15.285156 18.464844 16.316406 18.464844 L 25.785156 18.476562 C 27.652344 18.480469 28.582031 19.191406 28.582031 20.609375 C 28.582031 21.230469 28.351562 21.734375 27.898438 22.113281 C 27.441406 22.496094 26.773438 22.6875 25.886719 22.683594 Z M 25.886719 22.683594 " fill-opacity="1" fill-rule="nonzero"/><g clip-path="url(#b32629b582)"><path fill="#8e99a2" d="M 61.863281 30.089844 C 62.316406 30.089844 62.703125 30.246094 63.027344 30.558594 C 63.34375 30.882812 63.5 31.265625 63.5 31.703125 C 63.5 32.15625 63.34375 32.542969 63.027344 32.867188 C 62.703125 33.179688 62.316406 33.335938 61.863281 33.335938 L 58.234375 33.335938 L 58.234375 36.960938 C 58.234375 37.410156 58.078125 37.800781 57.765625 38.121094 C 57.441406 38.433594 57.058594 38.589844 56.617188 38.589844 C 56.167969 38.589844 55.777344 38.433594 55.453125 38.121094 C 55.140625 37.800781 54.984375 37.410156 54.984375 36.960938 L 54.984375 33.335938 L 51.351562 33.335938 C 50.902344 33.335938 50.511719 33.179688 50.1875 32.867188 C 49.875 32.542969 49.71875 32.15625 49.71875 31.703125 C 49.71875 31.265625 49.875 30.882812 50.1875 30.558594 C 50.511719 30.246094 50.902344 30.089844 51.351562 30.089844 L 54.984375 30.089844 L 54.984375 26.464844 C 54.984375 26.011719 55.140625 25.625 55.453125 25.300781 C 55.777344 24.988281 56.167969 24.832031 56.617188 24.832031 C 57.058594 24.832031 57.441406 24.988281 57.765625 25.300781 C 58.078125 25.625 58.234375 26.011719 58.234375 26.464844 L 58.234375 30.089844 Z M 61.863281 30.089844 " fill-opacity="1" fill-rule="nonzero"/></g><path fill="#8e99a2" d="M 36.824219 43.40625 L 37.195312 42.496094 L 32.175781 29.871094 C 31.867188 29.144531 31.710938 28.617188 31.710938 28.289062 C 31.710938 27.941406 31.800781 27.617188 31.980469 27.320312 C 32.160156 27.023438 32.40625 26.78125 32.722656 26.605469 C 33.035156 26.425781 33.359375 26.335938 33.699219 26.335938 C 34.289062 26.335938 34.730469 26.523438 35.03125 26.894531 C 35.328125 27.269531 35.59375 27.804688 35.820312 28.5 L 39.273438 38.527344 L 42.546875 29.199219 C 42.804688 28.445312 43.039062 27.851562 43.25 27.425781 C 43.460938 26.996094 43.679688 26.707031 43.914062 26.558594 C 44.148438 26.410156 44.480469 26.335938 44.910156 26.335938 C 45.21875 26.335938 45.515625 26.417969 45.796875 26.582031 C 46.082031 26.746094 46.300781 26.96875 46.457031 27.246094 C 46.609375 27.523438 46.6875 27.816406 46.6875 28.125 C 46.648438 28.316406 46.582031 28.582031 46.492188 28.933594 C 46.402344 29.28125 46.292969 29.632812 46.164062 29.992188 L 40.84375 43.898438 C 40.386719 45.125 39.9375 46.082031 39.5 46.78125 C 39.058594 47.476562 38.480469 48.011719 37.757812 48.382812 C 37.035156 48.757812 36.0625 48.945312 34.835938 48.945312 C 33.640625 48.945312 32.742188 48.816406 32.144531 48.554688 C 31.546875 48.296875 31.25 47.824219 31.25 47.136719 C 31.25 46.671875 31.390625 46.308594 31.675781 46.054688 C 31.957031 45.804688 32.378906 45.675781 32.9375 45.675781 C 33.15625 45.675781 33.371094 45.707031 33.582031 45.765625 C 33.839844 45.824219 34.0625 45.855469 34.253906 45.855469 C 34.722656 45.855469 35.089844 45.785156 35.359375 45.644531 C 35.628906 45.507812 35.871094 45.265625 36.082031 44.921875 C 36.296875 44.578125 36.542969 44.074219 36.824219 43.40625 Z M 36.824219 43.40625 " fill-opacity="1" fill-rule="nonzero"/></svg>