<svg xmlns="http://www.w3.org/2000/svg" xmlns:xlink="http://www.w3.org/1999/xlink" width="85" zoomAndPan="magnify" viewBox="0 0 63.75 63.749998" height="85" preserveAspectRatio="xMidYMid meet" version="1.0"><defs><clipPath id="ce7696e362"><path d="M 0.851562 0.640625 L 62.890625 0.640625 L 62.890625 62.890625 L 0.851562 62.890625 Z M 0.851562 0.640625 " clip-rule="nonzero"/></clipPath></defs><g clip-path="url(#ce7696e362)"><path fill="#ffd32d" d="M 0.851562 31.765625 C 0.851562 32.785156 0.902344 33.800781 1 34.816406 C 1.101562 35.832031 1.25 36.835938 1.449219 37.835938 C 1.648438 38.835938 1.894531 39.824219 2.191406 40.800781 C 2.488281 41.777344 2.828125 42.734375 3.21875 43.675781 C 3.609375 44.617188 4.046875 45.539062 4.527344 46.4375 C 5.007812 47.335938 5.53125 48.210938 6.097656 49.058594 C 6.664062 49.90625 7.269531 50.722656 7.914062 51.511719 C 8.5625 52.296875 9.246094 53.054688 9.96875 53.773438 C 10.6875 54.496094 11.441406 55.179688 12.230469 55.824219 C 13.019531 56.472656 13.835938 57.078125 14.683594 57.644531 C 15.53125 58.210938 16.40625 58.734375 17.304688 59.214844 C 18.203125 59.695312 19.125 60.128906 20.066406 60.519531 C 21.007812 60.910156 21.964844 61.253906 22.941406 61.550781 C 23.917969 61.84375 24.902344 62.09375 25.902344 62.292969 C 26.902344 62.492188 27.910156 62.640625 28.925781 62.738281 C 29.941406 62.839844 30.957031 62.890625 31.976562 62.890625 C 32.996094 62.890625 34.011719 62.839844 35.027344 62.738281 C 36.042969 62.640625 37.046875 62.492188 38.046875 62.292969 C 39.046875 62.09375 40.035156 61.84375 41.011719 61.550781 C 41.988281 61.253906 42.945312 60.910156 43.886719 60.519531 C 44.828125 60.128906 45.75 59.695312 46.648438 59.214844 C 47.546875 58.734375 48.421875 58.210938 49.269531 57.644531 C 50.117188 57.078125 50.933594 56.472656 51.722656 55.824219 C 52.507812 55.179688 53.265625 54.496094 53.984375 53.773438 C 54.707031 53.054688 55.390625 52.296875 56.035156 51.511719 C 56.683594 50.722656 57.289062 49.90625 57.855469 49.058594 C 58.421875 48.210938 58.945312 47.335938 59.425781 46.4375 C 59.90625 45.539062 60.339844 44.617188 60.730469 43.675781 C 61.121094 42.734375 61.464844 41.777344 61.761719 40.800781 C 62.054688 39.824219 62.304688 38.835938 62.503906 37.835938 C 62.703125 36.835938 62.851562 35.832031 62.949219 34.816406 C 63.050781 33.800781 63.101562 32.785156 63.101562 31.765625 C 63.101562 30.746094 63.050781 29.730469 62.949219 28.714844 C 62.851562 27.699219 62.703125 26.691406 62.503906 25.691406 C 62.304688 24.691406 62.054688 23.707031 61.761719 22.730469 C 61.464844 21.753906 61.121094 20.796875 60.730469 19.855469 C 60.339844 18.914062 59.90625 17.992188 59.425781 17.09375 C 58.945312 16.195312 58.421875 15.320312 57.855469 14.472656 C 57.289062 13.625 56.683594 12.808594 56.035156 12.019531 C 55.390625 11.230469 54.707031 10.476562 53.984375 9.757812 C 53.265625 9.035156 52.507812 8.351562 51.722656 7.703125 C 50.933594 7.058594 50.117188 6.453125 49.269531 5.886719 C 48.421875 5.320312 47.546875 4.796875 46.648438 4.316406 C 45.75 3.835938 44.828125 3.398438 43.886719 3.007812 C 42.945312 2.617188 41.988281 2.277344 41.011719 1.980469 C 40.035156 1.683594 39.046875 1.4375 38.046875 1.238281 C 37.046875 1.039062 36.042969 0.890625 35.027344 0.789062 C 34.011719 0.691406 32.996094 0.640625 31.976562 0.640625 C 30.957031 0.640625 29.941406 0.691406 28.925781 0.789062 C 27.910156 0.890625 26.902344 1.039062 25.902344 1.238281 C 24.902344 1.4375 23.917969 1.683594 22.941406 1.980469 C 21.964844 2.277344 21.007812 2.617188 20.066406 3.007812 C 19.125 3.398438 18.203125 3.835938 17.304688 4.316406 C 16.40625 4.796875 15.53125 5.320312 14.683594 5.886719 C 13.835938 6.453125 13.019531 7.058594 12.230469 7.703125 C 11.441406 8.351562 10.6875 9.035156 9.96875 9.757812 C 9.246094 10.476562 8.5625 11.230469 7.914062 12.019531 C 7.269531 12.808594 6.664062 13.625 6.097656 14.472656 C 5.53125 15.320312 5.007812 16.195312 4.527344 17.09375 C 4.046875 17.992188 3.609375 18.914062 3.21875 19.855469 C 2.828125 20.796875 2.488281 21.753906 2.191406 22.730469 C 1.894531 23.707031 1.648438 24.691406 1.449219 25.691406 C 1.25 26.691406 1.101562 27.699219 1 28.714844 C 0.902344 29.730469 0.851562 30.746094 0.851562 31.765625 Z M 0.851562 31.765625 " fill-opacity="1" fill-rule="nonzero"/></g><path fill="#ffffff" d="M 14.539062 31.453125 C 14.539062 31.328125 14.539062 31.265625 14.601562 31.140625 C 14.601562 31.015625 14.664062 30.953125 14.664062 30.828125 C 14.664062 30.703125 14.726562 30.640625 14.789062 30.515625 C 14.851562 30.390625 14.851562 30.328125 14.914062 30.203125 C 14.976562 30.078125 15.039062 30.015625 15.101562 29.953125 C 15.164062 29.828125 15.226562 29.765625 15.289062 29.640625 C 15.351562 29.578125 15.351562 29.578125 15.351562 29.515625 L 27.289062 16.140625 C 28.539062 14.703125 30.726562 14.640625 32.101562 15.890625 C 33.539062 17.140625 33.601562 19.328125 32.351562 20.703125 L 22.539062 31.765625 L 32.414062 42.828125 C 33.664062 44.265625 33.539062 46.390625 32.164062 47.640625 C 31.539062 48.203125 30.726562 48.515625 29.914062 48.515625 C 28.976562 48.515625 28.039062 48.140625 27.351562 47.390625 L 15.414062 34.078125 C 15.351562 34.015625 15.351562 34.015625 15.351562 33.953125 C 15.289062 33.828125 15.226562 33.765625 15.164062 33.640625 C 15.101562 33.578125 15.039062 33.453125 14.976562 33.390625 C 14.914062 33.265625 14.851562 33.203125 14.851562 33.078125 C 14.789062 32.953125 14.789062 32.890625 14.726562 32.765625 C 14.726562 32.640625 14.664062 32.578125 14.664062 32.453125 C 14.664062 32.328125 14.601562 32.265625 14.601562 32.140625 C 14.601562 32.015625 14.601562 31.953125 14.601562 31.828125 C 14.539062 31.640625 14.539062 31.578125 14.539062 31.453125 Z M 14.539062 31.453125 " fill-opacity="1" fill-rule="nonzero"/><path fill="#ffffff" d="M 31.476562 33.953125 C 31.414062 33.828125 31.351562 33.765625 31.289062 33.640625 C 31.226562 33.578125 31.164062 33.453125 31.101562 33.390625 C 31.039062 33.265625 30.976562 33.203125 30.976562 33.078125 C 30.914062 32.953125 30.914062 32.890625 30.851562 32.765625 C 30.851562 32.640625 30.789062 32.578125 30.789062 32.453125 C 30.789062 32.328125 30.726562 32.265625 30.726562 32.140625 C 30.726562 32.015625 30.726562 31.953125 30.726562 31.828125 C 30.726562 31.703125 30.726562 31.640625 30.726562 31.515625 C 30.726562 31.390625 30.726562 31.328125 30.789062 31.203125 C 30.789062 31.078125 30.851562 31.015625 30.851562 30.890625 C 30.851562 30.765625 30.914062 30.703125 30.976562 30.578125 C 31.039062 30.453125 31.039062 30.390625 31.101562 30.265625 C 31.164062 30.140625 31.226562 30.078125 31.289062 30.015625 C 31.351562 29.890625 31.414062 29.828125 31.476562 29.703125 C 31.539062 29.640625 31.539062 29.640625 31.539062 29.578125 L 43.476562 16.140625 C 44.726562 14.703125 46.914062 14.640625 48.289062 15.890625 C 49.726562 17.140625 49.789062 19.328125 48.539062 20.703125 L 38.664062 31.765625 L 48.539062 42.828125 C 49.789062 44.265625 49.664062 46.390625 48.289062 47.640625 C 47.664062 48.203125 46.851562 48.515625 46.039062 48.515625 C 45.101562 48.515625 44.164062 48.140625 43.476562 47.390625 L 31.539062 34.078125 C 31.476562 34.015625 31.476562 33.953125 31.476562 33.953125 Z M 31.476562 33.953125 " fill-opacity="1" fill-rule="nonzero"/></svg>