<svg xmlns="http://www.w3.org/2000/svg" xmlns:xlink="http://www.w3.org/1999/xlink" width="2379" zoomAndPan="magnify" viewBox="0 0 1784.88 1784.99993" height="2379" preserveAspectRatio="xMidYMid meet" version="1.0"><defs><clipPath id="759526bcd3"><path d="M 272.863281 3 L 1459 3 L 1459 1782 L 272.863281 1782 Z M 272.863281 3 " clip-rule="nonzero"/></clipPath><clipPath id="c3e0bd87da"><path d="M 475.542969 282.71875 L 1247.433594 282.71875 L 1247.433594 1164.59375 L 475.542969 1164.59375 Z M 475.542969 282.71875 " clip-rule="nonzero"/></clipPath></defs><g clip-path="url(#759526bcd3)"><path fill="#bc1823" d="M 1280.863281 121.613281 L 1199.035156 121.613281 L 1188.957031 101.453125 C 1158.714844 40.972656 1097.644531 3.023438 1029.453125 3.023438 L 702.152344 3.023438 C 633.964844 3.023438 572.890625 40.972656 542.652344 101.453125 L 532.570312 121.613281 L 450.746094 121.613281 C 352.910156 121.613281 272.863281 201.660156 272.863281 299.496094 L 272.863281 1603.964844 C 272.863281 1701.800781 352.910156 1781.847656 450.746094 1781.847656 L 1280.863281 1781.847656 C 1378.695312 1781.847656 1458.742188 1701.800781 1458.742188 1603.964844 L 1458.742188 299.496094 C 1458.742188 201.660156 1378.695312 121.613281 1280.863281 121.613281 Z M 1340.15625 1603.964844 C 1340.15625 1636.574219 1313.472656 1663.257812 1280.863281 1663.257812 L 450.746094 1663.257812 C 418.132812 1663.257812 391.449219 1636.574219 391.449219 1603.964844 L 391.449219 299.496094 C 391.449219 266.882812 418.132812 240.199219 450.746094 240.199219 L 569.332031 240.199219 C 591.863281 240.199219 612.023438 227.75 622.105469 207.589844 L 648.785156 154.222656 C 658.867188 134.066406 679.621094 121.613281 702.152344 121.613281 L 1029.453125 121.613281 C 1051.988281 121.613281 1072.738281 134.066406 1082.820312 154.222656 L 1109.5 207.589844 C 1119.582031 227.75 1139.742188 240.199219 1162.273438 240.199219 L 1280.863281 240.199219 C 1313.472656 240.199219 1340.15625 266.882812 1340.15625 299.496094 Z M 1340.15625 1603.964844 " fill-opacity="1" fill-rule="nonzero"/></g><path fill="#bc1823" d="M 1162.273438 358.789062 L 569.332031 358.789062 C 536.722656 358.789062 510.039062 385.472656 510.039062 418.082031 L 510.039062 655.257812 C 510.039062 687.871094 536.722656 714.554688 569.332031 714.554688 L 1162.273438 714.554688 C 1194.886719 714.554688 1221.566406 687.871094 1221.566406 655.257812 L 1221.566406 418.082031 C 1221.566406 385.472656 1194.886719 358.789062 1162.273438 358.789062 Z M 1162.273438 358.789062 " fill-opacity="1" fill-rule="nonzero"/><path fill="#bc1823" d="M 1162.273438 773.847656 L 569.332031 773.847656 C 536.722656 773.847656 510.039062 800.53125 510.039062 833.140625 L 510.039062 1070.316406 C 510.039062 1102.929688 536.722656 1129.613281 569.332031 1129.613281 L 1162.273438 1129.613281 C 1194.886719 1129.613281 1221.566406 1102.929688 1221.566406 1070.316406 L 1221.566406 833.140625 C 1221.566406 800.53125 1194.886719 773.847656 1162.273438 773.847656 Z M 1162.273438 773.847656 " fill-opacity="1" fill-rule="nonzero"/><path fill="#bc1823" d="M 1162.273438 1188.90625 L 569.332031 1188.90625 C 536.722656 1188.90625 510.039062 1215.589844 510.039062 1248.199219 L 510.039062 1485.375 C 510.039062 1517.988281 536.722656 1544.671875 569.332031 1544.671875 L 1162.273438 1544.671875 C 1194.886719 1544.671875 1221.566406 1517.988281 1221.566406 1485.375 L 1221.566406 1248.199219 C 1221.566406 1215.589844 1194.886719 1188.90625 1162.273438 1188.90625 Z M 1162.273438 1188.90625 " fill-opacity="1" fill-rule="nonzero"/><g clip-path="url(#c3e0bd87da)"><path fill="#fefefe" d="M 475.542969 282.71875 L 1247.433594 282.71875 L 1247.433594 1164.59375 L 475.542969 1164.59375 Z M 475.542969 282.71875 " fill-opacity="1" fill-rule="nonzero"/></g></svg>