<svg xmlns="http://www.w3.org/2000/svg" xmlns:xlink="http://www.w3.org/1999/xlink" width="2379" zoomAndPan="magnify" viewBox="0 0 1784.88 1784.99993" height="2379" preserveAspectRatio="xMidYMid meet" version="1.0"><defs><clipPath id="927eb3e3f9"><path d="M 0 0.0585938 L 1784.761719 0.0585938 L 1784.761719 1784.9375 L 0 1784.9375 Z M 0 0.0585938 " clip-rule="nonzero"/></clipPath><clipPath id="f19c2a4a4c"><path d="M 645 483 L 1784.761719 483 L 1784.761719 1784.9375 L 645 1784.9375 Z M 645 483 " clip-rule="nonzero"/></clipPath><clipPath id="5fe0050e78"><path d="M 1784.878906 892.5 C 1784.878906 1385.382812 1385.320312 1784.941406 892.441406 1784.941406 C 399.558594 1784.941406 0 1385.382812 0 892.5 C 0 399.617188 399.558594 0.0585938 892.441406 0.0585938 C 1385.320312 0.0585938 1784.878906 399.617188 1784.878906 892.5 Z M 1784.878906 892.5 " clip-rule="nonzero"/></clipPath></defs><g clip-path="url(#927eb3e3f9)"><path fill="#7ac943" d="M 1784.878906 892.5 C 1784.878906 1385.382812 1385.320312 1784.941406 892.441406 1784.941406 C 399.558594 1784.941406 0 1385.382812 0 892.5 C 0 399.617188 399.558594 0.0585938 892.441406 0.0585938 C 1385.320312 0.0585938 1784.878906 399.617188 1784.878906 892.5 " fill-opacity="1" fill-rule="nonzero"/></g><g clip-path="url(#f19c2a4a4c)"><g clip-path="url(#5fe0050e78)"><path fill="#69ad3a" d="M 2182.03125 1203.695312 L 1461.589844 483.242188 L 645.292969 1304 L 1298.847656 1957.546875 L 2182.03125 1203.695312 " fill-opacity="1" fill-rule="nonzero"/></g></g><path fill="#ffffff" d="M 1461.589844 483.242188 C 1437.753906 459.40625 1406.0625 446.28125 1372.351562 446.28125 C 1338.640625 446.28125 1306.945312 459.40625 1283.109375 483.242188 L 732.410156 1033.941406 L 501.769531 803.300781 C 477.933594 779.464844 446.238281 766.339844 412.527344 766.339844 C 378.816406 766.339844 347.128906 779.464844 323.292969 803.300781 C 274.085938 852.503906 274.085938 932.574219 323.292969 981.777344 L 642 1300.476562 C 642.347656 1300.851562 642.714844 1301.234375 643.15625 1301.679688 C 649.207031 1307.730469 655.890625 1313.183594 662.976562 1317.855469 C 683.613281 1331.503906 707.667969 1338.71875 732.507812 1338.71875 C 766.226562 1338.71875 797.914062 1325.585938 821.722656 1301.777344 C 822.890625 1300.617188 1435.511719 687.796875 1461.589844 661.71875 C 1485.425781 637.882812 1498.550781 606.195312 1498.550781 572.484375 C 1498.550781 538.773438 1485.425781 507.078125 1461.589844 483.242188 " fill-opacity="1" fill-rule="nonzero"/></svg>