<svg xmlns="http://www.w3.org/2000/svg" xmlns:xlink="http://www.w3.org/1999/xlink" width="2053" zoomAndPan="magnify" viewBox="0 0 1539.75 1539.749954" height="2053" preserveAspectRatio="xMidYMid meet" version="1.0"><defs><filter x="0%" y="0%" width="100%" height="100%" id="14c67ff2f9"><feColorMatrix values="0 0 0 0 1 0 0 0 0 1 0 0 0 0 1 0 0 0 1 0" color-interpolation-filters="sRGB"/></filter><clipPath id="19af1f28cd"><path d="M 28 28 L 1512 28 L 1512 1512 L 28 1512 Z M 28 28 " clip-rule="nonzero"/></clipPath><clipPath id="4c65d0196c"><path d="M 325.882812 28.875 L 1214.53125 28.875 C 1219.390625 28.875 1224.25 28.996094 1229.101562 29.234375 C 1233.957031 29.472656 1238.804688 29.828125 1243.640625 30.304688 C 1248.480469 30.78125 1253.300781 31.375 1258.109375 32.089844 C 1262.917969 32.804688 1267.707031 33.632812 1272.472656 34.582031 C 1277.238281 35.53125 1281.980469 36.59375 1286.695312 37.777344 C 1291.410156 38.957031 1296.09375 40.253906 1300.746094 41.664062 C 1305.398438 43.074219 1310.011719 44.601562 1314.585938 46.238281 C 1319.164062 47.875 1323.699219 49.625 1328.1875 51.484375 C 1332.679688 53.34375 1337.121094 55.3125 1341.515625 57.390625 C 1345.910156 59.46875 1350.25 61.652344 1354.539062 63.945312 C 1358.824219 66.238281 1363.050781 68.632812 1367.222656 71.132812 C 1371.390625 73.628906 1375.496094 76.230469 1379.535156 78.929688 C 1383.578125 81.628906 1387.550781 84.429688 1391.457031 87.324219 C 1395.359375 90.21875 1399.191406 93.210938 1402.949219 96.292969 C 1406.707031 99.375 1410.386719 102.550781 1413.988281 105.816406 C 1417.589844 109.078125 1421.109375 112.429688 1424.542969 115.867188 C 1427.980469 119.304688 1431.332031 122.824219 1434.597656 126.425781 C 1437.859375 130.027344 1441.035156 133.707031 1444.117188 137.460938 C 1447.203125 141.21875 1450.191406 145.050781 1453.085938 148.957031 C 1455.980469 152.859375 1458.78125 156.832031 1461.480469 160.875 C 1464.179688 164.914062 1466.78125 169.019531 1469.28125 173.191406 C 1471.777344 177.359375 1474.175781 181.585938 1476.464844 185.875 C 1478.757812 190.160156 1480.941406 194.5 1483.019531 198.894531 C 1485.097656 203.289062 1487.066406 207.730469 1488.925781 212.222656 C 1490.789062 216.710938 1492.535156 221.246094 1494.171875 225.824219 C 1495.8125 230.398438 1497.335938 235.015625 1498.746094 239.664062 C 1500.15625 244.316406 1501.453125 249 1502.632812 253.714844 C 1503.816406 258.429688 1504.878906 263.171875 1505.828125 267.9375 C 1506.777344 272.707031 1507.609375 277.492188 1508.320312 282.300781 C 1509.035156 287.109375 1509.628906 291.933594 1510.105469 296.769531 C 1510.582031 301.605469 1510.9375 306.453125 1511.179688 311.308594 C 1511.417969 316.164062 1511.535156 321.019531 1511.535156 325.882812 L 1511.535156 1214.53125 C 1511.535156 1219.390625 1511.417969 1224.25 1511.179688 1229.101562 C 1510.9375 1233.957031 1510.582031 1238.804688 1510.105469 1243.640625 C 1509.628906 1248.480469 1509.035156 1253.300781 1508.320312 1258.109375 C 1507.609375 1262.917969 1506.777344 1267.707031 1505.828125 1272.472656 C 1504.878906 1277.238281 1503.816406 1281.980469 1502.632812 1286.695312 C 1501.453125 1291.410156 1500.15625 1296.09375 1498.746094 1300.746094 C 1497.335938 1305.398438 1495.8125 1310.011719 1494.171875 1314.585938 C 1492.535156 1319.164062 1490.789062 1323.699219 1488.925781 1328.1875 C 1487.066406 1332.679688 1485.097656 1337.121094 1483.019531 1341.515625 C 1480.941406 1345.910156 1478.757812 1350.25 1476.464844 1354.539062 C 1474.175781 1358.824219 1471.777344 1363.050781 1469.28125 1367.222656 C 1466.78125 1371.390625 1464.179688 1375.496094 1461.480469 1379.535156 C 1458.78125 1383.578125 1455.980469 1387.550781 1453.085938 1391.457031 C 1450.191406 1395.359375 1447.203125 1399.191406 1444.117188 1402.949219 C 1441.035156 1406.707031 1437.859375 1410.386719 1434.597656 1413.988281 C 1431.332031 1417.589844 1427.980469 1421.109375 1424.542969 1424.542969 C 1421.109375 1427.980469 1417.589844 1431.332031 1413.988281 1434.597656 C 1410.386719 1437.859375 1406.707031 1441.035156 1402.949219 1444.117188 C 1399.191406 1447.203125 1395.359375 1450.191406 1391.457031 1453.085938 C 1387.550781 1455.980469 1383.578125 1458.78125 1379.539062 1461.480469 C 1375.496094 1464.179688 1371.390625 1466.78125 1367.222656 1469.28125 C 1363.050781 1471.777344 1358.824219 1474.175781 1354.539062 1476.464844 C 1350.25 1478.757812 1345.910156 1480.941406 1341.515625 1483.019531 C 1337.121094 1485.097656 1332.679688 1487.066406 1328.1875 1488.925781 C 1323.699219 1490.789062 1319.164062 1492.535156 1314.585938 1494.171875 C 1310.011719 1495.8125 1305.398438 1497.335938 1300.746094 1498.746094 C 1296.09375 1500.15625 1291.410156 1501.453125 1286.695312 1502.632812 C 1281.980469 1503.816406 1277.238281 1504.878906 1272.472656 1505.828125 C 1267.707031 1506.777344 1262.917969 1507.609375 1258.109375 1508.320312 C 1253.300781 1509.035156 1248.480469 1509.628906 1243.640625 1510.105469 C 1238.804688 1510.582031 1233.957031 1510.9375 1229.101562 1511.175781 C 1224.25 1511.417969 1219.390625 1511.535156 1214.53125 1511.535156 L 325.882812 1511.535156 C 321.019531 1511.535156 316.164062 1511.417969 311.308594 1511.175781 C 306.453125 1510.9375 301.605469 1510.582031 296.769531 1510.105469 C 291.933594 1509.628906 287.109375 1509.035156 282.300781 1508.320312 C 277.492188 1507.609375 272.707031 1506.777344 267.9375 1505.828125 C 263.171875 1504.878906 258.429688 1503.816406 253.714844 1502.632812 C 249 1501.453125 244.316406 1500.15625 239.664062 1498.746094 C 235.015625 1497.335938 230.398438 1495.8125 225.824219 1494.171875 C 221.246094 1492.535156 216.710938 1490.789062 212.222656 1488.925781 C 207.730469 1487.066406 203.289062 1485.097656 198.894531 1483.019531 C 194.5 1480.941406 190.160156 1478.757812 185.875 1476.464844 C 181.585938 1474.175781 177.359375 1471.777344 173.191406 1469.28125 C 169.019531 1466.78125 164.914062 1464.179688 160.875 1461.480469 C 156.832031 1458.78125 152.859375 1455.980469 148.957031 1453.085938 C 145.050781 1450.191406 141.21875 1447.203125 137.460938 1444.117188 C 133.707031 1441.035156 130.027344 1437.859375 126.425781 1434.597656 C 122.824219 1431.332031 119.304688 1427.980469 115.867188 1424.542969 C 112.429688 1421.109375 109.078125 1417.589844 105.816406 1413.988281 C 102.550781 1410.386719 99.375 1406.707031 96.292969 1402.949219 C 93.210938 1399.191406 90.21875 1395.359375 87.324219 1391.457031 C 84.429688 1387.550781 81.628906 1383.578125 78.929688 1379.539062 C 76.230469 1375.496094 73.628906 1371.390625 71.132812 1367.222656 C 68.632812 1363.050781 66.238281 1358.824219 63.945312 1354.539062 C 61.652344 1350.25 59.46875 1345.910156 57.390625 1341.515625 C 55.3125 1337.121094 53.34375 1332.679688 51.484375 1328.1875 C 49.625 1323.699219 47.875 1319.164062 46.238281 1314.585938 C 44.601562 1310.011719 43.074219 1305.398438 41.664062 1300.746094 C 40.253906 1296.09375 38.957031 1291.410156 37.777344 1286.695312 C 36.59375 1281.980469 35.53125 1277.238281 34.582031 1272.472656 C 33.632812 1267.707031 32.804688 1262.917969 32.089844 1258.109375 C 31.375 1253.300781 30.78125 1248.480469 30.304688 1243.640625 C 29.828125 1238.804688 29.472656 1233.957031 29.234375 1229.101562 C 28.996094 1224.25 28.875 1219.390625 28.875 1214.53125 L 28.875 325.882812 C 28.875 321.019531 28.996094 316.164062 29.234375 311.308594 C 29.472656 306.453125 29.828125 301.605469 30.304688 296.769531 C 30.78125 291.933594 31.375 287.109375 32.089844 282.300781 C 32.804688 277.492188 33.632812 272.707031 34.582031 267.9375 C 35.53125 263.171875 36.59375 258.429688 37.777344 253.714844 C 38.957031 249 40.253906 244.316406 41.664062 239.664062 C 43.074219 235.015625 44.601562 230.398438 46.238281 225.824219 C 47.875 221.246094 49.625 216.710938 51.484375 212.222656 C 53.34375 207.730469 55.3125 203.289062 57.390625 198.894531 C 59.46875 194.5 61.652344 190.160156 63.945312 185.875 C 66.238281 181.585938 68.632812 177.359375 71.132812 173.191406 C 73.628906 169.019531 76.230469 164.914062 78.929688 160.875 C 81.628906 156.832031 84.429688 152.859375 87.324219 148.957031 C 90.21875 145.050781 93.210938 141.21875 96.292969 137.460938 C 99.375 133.707031 102.550781 130.027344 105.816406 126.425781 C 109.078125 122.824219 112.429688 119.304688 115.867188 115.867188 C 119.304688 112.429688 122.824219 109.078125 126.425781 105.816406 C 130.027344 102.550781 133.707031 99.375 137.460938 96.292969 C 141.21875 93.210938 145.050781 90.21875 148.957031 87.324219 C 152.859375 84.429688 156.832031 81.628906 160.875 78.929688 C 164.914062 76.230469 169.019531 73.628906 173.191406 71.132812 C 177.359375 68.632812 181.585938 66.238281 185.875 63.945312 C 190.160156 61.652344 194.5 59.46875 198.894531 57.390625 C 203.289062 55.3125 207.730469 53.34375 212.222656 51.484375 C 216.710938 49.625 221.246094 47.875 225.824219 46.238281 C 230.398438 44.601562 235.015625 43.074219 239.664062 41.664062 C 244.316406 40.253906 249 38.957031 253.714844 37.777344 C 258.429688 36.59375 263.171875 35.53125 267.9375 34.582031 C 272.707031 33.632812 277.492188 32.804688 282.300781 32.089844 C 287.109375 31.375 291.933594 30.78125 296.769531 30.304688 C 301.605469 29.828125 306.453125 29.472656 311.308594 29.234375 C 316.164062 28.996094 321.019531 28.875 325.882812 28.875 Z M 325.882812 28.875 " clip-rule="nonzero"/></clipPath><linearGradient x1="250" gradientTransform="matrix(3.760997, 0, 0, 3.760997, -170.043603, -170.043686)" y1="447.110005" x2="250" gradientUnits="userSpaceOnUse" y2="52.890015" id="8c7d6bd2a3"><stop stop-opacity="1" stop-color="rgb(100%, 59.599304%, 29.798889%)" offset="0"/><stop stop-opacity="1" stop-color="rgb(100%, 59.773254%, 29.78363%)" offset="0.015625"/><stop stop-opacity="1" stop-color="rgb(100%, 60.122681%, 29.754639%)" offset="0.03125"/><stop stop-opacity="1" stop-color="rgb(100%, 60.472107%, 29.724121%)" offset="0.046875"/><stop stop-opacity="1" stop-color="rgb(100%, 60.823059%, 29.695129%)" offset="0.0625"/><stop stop-opacity="1" stop-color="rgb(100%, 61.172485%, 29.664612%)" offset="0.078125"/><stop stop-opacity="1" stop-color="rgb(100%, 61.521912%, 29.63562%)" offset="0.09375"/><stop stop-opacity="1" stop-color="rgb(100%, 61.871338%, 29.605103%)" offset="0.109375"/><stop stop-opacity="1" stop-color="rgb(100%, 62.220764%, 29.576111%)" offset="0.125"/><stop stop-opacity="1" stop-color="rgb(100%, 62.571716%, 29.545593%)" offset="0.140625"/><stop stop-opacity="1" stop-color="rgb(100%, 62.921143%, 29.516602%)" offset="0.15625"/><stop stop-opacity="1" stop-color="rgb(100%, 63.270569%, 29.486084%)" offset="0.171875"/><stop stop-opacity="1" stop-color="rgb(100%, 63.619995%, 29.457092%)" offset="0.1875"/><stop stop-opacity="1" stop-color="rgb(100%, 63.969421%, 29.426575%)" offset="0.203125"/><stop stop-opacity="1" stop-color="rgb(100%, 64.318848%, 29.397583%)" offset="0.21875"/><stop stop-opacity="1" stop-color="rgb(100%, 64.6698%, 29.367065%)" offset="0.234375"/><stop stop-opacity="1" stop-color="rgb(100%, 65.019226%, 29.338074%)" offset="0.25"/><stop stop-opacity="1" stop-color="rgb(100%, 65.368652%, 29.307556%)" offset="0.265625"/><stop stop-opacity="1" stop-color="rgb(100%, 65.718079%, 29.278564%)" offset="0.28125"/><stop stop-opacity="1" stop-color="rgb(100%, 66.067505%, 29.248047%)" offset="0.296875"/><stop stop-opacity="1" stop-color="rgb(100%, 66.418457%, 29.219055%)" offset="0.3125"/><stop stop-opacity="1" stop-color="rgb(100%, 66.767883%, 29.188538%)" offset="0.328125"/><stop stop-opacity="1" stop-color="rgb(100%, 67.11731%, 29.159546%)" offset="0.34375"/><stop stop-opacity="1" stop-color="rgb(100%, 67.466736%, 29.129028%)" offset="0.359375"/><stop stop-opacity="1" stop-color="rgb(100%, 67.816162%, 29.100037%)" offset="0.375"/><stop stop-opacity="1" stop-color="rgb(100%, 68.165588%, 29.069519%)" offset="0.390625"/><stop stop-opacity="1" stop-color="rgb(100%, 68.516541%, 29.040527%)" offset="0.40625"/><stop stop-opacity="1" stop-color="rgb(100%, 68.870544%, 29.01001%)" offset="0.421875"/><stop stop-opacity="1" stop-color="rgb(100%, 69.151306%, 28.98407%)" offset="0.429688"/><stop stop-opacity="1" stop-color="rgb(100%, 69.3573%, 28.964233%)" offset="0.4375"/><stop stop-opacity="1" stop-color="rgb(100%, 69.563293%, 28.942871%)" offset="0.445312"/><stop stop-opacity="1" stop-color="rgb(100%, 69.769287%, 28.923035%)" offset="0.453125"/><stop stop-opacity="1" stop-color="rgb(100%, 69.975281%, 28.903198%)" offset="0.460938"/><stop stop-opacity="1" stop-color="rgb(100%, 70.181274%, 28.883362%)" offset="0.46875"/><stop stop-opacity="1" stop-color="rgb(100%, 70.387268%, 28.862%)" offset="0.476563"/><stop stop-opacity="1" stop-color="rgb(100%, 70.593262%, 28.842163%)" offset="0.484375"/><stop stop-opacity="1" stop-color="rgb(100%, 70.799255%, 28.822327%)" offset="0.492188"/><stop stop-opacity="1" stop-color="rgb(100%, 71.005249%, 28.80249%)" offset="0.5"/><stop stop-opacity="1" stop-color="rgb(100%, 71.211243%, 28.781128%)" offset="0.507812"/><stop stop-opacity="1" stop-color="rgb(100%, 71.417236%, 28.761292%)" offset="0.515625"/><stop stop-opacity="1" stop-color="rgb(100%, 71.624756%, 28.741455%)" offset="0.523438"/><stop stop-opacity="1" stop-color="rgb(100%, 71.83075%, 28.721619%)" offset="0.53125"/><stop stop-opacity="1" stop-color="rgb(100%, 72.036743%, 28.700256%)" offset="0.539062"/><stop stop-opacity="1" stop-color="rgb(100%, 72.242737%, 28.68042%)" offset="0.546875"/><stop stop-opacity="1" stop-color="rgb(100%, 72.44873%, 28.660583%)" offset="0.554687"/><stop stop-opacity="1" stop-color="rgb(100%, 72.654724%, 28.640747%)" offset="0.5625"/><stop stop-opacity="1" stop-color="rgb(100%, 72.860718%, 28.619385%)" offset="0.570313"/><stop stop-opacity="1" stop-color="rgb(100%, 73.066711%, 28.599548%)" offset="0.578125"/><stop stop-opacity="1" stop-color="rgb(100%, 73.272705%, 28.579712%)" offset="0.585938"/><stop stop-opacity="1" stop-color="rgb(100%, 73.478699%, 28.559875%)" offset="0.59375"/><stop stop-opacity="1" stop-color="rgb(100%, 73.684692%, 28.538513%)" offset="0.601562"/><stop stop-opacity="1" stop-color="rgb(100%, 73.890686%, 28.518677%)" offset="0.609375"/><stop stop-opacity="1" stop-color="rgb(100%, 74.09668%, 28.49884%)" offset="0.617188"/><stop stop-opacity="1" stop-color="rgb(100%, 74.302673%, 28.479004%)" offset="0.625"/><stop stop-opacity="1" stop-color="rgb(100%, 74.508667%, 28.457642%)" offset="0.632812"/><stop stop-opacity="1" stop-color="rgb(100%, 74.714661%, 28.437805%)" offset="0.640625"/><stop stop-opacity="1" stop-color="rgb(100%, 74.92218%, 28.417969%)" offset="0.648437"/><stop stop-opacity="1" stop-color="rgb(100%, 75.128174%, 28.398132%)" offset="0.65625"/><stop stop-opacity="1" stop-color="rgb(100%, 75.334167%, 28.378296%)" offset="0.664063"/><stop stop-opacity="1" stop-color="rgb(100%, 75.540161%, 28.356934%)" offset="0.671875"/><stop stop-opacity="1" stop-color="rgb(100%, 75.746155%, 28.337097%)" offset="0.679688"/><stop stop-opacity="1" stop-color="rgb(100%, 75.952148%, 28.317261%)" offset="0.6875"/><stop stop-opacity="1" stop-color="rgb(100%, 76.158142%, 28.297424%)" offset="0.695312"/><stop stop-opacity="1" stop-color="rgb(100%, 76.364136%, 28.276062%)" offset="0.703125"/><stop stop-opacity="1" stop-color="rgb(100%, 76.570129%, 28.256226%)" offset="0.710938"/><stop stop-opacity="1" stop-color="rgb(100%, 76.776123%, 28.236389%)" offset="0.71875"/><stop stop-opacity="1" stop-color="rgb(100%, 76.982117%, 28.216553%)" offset="0.726562"/><stop stop-opacity="1" stop-color="rgb(100%, 77.18811%, 28.19519%)" offset="0.734375"/><stop stop-opacity="1" stop-color="rgb(100%, 77.394104%, 28.175354%)" offset="0.742188"/><stop stop-opacity="1" stop-color="rgb(100%, 77.600098%, 28.155518%)" offset="0.75"/><stop stop-opacity="1" stop-color="rgb(100%, 77.806091%, 28.135681%)" offset="0.757813"/><stop stop-opacity="1" stop-color="rgb(100%, 78.012085%, 28.114319%)" offset="0.765625"/><stop stop-opacity="1" stop-color="rgb(100%, 78.219604%, 28.094482%)" offset="0.773438"/><stop stop-opacity="1" stop-color="rgb(100%, 78.425598%, 28.074646%)" offset="0.78125"/><stop stop-opacity="1" stop-color="rgb(100%, 78.631592%, 28.05481%)" offset="0.789062"/><stop stop-opacity="1" stop-color="rgb(100%, 78.837585%, 28.033447%)" offset="0.796875"/><stop stop-opacity="1" stop-color="rgb(100%, 79.043579%, 28.013611%)" offset="0.804688"/><stop stop-opacity="1" stop-color="rgb(100%, 79.249573%, 27.993774%)" offset="0.8125"/><stop stop-opacity="1" stop-color="rgb(100%, 79.455566%, 27.973938%)" offset="0.820312"/><stop stop-opacity="1" stop-color="rgb(100%, 79.66156%, 27.952576%)" offset="0.828125"/><stop stop-opacity="1" stop-color="rgb(100%, 79.867554%, 27.932739%)" offset="0.835938"/><stop stop-opacity="1" stop-color="rgb(100%, 80.073547%, 27.912903%)" offset="0.84375"/><stop stop-opacity="1" stop-color="rgb(100%, 80.279541%, 27.893066%)" offset="0.851563"/><stop stop-opacity="1" stop-color="rgb(100%, 80.485535%, 27.871704%)" offset="0.859375"/><stop stop-opacity="1" stop-color="rgb(100%, 80.691528%, 27.851868%)" offset="0.867188"/><stop stop-opacity="1" stop-color="rgb(100%, 80.897522%, 27.832031%)" offset="0.875"/><stop stop-opacity="1" stop-color="rgb(100%, 81.103516%, 27.812195%)" offset="0.882812"/><stop stop-opacity="1" stop-color="rgb(100%, 81.309509%, 27.792358%)" offset="0.890625"/><stop stop-opacity="1" stop-color="rgb(100%, 81.517029%, 27.770996%)" offset="0.898437"/><stop stop-opacity="1" stop-color="rgb(100%, 81.723022%, 27.75116%)" offset="0.90625"/><stop stop-opacity="1" stop-color="rgb(100%, 81.929016%, 27.731323%)" offset="0.914063"/><stop stop-opacity="1" stop-color="rgb(100%, 82.13501%, 27.711487%)" offset="0.921875"/><stop stop-opacity="1" stop-color="rgb(100%, 82.341003%, 27.690125%)" offset="0.929688"/><stop stop-opacity="1" stop-color="rgb(100%, 82.546997%, 27.670288%)" offset="0.9375"/><stop stop-opacity="1" stop-color="rgb(100%, 82.752991%, 27.650452%)" offset="0.945312"/><stop stop-opacity="1" stop-color="rgb(100%, 82.958984%, 27.630615%)" offset="0.953125"/><stop stop-opacity="1" stop-color="rgb(100%, 83.164978%, 27.609253%)" offset="0.960938"/><stop stop-opacity="1" stop-color="rgb(100%, 83.370972%, 27.589417%)" offset="0.96875"/><stop stop-opacity="1" stop-color="rgb(100%, 83.576965%, 27.56958%)" offset="0.976562"/><stop stop-opacity="1" stop-color="rgb(100%, 83.782959%, 27.549744%)" offset="0.984375"/><stop stop-opacity="1" stop-color="rgb(100%, 83.988953%, 27.528381%)" offset="0.992187"/><stop stop-opacity="1" stop-color="rgb(100%, 84.194946%, 27.508545%)" offset="1"/></linearGradient><mask id="6824fc03c5"><g filter="url(#14c67ff2f9)"><rect x="-153.975" width="1847.7" fill="#000000" y="-153.974995" height="1847.699945" fill-opacity="0.2"/></g></mask><clipPath id="981a4ec80f"><rect x="0" width="1491" y="0" height="536"/></clipPath><mask id="003cbaf6d7"><g filter="url(#14c67ff2f9)"><rect x="-153.975" width="1847.7" fill="#000000" y="-153.974995" height="1847.699945" fill-opacity="0.3"/></g></mask><clipPath id="896512453d"><rect x="0" width="1491" y="0" height="426"/></clipPath><clipPath id="84585e5b39"><path d="M 0.707031 0.707031 L 1539.5 0.707031 L 1539.5 1539.5 L 0.707031 1539.5 Z M 0.707031 0.707031 " clip-rule="nonzero"/></clipPath><mask id="a69223ca40"><g filter="url(#14c67ff2f9)"><rect x="-153.975" width="1847.7" fill="#000000" y="-153.974995" height="1847.699945" fill-opacity="0.3"/></g></mask><clipPath id="51aadd29d6"><path d="M 0.496094 3 L 115 3 L 115 117 L 0.496094 117 Z M 0.496094 3 " clip-rule="nonzero"/></clipPath><clipPath id="5ddda04e83"><rect x="0" width="118" y="0" height="118"/></clipPath><mask id="5c85b3cead"><g filter="url(#14c67ff2f9)"><rect x="-153.975" width="1847.7" fill="#000000" y="-153.974995" height="1847.699945" fill-opacity="0.3"/></g></mask><clipPath id="351bb51ecc"><rect x="0" width="61" y="0" height="61"/></clipPath><mask id="c0c48cd81e"><g filter="url(#14c67ff2f9)"><rect x="-153.975" width="1847.7" fill="#000000" y="-153.974995" height="1847.699945" fill-opacity="0.3"/></g></mask><clipPath id="4973390316"><rect x="0" width="62" y="0" height="61"/></clipPath><clipPath id="d8399d72b3"><path d="M 1009 624.867188 L 1395 624.867188 L 1395 1028.367188 L 1009 1028.367188 Z M 1009 624.867188 " clip-rule="nonzero"/></clipPath><clipPath id="6a21bda277"><path d="M 948.832031 793 L 993 793 L 993 934 L 948.832031 934 Z M 948.832031 793 " clip-rule="nonzero"/></clipPath><clipPath id="47c2b4cf40"><path d="M 1411 793 L 1455.832031 793 L 1455.832031 934 L 1411 934 Z M 1411 793 " clip-rule="nonzero"/></clipPath><clipPath id="7b5f8db389"><path d="M 139 331.957031 L 655 331.957031 L 655 1321.207031 L 139 1321.207031 Z M 139 331.957031 " clip-rule="nonzero"/></clipPath><clipPath id="95ec91f152"><path d="M 749.128906 538 L 929.8125 538 L 929.8125 1115 L 749.128906 1115 Z M 749.128906 538 " clip-rule="nonzero"/></clipPath></defs><g clip-path="url(#19af1f28cd)"><g clip-path="url(#4c65d0196c)"><path fill="url(#8c7d6bd2a3)" d="M 28.875 28.875 L 28.875 1511.535156 L 1511.535156 1511.535156 L 1511.535156 28.875 Z M 28.875 28.875 " fill-rule="nonzero"/></g></g><g mask="url(#6824fc03c5)"><g transform="matrix(1, 0, 0, 1, 25, 980)"><g clip-path="url(#981a4ec80f)"><path fill="#fdc703" d="M 1189.53125 300.046875 L 300.882812 300.046875 C 296.019531 300.046875 291.160156 299.925781 286.300781 299.6875 C 281.445312 299.449219 276.597656 299.09375 271.757812 298.617188 C 266.917969 298.140625 262.09375 297.542969 257.285156 296.832031 C 252.476562 296.117188 247.6875 295.285156 242.917969 294.335938 C 238.148438 293.386719 233.40625 292.324219 228.6875 291.140625 C 223.96875 289.960938 219.285156 288.664062 214.632812 287.253906 C 209.980469 285.839844 205.363281 284.316406 200.785156 282.679688 C 196.207031 281.039062 191.671875 279.289062 187.179688 277.429688 C 182.6875 275.570312 178.242188 273.597656 173.847656 271.519531 C 169.449219 269.441406 165.109375 267.253906 160.820312 264.960938 C 156.53125 262.671875 152.300781 260.273438 148.132812 257.773438 C 143.960938 255.273438 139.855469 252.675781 135.8125 249.972656 C 131.769531 247.269531 127.792969 244.472656 123.886719 241.574219 C 119.980469 238.679688 116.148438 235.6875 112.390625 232.601562 C 108.632812 229.519531 104.953125 226.34375 101.347656 223.078125 C 97.746094 219.8125 94.226562 216.460938 90.785156 213.023438 C 87.347656 209.582031 83.996094 206.0625 80.730469 202.460938 C 77.464844 198.855469 74.289062 195.175781 71.207031 191.417969 C 68.121094 187.660156 65.128906 183.828125 62.234375 179.921875 C 59.335938 176.015625 56.539062 172.039062 53.835938 167.996094 C 51.132812 163.953125 48.535156 159.847656 46.035156 155.675781 C 43.535156 151.507812 41.136719 147.277344 38.847656 142.988281 C 36.554688 138.699219 34.367188 134.359375 32.289062 129.960938 C 30.210938 125.566406 28.242188 121.121094 26.378906 116.628906 C 24.519531 112.136719 22.769531 107.601562 21.132812 103.023438 C 19.492188 98.445312 17.96875 93.828125 16.554688 89.175781 C 15.144531 84.523438 13.847656 79.839844 12.667969 75.121094 C 11.484375 70.40625 10.421875 65.660156 9.472656 60.890625 C 8.523438 56.125 7.691406 51.332031 6.980469 46.523438 C 6.265625 41.714844 5.671875 36.890625 5.195312 32.050781 C 4.714844 27.210938 4.359375 22.363281 4.121094 17.507812 C 3.882812 12.648438 3.761719 7.789062 3.761719 2.925781 L 3.761719 234.417969 C 3.761719 239.28125 3.882812 244.140625 4.121094 248.996094 C 4.359375 253.851562 4.714844 258.699219 5.195312 263.539062 C 5.671875 268.378906 6.265625 273.203125 6.980469 278.011719 C 7.691406 282.824219 8.523438 287.613281 9.472656 292.382812 C 10.421875 297.152344 11.484375 301.894531 12.667969 306.609375 C 13.847656 311.328125 15.144531 316.011719 16.554688 320.664062 C 17.96875 325.320312 19.492188 329.933594 21.132812 334.511719 C 22.769531 339.089844 24.519531 343.625 26.378906 348.117188 C 28.242188 352.613281 30.210938 357.054688 32.289062 361.453125 C 34.367188 365.847656 36.554688 370.1875 38.847656 374.476562 C 41.136719 378.765625 43.535156 382.996094 46.035156 387.167969 C 48.535156 391.335938 51.132812 395.445312 53.835938 399.488281 C 56.539062 403.53125 59.335938 407.503906 62.234375 411.410156 C 65.128906 415.316406 68.121094 419.148438 71.207031 422.90625 C 74.289062 426.664062 77.464844 430.347656 80.730469 433.949219 C 83.996094 437.550781 87.347656 441.074219 90.785156 444.511719 C 94.226562 447.949219 97.746094 451.300781 101.347656 454.566406 C 104.953125 457.832031 108.632812 461.007812 112.390625 464.09375 C 116.148438 467.175781 119.980469 470.167969 123.886719 473.066406 C 127.792969 475.960938 131.769531 478.761719 135.8125 481.460938 C 139.855469 484.164062 143.960938 486.765625 148.132812 489.265625 C 152.300781 491.765625 156.53125 494.160156 160.820312 496.453125 C 165.109375 498.742188 169.449219 500.929688 173.847656 503.007812 C 178.242188 505.085938 182.6875 507.058594 187.179688 508.917969 C 191.671875 510.78125 196.207031 512.527344 200.785156 514.167969 C 205.363281 515.804688 209.980469 517.332031 214.632812 518.742188 C 219.285156 520.152344 223.96875 521.449219 228.6875 522.632812 C 233.402344 523.8125 238.148438 524.878906 242.917969 525.828125 C 247.683594 526.773438 252.476562 527.605469 257.285156 528.320312 C 262.09375 529.03125 266.917969 529.628906 271.757812 530.105469 C 276.597656 530.582031 281.445312 530.9375 286.300781 531.175781 C 291.160156 531.417969 296.019531 531.535156 300.882812 531.535156 L 1189.53125 531.535156 C 1194.390625 531.535156 1199.253906 531.417969 1204.109375 531.175781 C 1208.964844 530.9375 1213.8125 530.582031 1218.652344 530.105469 C 1223.492188 529.628906 1228.316406 529.03125 1233.125 528.320312 C 1237.9375 527.605469 1242.726562 526.773438 1247.496094 525.828125 C 1252.265625 524.878906 1257.007812 523.8125 1261.722656 522.632812 C 1266.441406 521.449219 1271.125 520.152344 1275.777344 518.742188 C 1280.433594 517.332031 1285.046875 515.804688 1289.625 514.167969 C 1294.203125 512.527344 1298.738281 510.78125 1303.230469 508.917969 C 1307.722656 507.058594 1312.167969 505.085938 1316.5625 503.007812 C 1320.960938 500.929688 1325.300781 498.742188 1329.589844 496.453125 C 1333.878906 494.160156 1338.109375 491.765625 1342.277344 489.265625 C 1346.449219 486.765625 1350.558594 484.164062 1354.601562 481.460938 C 1358.644531 478.761719 1362.617188 475.960938 1366.523438 473.066406 C 1370.429688 470.167969 1374.261719 467.175781 1378.019531 464.09375 C 1381.777344 461.007812 1385.460938 457.832031 1389.0625 454.566406 C 1392.664062 451.300781 1396.1875 447.949219 1399.625 444.511719 C 1403.0625 441.074219 1406.414062 437.550781 1409.679688 433.949219 C 1412.945312 430.347656 1416.121094 426.664062 1419.207031 422.90625 C 1422.289062 419.148438 1425.28125 415.316406 1428.175781 411.410156 C 1431.074219 407.503906 1433.875 403.53125 1436.574219 399.488281 C 1439.277344 395.445312 1441.875 391.335938 1444.375 387.167969 C 1446.875 382.996094 1449.273438 378.765625 1451.566406 374.476562 C 1453.855469 370.1875 1456.042969 365.847656 1458.121094 361.453125 C 1460.199219 357.054688 1462.171875 352.613281 1464.03125 348.117188 C 1465.890625 343.625 1467.640625 339.089844 1469.28125 334.511719 C 1470.917969 329.933594 1472.441406 325.320312 1473.855469 320.664062 C 1475.265625 316.011719 1476.5625 311.328125 1477.746094 306.609375 C 1478.925781 301.894531 1479.992188 297.152344 1480.941406 292.382812 C 1481.886719 287.613281 1482.71875 282.824219 1483.433594 278.011719 C 1484.144531 273.203125 1484.742188 268.378906 1485.21875 263.539062 C 1485.695312 258.699219 1486.050781 253.851562 1486.289062 248.996094 C 1486.53125 244.140625 1486.648438 239.28125 1486.648438 234.417969 L 1486.648438 3.039062 C 1486.648438 7.902344 1486.527344 12.761719 1486.285156 17.617188 C 1486.046875 22.472656 1485.6875 27.316406 1485.207031 32.15625 C 1484.730469 36.992188 1484.132812 41.816406 1483.417969 46.625 C 1482.703125 51.433594 1481.871094 56.222656 1480.921875 60.988281 C 1479.96875 65.757812 1478.902344 70.5 1477.722656 75.214844 C 1476.539062 79.929688 1475.242188 84.613281 1473.828125 89.265625 C 1472.414062 93.917969 1470.890625 98.53125 1469.25 103.105469 C 1467.613281 107.683594 1465.859375 112.21875 1464 116.707031 C 1462.136719 121.199219 1460.167969 125.640625 1458.085938 130.035156 C 1456.007812 134.429688 1453.820312 138.769531 1451.527344 143.058594 C 1449.234375 147.34375 1446.839844 151.570312 1444.339844 155.742188 C 1441.839844 159.910156 1439.238281 164.015625 1436.535156 168.054688 C 1433.835938 172.097656 1431.035156 176.070312 1428.136719 179.976562 C 1425.242188 183.878906 1422.25 187.710938 1419.164062 191.464844 C 1416.082031 195.222656 1412.90625 198.902344 1409.640625 202.503906 C 1406.375 206.105469 1403.023438 209.625 1399.585938 213.0625 C 1396.148438 216.5 1392.625 219.847656 1389.023438 223.113281 C 1385.421875 226.378906 1381.742188 229.550781 1377.980469 232.636719 C 1374.222656 235.71875 1370.390625 238.707031 1366.488281 241.601562 C 1362.582031 244.5 1358.609375 247.296875 1354.566406 249.996094 C 1350.523438 252.695312 1346.417969 255.296875 1342.246094 257.792969 C 1338.078125 260.292969 1333.847656 262.6875 1329.558594 264.980469 C 1325.273438 267.269531 1320.929688 269.457031 1316.535156 271.535156 C 1312.140625 273.613281 1307.699219 275.582031 1303.207031 277.441406 C 1298.714844 279.300781 1294.179688 281.050781 1289.601562 282.6875 C 1285.027344 284.324219 1280.410156 285.847656 1275.757812 287.257812 C 1271.105469 288.667969 1266.421875 289.964844 1261.707031 291.144531 C 1256.992188 292.328125 1252.25 293.390625 1247.480469 294.339844 C 1242.714844 295.289062 1237.925781 296.117188 1233.117188 296.832031 C 1228.308594 297.546875 1223.484375 298.140625 1218.644531 298.617188 C 1213.808594 299.09375 1208.960938 299.449219 1204.105469 299.6875 C 1199.25 299.925781 1194.390625 300.046875 1189.53125 300.046875 Z M 1189.53125 300.046875 " fill-opacity="1" fill-rule="nonzero"/></g></g></g><g mask="url(#003cbaf6d7)"><g transform="matrix(1, 0, 0, 1, 25, 25)"><g clip-path="url(#896512453d)"><path fill="#ffffff" d="M 1189.53125 3.875 L 300.882812 3.875 C 296.019531 3.875 291.160156 3.996094 286.300781 4.234375 C 281.445312 4.472656 276.597656 4.828125 271.757812 5.304688 C 266.917969 5.78125 262.09375 6.378906 257.285156 7.089844 C 252.476562 7.804688 247.6875 8.636719 242.917969 9.585938 C 238.148438 10.53125 233.40625 11.597656 228.6875 12.78125 C 223.96875 13.960938 219.285156 15.257812 214.632812 16.667969 C 209.980469 18.082031 205.363281 19.605469 200.785156 21.242188 C 196.207031 22.882812 191.671875 24.632812 187.179688 26.492188 C 182.6875 28.351562 178.242188 30.324219 173.847656 32.402344 C 169.449219 34.480469 165.109375 36.667969 160.820312 38.957031 C 156.53125 41.25 152.300781 43.648438 148.132812 46.148438 C 143.960938 48.648438 139.855469 51.246094 135.8125 53.949219 C 131.769531 56.652344 127.792969 59.449219 123.886719 62.347656 C 119.980469 65.242188 116.148438 68.234375 112.390625 71.316406 C 108.632812 74.402344 104.953125 77.578125 101.347656 80.84375 C 97.746094 84.109375 94.226562 87.460938 90.785156 90.898438 C 87.347656 94.335938 83.996094 97.859375 80.730469 101.460938 C 77.464844 105.0625 74.289062 108.746094 71.207031 112.503906 C 68.121094 116.261719 65.128906 120.09375 62.234375 124 C 59.335938 127.90625 56.539062 131.878906 53.835938 135.925781 C 51.132812 139.96875 48.535156 144.074219 46.035156 148.246094 C 43.535156 152.414062 41.136719 156.644531 38.847656 160.933594 C 36.554688 165.222656 34.367188 169.5625 32.289062 173.960938 C 30.210938 178.355469 28.242188 182.800781 26.378906 187.292969 C 24.519531 191.785156 22.769531 196.320312 21.132812 200.898438 C 19.492188 205.476562 17.96875 210.09375 16.554688 214.746094 C 15.144531 219.398438 13.847656 224.082031 12.667969 228.800781 C 11.484375 233.515625 10.421875 238.261719 9.472656 243.027344 C 8.523438 247.796875 7.691406 252.589844 6.980469 257.398438 C 6.265625 262.207031 5.671875 267.03125 5.195312 271.871094 C 4.714844 276.710938 4.359375 281.558594 4.121094 286.414062 C 3.882812 291.273438 3.761719 296.132812 3.761719 300.996094 L 3.761719 423.300781 C 3.761719 418.4375 3.882812 413.578125 4.121094 408.722656 C 4.359375 403.867188 4.714844 399.019531 5.195312 394.179688 C 5.671875 389.339844 6.265625 384.515625 6.980469 379.707031 C 7.691406 374.894531 8.523438 370.105469 9.472656 365.335938 C 10.421875 360.566406 11.484375 355.824219 12.667969 351.109375 C 13.847656 346.390625 15.144531 341.707031 16.554688 337.054688 C 17.96875 332.398438 19.492188 327.785156 21.132812 323.207031 C 22.769531 318.628906 24.519531 314.09375 26.378906 309.597656 C 28.242188 305.105469 30.210938 300.664062 32.289062 296.265625 C 34.367188 291.871094 36.554688 287.53125 38.847656 283.242188 C 41.136719 278.953125 43.535156 274.722656 46.035156 270.550781 C 48.535156 266.382812 51.132812 262.273438 53.835938 258.230469 C 56.539062 254.1875 59.335938 250.214844 62.234375 246.308594 C 65.128906 242.402344 68.121094 238.570312 71.207031 234.8125 C 74.289062 231.054688 77.464844 227.371094 80.730469 223.769531 C 83.996094 220.167969 87.347656 216.644531 90.785156 213.207031 C 94.226562 209.769531 97.746094 206.417969 101.347656 203.152344 C 104.953125 199.886719 108.632812 196.710938 112.390625 193.625 C 116.148438 190.542969 119.980469 187.550781 123.886719 184.652344 C 127.792969 181.757812 131.769531 178.957031 135.8125 176.257812 C 139.855469 173.554688 143.960938 170.953125 148.132812 168.453125 C 152.300781 165.953125 156.53125 163.558594 160.820312 161.265625 C 165.109375 158.972656 169.449219 156.789062 173.847656 154.710938 C 178.242188 152.628906 182.6875 150.660156 187.179688 148.800781 C 191.671875 146.9375 196.207031 145.191406 200.785156 143.550781 C 205.363281 141.914062 209.980469 140.386719 214.632812 138.976562 C 219.285156 137.566406 223.96875 136.269531 228.6875 135.085938 C 233.40625 133.90625 238.148438 132.839844 242.917969 131.890625 C 247.6875 130.945312 252.476562 130.113281 257.285156 129.398438 C 262.09375 128.683594 266.917969 128.089844 271.757812 127.613281 C 276.597656 127.136719 281.445312 126.78125 286.300781 126.542969 C 291.160156 126.300781 296.019531 126.183594 300.882812 126.183594 L 1189.53125 126.183594 C 1194.390625 126.183594 1199.253906 126.300781 1204.109375 126.542969 C 1208.964844 126.78125 1213.8125 127.136719 1218.652344 127.613281 C 1223.492188 128.089844 1228.316406 128.683594 1233.125 129.398438 C 1237.9375 130.113281 1242.726562 130.945312 1247.496094 131.890625 C 1252.265625 132.839844 1257.007812 133.90625 1261.722656 135.085938 C 1266.441406 136.269531 1271.125 137.566406 1275.777344 138.976562 C 1280.433594 140.386719 1285.046875 141.914062 1289.625 143.550781 C 1294.203125 145.191406 1298.738281 146.9375 1303.230469 148.800781 C 1307.722656 150.660156 1312.167969 152.628906 1316.5625 154.710938 C 1320.960938 156.789062 1325.300781 158.972656 1329.589844 161.265625 C 1333.878906 163.558594 1338.109375 165.953125 1342.277344 168.453125 C 1346.449219 170.953125 1350.558594 173.554688 1354.601562 176.257812 C 1358.644531 178.957031 1362.617188 181.757812 1366.523438 184.652344 C 1370.429688 187.550781 1374.261719 190.542969 1378.019531 193.625 C 1381.777344 196.710938 1385.460938 199.886719 1389.0625 203.152344 C 1392.664062 206.417969 1396.1875 209.769531 1399.625 213.207031 C 1403.0625 216.644531 1406.414062 220.167969 1409.679688 223.769531 C 1412.945312 227.371094 1416.121094 231.054688 1419.207031 234.8125 C 1422.289062 238.570312 1425.28125 242.402344 1428.175781 246.308594 C 1431.074219 250.214844 1433.875 254.1875 1436.574219 258.230469 C 1439.277344 262.273438 1441.875 266.382812 1444.375 270.550781 C 1446.875 274.722656 1449.273438 278.953125 1451.566406 283.242188 C 1453.855469 287.53125 1456.042969 291.871094 1458.121094 296.265625 C 1460.199219 300.664062 1462.171875 305.105469 1464.03125 309.597656 C 1465.890625 314.09375 1467.640625 318.628906 1469.28125 323.207031 C 1470.917969 327.785156 1472.441406 332.398438 1473.855469 337.054688 C 1475.265625 341.707031 1476.5625 346.390625 1477.746094 351.109375 C 1478.925781 355.824219 1479.992188 360.566406 1480.941406 365.335938 C 1481.886719 370.105469 1482.71875 374.894531 1483.433594 379.707031 C 1484.144531 384.515625 1484.742188 389.339844 1485.21875 394.179688 C 1485.695312 399.019531 1486.050781 403.867188 1486.289062 408.722656 C 1486.53125 413.578125 1486.648438 418.4375 1486.648438 423.300781 L 1486.648438 300.882812 C 1486.648438 296.019531 1486.527344 291.160156 1486.285156 286.304688 C 1486.046875 281.449219 1485.6875 276.605469 1485.207031 271.765625 C 1484.730469 266.929688 1484.132812 262.105469 1483.417969 257.296875 C 1482.703125 252.488281 1481.871094 247.699219 1480.921875 242.933594 C 1479.96875 238.164062 1478.902344 233.421875 1477.722656 228.707031 C 1476.539062 223.992188 1475.242188 219.308594 1473.828125 214.65625 C 1472.414062 210.007812 1470.890625 205.390625 1469.25 200.816406 C 1467.613281 196.238281 1465.859375 191.703125 1464 187.214844 C 1462.136719 182.722656 1460.167969 178.28125 1458.085938 173.886719 C 1456.007812 169.492188 1453.820312 165.152344 1451.527344 160.863281 C 1449.234375 156.578125 1446.839844 152.351562 1444.339844 148.179688 C 1441.839844 144.011719 1439.238281 139.90625 1436.535156 135.867188 C 1433.835938 131.824219 1431.035156 127.851562 1428.136719 123.945312 C 1425.242188 120.042969 1422.25 116.210938 1419.164062 112.457031 C 1416.082031 108.699219 1412.90625 105.019531 1409.640625 101.417969 C 1406.375 97.816406 1403.023438 94.296875 1399.585938 90.859375 C 1396.148438 87.421875 1392.625 84.074219 1389.023438 80.808594 C 1385.421875 77.542969 1381.742188 74.371094 1377.980469 71.285156 C 1374.222656 68.203125 1370.390625 65.214844 1366.488281 62.320312 C 1362.582031 59.421875 1358.609375 56.625 1354.566406 53.925781 C 1350.523438 51.226562 1346.417969 48.625 1342.246094 46.128906 C 1338.078125 43.628906 1333.847656 41.234375 1329.558594 38.941406 C 1325.273438 36.652344 1320.929688 34.464844 1316.535156 32.386719 C 1312.140625 30.308594 1307.699219 28.339844 1303.207031 26.480469 C 1298.714844 24.621094 1294.179688 22.871094 1289.601562 21.234375 C 1285.027344 19.597656 1280.410156 18.074219 1275.757812 16.664062 C 1271.105469 15.253906 1266.421875 13.957031 1261.707031 12.777344 C 1256.992188 11.59375 1252.25 10.53125 1247.480469 9.582031 C 1242.714844 8.632812 1237.925781 7.804688 1233.117188 7.089844 C 1228.308594 6.375 1223.484375 5.78125 1218.644531 5.304688 C 1213.808594 4.828125 1208.960938 4.472656 1204.105469 4.234375 C 1199.25 3.996094 1194.390625 3.875 1189.53125 3.875 Z M 1189.53125 3.875 " fill-opacity="1" fill-rule="nonzero"/></g></g></g><g clip-path="url(#84585e5b39)"><path fill="#00bf63" d="M 1214.53125 1539.742188 L 325.882812 1539.742188 C 320.5625 1539.738281 315.242188 1539.601562 309.929688 1539.332031 C 304.617188 1539.066406 299.3125 1538.671875 294.015625 1538.144531 C 288.722656 1537.617188 283.445312 1536.960938 278.179688 1536.175781 C 272.917969 1535.390625 267.679688 1534.476562 262.460938 1533.433594 C 257.242188 1532.390625 252.054688 1531.21875 246.894531 1529.921875 C 241.734375 1528.625 236.609375 1527.203125 231.519531 1525.65625 C 226.429688 1524.105469 221.378906 1522.433594 216.371094 1520.640625 C 211.363281 1518.84375 206.402344 1516.925781 201.484375 1514.886719 C 196.570312 1512.847656 191.710938 1510.691406 186.902344 1508.414062 C 182.09375 1506.136719 177.34375 1503.742188 172.652344 1501.230469 C 167.960938 1498.722656 163.332031 1496.097656 158.769531 1493.359375 C 154.207031 1490.625 149.714844 1487.777344 145.292969 1484.820312 C 140.867188 1481.863281 136.519531 1478.796875 132.246094 1475.628906 C 127.972656 1472.457031 123.78125 1469.183594 119.667969 1465.808594 C 115.558594 1462.433594 111.53125 1458.957031 107.585938 1455.382812 C 103.644531 1451.8125 99.792969 1448.144531 96.03125 1444.378906 C 92.269531 1440.617188 88.601562 1436.765625 85.027344 1432.824219 C 81.453125 1428.882812 77.980469 1424.855469 74.601562 1420.742188 C 71.226562 1416.628906 67.953125 1412.4375 64.785156 1408.164062 C 61.613281 1403.890625 58.550781 1399.542969 55.589844 1395.121094 C 52.632812 1390.695312 49.789062 1386.203125 47.050781 1381.640625 C 44.3125 1377.078125 41.691406 1372.453125 39.179688 1367.761719 C 36.667969 1363.070312 34.277344 1358.320312 32 1353.511719 C 29.722656 1348.703125 27.5625 1343.839844 25.523438 1338.925781 C 23.484375 1334.011719 21.566406 1329.050781 19.773438 1324.039062 C 17.976562 1319.03125 16.304688 1313.984375 14.757812 1308.890625 C 13.207031 1303.800781 11.785156 1298.675781 10.488281 1293.515625 C 9.191406 1288.355469 8.023438 1283.167969 6.980469 1277.949219 C 5.9375 1272.730469 5.023438 1267.492188 4.238281 1262.230469 C 3.449219 1256.96875 2.792969 1251.6875 2.269531 1246.394531 C 1.742188 1241.101562 1.34375 1235.796875 1.078125 1230.480469 C 0.8125 1225.167969 0.675781 1219.851562 0.667969 1214.53125 L 0.667969 325.882812 C 0.675781 320.5625 0.8125 315.242188 1.078125 309.929688 C 1.34375 304.617188 1.742188 299.3125 2.269531 294.015625 C 2.796875 288.722656 3.453125 283.445312 4.238281 278.179688 C 5.023438 272.917969 5.9375 267.679688 6.980469 262.460938 C 8.023438 257.242188 9.191406 252.054688 10.488281 246.894531 C 11.785156 241.734375 13.207031 236.609375 14.757812 231.519531 C 16.304688 226.429688 17.976562 221.378906 19.773438 216.371094 C 21.566406 211.363281 23.484375 206.402344 25.523438 201.484375 C 27.5625 196.570312 29.722656 191.710938 32 186.902344 C 34.277344 182.09375 36.667969 177.34375 39.179688 172.652344 C 41.691406 167.960938 44.3125 163.332031 47.050781 158.769531 C 49.789062 154.207031 52.632812 149.714844 55.59375 145.292969 C 58.550781 140.867188 61.613281 136.519531 64.785156 132.246094 C 67.953125 127.972656 71.226562 123.78125 74.601562 119.667969 C 77.980469 115.558594 81.453125 111.53125 85.027344 107.585938 C 88.601562 103.644531 92.269531 99.792969 96.03125 96.03125 C 99.792969 92.269531 103.644531 88.601562 107.585938 85.027344 C 111.53125 81.453125 115.558594 77.980469 119.667969 74.601562 C 123.78125 71.226562 127.972656 67.953125 132.246094 64.785156 C 136.519531 61.613281 140.867188 58.550781 145.292969 55.589844 C 149.714844 52.632812 154.207031 49.789062 158.769531 47.050781 C 163.332031 44.3125 167.960938 41.691406 172.652344 39.179688 C 177.34375 36.667969 182.09375 34.277344 186.902344 32 C 191.710938 29.722656 196.570312 27.5625 201.484375 25.523438 C 206.402344 23.484375 211.363281 21.566406 216.371094 19.773438 C 221.378906 17.976562 226.429688 16.304688 231.519531 14.757812 C 236.609375 13.207031 241.734375 11.785156 246.894531 10.488281 C 252.054688 9.191406 257.242188 8.023438 262.460938 6.980469 C 267.679688 5.9375 272.917969 5.023438 278.179688 4.238281 C 283.445312 3.449219 288.722656 2.792969 294.015625 2.269531 C 299.3125 1.742188 304.617188 1.34375 309.929688 1.078125 C 315.242188 0.8125 320.5625 0.675781 325.882812 0.667969 L 1214.53125 0.667969 C 1219.851562 0.675781 1225.167969 0.8125 1230.480469 1.078125 C 1235.796875 1.34375 1241.101562 1.742188 1246.394531 2.269531 C 1251.6875 2.792969 1256.96875 3.449219 1262.230469 4.238281 C 1267.492188 5.023438 1272.734375 5.9375 1277.949219 6.980469 C 1283.167969 8.023438 1288.355469 9.191406 1293.515625 10.488281 C 1298.675781 11.785156 1303.800781 13.207031 1308.890625 14.757812 C 1313.984375 16.304688 1319.03125 17.976562 1324.039062 19.773438 C 1329.050781 21.566406 1334.011719 23.484375 1338.925781 25.523438 C 1343.839844 27.5625 1348.703125 29.722656 1353.511719 32 C 1358.320312 34.277344 1363.070312 36.667969 1367.761719 39.179688 C 1372.453125 41.691406 1377.078125 44.3125 1381.640625 47.050781 C 1386.203125 49.789062 1390.695312 52.632812 1395.121094 55.589844 C 1399.542969 58.550781 1403.890625 61.613281 1408.164062 64.785156 C 1412.4375 67.953125 1416.628906 71.226562 1420.742188 74.601562 C 1424.855469 77.980469 1428.882812 81.453125 1432.824219 85.027344 C 1436.765625 88.601562 1440.617188 92.269531 1444.378906 96.03125 C 1448.144531 99.792969 1451.8125 103.644531 1455.382812 107.585938 C 1458.957031 111.53125 1462.433594 115.558594 1465.808594 119.667969 C 1469.183594 123.78125 1472.457031 127.972656 1475.628906 132.246094 C 1478.796875 136.519531 1481.863281 140.867188 1484.820312 145.292969 C 1487.777344 149.714844 1490.625 154.207031 1493.359375 158.769531 C 1496.097656 163.332031 1498.722656 167.960938 1501.230469 172.652344 C 1503.742188 177.34375 1506.136719 182.09375 1508.414062 186.902344 C 1510.691406 191.710938 1512.847656 196.570312 1514.886719 201.484375 C 1516.925781 206.402344 1518.84375 211.363281 1520.640625 216.371094 C 1522.433594 221.378906 1524.105469 226.429688 1525.65625 231.519531 C 1527.203125 236.609375 1528.625 241.734375 1529.921875 246.894531 C 1531.21875 252.054688 1532.390625 257.242188 1533.433594 262.460938 C 1534.476562 267.679688 1535.390625 272.917969 1536.175781 278.179688 C 1536.960938 283.445312 1537.617188 288.722656 1538.144531 294.015625 C 1538.671875 299.3125 1539.066406 304.617188 1539.332031 309.929688 C 1539.601562 315.242188 1539.738281 320.5625 1539.742188 325.882812 L 1539.742188 1214.53125 C 1539.738281 1219.851562 1539.601562 1225.167969 1539.332031 1230.480469 C 1539.066406 1235.796875 1538.671875 1241.101562 1538.144531 1246.394531 C 1537.617188 1251.6875 1536.960938 1256.96875 1536.175781 1262.230469 C 1535.390625 1267.492188 1534.476562 1272.730469 1533.433594 1277.949219 C 1532.390625 1283.167969 1531.21875 1288.355469 1529.921875 1293.515625 C 1528.625 1298.675781 1527.203125 1303.800781 1525.65625 1308.890625 C 1524.105469 1313.984375 1522.433594 1319.03125 1520.640625 1324.042969 C 1518.84375 1329.050781 1516.925781 1334.011719 1514.886719 1338.925781 C 1512.847656 1343.839844 1510.691406 1348.703125 1508.414062 1353.511719 C 1506.136719 1358.320312 1503.742188 1363.070312 1501.230469 1367.761719 C 1498.722656 1372.453125 1496.097656 1377.078125 1493.359375 1381.640625 C 1490.625 1386.203125 1487.777344 1390.695312 1484.820312 1395.121094 C 1481.863281 1399.542969 1478.796875 1403.890625 1475.628906 1408.164062 C 1472.457031 1412.4375 1469.183594 1416.628906 1465.808594 1420.742188 C 1462.433594 1424.855469 1458.957031 1428.882812 1455.382812 1432.824219 C 1451.8125 1436.765625 1448.144531 1440.617188 1444.378906 1444.378906 C 1440.617188 1448.144531 1436.765625 1451.8125 1432.824219 1455.382812 C 1428.882812 1458.957031 1424.855469 1462.433594 1420.742188 1465.808594 C 1416.628906 1469.183594 1412.4375 1472.457031 1408.164062 1475.628906 C 1403.890625 1478.796875 1399.542969 1481.863281 1395.121094 1484.820312 C 1390.695312 1487.777344 1386.203125 1490.625 1381.640625 1493.359375 C 1377.078125 1496.097656 1372.453125 1498.722656 1367.761719 1501.230469 C 1363.070312 1503.742188 1358.320312 1506.136719 1353.511719 1508.414062 C 1348.703125 1510.691406 1343.839844 1512.847656 1338.925781 1514.886719 C 1334.011719 1516.925781 1329.050781 1518.84375 1324.039062 1520.640625 C 1319.03125 1522.433594 1313.984375 1524.105469 1308.890625 1525.65625 C 1303.800781 1527.203125 1298.675781 1528.625 1293.515625 1529.921875 C 1288.355469 1531.21875 1283.167969 1532.390625 1277.949219 1533.433594 C 1272.734375 1534.476562 1267.492188 1535.390625 1262.230469 1536.175781 C 1256.96875 1536.960938 1251.6875 1537.617188 1246.394531 1538.144531 C 1241.101562 1538.671875 1235.796875 1539.066406 1230.480469 1539.332031 C 1225.167969 1539.601562 1219.851562 1539.738281 1214.53125 1539.742188 Z M 325.882812 57.082031 C 321.484375 57.085938 317.089844 57.199219 312.695312 57.421875 C 308.304688 57.640625 303.921875 57.96875 299.542969 58.40625 C 295.167969 58.839844 290.804688 59.382812 286.457031 60.03125 C 282.105469 60.679688 277.773438 61.4375 273.460938 62.296875 C 269.148438 63.160156 264.859375 64.125 260.597656 65.199219 C 256.332031 66.269531 252.09375 67.445312 247.886719 68.726562 C 243.679688 70.003906 239.503906 71.386719 235.367188 72.871094 C 231.226562 74.355469 227.125 75.9375 223.0625 77.625 C 219 79.308594 214.984375 81.09375 211.007812 82.976562 C 207.035156 84.859375 203.109375 86.835938 199.230469 88.910156 C 195.351562 90.984375 191.527344 93.152344 187.757812 95.417969 C 183.984375 97.679688 180.273438 100.03125 176.617188 102.476562 C 172.960938 104.921875 169.367188 107.453125 165.835938 110.074219 C 162.304688 112.695312 158.835938 115.398438 155.4375 118.1875 C 152.039062 120.980469 148.710938 123.851562 145.453125 126.804688 C 142.195312 129.757812 139.011719 132.789062 135.898438 135.898438 C 132.789062 139.011719 129.757812 142.195312 126.804688 145.453125 C 123.851562 148.710938 120.980469 152.039062 118.1875 155.4375 C 115.398438 158.835938 112.695312 162.304688 110.074219 165.835938 C 107.453125 169.367188 104.921875 172.960938 102.476562 176.617188 C 100.03125 180.273438 97.679688 183.984375 95.417969 187.757812 C 93.152344 191.527344 90.984375 195.351562 88.910156 199.230469 C 86.835938 203.109375 84.859375 207.035156 82.976562 211.007812 C 81.09375 214.984375 79.308594 219 77.625 223.0625 C 75.9375 227.125 74.355469 231.226562 72.871094 235.367188 C 71.386719 239.503906 70.003906 243.679688 68.726562 247.886719 C 67.445312 252.09375 66.269531 256.332031 65.199219 260.597656 C 64.125 264.859375 63.160156 269.148438 62.296875 273.460938 C 61.4375 277.773438 60.679688 282.105469 60.03125 286.457031 C 59.382812 290.804688 58.839844 295.167969 58.40625 299.542969 C 57.96875 303.921875 57.640625 308.304688 57.421875 312.695312 C 57.199219 317.089844 57.089844 321.484375 57.082031 325.882812 L 57.082031 1214.53125 C 57.089844 1218.925781 57.199219 1223.324219 57.421875 1227.714844 C 57.640625 1232.105469 57.96875 1236.492188 58.40625 1240.867188 C 58.839844 1245.242188 59.382812 1249.605469 60.03125 1253.957031 C 60.679688 1258.304688 61.4375 1262.636719 62.296875 1266.949219 C 63.160156 1271.261719 64.125 1275.550781 65.199219 1279.816406 C 66.269531 1284.082031 67.445312 1288.316406 68.726562 1292.523438 C 70.003906 1296.730469 71.386719 1300.90625 72.871094 1305.046875 C 74.355469 1309.183594 75.9375 1313.285156 77.625 1317.347656 C 79.308594 1321.410156 81.09375 1325.429688 82.976562 1329.402344 C 84.859375 1333.378906 86.835938 1337.304688 88.910156 1341.179688 C 90.984375 1345.058594 93.152344 1348.882812 95.417969 1352.652344 C 97.679688 1356.425781 100.03125 1360.140625 102.476562 1363.796875 C 104.921875 1367.449219 107.453125 1371.042969 110.074219 1374.578125 C 112.695312 1378.109375 115.398438 1381.574219 118.1875 1384.972656 C 120.980469 1388.371094 123.851562 1391.699219 126.804688 1394.960938 C 129.757812 1398.21875 132.789062 1401.402344 135.898438 1404.511719 C 139.011719 1407.621094 142.195312 1410.652344 145.453125 1413.605469 C 148.710938 1416.558594 152.039062 1419.429688 155.4375 1422.222656 C 158.835938 1425.011719 162.304688 1427.71875 165.835938 1430.335938 C 169.367188 1432.957031 172.960938 1435.492188 176.617188 1437.933594 C 180.273438 1440.378906 183.984375 1442.734375 187.757812 1444.996094 C 191.527344 1447.257812 195.351562 1449.425781 199.230469 1451.5 C 203.109375 1453.574219 207.035156 1455.554688 211.007812 1457.433594 C 214.984375 1459.316406 219 1461.101562 223.0625 1462.785156 C 227.125 1464.472656 231.226562 1466.054688 235.367188 1467.539062 C 239.503906 1469.023438 243.679688 1470.40625 247.886719 1471.6875 C 252.09375 1472.964844 256.332031 1474.140625 260.597656 1475.214844 C 264.859375 1476.285156 269.148438 1477.25 273.460938 1478.113281 C 277.773438 1478.976562 282.105469 1479.730469 286.457031 1480.378906 C 290.804688 1481.027344 295.167969 1481.570312 299.542969 1482.007812 C 303.921875 1482.441406 308.304688 1482.769531 312.695312 1482.988281 C 317.089844 1483.210938 321.484375 1483.324219 325.882812 1483.328125 L 1214.53125 1483.328125 C 1218.925781 1483.324219 1223.324219 1483.210938 1227.714844 1482.988281 C 1232.105469 1482.769531 1236.492188 1482.441406 1240.867188 1482.007812 C 1245.242188 1481.570312 1249.605469 1481.027344 1253.957031 1480.378906 C 1258.304688 1479.730469 1262.636719 1478.976562 1266.949219 1478.113281 C 1271.261719 1477.25 1275.550781 1476.285156 1279.816406 1475.214844 C 1284.082031 1474.140625 1288.316406 1472.964844 1292.523438 1471.6875 C 1296.730469 1470.40625 1300.90625 1469.023438 1305.046875 1467.539062 C 1309.183594 1466.058594 1313.285156 1464.472656 1317.347656 1462.785156 C 1321.410156 1461.101562 1325.429688 1459.316406 1329.402344 1457.4375 C 1333.378906 1455.554688 1337.304688 1453.574219 1341.179688 1451.5 C 1345.058594 1449.425781 1348.882812 1447.257812 1352.652344 1444.996094 C 1356.425781 1442.734375 1360.140625 1440.378906 1363.796875 1437.933594 C 1367.449219 1435.492188 1371.042969 1432.957031 1374.578125 1430.339844 C 1378.109375 1427.71875 1381.574219 1425.011719 1384.972656 1422.222656 C 1388.371094 1419.429688 1391.699219 1416.558594 1394.960938 1413.605469 C 1398.21875 1410.652344 1401.402344 1407.621094 1404.511719 1404.511719 C 1407.621094 1401.402344 1410.652344 1398.21875 1413.605469 1394.957031 C 1416.558594 1391.699219 1419.429688 1388.371094 1422.222656 1384.972656 C 1425.011719 1381.574219 1427.71875 1378.109375 1430.339844 1374.578125 C 1432.957031 1371.042969 1435.492188 1367.449219 1437.933594 1363.792969 C 1440.378906 1360.140625 1442.734375 1356.425781 1444.996094 1352.652344 C 1447.257812 1348.882812 1449.425781 1345.058594 1451.5 1341.179688 C 1453.574219 1337.304688 1455.554688 1333.378906 1457.4375 1329.402344 C 1459.316406 1325.429688 1461.101562 1321.410156 1462.785156 1317.347656 C 1464.472656 1313.285156 1466.058594 1309.183594 1467.539062 1305.042969 C 1469.023438 1300.90625 1470.40625 1296.730469 1471.6875 1292.523438 C 1472.964844 1288.316406 1474.140625 1284.082031 1475.214844 1279.816406 C 1476.285156 1275.550781 1477.25 1271.261719 1478.113281 1266.949219 C 1478.976562 1262.636719 1479.730469 1258.304688 1480.378906 1253.957031 C 1481.027344 1249.605469 1481.570312 1245.242188 1482.007812 1240.867188 C 1482.441406 1236.492188 1482.769531 1232.105469 1482.988281 1227.714844 C 1483.210938 1223.324219 1483.324219 1218.925781 1483.328125 1214.53125 L 1483.328125 325.882812 C 1483.324219 321.484375 1483.210938 317.089844 1482.988281 312.695312 C 1482.769531 308.304688 1482.441406 303.921875 1482.007812 299.542969 C 1481.570312 295.167969 1481.027344 290.804688 1480.378906 286.457031 C 1479.730469 282.105469 1478.976562 277.773438 1478.113281 273.460938 C 1477.25 269.148438 1476.285156 264.859375 1475.214844 260.597656 C 1474.140625 256.332031 1472.964844 252.09375 1471.6875 247.886719 C 1470.40625 243.679688 1469.023438 239.503906 1467.539062 235.367188 C 1466.058594 231.226562 1464.472656 227.125 1462.785156 223.0625 C 1461.101562 219 1459.316406 214.984375 1457.4375 211.007812 C 1455.554688 207.035156 1453.574219 203.109375 1451.5 199.230469 C 1449.425781 195.351562 1447.257812 191.527344 1444.996094 187.757812 C 1442.734375 183.984375 1440.378906 180.273438 1437.933594 176.617188 C 1435.492188 172.960938 1432.957031 169.367188 1430.339844 165.835938 C 1427.71875 162.300781 1425.011719 158.835938 1422.222656 155.4375 C 1419.429688 152.039062 1416.558594 148.710938 1413.605469 145.453125 C 1410.652344 142.195312 1407.621094 139.007812 1404.511719 135.898438 C 1401.402344 132.789062 1398.21875 129.757812 1394.957031 126.804688 C 1391.699219 123.851562 1388.371094 120.980469 1384.972656 118.1875 C 1381.574219 115.398438 1378.109375 112.695312 1374.578125 110.074219 C 1371.042969 107.453125 1367.449219 104.921875 1363.792969 102.476562 C 1360.140625 100.03125 1356.425781 97.679688 1352.652344 95.417969 C 1348.882812 93.152344 1345.058594 90.984375 1341.179688 88.910156 C 1337.304688 86.835938 1333.378906 84.859375 1329.402344 82.976562 C 1325.429688 81.09375 1321.410156 79.308594 1317.347656 77.625 C 1313.285156 75.9375 1309.183594 74.355469 1305.042969 72.871094 C 1300.90625 71.386719 1296.730469 70.003906 1292.523438 68.726562 C 1288.316406 67.445312 1284.082031 66.269531 1279.816406 65.199219 C 1275.550781 64.125 1271.261719 63.160156 1266.949219 62.296875 C 1262.636719 61.4375 1258.304688 60.679688 1253.957031 60.03125 C 1249.605469 59.382812 1245.242188 58.839844 1240.867188 58.40625 C 1236.492188 57.96875 1232.105469 57.640625 1227.714844 57.421875 C 1223.324219 57.199219 1218.925781 57.085938 1214.53125 57.082031 Z M 325.882812 57.082031 " fill-opacity="1" fill-rule="nonzero"/></g><g mask="url(#a69223ca40)"><g transform="matrix(1, 0, 0, 1, 149, 243)"><g clip-path="url(#5ddda04e83)"><g clip-path="url(#51aadd29d6)"><path fill="#ffffff" d="M 114.5625 59.863281 C 114.5625 61.722656 114.46875 63.578125 114.289062 65.429688 C 114.105469 67.28125 113.832031 69.121094 113.46875 70.945312 C 113.109375 72.769531 112.65625 74.570312 112.117188 76.351562 C 111.578125 78.128906 110.949219 79.878906 110.238281 81.597656 C 109.527344 83.316406 108.734375 84.996094 107.855469 86.636719 C 106.980469 88.277344 106.023438 89.867188 104.992188 91.414062 C 103.957031 92.960938 102.851562 94.453125 101.671875 95.890625 C 100.492188 97.328125 99.242188 98.707031 97.929688 100.019531 C 96.613281 101.335938 95.238281 102.585938 93.796875 103.765625 C 92.359375 104.945312 90.867188 106.050781 89.320312 107.085938 C 87.777344 108.117188 86.183594 109.074219 84.542969 109.949219 C 82.902344 110.824219 81.222656 111.621094 79.503906 112.332031 C 77.785156 113.042969 76.035156 113.667969 74.257812 114.210938 C 72.476562 114.75 70.675781 115.199219 68.851562 115.5625 C 67.027344 115.925781 65.1875 116.199219 63.335938 116.382812 C 61.484375 116.5625 59.628906 116.65625 57.769531 116.65625 C 55.910156 116.65625 54.054688 116.5625 52.203125 116.382812 C 50.351562 116.199219 48.515625 115.925781 46.691406 115.5625 C 44.867188 115.199219 43.066406 114.75 41.285156 114.210938 C 39.503906 113.667969 37.757812 113.042969 36.039062 112.332031 C 34.320312 111.621094 32.640625 110.824219 31 109.949219 C 29.359375 109.074219 27.765625 108.117188 26.21875 107.085938 C 24.671875 106.050781 23.179688 104.945312 21.742188 103.765625 C 20.304688 102.585938 18.929688 101.335938 17.613281 100.019531 C 16.296875 98.707031 15.050781 97.328125 13.871094 95.890625 C 12.691406 94.453125 11.585938 92.960938 10.550781 91.414062 C 9.515625 89.867188 8.5625 88.277344 7.683594 86.636719 C 6.808594 84.996094 6.015625 83.316406 5.300781 81.597656 C 4.589844 79.878906 3.964844 78.128906 3.425781 76.351562 C 2.886719 74.570312 2.433594 72.769531 2.070312 70.945312 C 1.707031 69.121094 1.433594 67.28125 1.253906 65.429688 C 1.070312 63.578125 0.980469 61.722656 0.980469 59.863281 C 0.980469 58.003906 1.070312 56.148438 1.253906 54.296875 C 1.433594 52.445312 1.707031 50.609375 2.070312 48.785156 C 2.433594 46.960938 2.886719 45.160156 3.425781 43.378906 C 3.964844 41.597656 4.589844 39.847656 5.300781 38.132812 C 6.015625 36.414062 6.808594 34.734375 7.683594 33.09375 C 8.5625 31.453125 9.515625 29.859375 10.550781 28.3125 C 11.585938 26.765625 12.691406 25.273438 13.871094 23.835938 C 15.050781 22.398438 16.296875 21.023438 17.613281 19.707031 C 18.929688 18.390625 20.304688 17.144531 21.742188 15.964844 C 23.179688 14.785156 24.671875 13.675781 26.21875 12.644531 C 27.765625 11.609375 29.359375 10.65625 31 9.777344 C 32.640625 8.902344 34.320312 8.109375 36.039062 7.394531 C 37.757812 6.683594 39.503906 6.058594 41.285156 5.519531 C 43.066406 4.980469 44.867188 4.527344 46.691406 4.164062 C 48.515625 3.800781 50.351562 3.527344 52.203125 3.347656 C 54.054688 3.164062 55.910156 3.074219 57.769531 3.074219 C 59.628906 3.074219 61.484375 3.164062 63.335938 3.347656 C 65.1875 3.527344 67.027344 3.800781 68.851562 4.164062 C 70.675781 4.527344 72.476562 4.980469 74.257812 5.519531 C 76.035156 6.058594 77.785156 6.683594 79.503906 7.394531 C 81.222656 8.109375 82.902344 8.902344 84.542969 9.777344 C 86.183594 10.65625 87.777344 11.609375 89.320312 12.644531 C 90.867188 13.675781 92.359375 14.785156 93.796875 15.964844 C 95.238281 17.144531 96.613281 18.390625 97.929688 19.707031 C 99.242188 21.023438 100.492188 22.398438 101.671875 23.835938 C 102.851562 25.273438 103.957031 26.765625 104.992188 28.3125 C 106.023438 29.859375 106.980469 31.453125 107.855469 33.09375 C 108.734375 34.734375 109.527344 36.414062 110.238281 38.132812 C 110.949219 39.847656 111.578125 41.597656 112.117188 43.378906 C 112.65625 45.160156 113.109375 46.960938 113.46875 48.785156 C 113.832031 50.609375 114.105469 52.445312 114.289062 54.296875 C 114.46875 56.148438 114.5625 58.003906 114.5625 59.863281 Z M 114.5625 59.863281 " fill-opacity="1" fill-rule="nonzero"/></g></g></g></g><g mask="url(#5c85b3cead)"><g transform="matrix(1, 0, 0, 1, 292, 198)"><g clip-path="url(#351bb51ecc)"><path fill="#ffffff" d="M 58.175781 29.90625 C 58.175781 30.835938 58.132812 31.765625 58.039062 32.691406 C 57.949219 33.617188 57.8125 34.535156 57.632812 35.445312 C 57.449219 36.359375 57.226562 37.261719 56.953125 38.148438 C 56.683594 39.039062 56.371094 39.914062 56.015625 40.773438 C 55.660156 41.632812 55.261719 42.472656 54.824219 43.292969 C 54.386719 44.113281 53.910156 44.910156 53.390625 45.683594 C 52.875 46.457031 52.320312 47.203125 51.730469 47.921875 C 51.140625 48.640625 50.519531 49.328125 49.859375 49.984375 C 49.203125 50.644531 48.515625 51.265625 47.796875 51.859375 C 47.078125 52.449219 46.332031 53 45.558594 53.515625 C 44.785156 54.035156 43.988281 54.511719 43.167969 54.949219 C 42.347656 55.386719 41.507812 55.785156 40.648438 56.140625 C 39.789062 56.496094 38.914062 56.808594 38.023438 57.082031 C 37.136719 57.351562 36.234375 57.574219 35.320312 57.757812 C 34.410156 57.9375 33.492188 58.074219 32.566406 58.167969 C 31.640625 58.257812 30.710938 58.304688 29.78125 58.304688 C 28.851562 58.304688 27.925781 58.257812 27 58.167969 C 26.074219 58.074219 25.15625 57.9375 24.242188 57.757812 C 23.332031 57.574219 22.429688 57.351562 21.539062 57.082031 C 20.648438 56.808594 19.773438 56.496094 18.914062 56.140625 C 18.054688 55.785156 17.214844 55.386719 16.394531 54.949219 C 15.578125 54.511719 14.78125 54.035156 14.007812 53.515625 C 13.234375 53 12.488281 52.449219 11.769531 51.859375 C 11.050781 51.265625 10.359375 50.644531 9.703125 49.984375 C 9.046875 49.328125 8.421875 48.640625 7.832031 47.921875 C 7.242188 47.203125 6.6875 46.457031 6.171875 45.683594 C 5.65625 44.910156 5.179688 44.113281 4.738281 43.292969 C 4.300781 42.472656 3.902344 41.632812 3.546875 40.773438 C 3.191406 39.914062 2.878906 39.039062 2.609375 38.148438 C 2.339844 37.261719 2.113281 36.359375 1.933594 35.445312 C 1.75 34.535156 1.613281 33.617188 1.523438 32.691406 C 1.433594 31.765625 1.386719 30.835938 1.386719 29.90625 C 1.386719 28.976562 1.433594 28.050781 1.523438 27.125 C 1.613281 26.199219 1.75 25.28125 1.933594 24.367188 C 2.113281 23.457031 2.339844 22.554688 2.609375 21.664062 C 2.878906 20.773438 3.191406 19.898438 3.546875 19.039062 C 3.902344 18.183594 4.300781 17.34375 4.738281 16.523438 C 5.179688 15.703125 5.65625 14.90625 6.171875 14.132812 C 6.6875 13.359375 7.242188 12.613281 7.832031 11.894531 C 8.421875 11.175781 9.046875 10.488281 9.703125 9.828125 C 10.359375 9.171875 11.050781 8.546875 11.769531 7.957031 C 12.488281 7.367188 13.234375 6.8125 14.007812 6.296875 C 14.78125 5.78125 15.578125 5.304688 16.394531 4.863281 C 17.214844 4.425781 18.054688 4.027344 18.914062 3.671875 C 19.773438 3.316406 20.648438 3.003906 21.539062 2.734375 C 22.429688 2.464844 23.332031 2.238281 24.242188 2.058594 C 25.15625 1.875 26.074219 1.738281 27 1.648438 C 27.925781 1.558594 28.851562 1.511719 29.78125 1.511719 C 30.710938 1.511719 31.640625 1.558594 32.566406 1.648438 C 33.492188 1.738281 34.410156 1.875 35.320312 2.058594 C 36.234375 2.238281 37.136719 2.464844 38.023438 2.734375 C 38.914062 3.003906 39.789062 3.316406 40.648438 3.671875 C 41.507812 4.027344 42.347656 4.425781 43.167969 4.863281 C 43.988281 5.304688 44.785156 5.78125 45.558594 6.296875 C 46.332031 6.8125 47.078125 7.367188 47.796875 7.957031 C 48.515625 8.546875 49.203125 9.171875 49.859375 9.828125 C 50.519531 10.488281 51.140625 11.175781 51.730469 11.894531 C 52.320312 12.613281 52.875 13.359375 53.390625 14.132812 C 53.910156 14.90625 54.386719 15.703125 54.824219 16.523438 C 55.261719 17.34375 55.660156 18.183594 56.015625 19.039062 C 56.371094 19.898438 56.683594 20.773438 56.953125 21.664062 C 57.226562 22.554688 57.449219 23.457031 57.632812 24.367188 C 57.8125 25.28125 57.949219 26.199219 58.039062 27.125 C 58.132812 28.050781 58.175781 28.976562 58.175781 29.90625 Z M 58.175781 29.90625 " fill-opacity="1" fill-rule="nonzero"/></g></g></g><g mask="url(#c0c48cd81e)"><g transform="matrix(1, 0, 0, 1, 1262, 198)"><g clip-path="url(#4973390316)"><path fill="#ffffff" d="M 59.230469 29.90625 C 59.230469 30.835938 59.183594 31.765625 59.09375 32.691406 C 59 33.617188 58.863281 34.535156 58.683594 35.445312 C 58.503906 36.359375 58.277344 37.261719 58.007812 38.148438 C 57.738281 39.039062 57.421875 39.914062 57.066406 40.773438 C 56.710938 41.632812 56.316406 42.472656 55.875 43.292969 C 55.4375 44.113281 54.960938 44.910156 54.445312 45.683594 C 53.925781 46.457031 53.375 47.203125 52.785156 47.921875 C 52.195312 48.640625 51.570312 49.328125 50.914062 49.984375 C 50.253906 50.644531 49.566406 51.265625 48.847656 51.859375 C 48.128906 52.449219 47.382812 53 46.609375 53.515625 C 45.835938 54.035156 45.039062 54.511719 44.21875 54.949219 C 43.398438 55.386719 42.558594 55.785156 41.699219 56.140625 C 40.839844 56.496094 39.964844 56.808594 39.078125 57.082031 C 38.1875 57.351562 37.285156 57.574219 36.375 57.757812 C 35.460938 57.9375 34.542969 58.074219 33.617188 58.167969 C 32.691406 58.257812 31.765625 58.304688 30.832031 58.304688 C 29.902344 58.304688 28.976562 58.257812 28.050781 58.167969 C 27.125 58.074219 26.207031 57.9375 25.292969 57.757812 C 24.382812 57.574219 23.480469 57.351562 22.589844 57.082031 C 21.699219 56.808594 20.828125 56.496094 19.96875 56.140625 C 19.109375 55.785156 18.269531 55.386719 17.449219 54.949219 C 16.628906 54.511719 15.832031 54.035156 15.058594 53.515625 C 14.285156 53 13.539062 52.449219 12.820312 51.859375 C 12.101562 51.265625 11.414062 50.644531 10.753906 49.984375 C 10.097656 49.328125 9.472656 48.640625 8.882812 47.921875 C 8.292969 47.203125 7.742188 46.457031 7.222656 45.683594 C 6.707031 44.910156 6.230469 44.113281 5.789062 43.292969 C 5.351562 42.472656 4.957031 41.632812 4.597656 40.773438 C 4.242188 39.914062 3.929688 39.039062 3.660156 38.148438 C 3.390625 37.261719 3.164062 36.359375 2.984375 35.445312 C 2.800781 34.535156 2.664062 33.617188 2.574219 32.691406 C 2.484375 31.765625 2.4375 30.835938 2.4375 29.90625 C 2.4375 28.976562 2.484375 28.050781 2.574219 27.125 C 2.664062 26.199219 2.800781 25.28125 2.984375 24.367188 C 3.164062 23.457031 3.390625 22.554688 3.660156 21.664062 C 3.929688 20.773438 4.242188 19.898438 4.597656 19.039062 C 4.957031 18.183594 5.351562 17.34375 5.789062 16.523438 C 6.230469 15.703125 6.707031 14.90625 7.222656 14.132812 C 7.738281 13.359375 8.292969 12.613281 8.882812 11.894531 C 9.472656 11.175781 10.097656 10.488281 10.753906 9.828125 C 11.414062 9.171875 12.101562 8.546875 12.820312 7.957031 C 13.539062 7.367188 14.285156 6.8125 15.058594 6.296875 C 15.832031 5.78125 16.628906 5.304688 17.449219 4.863281 C 18.269531 4.425781 19.109375 4.027344 19.96875 3.671875 C 20.828125 3.316406 21.699219 3.003906 22.589844 2.734375 C 23.480469 2.464844 24.382812 2.238281 25.292969 2.058594 C 26.207031 1.875 27.125 1.738281 28.050781 1.648438 C 28.976562 1.558594 29.902344 1.511719 30.832031 1.511719 C 31.765625 1.511719 32.691406 1.558594 33.617188 1.648438 C 34.542969 1.738281 35.460938 1.875 36.375 2.058594 C 37.285156 2.238281 38.1875 2.464844 39.078125 2.734375 C 39.964844 3.003906 40.839844 3.316406 41.699219 3.671875 C 42.558594 4.027344 43.398438 4.425781 44.21875 4.863281 C 45.039062 5.304688 45.835938 5.78125 46.609375 6.296875 C 47.382812 6.8125 48.128906 7.367188 48.847656 7.957031 C 49.566406 8.546875 50.253906 9.171875 50.914062 9.828125 C 51.570312 10.488281 52.195312 11.175781 52.785156 11.894531 C 53.375 12.613281 53.925781 13.359375 54.445312 14.132812 C 54.960938 14.90625 55.4375 15.703125 55.875 16.523438 C 56.316406 17.34375 56.710938 18.183594 57.066406 19.039062 C 57.421875 19.898438 57.738281 20.773438 58.007812 21.664062 C 58.277344 22.554688 58.503906 23.457031 58.683594 24.367188 C 58.863281 25.28125 59 26.199219 59.09375 27.125 C 59.183594 28.050781 59.230469 28.976562 59.230469 29.90625 Z M 59.230469 29.90625 " fill-opacity="1" fill-rule="nonzero"/></g></g></g><g clip-path="url(#d8399d72b3)"><path fill="#fefefe" d="M 1309.40625 1028.335938 L 1094.964844 1028.335938 C 1047.738281 1028.335938 1009.421875 990.039062 1009.421875 943.136719 L 1009.421875 804.203125 C 1009.421875 757 1047.738281 718.703125 1094.964844 718.703125 L 1192.976562 718.703125 L 1193.273438 686.050781 C 1180.503906 682.191406 1171 670.316406 1171 656.066406 C 1171 638.847656 1185.253906 624.894531 1202.480469 624.894531 C 1219.707031 624.894531 1233.964844 638.847656 1233.964844 656.066406 C 1233.964844 670.316406 1224.164062 682.488281 1211.09375 686.347656 L 1210.796875 718.703125 L 1309.40625 718.703125 C 1356.335938 718.703125 1394.648438 757 1394.648438 804.203125 L 1394.648438 943.433594 C 1394.648438 990.335938 1356.335938 1028.335938 1309.40625 1028.335938 Z M 1121.695312 893.558594 C 1096.449219 893.558594 1076.546875 873.667969 1076.546875 848.730469 C 1076.546875 823.5 1096.449219 803.609375 1121.695312 803.609375 C 1146.941406 803.609375 1166.542969 823.5 1166.542969 848.730469 C 1166.542969 873.667969 1146.941406 893.558594 1121.695312 893.558594 Z M 1121.695312 821.421875 C 1106.25 821.421875 1094.371094 833.292969 1094.371094 848.730469 C 1094.371094 863.871094 1106.25 875.746094 1121.695312 875.746094 C 1136.84375 875.746094 1149.019531 863.871094 1149.019531 848.730469 C 1149.019531 833.292969 1136.84375 821.421875 1121.695312 821.421875 Z M 1282.972656 891.777344 C 1257.726562 891.777344 1237.527344 871.589844 1237.527344 846.652344 C 1237.527344 821.71875 1257.726562 801.53125 1282.972656 801.53125 C 1307.625 801.53125 1327.820312 821.71875 1327.820312 846.652344 C 1327.820312 871.589844 1307.625 891.777344 1282.972656 891.777344 Z M 1282.972656 819.34375 C 1267.527344 819.34375 1255.351562 831.8125 1255.351562 846.652344 C 1255.351562 861.792969 1267.527344 874.261719 1282.972656 874.261719 C 1298.121094 874.261719 1310 861.792969 1310 846.652344 C 1310 831.21875 1297.824219 819.34375 1282.972656 819.34375 Z M 1198.917969 945.808594 C 1181.988281 945.808594 1167.136719 937.792969 1158.820312 930.667969 C 1154.960938 927.402344 1154.664062 921.464844 1157.929688 918.199219 C 1161.195312 914.636719 1166.542969 914.042969 1170.40625 917.605469 C 1173.078125 919.980469 1198.917969 940.464844 1223.570312 917.902344 C 1227.132812 914.636719 1232.480469 914.636719 1236.339844 918.199219 C 1239.609375 922.058594 1239.609375 927.402344 1236.042969 930.964844 C 1223.570312 941.652344 1210.796875 945.808594 1198.917969 945.808594 Z M 1198.917969 945.808594 " fill-opacity="1" fill-rule="evenodd"/></g><g clip-path="url(#6a21bda277)"><path fill="#fefefe" d="M 991.601562 933.042969 L 988.039062 933.042969 C 966.652344 933.042969 948.832031 915.527344 948.832031 893.855469 L 948.832031 833.292969 C 948.832031 811.625 966.652344 793.8125 988.039062 793.8125 L 992.195312 793.8125 C 991.898438 797.078125 991.601562 800.640625 991.601562 804.203125 Z M 991.601562 933.042969 " fill-opacity="1" fill-rule="evenodd"/></g><g clip-path="url(#47c2b4cf40)"><path fill="#fefefe" d="M 1416.035156 933.042969 L 1412.46875 933.042969 L 1412.46875 804.203125 C 1412.46875 800.34375 1412.171875 796.78125 1411.875 793.515625 L 1416.035156 793.515625 C 1438.011719 793.515625 1455.832031 811.03125 1455.832031 832.996094 L 1455.832031 893.855469 C 1455.832031 915.824219 1438.011719 933.042969 1416.035156 933.042969 Z M 1416.035156 933.042969 " fill-opacity="1" fill-rule="evenodd"/></g><g clip-path="url(#7b5f8db389)"><path fill="#f6f6f6" d="M 434.746094 1216.964844 L 434.746094 924.71875 L 580.9375 1070.839844 Z M 434.746094 728.445312 L 434.746094 436.199219 L 580.9375 582.320312 Z M 436.152344 839.757812 L 434.746094 838.359375 L 434.746094 814.800781 L 645.734375 603.90625 C 657.664062 591.988281 657.664062 572.652344 645.734375 560.734375 L 425.800781 340.898438 C 425.164062 340.261719 424.5 339.675781 423.820312 339.105469 C 423.617188 338.925781 423.402344 338.765625 423.195312 338.601562 C 422.699219 338.207031 422.195312 337.828125 421.679688 337.472656 C 421.429688 337.296875 421.175781 337.117188 420.921875 336.957031 C 420.386719 336.601562 419.832031 336.269531 419.273438 335.949219 C 419.050781 335.828125 418.832031 335.6875 418.609375 335.566406 C 417.867188 335.171875 417.109375 334.808594 416.34375 334.476562 C 416.035156 334.34375 415.714844 334.226562 415.40625 334.105469 C 414.890625 333.902344 414.371094 333.710938 413.84375 333.53125 C 413.496094 333.414062 413.140625 333.308594 412.785156 333.199219 C 412.191406 333.023438 411.585938 332.875 410.96875 332.734375 C 410.714844 332.675781 410.464844 332.605469 410.203125 332.550781 C 409.351562 332.378906 408.488281 332.257812 407.605469 332.15625 C 407.351562 332.125 407.085938 332.109375 406.824219 332.085938 C 406.105469 332.023438 405.378906 331.984375 404.644531 331.976562 C 404.488281 331.976562 404.351562 331.957031 404.195312 331.957031 C 404.117188 331.957031 404.042969 331.972656 403.957031 331.972656 C 403.019531 331.976562 402.09375 332.015625 401.171875 332.109375 C 401.003906 332.125 400.839844 332.15625 400.667969 332.171875 C 399.941406 332.257812 399.214844 332.371094 398.503906 332.503906 C 398.171875 332.566406 397.839844 332.644531 397.507812 332.710938 C 396.941406 332.835938 396.394531 332.984375 395.835938 333.144531 C 395.503906 333.238281 395.164062 333.324219 394.832031 333.429688 C 394.050781 333.6875 393.277344 333.964844 392.511719 334.28125 C 392.503906 334.28125 392.496094 334.289062 392.488281 334.289062 C 392.179688 334.421875 391.878906 334.566406 391.570312 334.714844 C 391.058594 334.945312 390.546875 335.1875 390.046875 335.441406 C 389.730469 335.609375 389.417969 335.789062 389.101562 335.964844 C 388.601562 336.253906 388.113281 336.546875 387.625 336.863281 C 387.371094 337.023438 387.117188 337.1875 386.867188 337.359375 C 386.15625 337.851562 385.460938 338.363281 384.796875 338.910156 C 384.789062 338.917969 384.773438 338.917969 384.765625 338.925781 C 384.078125 339.5 383.425781 340.101562 382.792969 340.726562 C 382.613281 340.898438 382.445312 341.082031 382.265625 341.261719 C 381.820312 341.722656 381.378906 342.210938 380.960938 342.707031 C 380.773438 342.914062 380.597656 343.128906 380.417969 343.347656 C 379.972656 343.902344 379.539062 344.476562 379.128906 345.070312 C 379.027344 345.210938 378.917969 345.347656 378.820312 345.496094 C 378.355469 346.191406 377.921875 346.917969 377.511719 347.652344 C 377.34375 347.953125 377.195312 348.253906 377.039062 348.554688 C 376.792969 349.035156 376.554688 349.53125 376.328125 350.03125 C 376.183594 350.363281 376.027344 350.695312 375.886719 351.042969 C 375.664062 351.609375 375.457031 352.1875 375.261719 352.769531 C 375.167969 353.039062 375.0625 353.308594 374.984375 353.585938 C 374.734375 354.382812 374.535156 355.1875 374.355469 356.007812 C 374.289062 356.316406 374.242188 356.632812 374.179688 356.941406 C 374.0625 357.558594 373.96875 358.195312 373.894531 358.828125 C 373.855469 359.121094 373.816406 359.414062 373.792969 359.707031 C 373.707031 360.628906 373.652344 361.546875 373.652344 362.492188 L 373.652344 777.296875 L 191.605469 595.335938 C 179.683594 583.410156 160.339844 583.410156 148.40625 595.335938 C 136.476562 607.261719 136.476562 626.589844 148.40625 638.515625 L 336.5625 826.582031 L 148.40625 1014.644531 C 136.476562 1026.5625 136.476562 1045.898438 148.40625 1057.824219 C 160.339844 1069.75 179.675781 1069.75 191.605469 1057.824219 L 373.652344 875.863281 L 373.652344 1290.667969 C 373.652344 1291.605469 373.707031 1292.53125 373.792969 1293.453125 C 373.816406 1293.746094 373.855469 1294.039062 373.894531 1294.332031 C 373.96875 1294.96875 374.0625 1295.59375 374.179688 1296.21875 C 374.242188 1296.527344 374.289062 1296.84375 374.355469 1297.144531 C 374.535156 1297.964844 374.734375 1298.777344 374.984375 1299.574219 C 375.0625 1299.851562 375.167969 1300.113281 375.261719 1300.390625 C 375.457031 1300.972656 375.664062 1301.550781 375.886719 1302.117188 C 376.027344 1302.457031 376.183594 1302.796875 376.328125 1303.128906 C 376.554688 1303.628906 376.792969 1304.117188 377.039062 1304.605469 C 377.195312 1304.90625 377.34375 1305.207031 377.511719 1305.5 C 377.921875 1306.242188 378.355469 1306.960938 378.820312 1307.664062 C 378.917969 1307.8125 379.027344 1307.949219 379.128906 1308.097656 C 379.539062 1308.675781 379.972656 1309.257812 380.417969 1309.8125 C 380.597656 1310.03125 380.773438 1310.238281 380.960938 1310.453125 C 381.378906 1310.949219 381.820312 1311.429688 382.265625 1311.898438 C 382.445312 1312.078125 382.613281 1312.261719 382.792969 1312.433594 C 383.417969 1313.058594 384.078125 1313.664062 384.765625 1314.226562 C 384.773438 1314.234375 384.789062 1314.242188 384.796875 1314.25 C 385.460938 1314.796875 386.15625 1315.308594 386.867188 1315.804688 C 387.117188 1315.972656 387.371094 1316.136719 387.625 1316.296875 C 388.113281 1316.605469 388.601562 1316.90625 389.101562 1317.195312 C 389.417969 1317.371094 389.730469 1317.550781 390.046875 1317.710938 C 390.539062 1317.976562 391.058594 1318.214844 391.570312 1318.445312 C 391.878906 1318.585938 392.179688 1318.738281 392.488281 1318.871094 C 392.496094 1318.871094 392.503906 1318.878906 392.511719 1318.878906 C 392.574219 1318.902344 392.636719 1318.925781 392.699219 1318.949219 C 393.570312 1319.296875 394.445312 1319.621094 395.328125 1319.882812 C 395.535156 1319.945312 395.746094 1319.992188 395.953125 1320.046875 C 396.703125 1320.253906 397.460938 1320.464844 398.21875 1320.609375 C 398.667969 1320.703125 399.117188 1320.75 399.570312 1320.820312 C 400.105469 1320.894531 400.632812 1320.996094 401.164062 1321.050781 C 402.175781 1321.152344 403.183594 1321.207031 404.195312 1321.207031 C 405.207031 1321.207031 406.222656 1321.152344 407.226562 1321.050781 C 407.804688 1320.996094 408.378906 1320.886719 408.957031 1320.796875 C 409.359375 1320.734375 409.769531 1320.695312 410.171875 1320.609375 C 410.875 1320.472656 411.570312 1320.285156 412.261719 1320.09375 C 412.523438 1320.023438 412.792969 1319.96875 413.050781 1319.890625 C 413.753906 1319.675781 414.449219 1319.417969 415.136719 1319.148438 C 415.375 1319.0625 415.625 1318.988281 415.863281 1318.886719 C 416.511719 1318.617188 417.148438 1318.300781 417.789062 1317.988281 C 418.042969 1317.859375 418.316406 1317.742188 418.578125 1317.605469 C 419.164062 1317.292969 419.730469 1316.9375 420.292969 1316.589844 C 420.582031 1316.40625 420.875 1316.25 421.160156 1316.066406 C 421.710938 1315.695312 422.234375 1315.285156 422.761719 1314.882812 C 423.03125 1314.675781 423.308594 1314.488281 423.574219 1314.28125 C 424.324219 1313.65625 425.058594 1312.996094 425.761719 1312.292969 C 425.777344 1312.277344 425.785156 1312.269531 425.800781 1312.261719 L 645.734375 1092.425781 C 654.054688 1084.117188 656.550781 1072.214844 653.28125 1061.726562 C 651.847656 1057.160156 649.351562 1052.863281 645.734375 1049.246094 L 436.152344 839.757812 " fill-opacity="1" fill-rule="nonzero"/></g><path fill="#f6f6f6" d="M 736.167969 516.644531 C 735.898438 516.914062 735.667969 517.207031 735.410156 517.484375 L 737.011719 515.878906 C 736.734375 516.140625 736.4375 516.375 736.167969 516.644531 " fill-opacity="1" fill-rule="nonzero"/><g clip-path="url(#95ec91f152)"><path fill="#f6f6f6" d="M 929.804688 822.546875 C 929.804688 722.246094 890.875 628.097656 820.179688 557.433594 L 801.011719 538.269531 L 757.8125 581.453125 L 776.980469 600.613281 C 836.136719 659.746094 868.714844 738.558594 868.714844 822.546875 C 868.714844 906.539062 836.136719 985.355469 776.980469 1044.484375 L 749.707031 1071.746094 L 792.90625 1114.921875 L 820.179688 1087.664062 C 890.875 1017.003906 929.804688 922.847656 929.804688 822.546875 " fill-opacity="1" fill-rule="nonzero"/></g><path fill="#f6f6f6" d="M 685.429688 822.546875 C 685.429688 787.457031 671.929688 754.636719 647.402344 730.121094 L 628.234375 710.960938 L 585.035156 754.140625 L 604.203125 773.300781 C 617.195312 786.285156 624.339844 803.773438 624.339844 822.546875 C 624.339844 841.242188 617.164062 858.753906 604.203125 871.792969 L 576.933594 899.058594 L 620.132812 942.238281 L 647.480469 914.902344 C 671.953125 890.277344 685.429688 857.480469 685.429688 822.546875 " fill-opacity="1" fill-rule="nonzero"/><path fill="#f6f6f6" d="M 563.394531 689.335938 C 563.121094 689.609375 562.890625 689.894531 562.636719 690.179688 L 564.242188 688.570312 C 563.957031 688.828125 563.664062 689.058594 563.394531 689.335938 " fill-opacity="1" fill-rule="nonzero"/><path fill="#f6f6f6" d="M 733.792969 643.777344 L 714.617188 624.617188 L 671.417969 667.796875 L 690.59375 686.957031 C 765.394531 761.722656 765.394531 883.378906 690.59375 958.144531 L 663.316406 985.402344 L 706.515625 1028.582031 L 733.792969 1001.320312 C 832.410156 902.746094 832.410156 742.355469 733.792969 643.777344 " fill-opacity="1" fill-rule="nonzero"/><path fill="#f6f6f6" d="M 649.785156 602.988281 C 649.515625 603.257812 649.28125 603.550781 649.019531 603.828125 L 650.628906 602.222656 C 650.347656 602.484375 650.054688 602.714844 649.785156 602.988281 " fill-opacity="1" fill-rule="nonzero"/></svg>