<svg xmlns="http://www.w3.org/2000/svg" xmlns:xlink="http://www.w3.org/1999/xlink" width="2379" zoomAndPan="magnify" viewBox="0 0 1784.88 1784.99993" height="2379" preserveAspectRatio="xMidYMid meet" version="1.0"><defs><filter x="0%" y="0%" width="100%" height="100%" id="d7badcbb8c"><feColorMatrix values="0 0 0 0 1 0 0 0 0 1 0 0 0 0 1 0 0 0 1 0" color-interpolation-filters="sRGB"/></filter><clipPath id="e4388f483e"><path d="M 151 151 L 1634 151 L 1634 1634 L 151 1634 Z M 151 151 " clip-rule="nonzero"/></clipPath><clipPath id="bcf4c54535"><path d="M 448.101562 151.175781 L 1336.691406 151.175781 C 1341.550781 151.175781 1346.40625 151.292969 1351.261719 151.53125 C 1356.117188 151.773438 1360.960938 152.128906 1365.800781 152.605469 C 1370.636719 153.082031 1375.457031 153.675781 1380.265625 154.390625 C 1385.074219 155.101562 1389.863281 155.933594 1394.628906 156.882812 C 1399.394531 157.828125 1404.136719 158.894531 1408.851562 160.074219 C 1413.566406 161.257812 1418.25 162.550781 1422.898438 163.964844 C 1427.550781 165.375 1432.164062 166.898438 1436.742188 168.535156 C 1441.316406 170.171875 1445.851562 171.921875 1450.339844 173.78125 C 1454.832031 175.640625 1459.273438 177.609375 1463.667969 179.6875 C 1468.0625 181.765625 1472.402344 183.953125 1476.6875 186.242188 C 1480.972656 188.535156 1485.203125 190.929688 1489.371094 193.429688 C 1493.539062 195.925781 1497.644531 198.527344 1501.6875 201.226562 C 1505.726562 203.925781 1509.699219 206.722656 1513.605469 209.621094 C 1517.507812 212.515625 1521.339844 215.503906 1525.09375 218.589844 C 1528.851562 221.671875 1532.53125 224.84375 1536.132812 228.109375 C 1539.734375 231.375 1543.253906 234.722656 1546.691406 238.160156 C 1550.128906 241.597656 1553.476562 245.117188 1556.742188 248.71875 C 1560.003906 252.320312 1563.179688 256 1566.261719 259.753906 C 1569.347656 263.511719 1572.335938 267.34375 1575.230469 271.246094 C 1578.125 275.152344 1580.925781 279.125 1583.625 283.164062 C 1586.324219 287.207031 1588.925781 291.3125 1591.421875 295.480469 C 1593.921875 299.648438 1596.316406 303.875 1598.609375 308.164062 C 1600.898438 312.449219 1603.082031 316.789062 1605.160156 321.183594 C 1607.238281 325.578125 1609.207031 330.019531 1611.070312 334.507812 C 1612.929688 339 1614.675781 343.535156 1616.316406 348.109375 C 1617.953125 352.6875 1619.476562 357.300781 1620.886719 361.949219 C 1622.296875 366.601562 1623.59375 371.285156 1624.777344 376 C 1625.957031 380.714844 1627.019531 385.457031 1627.96875 390.222656 C 1628.917969 394.988281 1629.75 399.777344 1630.460938 404.585938 C 1631.175781 409.390625 1631.769531 414.214844 1632.246094 419.050781 C 1632.722656 423.886719 1633.078125 428.734375 1633.316406 433.589844 C 1633.554688 438.445312 1633.675781 443.300781 1633.675781 448.160156 L 1633.675781 1336.75 C 1633.675781 1341.609375 1633.554688 1346.46875 1633.316406 1351.320312 C 1633.078125 1356.175781 1632.722656 1361.023438 1632.246094 1365.859375 C 1631.769531 1370.695312 1631.175781 1375.519531 1630.460938 1380.328125 C 1629.746094 1385.132812 1628.917969 1389.921875 1627.96875 1394.6875 C 1627.019531 1399.457031 1625.957031 1404.195312 1624.777344 1408.910156 C 1623.59375 1413.625 1622.296875 1418.308594 1620.886719 1422.960938 C 1619.476562 1427.613281 1617.953125 1432.226562 1616.316406 1436.800781 C 1614.675781 1441.378906 1612.929688 1445.910156 1611.070312 1450.402344 C 1609.207031 1454.890625 1607.238281 1459.332031 1605.160156 1463.726562 C 1603.082031 1468.121094 1600.898438 1472.460938 1598.609375 1476.746094 C 1596.316406 1481.035156 1593.921875 1485.261719 1591.421875 1489.429688 C 1588.925781 1493.601562 1586.324219 1497.703125 1583.625 1501.746094 C 1580.925781 1505.789062 1578.125 1509.761719 1575.230469 1513.664062 C 1572.335938 1517.566406 1569.347656 1521.398438 1566.261719 1525.15625 C 1563.179688 1528.914062 1560.003906 1532.59375 1556.742188 1536.191406 C 1553.476562 1539.792969 1550.128906 1543.3125 1546.691406 1546.75 C 1543.253906 1550.1875 1539.734375 1553.539062 1536.132812 1556.800781 C 1532.53125 1560.066406 1528.851562 1563.238281 1525.09375 1566.324219 C 1521.339844 1569.40625 1517.507812 1572.394531 1513.605469 1575.289062 C 1509.699219 1578.1875 1505.726562 1580.984375 1501.6875 1583.683594 C 1497.644531 1586.382812 1493.539062 1588.984375 1489.371094 1591.484375 C 1485.203125 1593.980469 1480.972656 1596.375 1476.6875 1598.667969 C 1472.402344 1600.957031 1468.0625 1603.144531 1463.667969 1605.222656 C 1459.273438 1607.300781 1454.832031 1609.269531 1450.339844 1611.128906 C 1445.851562 1612.988281 1441.316406 1614.738281 1436.742188 1616.375 C 1432.164062 1618.011719 1427.550781 1619.535156 1422.898438 1620.949219 C 1418.25 1622.359375 1413.566406 1623.65625 1408.851562 1624.835938 C 1404.136719 1626.015625 1399.394531 1627.082031 1394.628906 1628.027344 C 1389.863281 1628.976562 1385.074219 1629.808594 1380.265625 1630.519531 C 1375.457031 1631.234375 1370.636719 1631.828125 1365.800781 1632.304688 C 1360.960938 1632.78125 1356.117188 1633.140625 1351.261719 1633.378906 C 1346.40625 1633.617188 1341.550781 1633.734375 1336.691406 1633.734375 L 448.101562 1633.734375 C 443.242188 1633.734375 438.382812 1633.617188 433.527344 1633.378906 C 428.675781 1633.140625 423.828125 1632.78125 418.992188 1632.304688 C 414.15625 1631.828125 409.332031 1631.234375 404.523438 1630.519531 C 399.714844 1629.808594 394.929688 1628.976562 390.164062 1628.027344 C 385.394531 1627.082031 380.65625 1626.015625 375.941406 1624.835938 C 371.226562 1623.65625 366.542969 1622.359375 361.890625 1620.949219 C 357.238281 1619.535156 352.625 1618.011719 348.050781 1616.375 C 343.472656 1614.738281 338.941406 1612.988281 334.449219 1611.128906 C 329.960938 1609.269531 325.515625 1607.300781 321.125 1605.222656 C 316.730469 1603.144531 312.390625 1600.957031 308.101562 1598.667969 C 303.816406 1596.375 299.589844 1593.980469 295.421875 1591.484375 C 291.25 1588.984375 287.144531 1586.382812 283.105469 1583.683594 C 279.0625 1580.984375 275.089844 1578.1875 271.1875 1575.289062 C 267.28125 1572.394531 263.453125 1569.40625 259.695312 1566.324219 C 255.9375 1563.238281 252.257812 1560.066406 248.65625 1556.800781 C 245.054688 1553.539062 241.539062 1550.1875 238.101562 1546.75 C 234.664062 1543.3125 231.3125 1539.792969 228.050781 1536.191406 C 224.785156 1532.59375 221.613281 1528.914062 218.527344 1525.15625 C 215.445312 1521.398438 212.457031 1517.566406 209.558594 1513.664062 C 206.664062 1509.761719 203.867188 1505.789062 201.167969 1501.746094 C 198.464844 1497.703125 195.867188 1493.601562 193.367188 1489.429688 C 190.871094 1485.261719 188.472656 1481.035156 186.183594 1476.746094 C 183.890625 1472.460938 181.707031 1468.121094 179.628906 1463.726562 C 177.550781 1459.332031 175.582031 1454.890625 173.722656 1450.402344 C 171.863281 1445.910156 170.113281 1441.378906 168.476562 1436.800781 C 166.839844 1432.226562 165.3125 1427.613281 163.902344 1422.960938 C 162.492188 1418.308594 161.195312 1413.625 160.015625 1408.910156 C 158.835938 1404.195312 157.769531 1399.457031 156.820312 1394.6875 C 155.875 1389.921875 155.042969 1385.132812 154.328125 1380.328125 C 153.617188 1375.519531 153.023438 1370.695312 152.546875 1365.859375 C 152.070312 1361.023438 151.710938 1356.175781 151.472656 1351.320312 C 151.234375 1346.46875 151.117188 1341.609375 151.117188 1336.75 L 151.117188 448.160156 C 151.117188 443.300781 151.234375 438.445312 151.472656 433.589844 C 151.710938 428.734375 152.070312 423.886719 152.546875 419.050781 C 153.023438 414.214844 153.617188 409.390625 154.328125 404.585938 C 155.042969 399.777344 155.875 394.988281 156.820312 390.222656 C 157.769531 385.457031 158.835938 380.714844 160.015625 376 C 161.195312 371.285156 162.492188 366.601562 163.902344 361.949219 C 165.3125 357.300781 166.839844 352.6875 168.476562 348.109375 C 170.113281 343.535156 171.863281 339 173.722656 334.507812 C 175.582031 330.019531 177.550781 325.578125 179.628906 321.183594 C 181.707031 316.789062 183.890625 312.449219 186.183594 308.164062 C 188.472656 303.875 190.871094 299.648438 193.367188 295.480469 C 195.867188 291.3125 198.464844 287.207031 201.167969 283.164062 C 203.867188 279.125 206.664062 275.152344 209.558594 271.246094 C 212.457031 267.34375 215.445312 263.511719 218.527344 259.753906 C 221.613281 256 224.785156 252.320312 228.050781 248.71875 C 231.3125 245.117188 234.664062 241.597656 238.101562 238.160156 C 241.539062 234.722656 245.054688 231.375 248.65625 228.109375 C 252.257812 224.84375 255.9375 221.671875 259.695312 218.589844 C 263.453125 215.503906 267.28125 212.515625 271.1875 209.621094 C 275.089844 206.722656 279.0625 203.925781 283.105469 201.226562 C 287.144531 198.527344 291.25 195.925781 295.421875 193.429688 C 299.589844 190.929688 303.816406 188.535156 308.101562 186.242188 C 312.390625 183.953125 316.730469 181.765625 321.125 179.6875 C 325.515625 177.609375 329.960938 175.640625 334.449219 173.78125 C 338.941406 171.921875 343.472656 170.171875 348.050781 168.535156 C 352.625 166.898438 357.238281 165.375 361.890625 163.964844 C 366.542969 162.550781 371.226562 161.257812 375.941406 160.074219 C 380.652344 158.894531 385.394531 157.828125 390.164062 156.882812 C 394.929688 155.933594 399.714844 155.101562 404.523438 154.390625 C 409.332031 153.675781 414.15625 153.082031 418.992188 152.605469 C 423.828125 152.128906 428.675781 151.773438 433.527344 151.53125 C 438.382812 151.292969 443.242188 151.175781 448.101562 151.175781 Z M 448.101562 151.175781 " clip-rule="nonzero"/></clipPath><linearGradient x1="250" gradientTransform="matrix(3.760744, 0, 0, 3.760744, -47.790435, -47.730522)" y1="447.109984" x2="250" gradientUnits="userSpaceOnUse" y2="52.890011" id="cde0724cbb"><stop stop-opacity="1" stop-color="rgb(100%, 59.599304%, 29.798889%)" offset="0"/><stop stop-opacity="1" stop-color="rgb(100%, 59.773254%, 29.78363%)" offset="0.015625"/><stop stop-opacity="1" stop-color="rgb(100%, 60.122681%, 29.754639%)" offset="0.03125"/><stop stop-opacity="1" stop-color="rgb(100%, 60.472107%, 29.724121%)" offset="0.046875"/><stop stop-opacity="1" stop-color="rgb(100%, 60.823059%, 29.695129%)" offset="0.0625"/><stop stop-opacity="1" stop-color="rgb(100%, 61.172485%, 29.664612%)" offset="0.078125"/><stop stop-opacity="1" stop-color="rgb(100%, 61.521912%, 29.63562%)" offset="0.09375"/><stop stop-opacity="1" stop-color="rgb(100%, 61.871338%, 29.605103%)" offset="0.109375"/><stop stop-opacity="1" stop-color="rgb(100%, 62.220764%, 29.576111%)" offset="0.125"/><stop stop-opacity="1" stop-color="rgb(100%, 62.571716%, 29.545593%)" offset="0.140625"/><stop stop-opacity="1" stop-color="rgb(100%, 62.921143%, 29.516602%)" offset="0.15625"/><stop stop-opacity="1" stop-color="rgb(100%, 63.270569%, 29.486084%)" offset="0.171875"/><stop stop-opacity="1" stop-color="rgb(100%, 63.619995%, 29.457092%)" offset="0.1875"/><stop stop-opacity="1" stop-color="rgb(100%, 63.969421%, 29.426575%)" offset="0.203125"/><stop stop-opacity="1" stop-color="rgb(100%, 64.318848%, 29.397583%)" offset="0.21875"/><stop stop-opacity="1" stop-color="rgb(100%, 64.6698%, 29.367065%)" offset="0.234375"/><stop stop-opacity="1" stop-color="rgb(100%, 65.019226%, 29.338074%)" offset="0.25"/><stop stop-opacity="1" stop-color="rgb(100%, 65.368652%, 29.307556%)" offset="0.265625"/><stop stop-opacity="1" stop-color="rgb(100%, 65.718079%, 29.278564%)" offset="0.28125"/><stop stop-opacity="1" stop-color="rgb(100%, 66.067505%, 29.248047%)" offset="0.296875"/><stop stop-opacity="1" stop-color="rgb(100%, 66.418457%, 29.219055%)" offset="0.3125"/><stop stop-opacity="1" stop-color="rgb(100%, 66.767883%, 29.188538%)" offset="0.328125"/><stop stop-opacity="1" stop-color="rgb(100%, 67.11731%, 29.159546%)" offset="0.34375"/><stop stop-opacity="1" stop-color="rgb(100%, 67.466736%, 29.129028%)" offset="0.359375"/><stop stop-opacity="1" stop-color="rgb(100%, 67.816162%, 29.100037%)" offset="0.375"/><stop stop-opacity="1" stop-color="rgb(100%, 68.165588%, 29.069519%)" offset="0.390625"/><stop stop-opacity="1" stop-color="rgb(100%, 68.516541%, 29.040527%)" offset="0.40625"/><stop stop-opacity="1" stop-color="rgb(100%, 68.870544%, 29.01001%)" offset="0.421875"/><stop stop-opacity="1" stop-color="rgb(100%, 69.151306%, 28.98407%)" offset="0.429687"/><stop stop-opacity="1" stop-color="rgb(100%, 69.3573%, 28.964233%)" offset="0.4375"/><stop stop-opacity="1" stop-color="rgb(100%, 69.563293%, 28.942871%)" offset="0.445312"/><stop stop-opacity="1" stop-color="rgb(100%, 69.769287%, 28.923035%)" offset="0.453125"/><stop stop-opacity="1" stop-color="rgb(100%, 69.975281%, 28.903198%)" offset="0.460937"/><stop stop-opacity="1" stop-color="rgb(100%, 70.181274%, 28.883362%)" offset="0.46875"/><stop stop-opacity="1" stop-color="rgb(100%, 70.387268%, 28.862%)" offset="0.476562"/><stop stop-opacity="1" stop-color="rgb(100%, 70.593262%, 28.842163%)" offset="0.484375"/><stop stop-opacity="1" stop-color="rgb(100%, 70.799255%, 28.822327%)" offset="0.492187"/><stop stop-opacity="1" stop-color="rgb(100%, 71.005249%, 28.80249%)" offset="0.5"/><stop stop-opacity="1" stop-color="rgb(100%, 71.211243%, 28.781128%)" offset="0.507813"/><stop stop-opacity="1" stop-color="rgb(100%, 71.417236%, 28.761292%)" offset="0.515625"/><stop stop-opacity="1" stop-color="rgb(100%, 71.624756%, 28.741455%)" offset="0.523438"/><stop stop-opacity="1" stop-color="rgb(100%, 71.83075%, 28.721619%)" offset="0.53125"/><stop stop-opacity="1" stop-color="rgb(100%, 72.036743%, 28.700256%)" offset="0.539063"/><stop stop-opacity="1" stop-color="rgb(100%, 72.242737%, 28.68042%)" offset="0.546875"/><stop stop-opacity="1" stop-color="rgb(100%, 72.44873%, 28.660583%)" offset="0.554688"/><stop stop-opacity="1" stop-color="rgb(100%, 72.654724%, 28.640747%)" offset="0.5625"/><stop stop-opacity="1" stop-color="rgb(100%, 72.860718%, 28.619385%)" offset="0.570313"/><stop stop-opacity="1" stop-color="rgb(100%, 73.066711%, 28.599548%)" offset="0.578125"/><stop stop-opacity="1" stop-color="rgb(100%, 73.272705%, 28.579712%)" offset="0.585938"/><stop stop-opacity="1" stop-color="rgb(100%, 73.478699%, 28.559875%)" offset="0.59375"/><stop stop-opacity="1" stop-color="rgb(100%, 73.684692%, 28.538513%)" offset="0.601562"/><stop stop-opacity="1" stop-color="rgb(100%, 73.890686%, 28.518677%)" offset="0.609375"/><stop stop-opacity="1" stop-color="rgb(100%, 74.09668%, 28.49884%)" offset="0.617188"/><stop stop-opacity="1" stop-color="rgb(100%, 74.302673%, 28.479004%)" offset="0.625"/><stop stop-opacity="1" stop-color="rgb(100%, 74.508667%, 28.457642%)" offset="0.632812"/><stop stop-opacity="1" stop-color="rgb(100%, 74.714661%, 28.437805%)" offset="0.640625"/><stop stop-opacity="1" stop-color="rgb(100%, 74.92218%, 28.417969%)" offset="0.648438"/><stop stop-opacity="1" stop-color="rgb(100%, 75.128174%, 28.398132%)" offset="0.65625"/><stop stop-opacity="1" stop-color="rgb(100%, 75.334167%, 28.378296%)" offset="0.664062"/><stop stop-opacity="1" stop-color="rgb(100%, 75.540161%, 28.356934%)" offset="0.671875"/><stop stop-opacity="1" stop-color="rgb(100%, 75.746155%, 28.337097%)" offset="0.679687"/><stop stop-opacity="1" stop-color="rgb(100%, 75.952148%, 28.317261%)" offset="0.6875"/><stop stop-opacity="1" stop-color="rgb(100%, 76.158142%, 28.297424%)" offset="0.695312"/><stop stop-opacity="1" stop-color="rgb(100%, 76.364136%, 28.276062%)" offset="0.703125"/><stop stop-opacity="1" stop-color="rgb(100%, 76.570129%, 28.256226%)" offset="0.710937"/><stop stop-opacity="1" stop-color="rgb(100%, 76.776123%, 28.236389%)" offset="0.71875"/><stop stop-opacity="1" stop-color="rgb(100%, 76.982117%, 28.216553%)" offset="0.726562"/><stop stop-opacity="1" stop-color="rgb(100%, 77.18811%, 28.19519%)" offset="0.734375"/><stop stop-opacity="1" stop-color="rgb(100%, 77.394104%, 28.175354%)" offset="0.742187"/><stop stop-opacity="1" stop-color="rgb(100%, 77.600098%, 28.155518%)" offset="0.75"/><stop stop-opacity="1" stop-color="rgb(100%, 77.806091%, 28.135681%)" offset="0.757813"/><stop stop-opacity="1" stop-color="rgb(100%, 78.012085%, 28.114319%)" offset="0.765625"/><stop stop-opacity="1" stop-color="rgb(100%, 78.219604%, 28.094482%)" offset="0.773438"/><stop stop-opacity="1" stop-color="rgb(100%, 78.425598%, 28.074646%)" offset="0.78125"/><stop stop-opacity="1" stop-color="rgb(100%, 78.631592%, 28.05481%)" offset="0.789063"/><stop stop-opacity="1" stop-color="rgb(100%, 78.837585%, 28.033447%)" offset="0.796875"/><stop stop-opacity="1" stop-color="rgb(100%, 79.043579%, 28.013611%)" offset="0.804688"/><stop stop-opacity="1" stop-color="rgb(100%, 79.249573%, 27.993774%)" offset="0.8125"/><stop stop-opacity="1" stop-color="rgb(100%, 79.455566%, 27.973938%)" offset="0.820313"/><stop stop-opacity="1" stop-color="rgb(100%, 79.66156%, 27.952576%)" offset="0.828125"/><stop stop-opacity="1" stop-color="rgb(100%, 79.867554%, 27.932739%)" offset="0.835938"/><stop stop-opacity="1" stop-color="rgb(100%, 80.073547%, 27.912903%)" offset="0.84375"/><stop stop-opacity="1" stop-color="rgb(100%, 80.279541%, 27.893066%)" offset="0.851562"/><stop stop-opacity="1" stop-color="rgb(100%, 80.485535%, 27.871704%)" offset="0.859375"/><stop stop-opacity="1" stop-color="rgb(100%, 80.691528%, 27.851868%)" offset="0.867188"/><stop stop-opacity="1" stop-color="rgb(100%, 80.897522%, 27.832031%)" offset="0.875"/><stop stop-opacity="1" stop-color="rgb(100%, 81.103516%, 27.812195%)" offset="0.882812"/><stop stop-opacity="1" stop-color="rgb(100%, 81.309509%, 27.792358%)" offset="0.890625"/><stop stop-opacity="1" stop-color="rgb(100%, 81.517029%, 27.770996%)" offset="0.898438"/><stop stop-opacity="1" stop-color="rgb(100%, 81.723022%, 27.75116%)" offset="0.90625"/><stop stop-opacity="1" stop-color="rgb(100%, 81.929016%, 27.731323%)" offset="0.914062"/><stop stop-opacity="1" stop-color="rgb(100%, 82.13501%, 27.711487%)" offset="0.921875"/><stop stop-opacity="1" stop-color="rgb(100%, 82.341003%, 27.690125%)" offset="0.929687"/><stop stop-opacity="1" stop-color="rgb(100%, 82.546997%, 27.670288%)" offset="0.9375"/><stop stop-opacity="1" stop-color="rgb(100%, 82.752991%, 27.650452%)" offset="0.945312"/><stop stop-opacity="1" stop-color="rgb(100%, 82.958984%, 27.630615%)" offset="0.953125"/><stop stop-opacity="1" stop-color="rgb(100%, 83.164978%, 27.609253%)" offset="0.960937"/><stop stop-opacity="1" stop-color="rgb(100%, 83.370972%, 27.589417%)" offset="0.96875"/><stop stop-opacity="1" stop-color="rgb(100%, 83.576965%, 27.56958%)" offset="0.976562"/><stop stop-opacity="1" stop-color="rgb(100%, 83.782959%, 27.549744%)" offset="0.984375"/><stop stop-opacity="1" stop-color="rgb(100%, 83.988953%, 27.528381%)" offset="0.992187"/><stop stop-opacity="1" stop-color="rgb(100%, 84.194946%, 27.508545%)" offset="1"/></linearGradient><mask id="7f9d3129fc"><g filter="url(#d7badcbb8c)"><rect x="-178.488" width="2141.856" fill="#000000" y="-178.499993" height="2141.999916" fill-opacity="0.2"/></g></mask><clipPath id="8227a881a8"><rect x="0" width="1491" y="0" height="535"/></clipPath><mask id="423877d628"><g filter="url(#d7badcbb8c)"><rect x="-178.488" width="2141.856" fill="#000000" y="-178.499993" height="2141.999916" fill-opacity="0.3"/></g></mask><clipPath id="339656520a"><rect x="0" width="1491" y="0" height="426"/></clipPath><clipPath id="110343b4dc"><path d="M 122.949219 123.007812 L 1661.84375 123.007812 L 1661.84375 1661.902344 L 122.949219 1661.902344 Z M 122.949219 123.007812 " clip-rule="nonzero"/></clipPath><mask id="06b04086ae"><g filter="url(#d7badcbb8c)"><rect x="-178.488" width="2141.856" fill="#000000" y="-178.499993" height="2141.999916" fill-opacity="0.3"/></g></mask><clipPath id="be2b38f69f"><rect x="0" width="118" y="0" height="118"/></clipPath><mask id="d006779de0"><g filter="url(#d7badcbb8c)"><rect x="-178.488" width="2141.856" fill="#000000" y="-178.499993" height="2141.999916" fill-opacity="0.3"/></g></mask><clipPath id="1c0f285980"><rect x="0" width="62" y="0" height="62"/></clipPath><mask id="fb52f6ee0b"><g filter="url(#d7badcbb8c)"><rect x="-178.488" width="2141.856" fill="#000000" y="-178.499993" height="2141.999916" fill-opacity="0.3"/></g></mask><clipPath id="70a5e1bf97"><rect x="0" width="62" y="0" height="62"/></clipPath><clipPath id="f809d39e84"><path d="M 512 494.511719 L 1272 494.511719 L 1272 1290.207031 L 512 1290.207031 Z M 512 494.511719 " clip-rule="nonzero"/></clipPath><clipPath id="42eba5c450"><path d="M 392.628906 827 L 479 827 L 479 1103 L 392.628906 1103 Z M 392.628906 827 " clip-rule="nonzero"/></clipPath><clipPath id="3bd694a0c8"><path d="M 1305 827 L 1392.308594 827 L 1392.308594 1103 L 1305 1103 Z M 1305 827 " clip-rule="nonzero"/></clipPath><clipPath id="5170ba6c5a"><path d="M 1207 334.800781 L 1428 334.800781 L 1428 758.523438 L 1207 758.523438 Z M 1207 334.800781 " clip-rule="nonzero"/></clipPath><clipPath id="26d38f6cd5"><path d="M 1468 423 L 1545.078125 423 L 1545.078125 670.386719 L 1468 670.386719 Z M 1468 423 " clip-rule="nonzero"/></clipPath></defs><g clip-path="url(#e4388f483e)"><g clip-path="url(#bcf4c54535)"><path fill="url(#cde0724cbb)" d="M 151.117188 151.175781 L 151.117188 1633.734375 L 1633.675781 1633.734375 L 1633.675781 151.175781 Z M 151.117188 151.175781 " fill-rule="nonzero"/></g></g><g mask="url(#7f9d3129fc)"><g transform="matrix(1, 0, 0, 1, 147, 1103)"><g clip-path="url(#8227a881a8)"><path fill="#fdc703" d="M 1189.691406 299.261719 L 301.101562 299.261719 C 296.238281 299.261719 291.378906 299.144531 286.523438 298.902344 C 281.667969 298.664062 276.820312 298.308594 271.980469 297.832031 C 267.140625 297.355469 262.316406 296.757812 257.507812 296.046875 C 252.699219 295.332031 247.910156 294.5 243.140625 293.554688 C 238.371094 292.605469 233.628906 291.539062 228.914062 290.359375 C 224.195312 289.175781 219.511719 287.878906 214.859375 286.46875 C 210.207031 285.058594 205.589844 283.53125 201.011719 281.894531 C 196.433594 280.257812 191.898438 278.507812 187.40625 276.648438 C 182.914062 274.785156 178.46875 272.816406 174.074219 270.738281 C 169.679688 268.660156 165.339844 266.472656 161.050781 264.179688 C 156.761719 261.890625 152.53125 259.492188 148.363281 256.992188 C 144.191406 254.492188 140.085938 251.894531 136.042969 249.191406 C 132 246.492188 128.023438 243.691406 124.121094 240.796875 C 120.214844 237.898438 116.382812 234.90625 112.625 231.824219 C 108.867188 228.738281 105.183594 225.5625 101.582031 222.300781 C 97.980469 219.035156 94.457031 215.683594 91.019531 212.242188 C 87.582031 208.804688 84.230469 205.285156 80.964844 201.683594 C 77.699219 198.078125 74.527344 194.398438 71.441406 190.640625 C 68.355469 186.882812 65.367188 183.050781 62.46875 179.144531 C 59.574219 175.238281 56.773438 171.265625 54.074219 167.222656 C 51.371094 163.179688 48.769531 159.074219 46.269531 154.902344 C 43.773438 150.730469 41.375 146.503906 39.082031 142.214844 C 36.792969 137.925781 34.605469 133.585938 32.527344 129.1875 C 30.449219 124.792969 28.476562 120.351562 26.617188 115.859375 C 24.757812 111.367188 23.007812 106.832031 21.371094 102.253906 C 19.730469 97.675781 18.207031 93.058594 16.796875 88.40625 C 15.382812 83.753906 14.085938 79.070312 12.90625 74.351562 C 11.726562 69.636719 10.660156 64.894531 9.710938 60.125 C 8.761719 55.355469 7.929688 50.566406 7.21875 45.757812 C 6.503906 40.945312 5.910156 36.121094 5.433594 31.285156 C 4.957031 26.445312 4.597656 21.597656 4.359375 16.742188 C 4.121094 11.882812 4.003906 7.027344 4.003906 2.164062 L 4.003906 233.636719 C 4.003906 238.5 4.121094 243.359375 4.359375 248.214844 C 4.597656 253.070312 4.957031 257.917969 5.433594 262.757812 C 5.910156 267.597656 6.503906 272.421875 7.21875 277.230469 C 7.929688 282.039062 8.761719 286.828125 9.710938 291.597656 C 10.660156 296.367188 11.726562 301.109375 12.90625 305.824219 C 14.085938 310.542969 15.382812 315.226562 16.796875 319.878906 C 18.207031 324.53125 19.730469 329.148438 21.371094 333.726562 C 23.007812 338.304688 24.757812 342.839844 26.617188 347.332031 C 28.476562 351.824219 30.449219 356.269531 32.527344 360.664062 C 34.605469 365.058594 36.792969 369.398438 39.082031 373.6875 C 41.375 377.976562 43.769531 382.207031 46.269531 386.375 C 48.769531 390.546875 51.371094 394.652344 54.074219 398.695312 C 56.773438 402.738281 59.574219 406.714844 62.46875 410.617188 C 65.367188 414.523438 68.355469 418.355469 71.441406 422.113281 C 74.527344 425.871094 77.699219 429.554688 80.964844 433.15625 C 84.230469 436.757812 87.582031 440.28125 91.019531 443.71875 C 94.457031 447.15625 97.980469 450.507812 101.582031 453.773438 C 105.183594 457.039062 108.867188 460.210938 112.625 463.296875 C 116.382812 466.382812 120.214844 469.371094 124.121094 472.269531 C 128.023438 475.164062 132 477.964844 136.042969 480.664062 C 140.085938 483.367188 144.191406 485.96875 148.363281 488.46875 C 152.53125 490.964844 156.761719 493.363281 161.050781 495.65625 C 165.339844 497.945312 169.679688 500.132812 174.074219 502.210938 C 178.46875 504.289062 182.914062 506.257812 187.40625 508.121094 C 191.898438 509.980469 196.433594 511.730469 201.011719 513.367188 C 205.589844 515.007812 210.207031 516.53125 214.859375 517.941406 C 219.511719 519.355469 224.195312 520.652344 228.914062 521.832031 C 233.628906 523.011719 238.371094 524.078125 243.140625 525.027344 C 247.910156 525.976562 252.699219 526.808594 257.507812 527.519531 C 262.316406 528.234375 267.140625 528.828125 271.980469 529.304688 C 276.820312 529.78125 281.667969 530.140625 286.523438 530.378906 C 291.378906 530.617188 296.238281 530.734375 301.101562 530.734375 L 1189.691406 530.734375 C 1194.550781 530.734375 1199.410156 530.617188 1204.269531 530.378906 C 1209.125 530.140625 1213.972656 529.78125 1218.8125 529.304688 C 1223.648438 528.828125 1228.472656 528.234375 1233.285156 527.519531 C 1238.09375 526.804688 1242.882812 525.976562 1247.652344 525.027344 C 1252.417969 524.078125 1257.164062 523.011719 1261.878906 521.832031 C 1266.59375 520.652344 1271.28125 519.355469 1275.933594 517.941406 C 1280.585938 516.53125 1285.203125 515.007812 1289.78125 513.367188 C 1294.355469 511.730469 1298.890625 509.980469 1303.382812 508.121094 C 1307.875 506.257812 1312.320312 504.289062 1316.714844 502.210938 C 1321.113281 500.132812 1325.453125 497.945312 1329.742188 495.65625 C 1334.03125 493.363281 1338.257812 490.964844 1342.429688 488.46875 C 1346.597656 485.96875 1350.707031 483.367188 1354.75 480.664062 C 1358.792969 477.964844 1362.765625 475.164062 1366.671875 472.269531 C 1370.578125 469.371094 1374.410156 466.382812 1378.167969 463.296875 C 1381.925781 460.210938 1385.605469 457.039062 1389.210938 453.773438 C 1392.8125 450.507812 1396.332031 447.15625 1399.769531 443.71875 C 1403.207031 440.277344 1406.558594 436.757812 1409.824219 433.15625 C 1413.089844 429.554688 1416.265625 425.871094 1419.351562 422.113281 C 1422.433594 418.355469 1425.425781 414.523438 1428.320312 410.617188 C 1431.21875 406.714844 1434.015625 402.738281 1436.71875 398.695312 C 1439.417969 394.652344 1442.019531 390.546875 1444.519531 386.375 C 1447.019531 382.207031 1449.414062 377.976562 1451.707031 373.6875 C 1454 369.398438 1456.183594 365.058594 1458.265625 360.664062 C 1460.34375 356.269531 1462.3125 351.824219 1464.171875 347.332031 C 1466.035156 342.839844 1467.785156 338.304688 1469.421875 333.726562 C 1471.058594 329.148438 1472.585938 324.53125 1473.996094 319.878906 C 1475.40625 315.226562 1476.703125 310.542969 1477.886719 305.824219 C 1479.066406 301.109375 1480.132812 296.367188 1481.078125 291.597656 C 1482.027344 286.828125 1482.859375 282.039062 1483.574219 277.230469 C 1484.285156 272.421875 1484.882812 267.597656 1485.359375 262.757812 C 1485.835938 257.917969 1486.191406 253.070312 1486.429688 248.214844 C 1486.667969 243.359375 1486.789062 238.5 1486.789062 233.636719 L 1486.789062 2.277344 C 1486.785156 7.136719 1486.664062 11.996094 1486.425781 16.851562 C 1486.183594 21.707031 1485.824219 26.550781 1485.347656 31.390625 C 1484.871094 36.226562 1484.273438 41.050781 1483.558594 45.859375 C 1482.84375 50.667969 1482.011719 55.453125 1481.0625 60.222656 C 1480.109375 64.988281 1479.046875 69.730469 1477.863281 74.445312 C 1476.679688 79.160156 1475.382812 83.84375 1473.96875 88.496094 C 1472.558594 93.144531 1471.03125 97.757812 1469.390625 102.335938 C 1467.753906 106.914062 1466.003906 111.445312 1464.140625 115.9375 C 1462.28125 120.425781 1460.308594 124.867188 1458.230469 129.261719 C 1456.148438 133.65625 1453.964844 137.996094 1451.671875 142.28125 C 1449.378906 146.570312 1446.980469 150.796875 1444.480469 154.964844 C 1441.980469 159.136719 1439.382812 163.238281 1436.679688 167.28125 C 1433.976562 171.320312 1431.179688 175.292969 1428.28125 179.199219 C 1425.386719 183.101562 1422.394531 186.933594 1419.308594 190.691406 C 1416.226562 194.445312 1413.050781 198.125 1409.785156 201.726562 C 1406.519531 205.328125 1403.167969 208.847656 1399.730469 212.285156 C 1396.292969 215.71875 1392.773438 219.070312 1389.171875 222.335938 C 1385.566406 225.597656 1381.886719 228.773438 1378.128906 231.855469 C 1374.371094 234.9375 1370.539062 237.925781 1366.636719 240.824219 C 1362.730469 243.71875 1358.757812 246.515625 1354.714844 249.214844 C 1350.671875 251.914062 1346.566406 254.515625 1342.394531 257.011719 C 1338.226562 259.511719 1333.996094 261.90625 1329.710938 264.199219 C 1325.421875 266.488281 1321.082031 268.671875 1316.6875 270.75 C 1312.292969 272.828125 1307.851562 274.796875 1303.359375 276.65625 C 1298.867188 278.515625 1294.332031 280.265625 1289.757812 281.902344 C 1285.179688 283.539062 1280.566406 285.066406 1275.914062 286.476562 C 1271.261719 287.886719 1266.578125 289.183594 1261.863281 290.363281 C 1257.148438 291.542969 1252.40625 292.609375 1247.636719 293.554688 C 1242.871094 294.503906 1238.082031 295.335938 1233.273438 296.046875 C 1228.464844 296.761719 1223.640625 297.355469 1218.804688 297.832031 C 1213.964844 298.308594 1209.121094 298.667969 1204.265625 298.90625 C 1199.410156 299.144531 1194.550781 299.261719 1189.691406 299.261719 Z M 1189.691406 299.261719 " fill-opacity="1" fill-rule="nonzero"/></g></g></g><g mask="url(#423877d628)"><g transform="matrix(1, 0, 0, 1, 147, 147)"><g clip-path="url(#339656520a)"><path fill="#ffffff" d="M 1189.691406 4.175781 L 301.101562 4.175781 C 296.238281 4.175781 291.378906 4.292969 286.523438 4.53125 C 281.667969 4.773438 276.820312 5.128906 271.980469 5.605469 C 267.140625 6.082031 262.316406 6.675781 257.507812 7.390625 C 252.699219 8.105469 247.910156 8.933594 243.140625 9.882812 C 238.371094 10.832031 233.628906 11.898438 228.914062 13.078125 C 224.195312 14.261719 219.511719 15.558594 214.859375 16.96875 C 210.207031 18.378906 205.589844 19.90625 201.011719 21.542969 C 196.433594 23.179688 191.898438 24.929688 187.40625 26.789062 C 182.914062 28.652344 178.46875 30.621094 174.074219 32.699219 C 169.679688 34.777344 165.339844 36.964844 161.050781 39.257812 C 156.761719 41.546875 152.53125 43.945312 148.363281 46.445312 C 144.191406 48.945312 140.085938 51.542969 136.042969 54.246094 C 132 56.945312 128.023438 59.746094 124.121094 62.640625 C 120.214844 65.539062 116.382812 68.527344 112.625 71.613281 C 108.867188 74.699219 105.183594 77.875 101.582031 81.136719 C 97.980469 84.402344 94.457031 87.753906 91.019531 91.195312 C 87.582031 94.632812 84.230469 98.152344 80.964844 101.753906 C 77.699219 105.355469 74.527344 109.039062 71.441406 112.796875 C 68.355469 116.554688 65.367188 120.386719 62.46875 124.292969 C 59.574219 128.199219 56.773438 132.171875 54.074219 136.214844 C 51.371094 140.257812 48.769531 144.363281 46.269531 148.535156 C 43.773438 152.707031 41.375 156.933594 39.082031 161.222656 C 36.792969 165.511719 34.605469 169.851562 32.527344 174.246094 C 30.449219 178.644531 28.476562 183.085938 26.617188 187.578125 C 24.757812 192.070312 23.007812 196.605469 21.371094 201.183594 C 19.730469 205.761719 18.207031 210.378906 16.796875 215.03125 C 15.382812 219.683594 14.085938 224.367188 12.90625 229.085938 C 11.726562 233.800781 10.660156 238.542969 9.710938 243.3125 C 8.761719 248.082031 7.929688 252.871094 7.21875 257.679688 C 6.503906 262.488281 5.910156 267.3125 5.433594 272.152344 C 4.957031 276.992188 4.597656 281.839844 4.359375 286.695312 C 4.121094 291.550781 4.003906 296.410156 4.003906 301.273438 L 4.003906 423.574219 C 4.003906 418.710938 4.121094 413.851562 4.359375 408.996094 C 4.597656 404.140625 4.957031 399.292969 5.433594 394.453125 C 5.910156 389.613281 6.503906 384.789062 7.21875 379.980469 C 7.929688 375.171875 8.761719 370.382812 9.710938 365.613281 C 10.660156 360.84375 11.726562 356.101562 12.90625 351.382812 C 14.085938 346.667969 15.382812 341.984375 16.796875 337.332031 C 18.207031 332.675781 19.730469 328.0625 21.371094 323.484375 C 23.007812 318.90625 24.757812 314.371094 26.617188 309.878906 C 28.476562 305.386719 30.449219 300.941406 32.527344 296.546875 C 34.605469 292.152344 36.792969 287.808594 39.082031 283.523438 C 41.375 279.234375 43.769531 275.003906 46.269531 270.835938 C 48.769531 266.664062 51.371094 262.558594 54.074219 258.515625 C 56.773438 254.472656 59.574219 250.496094 62.46875 246.59375 C 65.367188 242.6875 68.355469 238.855469 71.441406 235.097656 C 74.527344 231.335938 77.699219 227.65625 80.964844 224.054688 C 84.230469 220.453125 87.582031 216.929688 91.019531 213.492188 C 94.457031 210.054688 97.980469 206.703125 101.582031 203.4375 C 105.183594 200.171875 108.867188 196.996094 112.625 193.914062 C 116.382812 190.828125 120.214844 187.839844 124.121094 184.941406 C 128.023438 182.046875 132 179.246094 136.042969 176.542969 C 140.085938 173.84375 144.191406 171.242188 148.363281 168.742188 C 152.53125 166.242188 156.761719 163.847656 161.050781 161.554688 C 165.339844 159.265625 169.679688 157.078125 174.074219 155 C 178.46875 152.921875 182.914062 150.949219 187.40625 149.089844 C 191.898438 147.230469 196.433594 145.480469 201.011719 143.84375 C 205.589844 142.203125 210.207031 140.679688 214.859375 139.269531 C 219.511719 137.855469 224.195312 136.558594 228.914062 135.378906 C 233.628906 134.195312 238.371094 133.132812 243.140625 132.183594 C 247.910156 131.234375 252.699219 130.402344 257.507812 129.691406 C 262.316406 128.976562 267.140625 128.382812 271.980469 127.90625 C 276.820312 127.429688 281.667969 127.070312 286.523438 126.832031 C 291.378906 126.59375 296.238281 126.476562 301.101562 126.476562 L 1189.691406 126.476562 C 1194.550781 126.476562 1199.410156 126.59375 1204.269531 126.832031 C 1209.125 127.070312 1213.972656 127.429688 1218.8125 127.90625 C 1223.648438 128.382812 1228.472656 128.976562 1233.285156 129.691406 C 1238.09375 130.402344 1242.882812 131.234375 1247.652344 132.183594 C 1252.417969 133.132812 1257.164062 134.195312 1261.878906 135.378906 C 1266.59375 136.558594 1271.28125 137.855469 1275.933594 139.269531 C 1280.585938 140.679688 1285.203125 142.203125 1289.78125 143.84375 C 1294.355469 145.480469 1298.890625 147.230469 1303.382812 149.089844 C 1307.875 150.949219 1312.320312 152.921875 1316.714844 155 C 1321.113281 157.078125 1325.453125 159.261719 1329.742188 161.554688 C 1334.03125 163.847656 1338.257812 166.242188 1342.429688 168.742188 C 1346.597656 171.242188 1350.707031 173.84375 1354.75 176.542969 C 1358.792969 179.246094 1362.765625 182.046875 1366.671875 184.941406 C 1370.578125 187.839844 1374.410156 190.828125 1378.167969 193.914062 C 1381.925781 196.996094 1385.605469 200.171875 1389.210938 203.4375 C 1392.8125 206.703125 1396.332031 210.054688 1399.769531 213.492188 C 1403.207031 216.929688 1406.558594 220.453125 1409.824219 224.054688 C 1413.089844 227.65625 1416.265625 231.335938 1419.351562 235.097656 C 1422.433594 238.855469 1425.425781 242.6875 1428.320312 246.59375 C 1431.21875 250.496094 1434.015625 254.472656 1436.71875 258.515625 C 1439.417969 262.558594 1442.019531 266.664062 1444.519531 270.835938 C 1447.019531 275.003906 1449.414062 279.234375 1451.707031 283.523438 C 1454 287.808594 1456.183594 292.152344 1458.265625 296.546875 C 1460.34375 300.941406 1462.3125 305.386719 1464.171875 309.878906 C 1466.035156 314.371094 1467.785156 318.90625 1469.421875 323.484375 C 1471.058594 328.0625 1472.585938 332.675781 1473.996094 337.332031 C 1475.40625 341.984375 1476.703125 346.667969 1477.886719 351.382812 C 1479.066406 356.101562 1480.132812 360.84375 1481.078125 365.613281 C 1482.027344 370.382812 1482.859375 375.171875 1483.574219 379.980469 C 1484.285156 384.789062 1484.882812 389.613281 1485.359375 394.453125 C 1485.835938 399.292969 1486.191406 404.140625 1486.429688 408.996094 C 1486.667969 413.851562 1486.789062 418.710938 1486.789062 423.574219 L 1486.789062 301.160156 C 1486.785156 296.300781 1486.664062 291.441406 1486.425781 286.585938 C 1486.183594 281.730469 1485.824219 276.886719 1485.347656 272.046875 C 1484.871094 267.210938 1484.273438 262.386719 1483.558594 257.578125 C 1482.84375 252.769531 1482.011719 247.984375 1481.0625 243.214844 C 1480.109375 238.449219 1479.046875 233.707031 1477.863281 228.992188 C 1476.679688 224.277344 1475.382812 219.59375 1473.96875 214.941406 C 1472.558594 210.292969 1471.03125 205.679688 1469.390625 201.101562 C 1467.753906 196.523438 1466.003906 191.992188 1464.140625 187.5 C 1462.28125 183.011719 1460.308594 178.570312 1458.230469 174.175781 C 1456.148438 169.78125 1453.964844 165.441406 1451.671875 161.15625 C 1449.378906 156.867188 1446.980469 152.640625 1444.480469 148.472656 C 1441.980469 144.300781 1439.382812 140.199219 1436.679688 136.15625 C 1433.976562 132.113281 1431.179688 128.140625 1428.28125 124.238281 C 1425.386719 120.335938 1422.394531 116.503906 1419.308594 112.746094 C 1416.226562 108.992188 1413.050781 105.3125 1409.785156 101.710938 C 1406.519531 98.109375 1403.167969 94.589844 1399.730469 91.152344 C 1396.292969 87.71875 1392.773438 84.367188 1389.171875 81.101562 C 1385.566406 77.839844 1381.886719 74.664062 1378.128906 71.582031 C 1374.371094 68.5 1370.539062 65.511719 1366.636719 62.613281 C 1362.730469 59.71875 1358.757812 56.921875 1354.714844 54.222656 C 1350.671875 51.523438 1346.566406 48.921875 1342.394531 46.425781 C 1338.226562 43.925781 1333.996094 41.53125 1329.710938 39.238281 C 1325.421875 36.949219 1321.082031 34.765625 1316.6875 32.6875 C 1312.292969 30.609375 1307.851562 28.640625 1303.359375 26.78125 C 1298.867188 24.921875 1294.332031 23.171875 1289.757812 21.535156 C 1285.179688 19.898438 1280.566406 18.371094 1275.914062 16.960938 C 1271.261719 15.550781 1266.578125 14.253906 1261.863281 13.074219 C 1257.148438 11.894531 1252.40625 10.828125 1247.636719 9.882812 C 1242.871094 8.933594 1238.082031 8.101562 1233.273438 7.390625 C 1228.464844 6.675781 1223.640625 6.082031 1218.804688 5.605469 C 1213.964844 5.128906 1209.121094 4.769531 1204.265625 4.53125 C 1199.410156 4.292969 1194.550781 4.175781 1189.691406 4.175781 Z M 1189.691406 4.175781 " fill-opacity="1" fill-rule="nonzero"/></g></g></g><g clip-path="url(#110343b4dc)"><path fill="#00bf63" d="M 1336.691406 1661.941406 L 448.101562 1661.941406 C 442.78125 1661.933594 437.464844 1661.796875 432.148438 1661.53125 C 426.835938 1661.265625 421.53125 1660.867188 416.238281 1660.339844 C 410.945312 1659.816406 405.667969 1659.160156 400.40625 1658.371094 C 395.140625 1657.585938 389.902344 1656.671875 384.6875 1655.628906 C 379.46875 1654.589844 374.28125 1653.417969 369.121094 1652.121094 C 363.960938 1650.824219 358.835938 1649.402344 353.746094 1647.855469 C 348.65625 1646.304688 343.605469 1644.632812 338.597656 1642.839844 C 333.589844 1641.042969 328.628906 1639.125 323.714844 1637.085938 C 318.800781 1635.046875 313.9375 1632.890625 309.128906 1630.613281 C 304.320312 1628.335938 299.574219 1625.941406 294.882812 1623.433594 C 290.191406 1620.921875 285.5625 1618.300781 281 1615.5625 C 276.4375 1612.824219 271.945312 1609.976562 267.523438 1607.019531 C 263.101562 1604.0625 258.753906 1601 254.480469 1597.832031 C 250.207031 1594.660156 246.015625 1591.386719 241.902344 1588.011719 C 237.789062 1584.636719 233.765625 1581.160156 229.820312 1577.589844 C 225.878906 1574.015625 222.027344 1570.347656 218.265625 1566.585938 C 214.503906 1562.824219 210.835938 1558.972656 207.261719 1555.03125 C 203.691406 1551.085938 200.214844 1547.0625 196.839844 1542.949219 C 193.464844 1538.835938 190.191406 1534.644531 187.019531 1530.371094 C 183.851562 1526.097656 180.785156 1521.75 177.828125 1517.328125 C 174.871094 1512.90625 172.027344 1508.414062 169.289062 1503.851562 C 166.550781 1499.289062 163.929688 1494.660156 161.417969 1489.96875 C 158.910156 1485.277344 156.515625 1480.527344 154.238281 1475.722656 C 151.960938 1470.914062 149.800781 1466.050781 147.765625 1461.136719 C 145.726562 1456.222656 143.808594 1451.261719 142.011719 1446.253906 C 140.214844 1441.246094 138.542969 1436.195312 136.996094 1431.105469 C 135.449219 1426.015625 134.027344 1420.890625 132.730469 1415.730469 C 131.433594 1410.570312 130.261719 1405.382812 129.21875 1400.164062 C 128.179688 1394.949219 127.265625 1389.707031 126.476562 1384.445312 C 125.691406 1379.183594 125.035156 1373.90625 124.507812 1368.613281 C 123.984375 1363.316406 123.585938 1358.015625 123.320312 1352.699219 C 123.050781 1347.386719 122.914062 1342.070312 122.910156 1336.75 L 122.910156 448.160156 C 122.914062 442.839844 123.050781 437.523438 123.320312 432.210938 C 123.585938 426.898438 123.984375 421.59375 124.507812 416.296875 C 125.035156 411.003906 125.691406 405.726562 126.476562 400.464844 C 127.265625 395.203125 128.179688 389.960938 129.21875 384.746094 C 130.261719 379.527344 131.433594 374.339844 132.730469 369.179688 C 134.027344 364.019531 135.449219 358.894531 136.996094 353.804688 C 138.542969 348.714844 140.214844 343.664062 142.011719 338.65625 C 143.808594 333.648438 145.726562 328.6875 147.765625 323.773438 C 149.804688 318.859375 151.960938 314 154.238281 309.191406 C 156.515625 304.382812 158.910156 299.632812 161.417969 294.941406 C 163.929688 290.25 166.550781 285.625 169.289062 281.0625 C 172.027344 276.5 174.871094 272.007812 177.828125 267.582031 C 180.785156 263.160156 183.851562 258.8125 187.019531 254.539062 C 190.191406 250.265625 193.464844 246.074219 196.839844 241.960938 C 200.214844 237.851562 203.691406 233.824219 207.261719 229.882812 C 210.835938 225.941406 214.503906 222.089844 218.265625 218.324219 C 222.027344 214.5625 225.878906 210.894531 229.820312 207.324219 C 233.765625 203.75 237.789062 200.277344 241.902344 196.898438 C 246.015625 193.523438 250.207031 190.25 254.480469 187.082031 C 258.753906 183.910156 263.101562 180.847656 267.523438 177.890625 C 271.945312 174.933594 276.4375 172.085938 281 169.347656 C 285.5625 166.613281 290.191406 163.988281 294.882812 161.480469 C 299.574219 158.96875 304.320312 156.574219 309.128906 154.296875 C 313.9375 152.019531 318.800781 149.863281 323.714844 147.824219 C 328.628906 145.785156 333.589844 143.867188 338.597656 142.070312 C 343.605469 140.277344 348.65625 138.605469 353.746094 137.054688 C 358.835938 135.507812 363.960938 134.085938 369.121094 132.789062 C 374.28125 131.492188 379.46875 130.324219 384.6875 129.28125 C 389.902344 128.238281 395.140625 127.324219 400.40625 126.539062 C 405.667969 125.753906 410.945312 125.097656 416.238281 124.570312 C 421.53125 124.042969 426.835938 123.644531 432.148438 123.378906 C 437.464844 123.113281 442.78125 122.976562 448.101562 122.96875 L 1336.691406 122.96875 C 1342.011719 122.976562 1347.328125 123.113281 1352.640625 123.378906 C 1357.953125 123.644531 1363.257812 124.042969 1368.550781 124.570312 C 1373.847656 125.097656 1379.125 125.753906 1384.386719 126.539062 C 1389.648438 127.324219 1394.886719 128.238281 1400.105469 129.28125 C 1405.324219 130.324219 1410.511719 131.492188 1415.671875 132.789062 C 1420.832031 134.085938 1425.957031 135.507812 1431.046875 137.054688 C 1436.136719 138.605469 1441.183594 140.277344 1446.195312 142.070312 C 1451.203125 143.867188 1456.164062 145.785156 1461.078125 147.824219 C 1465.992188 149.863281 1470.851562 152.019531 1475.660156 154.296875 C 1480.46875 156.574219 1485.21875 158.96875 1489.910156 161.480469 C 1494.601562 163.988281 1499.226562 166.613281 1503.789062 169.347656 C 1508.351562 172.085938 1512.84375 174.933594 1517.269531 177.890625 C 1521.691406 180.847656 1526.039062 183.910156 1530.3125 187.082031 C 1534.582031 190.25 1538.777344 193.523438 1542.886719 196.898438 C 1547 200.277344 1551.027344 203.75 1554.96875 207.324219 C 1558.910156 210.894531 1562.761719 214.5625 1566.523438 218.324219 C 1570.289062 222.089844 1573.953125 225.941406 1577.527344 229.882812 C 1581.101562 233.824219 1584.574219 237.851562 1587.953125 241.960938 C 1591.328125 246.074219 1594.601562 250.265625 1597.769531 254.539062 C 1600.941406 258.8125 1604.003906 263.160156 1606.960938 267.582031 C 1609.917969 272.007812 1612.765625 276.5 1615.503906 281.0625 C 1618.238281 285.625 1620.863281 290.25 1623.371094 294.941406 C 1625.882812 299.632812 1628.277344 304.382812 1630.554688 309.191406 C 1632.832031 314 1634.988281 318.859375 1637.027344 323.773438 C 1639.066406 328.6875 1640.984375 333.648438 1642.777344 338.65625 C 1644.574219 343.664062 1646.246094 348.714844 1647.792969 353.804688 C 1649.34375 358.894531 1650.765625 364.019531 1652.0625 369.179688 C 1653.359375 374.339844 1654.527344 379.527344 1655.570312 384.746094 C 1656.613281 389.960938 1657.527344 395.203125 1658.3125 400.464844 C 1659.097656 405.726562 1659.753906 411.003906 1660.28125 416.296875 C 1660.808594 421.59375 1661.207031 426.898438 1661.472656 432.210938 C 1661.738281 437.523438 1661.875 442.839844 1661.882812 448.160156 L 1661.882812 1336.75 C 1661.875 1342.070312 1661.738281 1347.386719 1661.472656 1352.699219 C 1661.207031 1358.015625 1660.808594 1363.320312 1660.28125 1368.613281 C 1659.753906 1373.90625 1659.097656 1379.183594 1658.3125 1384.445312 C 1657.527344 1389.707031 1656.613281 1394.949219 1655.570312 1400.164062 C 1654.527344 1405.382812 1653.359375 1410.570312 1652.0625 1415.730469 C 1650.765625 1420.890625 1649.34375 1426.015625 1647.792969 1431.105469 C 1646.246094 1436.195312 1644.574219 1441.246094 1642.777344 1446.253906 C 1640.984375 1451.261719 1639.066406 1456.222656 1637.027344 1461.136719 C 1634.988281 1466.050781 1632.832031 1470.914062 1630.554688 1475.722656 C 1628.277344 1480.53125 1625.882812 1485.277344 1623.371094 1489.96875 C 1620.863281 1494.660156 1618.238281 1499.289062 1615.503906 1503.851562 C 1612.765625 1508.414062 1609.917969 1512.90625 1606.960938 1517.328125 C 1604.003906 1521.75 1600.941406 1526.097656 1597.769531 1530.371094 C 1594.601562 1534.644531 1591.328125 1538.835938 1587.953125 1542.949219 C 1584.574219 1547.0625 1581.101562 1551.085938 1577.527344 1555.03125 C 1573.953125 1558.972656 1570.289062 1562.824219 1566.523438 1566.585938 C 1562.761719 1570.347656 1558.910156 1574.015625 1554.96875 1577.589844 C 1551.027344 1581.160156 1547 1584.636719 1542.886719 1588.011719 C 1538.777344 1591.386719 1534.582031 1594.660156 1530.3125 1597.832031 C 1526.039062 1601 1521.691406 1604.066406 1517.269531 1607.023438 C 1512.84375 1609.980469 1508.351562 1612.824219 1503.789062 1615.5625 C 1499.226562 1618.300781 1494.601562 1620.921875 1489.910156 1623.433594 C 1485.21875 1625.941406 1480.46875 1628.335938 1475.660156 1630.613281 C 1470.851562 1632.890625 1465.992188 1635.046875 1461.078125 1637.085938 C 1456.164062 1639.125 1451.203125 1641.042969 1446.195312 1642.839844 C 1441.183594 1644.632812 1436.136719 1646.304688 1431.046875 1647.855469 C 1425.957031 1649.402344 1420.832031 1650.824219 1415.671875 1652.121094 C 1410.511719 1653.417969 1405.324219 1654.589844 1400.105469 1655.632812 C 1394.886719 1656.671875 1389.648438 1657.585938 1384.386719 1658.371094 C 1379.125 1659.160156 1373.847656 1659.816406 1368.550781 1660.339844 C 1363.257812 1660.867188 1357.953125 1661.265625 1352.640625 1661.53125 C 1347.328125 1661.796875 1342.011719 1661.933594 1336.691406 1661.941406 Z M 448.101562 179.382812 C 443.703125 179.386719 439.308594 179.5 434.917969 179.71875 C 430.523438 179.9375 426.140625 180.265625 421.765625 180.703125 C 417.390625 181.136719 413.027344 181.679688 408.679688 182.328125 C 404.328125 182.976562 399.996094 183.734375 395.6875 184.59375 C 391.375 185.457031 387.085938 186.421875 382.820312 187.496094 C 378.554688 188.566406 374.320312 189.742188 370.113281 191.023438 C 365.90625 192.300781 361.730469 193.683594 357.59375 195.167969 C 353.453125 196.652344 349.351562 198.234375 345.289062 199.921875 C 341.226562 201.605469 337.210938 203.390625 333.234375 205.273438 C 329.261719 207.152344 325.335938 209.132812 321.457031 211.207031 C 317.582031 213.28125 313.757812 215.449219 309.984375 217.710938 C 306.214844 219.972656 302.5 222.328125 298.847656 224.769531 C 295.191406 227.214844 291.597656 229.746094 288.066406 232.367188 C 284.535156 234.988281 281.070312 237.691406 277.667969 240.484375 C 274.269531 243.273438 270.941406 246.144531 267.683594 249.097656 C 264.425781 252.050781 261.242188 255.082031 258.132812 258.191406 C 255.023438 261.300781 251.992188 264.484375 249.039062 267.742188 C 246.085938 271.003906 243.214844 274.332031 240.421875 277.730469 C 237.632812 281.128906 234.929688 284.59375 232.308594 288.125 C 229.6875 291.65625 227.15625 295.25 224.710938 298.90625 C 222.265625 302.5625 219.914062 306.273438 217.652344 310.046875 C 215.390625 313.816406 213.222656 317.640625 211.148438 321.519531 C 209.070312 325.394531 207.09375 329.320312 205.210938 333.296875 C 203.328125 337.269531 201.546875 341.289062 199.859375 345.351562 C 198.175781 349.410156 196.589844 353.511719 195.105469 357.652344 C 193.621094 361.792969 192.242188 365.964844 190.960938 370.171875 C 189.683594 374.378906 188.507812 378.613281 187.433594 382.878906 C 186.363281 387.144531 185.398438 391.433594 184.535156 395.746094 C 183.671875 400.058594 182.917969 404.386719 182.269531 408.738281 C 181.621094 413.085938 181.078125 417.449219 180.640625 421.824219 C 180.207031 426.203125 179.878906 430.585938 179.660156 434.976562 C 179.4375 439.367188 179.324219 443.765625 179.320312 448.160156 L 179.320312 1336.75 C 179.324219 1341.148438 179.4375 1345.542969 179.660156 1349.933594 C 179.878906 1354.324219 180.207031 1358.710938 180.640625 1363.085938 C 181.078125 1367.460938 181.621094 1371.824219 182.269531 1376.171875 C 182.917969 1380.523438 183.671875 1384.851562 184.535156 1389.164062 C 185.398438 1393.476562 186.363281 1397.765625 187.433594 1402.03125 C 188.507812 1406.296875 189.683594 1410.53125 190.960938 1414.738281 C 192.242188 1418.945312 193.621094 1423.121094 195.105469 1427.257812 C 196.589844 1431.398438 198.175781 1435.5 199.859375 1439.5625 C 201.546875 1443.621094 203.328125 1447.640625 205.210938 1451.613281 C 207.09375 1455.589844 209.070312 1459.515625 211.148438 1463.390625 C 213.222656 1467.269531 215.390625 1471.09375 217.652344 1474.863281 C 219.914062 1478.636719 222.265625 1482.347656 224.710938 1486.003906 C 227.15625 1489.660156 229.6875 1493.253906 232.308594 1496.785156 C 234.925781 1500.316406 237.632812 1503.78125 240.421875 1507.179688 C 243.214844 1510.582031 246.085938 1513.910156 249.039062 1517.167969 C 251.992188 1520.425781 255.023438 1523.609375 258.132812 1526.71875 C 261.242188 1529.828125 264.425781 1532.859375 267.683594 1535.8125 C 270.941406 1538.765625 274.269531 1541.636719 277.667969 1544.425781 C 281.070312 1547.21875 284.535156 1549.921875 288.066406 1552.542969 C 291.597656 1555.164062 295.191406 1557.695312 298.847656 1560.140625 C 302.5 1562.585938 306.214844 1564.9375 309.984375 1567.199219 C 313.757812 1569.460938 317.582031 1571.628906 321.457031 1573.703125 C 325.335938 1575.777344 329.261719 1577.757812 333.234375 1579.640625 C 337.210938 1581.519531 341.226562 1583.304688 345.289062 1584.988281 C 349.351562 1586.675781 353.453125 1588.261719 357.59375 1589.742188 C 361.730469 1591.226562 365.90625 1592.609375 370.113281 1593.890625 C 374.320312 1595.167969 378.554688 1596.34375 382.820312 1597.417969 C 387.085938 1598.488281 391.375 1599.453125 395.6875 1600.316406 C 399.996094 1601.175781 404.328125 1601.933594 408.679688 1602.582031 C 413.027344 1603.230469 417.390625 1603.773438 421.765625 1604.207031 C 426.140625 1604.644531 430.523438 1604.972656 434.917969 1605.191406 C 439.308594 1605.414062 443.703125 1605.523438 448.101562 1605.53125 L 1336.691406 1605.53125 C 1341.085938 1605.523438 1345.480469 1605.414062 1349.875 1605.191406 C 1354.265625 1604.972656 1358.648438 1604.644531 1363.023438 1604.207031 C 1367.402344 1603.773438 1371.765625 1603.230469 1376.113281 1602.582031 C 1380.460938 1601.933594 1384.792969 1601.175781 1389.105469 1600.316406 C 1393.417969 1599.453125 1397.707031 1598.488281 1401.972656 1597.414062 C 1406.234375 1596.34375 1410.472656 1595.167969 1414.679688 1593.890625 C 1418.886719 1592.609375 1423.058594 1591.226562 1427.199219 1589.742188 C 1431.339844 1588.261719 1435.4375 1586.675781 1439.5 1584.992188 C 1443.5625 1583.304688 1447.582031 1581.523438 1451.554688 1579.640625 C 1455.53125 1577.757812 1459.457031 1575.777344 1463.332031 1573.703125 C 1467.210938 1571.628906 1471.035156 1569.460938 1474.804688 1567.199219 C 1478.574219 1564.9375 1482.289062 1562.585938 1485.945312 1560.140625 C 1489.601562 1557.695312 1493.195312 1555.164062 1496.726562 1552.542969 C 1500.257812 1549.921875 1503.722656 1547.21875 1507.121094 1544.429688 C 1510.519531 1541.636719 1513.847656 1538.765625 1517.105469 1535.8125 C 1520.367188 1532.859375 1523.550781 1529.828125 1526.660156 1526.71875 C 1529.769531 1523.609375 1532.800781 1520.425781 1535.753906 1517.167969 C 1538.707031 1513.910156 1541.578125 1510.582031 1544.367188 1507.179688 C 1547.15625 1503.78125 1549.863281 1500.316406 1552.484375 1496.785156 C 1555.105469 1493.253906 1557.636719 1489.660156 1560.082031 1486.003906 C 1562.523438 1482.347656 1564.878906 1478.636719 1567.140625 1474.863281 C 1569.402344 1471.09375 1571.570312 1467.269531 1573.644531 1463.390625 C 1575.71875 1459.515625 1577.699219 1455.589844 1579.578125 1451.613281 C 1581.460938 1447.640625 1583.246094 1443.621094 1584.929688 1439.5625 C 1586.617188 1435.5 1588.199219 1431.398438 1589.683594 1427.257812 C 1591.167969 1423.121094 1592.550781 1418.945312 1593.828125 1414.738281 C 1595.109375 1410.53125 1596.285156 1406.296875 1597.355469 1402.03125 C 1598.429688 1397.765625 1599.394531 1393.476562 1600.257812 1389.164062 C 1601.117188 1384.851562 1601.871094 1380.523438 1602.523438 1376.171875 C 1603.171875 1371.824219 1603.714844 1367.460938 1604.148438 1363.085938 C 1604.582031 1358.710938 1604.910156 1354.324219 1605.132812 1349.933594 C 1605.351562 1345.542969 1605.464844 1341.148438 1605.46875 1336.75 L 1605.46875 448.160156 C 1605.464844 443.765625 1605.351562 439.367188 1605.132812 434.976562 C 1604.910156 430.585938 1604.582031 426.203125 1604.148438 421.824219 C 1603.714844 417.449219 1603.171875 413.085938 1602.523438 408.738281 C 1601.871094 404.386719 1601.117188 400.058594 1600.257812 395.746094 C 1599.394531 391.433594 1598.429688 387.144531 1597.355469 382.878906 C 1596.285156 378.613281 1595.109375 374.378906 1593.828125 370.171875 C 1592.550781 365.964844 1591.167969 361.792969 1589.683594 357.652344 C 1588.199219 353.511719 1586.617188 349.410156 1584.929688 345.351562 C 1583.246094 341.289062 1581.460938 337.269531 1579.578125 333.296875 C 1577.695312 329.320312 1575.71875 325.394531 1573.644531 321.519531 C 1571.570312 317.640625 1569.402344 313.816406 1567.140625 310.046875 C 1564.878906 306.273438 1562.523438 302.5625 1560.082031 298.90625 C 1557.636719 295.25 1555.105469 291.65625 1552.484375 288.125 C 1549.863281 284.59375 1547.15625 281.128906 1544.367188 277.730469 C 1541.578125 274.332031 1538.707031 271.003906 1535.753906 267.742188 C 1532.800781 264.484375 1529.769531 261.300781 1526.660156 258.191406 C 1523.550781 255.082031 1520.363281 252.050781 1517.105469 249.097656 C 1513.847656 246.144531 1510.519531 243.273438 1507.121094 240.484375 C 1503.722656 237.691406 1500.257812 234.988281 1496.726562 232.367188 C 1493.195312 229.746094 1489.601562 227.214844 1485.945312 224.769531 C 1482.289062 222.328125 1478.574219 219.972656 1474.804688 217.710938 C 1471.035156 215.449219 1467.210938 213.28125 1463.332031 211.207031 C 1459.453125 209.132812 1455.527344 207.152344 1451.554688 205.273438 C 1447.582031 203.390625 1443.5625 201.605469 1439.5 199.921875 C 1435.4375 198.234375 1431.339844 196.652344 1427.199219 195.167969 C 1423.058594 193.683594 1418.886719 192.300781 1414.679688 191.023438 C 1410.472656 189.742188 1406.234375 188.566406 1401.972656 187.496094 C 1397.707031 186.421875 1393.417969 185.457031 1389.105469 184.59375 C 1384.792969 183.734375 1380.460938 182.976562 1376.113281 182.328125 C 1371.765625 181.679688 1367.402344 181.136719 1363.023438 180.703125 C 1358.648438 180.265625 1354.265625 179.9375 1349.875 179.71875 C 1345.480469 179.5 1341.085938 179.386719 1336.691406 179.382812 Z M 448.101562 179.382812 " fill-opacity="1" fill-rule="nonzero"/></g><g mask="url(#06b04086ae)"><g transform="matrix(1, 0, 0, 1, 271, 365)"><g clip-path="url(#be2b38f69f)"><path fill="#ffffff" d="M 114.785156 60.144531 C 114.785156 62.003906 114.695312 63.859375 114.511719 65.710938 C 114.328125 67.5625 114.058594 69.398438 113.695312 71.222656 C 113.332031 73.046875 112.878906 74.851562 112.339844 76.628906 C 111.800781 78.410156 111.175781 80.160156 110.464844 81.878906 C 109.75 83.59375 108.957031 85.273438 108.082031 86.914062 C 107.203125 88.554688 106.25 90.148438 105.214844 91.695312 C 104.183594 93.242188 103.074219 94.734375 101.894531 96.171875 C 100.714844 97.609375 99.46875 98.984375 98.152344 100.300781 C 96.839844 101.617188 95.460938 102.863281 94.023438 104.042969 C 92.585938 105.222656 91.09375 106.328125 89.546875 107.363281 C 88 108.394531 86.40625 109.351562 84.769531 110.226562 C 83.128906 111.105469 81.449219 111.898438 79.730469 112.609375 C 78.011719 113.320312 76.261719 113.949219 74.484375 114.488281 C 72.703125 115.027344 70.902344 115.480469 69.078125 115.839844 C 67.253906 116.203125 65.414062 116.476562 63.566406 116.660156 C 61.714844 116.839844 59.859375 116.933594 58 116.933594 C 56.140625 116.933594 54.285156 116.839844 52.433594 116.660156 C 50.582031 116.476562 48.742188 116.203125 46.917969 115.839844 C 45.097656 115.480469 43.292969 115.027344 41.515625 114.488281 C 39.734375 113.949219 37.984375 113.320312 36.265625 112.609375 C 34.546875 111.898438 32.871094 111.105469 31.230469 110.226562 C 29.589844 109.351562 27.996094 108.394531 26.449219 107.363281 C 24.902344 106.328125 23.410156 105.222656 21.972656 104.042969 C 20.535156 102.863281 19.160156 101.617188 17.84375 100.300781 C 16.527344 98.984375 15.28125 97.609375 14.101562 96.171875 C 12.921875 94.734375 11.816406 93.242188 10.78125 91.695312 C 9.75 90.148438 8.792969 88.554688 7.917969 86.914062 C 7.039062 85.273438 6.246094 83.59375 5.535156 81.878906 C 4.820312 80.160156 4.195312 78.410156 3.65625 76.628906 C 3.117188 74.851562 2.664062 73.046875 2.300781 71.222656 C 1.941406 69.398438 1.667969 67.5625 1.484375 65.710938 C 1.300781 63.859375 1.210938 62.003906 1.210938 60.144531 C 1.210938 58.285156 1.300781 56.429688 1.484375 54.578125 C 1.667969 52.726562 1.941406 50.890625 2.300781 49.066406 C 2.664062 47.242188 3.117188 45.441406 3.65625 43.660156 C 4.195312 41.882812 4.820312 40.132812 5.535156 38.414062 C 6.246094 36.695312 7.039062 35.015625 7.917969 33.375 C 8.792969 31.734375 9.75 30.140625 10.78125 28.597656 C 11.816406 27.050781 12.921875 25.558594 14.101562 24.121094 C 15.28125 22.683594 16.527344 21.304688 17.84375 19.992188 C 19.160156 18.675781 20.535156 17.429688 21.972656 16.25 C 23.410156 15.070312 24.902344 13.960938 26.449219 12.929688 C 27.996094 11.894531 29.589844 10.941406 31.230469 10.0625 C 32.871094 9.1875 34.546875 8.394531 36.265625 7.679688 C 37.984375 6.96875 39.734375 6.34375 41.515625 5.804688 C 43.292969 5.261719 45.097656 4.8125 46.917969 4.449219 C 48.742188 4.085938 50.582031 3.8125 52.433594 3.632812 C 54.285156 3.449219 56.140625 3.359375 58 3.359375 C 59.859375 3.359375 61.714844 3.449219 63.566406 3.632812 C 65.414062 3.8125 67.253906 4.085938 69.078125 4.449219 C 70.902344 4.8125 72.703125 5.261719 74.484375 5.804688 C 76.261719 6.34375 78.011719 6.96875 79.730469 7.679688 C 81.449219 8.394531 83.128906 9.1875 84.769531 10.0625 C 86.40625 10.941406 88 11.894531 89.546875 12.929688 C 91.09375 13.960938 92.585938 15.070312 94.023438 16.25 C 95.460938 17.429688 96.839844 18.675781 98.152344 19.992188 C 99.46875 21.304688 100.714844 22.683594 101.894531 24.121094 C 103.074219 25.558594 104.183594 27.050781 105.214844 28.597656 C 106.25 30.140625 107.203125 31.734375 108.082031 33.375 C 108.957031 35.015625 109.75 36.695312 110.464844 38.414062 C 111.175781 40.132812 111.800781 41.882812 112.339844 43.660156 C 112.878906 45.441406 113.332031 47.242188 113.695312 49.066406 C 114.058594 50.890625 114.332031 52.726562 114.511719 54.578125 C 114.695312 56.429688 114.785156 58.285156 114.785156 60.144531 Z M 114.785156 60.144531 " fill-opacity="1" fill-rule="nonzero"/></g></g></g><g mask="url(#d006779de0)"><g transform="matrix(1, 0, 0, 1, 414, 320)"><g clip-path="url(#1c0f285980)"><path fill="#ffffff" d="M 58.394531 30.195312 C 58.394531 31.125 58.351562 32.050781 58.257812 32.976562 C 58.167969 33.902344 58.03125 34.820312 57.851562 35.734375 C 57.667969 36.644531 57.441406 37.546875 57.171875 38.4375 C 56.902344 39.324219 56.589844 40.199219 56.234375 41.058594 C 55.878906 41.917969 55.480469 42.757812 55.042969 43.578125 C 54.605469 44.398438 54.128906 45.195312 53.609375 45.96875 C 53.09375 46.742188 52.539062 47.488281 51.949219 48.207031 C 51.359375 48.925781 50.738281 49.613281 50.078125 50.269531 C 49.421875 50.929688 48.734375 51.550781 48.015625 52.140625 C 47.296875 52.730469 46.550781 53.285156 45.777344 53.800781 C 45.003906 54.320312 44.207031 54.796875 43.386719 55.234375 C 42.566406 55.671875 41.726562 56.070312 40.867188 56.425781 C 40.007812 56.78125 39.132812 57.09375 38.246094 57.363281 C 37.355469 57.636719 36.453125 57.859375 35.542969 58.042969 C 34.628906 58.222656 33.710938 58.359375 32.785156 58.449219 C 31.859375 58.542969 30.933594 58.585938 30.003906 58.585938 C 29.070312 58.585938 28.144531 58.542969 27.21875 58.449219 C 26.292969 58.359375 25.375 58.222656 24.460938 58.042969 C 23.550781 57.859375 22.648438 57.636719 21.761719 57.363281 C 20.871094 57.09375 19.996094 56.78125 19.136719 56.425781 C 18.277344 56.070312 17.4375 55.671875 16.617188 55.234375 C 15.796875 54.796875 15 54.320312 14.226562 53.800781 C 13.453125 53.285156 12.707031 52.730469 11.988281 52.140625 C 11.269531 51.550781 10.582031 50.929688 9.925781 50.269531 C 9.265625 49.613281 8.644531 48.925781 8.054688 48.207031 C 7.464844 47.488281 6.910156 46.742188 6.394531 45.96875 C 5.878906 45.195312 5.398438 44.398438 4.960938 43.578125 C 4.523438 42.757812 4.125 41.917969 3.769531 41.058594 C 3.414062 40.199219 3.101562 39.324219 2.832031 38.4375 C 2.5625 37.546875 2.335938 36.644531 2.152344 35.734375 C 1.972656 34.820312 1.835938 33.902344 1.746094 32.976562 C 1.652344 32.050781 1.609375 31.125 1.609375 30.195312 C 1.609375 29.265625 1.652344 28.335938 1.746094 27.410156 C 1.835938 26.484375 1.972656 25.566406 2.152344 24.65625 C 2.335938 23.742188 2.5625 22.839844 2.832031 21.953125 C 3.101562 21.0625 3.414062 20.1875 3.769531 19.328125 C 4.125 18.46875 4.523438 17.628906 4.960938 16.808594 C 5.398438 15.988281 5.878906 15.191406 6.394531 14.417969 C 6.910156 13.644531 7.464844 12.898438 8.054688 12.179688 C 8.644531 11.460938 9.265625 10.773438 9.925781 10.117188 C 10.582031 9.460938 11.269531 8.835938 11.988281 8.246094 C 12.707031 7.65625 13.453125 7.101562 14.226562 6.585938 C 15 6.070312 15.796875 5.589844 16.617188 5.152344 C 17.4375 4.714844 18.277344 4.316406 19.136719 3.960938 C 19.996094 3.605469 20.871094 3.292969 21.761719 3.023438 C 22.648438 2.753906 23.550781 2.527344 24.460938 2.347656 C 25.375 2.164062 26.292969 2.027344 27.21875 1.9375 C 28.144531 1.847656 29.070312 1.800781 30.003906 1.800781 C 30.933594 1.800781 31.859375 1.847656 32.785156 1.9375 C 33.710938 2.027344 34.628906 2.164062 35.542969 2.347656 C 36.453125 2.527344 37.355469 2.753906 38.246094 3.023438 C 39.132812 3.292969 40.007812 3.605469 40.867188 3.960938 C 41.726562 4.316406 42.566406 4.714844 43.386719 5.152344 C 44.207031 5.589844 45.003906 6.070312 45.777344 6.585938 C 46.550781 7.101562 47.296875 7.65625 48.015625 8.246094 C 48.734375 8.835938 49.421875 9.460938 50.078125 10.117188 C 50.738281 10.773438 51.359375 11.460938 51.949219 12.179688 C 52.539062 12.898438 53.09375 13.644531 53.609375 14.417969 C 54.128906 15.191406 54.605469 15.988281 55.042969 16.808594 C 55.480469 17.628906 55.878906 18.46875 56.234375 19.328125 C 56.589844 20.1875 56.902344 21.0625 57.171875 21.953125 C 57.441406 22.839844 57.667969 23.742188 57.851562 24.65625 C 58.03125 25.566406 58.167969 26.484375 58.257812 27.410156 C 58.351562 28.335938 58.394531 29.265625 58.394531 30.195312 Z M 58.394531 30.195312 " fill-opacity="1" fill-rule="nonzero"/></g></g></g><g mask="url(#fb52f6ee0b)"><g transform="matrix(1, 0, 0, 1, 1384, 320)"><g clip-path="url(#70a5e1bf97)"><path fill="#ffffff" d="M 59.382812 30.195312 C 59.382812 31.125 59.335938 32.050781 59.246094 32.976562 C 59.15625 33.902344 59.019531 34.820312 58.835938 35.734375 C 58.65625 36.644531 58.429688 37.546875 58.160156 38.4375 C 57.890625 39.324219 57.578125 40.199219 57.222656 41.058594 C 56.863281 41.917969 56.46875 42.757812 56.03125 43.578125 C 55.589844 44.398438 55.113281 45.195312 54.597656 45.96875 C 54.082031 46.742188 53.527344 47.488281 52.9375 48.207031 C 52.347656 48.925781 51.722656 49.613281 51.066406 50.269531 C 50.410156 50.929688 49.71875 51.550781 49 52.140625 C 48.28125 52.730469 47.535156 53.285156 46.761719 53.800781 C 45.988281 54.320312 45.195312 54.796875 44.375 55.234375 C 43.554688 55.671875 42.714844 56.070312 41.855469 56.425781 C 40.996094 56.78125 40.121094 57.09375 39.230469 57.363281 C 38.339844 57.636719 37.441406 57.859375 36.527344 58.042969 C 35.617188 58.222656 34.695312 58.359375 33.773438 58.449219 C 32.847656 58.542969 31.917969 58.585938 30.988281 58.585938 C 30.058594 58.585938 29.132812 58.542969 28.207031 58.449219 C 27.28125 58.359375 26.359375 58.222656 25.449219 58.042969 C 24.535156 57.859375 23.636719 57.636719 22.746094 57.363281 C 21.855469 57.09375 20.980469 56.78125 20.121094 56.425781 C 19.261719 56.070312 18.425781 55.671875 17.605469 55.234375 C 16.785156 54.796875 15.988281 54.320312 15.214844 53.800781 C 14.441406 53.285156 13.695312 52.730469 12.976562 52.140625 C 12.257812 51.550781 11.570312 50.929688 10.910156 50.269531 C 10.253906 49.613281 9.628906 48.925781 9.039062 48.207031 C 8.449219 47.488281 7.898438 46.742188 7.378906 45.96875 C 6.863281 45.195312 6.386719 44.398438 5.949219 43.578125 C 5.507812 42.757812 5.113281 41.917969 4.757812 41.058594 C 4.402344 40.199219 4.085938 39.324219 3.816406 38.4375 C 3.546875 37.546875 3.320312 36.644531 3.140625 35.734375 C 2.960938 34.820312 2.824219 33.902344 2.730469 32.976562 C 2.640625 32.050781 2.59375 31.125 2.59375 30.195312 C 2.59375 29.265625 2.640625 28.335938 2.730469 27.410156 C 2.824219 26.484375 2.960938 25.566406 3.140625 24.65625 C 3.320312 23.742188 3.546875 22.839844 3.816406 21.953125 C 4.085938 21.0625 4.402344 20.1875 4.757812 19.328125 C 5.113281 18.46875 5.507812 17.628906 5.949219 16.808594 C 6.386719 15.988281 6.863281 15.191406 7.378906 14.417969 C 7.898438 13.644531 8.449219 12.898438 9.039062 12.179688 C 9.628906 11.460938 10.253906 10.773438 10.910156 10.117188 C 11.570312 9.460938 12.257812 8.835938 12.976562 8.246094 C 13.695312 7.65625 14.441406 7.101562 15.214844 6.585938 C 15.988281 6.070312 16.785156 5.589844 17.605469 5.152344 C 18.425781 4.714844 19.261719 4.316406 20.121094 3.960938 C 20.980469 3.605469 21.855469 3.292969 22.746094 3.023438 C 23.636719 2.753906 24.539062 2.527344 25.449219 2.347656 C 26.363281 2.164062 27.28125 2.027344 28.207031 1.9375 C 29.132812 1.847656 30.058594 1.800781 30.988281 1.800781 C 31.917969 1.800781 32.847656 1.847656 33.773438 1.9375 C 34.695312 2.027344 35.617188 2.164062 36.527344 2.347656 C 37.441406 2.527344 38.339844 2.753906 39.230469 3.023438 C 40.121094 3.292969 40.996094 3.605469 41.855469 3.960938 C 42.714844 4.316406 43.554688 4.714844 44.375 5.152344 C 45.195312 5.589844 45.988281 6.070312 46.761719 6.585938 C 47.535156 7.101562 48.28125 7.65625 49 8.246094 C 49.71875 8.835938 50.410156 9.460938 51.066406 10.117188 C 51.722656 10.773438 52.347656 11.460938 52.9375 12.179688 C 53.527344 12.898438 54.082031 13.644531 54.597656 14.417969 C 55.113281 15.191406 55.589844 15.988281 56.03125 16.808594 C 56.46875 17.628906 56.863281 18.46875 57.222656 19.328125 C 57.578125 20.1875 57.890625 21.0625 58.160156 21.953125 C 58.429688 22.839844 58.65625 23.742188 58.835938 24.65625 C 59.019531 25.566406 59.15625 26.484375 59.246094 27.410156 C 59.335938 28.335938 59.382812 29.265625 59.382812 30.195312 Z M 59.382812 30.195312 " fill-opacity="1" fill-rule="nonzero"/></g></g></g><g clip-path="url(#f809d39e84)"><path fill="#fefefe" d="M 1103.589844 1290.148438 L 680.761719 1290.148438 C 587.644531 1290.148438 512.097656 1214.632812 512.097656 1122.136719 L 512.097656 848.160156 C 512.097656 755.082031 587.644531 679.5625 680.761719 679.5625 L 874.019531 679.5625 L 874.605469 615.164062 C 849.425781 607.554688 830.683594 584.140625 830.683594 556.039062 C 830.683594 522.085938 858.792969 494.570312 892.761719 494.570312 C 926.726562 494.570312 954.839844 522.085938 954.839844 556.039062 C 954.839844 584.140625 935.511719 608.140625 909.746094 615.75 L 909.160156 679.5625 L 1103.589844 679.5625 C 1196.121094 679.5625 1271.667969 755.082031 1271.667969 848.160156 L 1271.667969 1122.722656 C 1271.667969 1215.214844 1196.121094 1290.148438 1103.589844 1290.148438 Z M 733.46875 1024.371094 C 683.6875 1024.371094 644.449219 985.148438 644.449219 935.972656 C 644.449219 886.214844 683.6875 846.992188 733.46875 846.992188 C 783.246094 846.992188 821.898438 886.214844 821.898438 935.972656 C 821.898438 985.148438 783.246094 1024.371094 733.46875 1024.371094 Z M 733.46875 882.113281 C 703.015625 882.113281 679.589844 905.53125 679.589844 935.972656 C 679.589844 965.828125 703.015625 989.246094 733.46875 989.246094 C 763.335938 989.246094 787.347656 965.828125 787.347656 935.972656 C 787.347656 905.53125 763.335938 882.113281 733.46875 882.113281 Z M 1051.46875 1020.859375 C 1001.691406 1020.859375 961.867188 981.050781 961.867188 931.875 C 961.867188 882.699219 1001.691406 842.890625 1051.46875 842.890625 C 1100.078125 842.890625 1139.898438 882.699219 1139.898438 931.875 C 1139.898438 981.050781 1100.078125 1020.859375 1051.46875 1020.859375 Z M 1051.46875 878.015625 C 1021.015625 878.015625 997.003906 902.605469 997.003906 931.875 C 997.003906 961.730469 1021.015625 986.320312 1051.46875 986.320312 C 1081.335938 986.320312 1104.761719 961.730469 1104.761719 931.875 C 1104.761719 901.433594 1080.75 878.015625 1051.46875 878.015625 Z M 885.734375 1127.402344 C 852.351562 1127.402344 823.070312 1111.597656 806.671875 1097.546875 C 799.058594 1091.109375 798.472656 1079.398438 804.914062 1072.960938 C 811.359375 1065.9375 821.898438 1064.765625 829.511719 1071.789062 C 834.785156 1076.472656 885.734375 1116.867188 934.339844 1072.375 C 941.371094 1065.9375 951.910156 1065.9375 959.523438 1072.960938 C 965.964844 1080.570312 965.964844 1091.109375 958.9375 1098.132812 C 934.339844 1119.207031 909.160156 1127.402344 885.734375 1127.402344 Z M 885.734375 1127.402344 " fill-opacity="1" fill-rule="evenodd"/></g><g clip-path="url(#42eba5c450)"><path fill="#fefefe" d="M 476.957031 1102.230469 L 469.929688 1102.230469 C 427.765625 1102.230469 392.628906 1067.691406 392.628906 1024.957031 L 392.628906 905.53125 C 392.628906 862.796875 427.765625 827.671875 469.929688 827.671875 L 478.128906 827.671875 C 477.542969 834.109375 476.957031 841.136719 476.957031 848.160156 Z M 476.957031 1102.230469 " fill-opacity="1" fill-rule="evenodd"/></g><g clip-path="url(#3bd694a0c8)"><path fill="#fefefe" d="M 1313.835938 1102.230469 L 1306.808594 1102.230469 L 1306.808594 848.160156 C 1306.808594 840.550781 1306.222656 833.527344 1305.636719 827.085938 L 1313.835938 827.085938 C 1357.171875 827.085938 1392.308594 861.625 1392.308594 904.945312 L 1392.308594 1024.957031 C 1392.308594 1068.277344 1357.171875 1102.230469 1313.835938 1102.230469 Z M 1313.835938 1102.230469 " fill-opacity="1" fill-rule="evenodd"/></g><g clip-path="url(#5170ba6c5a)"><path fill="#f6f6f6" d="M 1333.320312 713.871094 L 1333.320312 588.695312 L 1395.851562 651.285156 Z M 1333.320312 504.628906 L 1333.320312 379.449219 L 1395.851562 442.039062 Z M 1333.921875 552.304688 L 1333.320312 551.707031 L 1333.320312 541.617188 L 1423.566406 451.285156 C 1428.671875 446.179688 1428.671875 437.898438 1423.566406 432.792969 L 1329.492188 338.632812 C 1329.222656 338.359375 1328.9375 338.109375 1328.648438 337.863281 C 1328.5625 337.785156 1328.46875 337.71875 1328.378906 337.648438 C 1328.167969 337.480469 1327.953125 337.316406 1327.730469 337.164062 C 1327.625 337.089844 1327.515625 337.011719 1327.40625 336.941406 C 1327.179688 336.789062 1326.941406 336.648438 1326.703125 336.511719 C 1326.605469 336.460938 1326.511719 336.398438 1326.417969 336.347656 C 1326.101562 336.179688 1325.777344 336.023438 1325.449219 335.878906 C 1325.316406 335.824219 1325.179688 335.773438 1325.046875 335.722656 C 1324.828125 335.636719 1324.605469 335.550781 1324.378906 335.476562 C 1324.230469 335.425781 1324.078125 335.378906 1323.925781 335.332031 C 1323.671875 335.257812 1323.414062 335.195312 1323.148438 335.136719 C 1323.039062 335.109375 1322.933594 335.078125 1322.824219 335.054688 C 1322.457031 334.984375 1322.089844 334.929688 1321.710938 334.886719 C 1321.601562 334.875 1321.488281 334.867188 1321.378906 334.855469 C 1321.070312 334.832031 1320.757812 334.8125 1320.445312 334.8125 C 1320.378906 334.8125 1320.320312 334.800781 1320.253906 334.800781 C 1320.21875 334.800781 1320.1875 334.808594 1320.148438 334.808594 C 1319.75 334.8125 1319.351562 334.828125 1318.960938 334.867188 C 1318.886719 334.875 1318.816406 334.886719 1318.746094 334.894531 C 1318.433594 334.929688 1318.121094 334.980469 1317.820312 335.035156 C 1317.675781 335.0625 1317.535156 335.09375 1317.390625 335.125 C 1317.148438 335.179688 1316.914062 335.242188 1316.675781 335.3125 C 1316.535156 335.351562 1316.390625 335.386719 1316.246094 335.433594 C 1315.914062 335.542969 1315.582031 335.660156 1315.253906 335.796875 C 1315.25 335.796875 1315.25 335.800781 1315.246094 335.800781 C 1315.113281 335.855469 1314.984375 335.917969 1314.851562 335.984375 C 1314.632812 336.082031 1314.414062 336.183594 1314.199219 336.292969 C 1314.066406 336.367188 1313.933594 336.441406 1313.796875 336.519531 C 1313.582031 336.640625 1313.375 336.765625 1313.164062 336.902344 C 1313.054688 336.972656 1312.945312 337.042969 1312.839844 337.113281 C 1312.535156 337.328125 1312.238281 337.546875 1311.953125 337.78125 C 1311.953125 337.785156 1311.945312 337.785156 1311.941406 337.785156 C 1311.648438 338.03125 1311.367188 338.289062 1311.097656 338.558594 C 1311.023438 338.632812 1310.949219 338.710938 1310.871094 338.785156 C 1310.679688 338.984375 1310.492188 339.195312 1310.3125 339.40625 C 1310.234375 339.496094 1310.160156 339.585938 1310.082031 339.679688 C 1309.890625 339.917969 1309.707031 340.164062 1309.53125 340.417969 C 1309.488281 340.476562 1309.441406 340.539062 1309.398438 340.601562 C 1309.199219 340.898438 1309.015625 341.210938 1308.839844 341.523438 C 1308.765625 341.652344 1308.703125 341.78125 1308.636719 341.910156 C 1308.53125 342.117188 1308.429688 342.328125 1308.332031 342.542969 C 1308.269531 342.6875 1308.203125 342.828125 1308.144531 342.976562 C 1308.046875 343.21875 1307.960938 343.46875 1307.875 343.714844 C 1307.835938 343.832031 1307.789062 343.949219 1307.757812 344.066406 C 1307.652344 344.40625 1307.566406 344.75 1307.488281 345.101562 C 1307.460938 345.234375 1307.441406 345.371094 1307.414062 345.503906 C 1307.363281 345.769531 1307.324219 346.039062 1307.292969 346.3125 C 1307.273438 346.4375 1307.257812 346.5625 1307.25 346.6875 C 1307.210938 347.082031 1307.1875 347.476562 1307.1875 347.878906 L 1307.1875 525.550781 L 1229.320312 447.613281 C 1224.222656 442.503906 1215.945312 442.503906 1210.84375 447.613281 C 1205.738281 452.722656 1205.738281 461 1210.84375 466.109375 L 1291.324219 546.660156 L 1210.84375 627.214844 C 1205.738281 632.320312 1205.738281 640.601562 1210.84375 645.710938 C 1215.945312 650.816406 1224.21875 650.816406 1229.320312 645.710938 L 1307.1875 567.773438 L 1307.1875 745.445312 C 1307.1875 745.84375 1307.210938 746.242188 1307.25 746.636719 C 1307.257812 746.761719 1307.273438 746.886719 1307.292969 747.011719 C 1307.324219 747.285156 1307.363281 747.550781 1307.414062 747.820312 C 1307.441406 747.953125 1307.460938 748.089844 1307.488281 748.21875 C 1307.566406 748.566406 1307.652344 748.914062 1307.757812 749.257812 C 1307.789062 749.375 1307.835938 749.488281 1307.875 749.609375 C 1307.960938 749.855469 1308.046875 750.105469 1308.144531 750.347656 C 1308.203125 750.492188 1308.269531 750.636719 1308.332031 750.78125 C 1308.429688 750.996094 1308.53125 751.203125 1308.636719 751.410156 C 1308.703125 751.539062 1308.765625 751.671875 1308.839844 751.796875 C 1309.015625 752.113281 1309.199219 752.421875 1309.398438 752.722656 C 1309.441406 752.785156 1309.488281 752.84375 1309.53125 752.90625 C 1309.707031 753.15625 1309.890625 753.40625 1310.082031 753.644531 C 1310.160156 753.734375 1310.234375 753.824219 1310.3125 753.917969 C 1310.492188 754.128906 1310.679688 754.335938 1310.871094 754.535156 C 1310.949219 754.613281 1311.023438 754.691406 1311.097656 754.765625 C 1311.367188 755.035156 1311.648438 755.292969 1311.941406 755.535156 C 1311.945312 755.535156 1311.953125 755.539062 1311.953125 755.542969 C 1312.238281 755.777344 1312.535156 755.996094 1312.839844 756.207031 C 1312.945312 756.28125 1313.054688 756.351562 1313.164062 756.421875 C 1313.375 756.554688 1313.582031 756.683594 1313.796875 756.804688 C 1313.933594 756.878906 1314.066406 756.957031 1314.199219 757.027344 C 1314.410156 757.140625 1314.632812 757.242188 1314.851562 757.339844 C 1314.984375 757.398438 1315.113281 757.464844 1315.246094 757.523438 C 1315.25 757.523438 1315.25 757.527344 1315.253906 757.527344 C 1315.28125 757.535156 1315.308594 757.546875 1315.335938 757.554688 C 1315.707031 757.703125 1316.082031 757.84375 1316.460938 757.957031 C 1316.546875 757.984375 1316.636719 758.003906 1316.726562 758.027344 C 1317.046875 758.117188 1317.371094 758.203125 1317.695312 758.265625 C 1317.886719 758.308594 1318.078125 758.328125 1318.273438 758.355469 C 1318.503906 758.390625 1318.726562 758.433594 1318.957031 758.457031 C 1319.390625 758.5 1319.820312 758.523438 1320.253906 758.523438 C 1320.6875 758.523438 1321.117188 758.5 1321.550781 758.457031 C 1321.796875 758.433594 1322.042969 758.386719 1322.289062 758.347656 C 1322.460938 758.320312 1322.636719 758.304688 1322.808594 758.265625 C 1323.109375 758.207031 1323.40625 758.128906 1323.703125 758.046875 C 1323.816406 758.015625 1323.929688 757.992188 1324.039062 757.960938 C 1324.339844 757.867188 1324.636719 757.757812 1324.933594 757.640625 C 1325.035156 757.605469 1325.140625 757.574219 1325.242188 757.53125 C 1325.519531 757.414062 1325.792969 757.277344 1326.066406 757.144531 C 1326.175781 757.089844 1326.292969 757.039062 1326.402344 756.980469 C 1326.65625 756.847656 1326.898438 756.695312 1327.136719 756.546875 C 1327.261719 756.464844 1327.386719 756.402344 1327.507812 756.320312 C 1327.742188 756.164062 1327.96875 755.988281 1328.195312 755.816406 C 1328.308594 755.726562 1328.429688 755.644531 1328.539062 755.554688 C 1328.863281 755.289062 1329.175781 755.007812 1329.476562 754.707031 C 1329.484375 754.699219 1329.488281 754.695312 1329.492188 754.691406 L 1423.566406 660.53125 C 1427.125 656.972656 1428.195312 651.875 1426.796875 647.382812 C 1426.183594 645.425781 1425.113281 643.585938 1423.566406 642.035156 L 1333.921875 552.304688 " fill-opacity="1" fill-rule="nonzero"/></g><path fill="#f6f6f6" d="M 1462.25 413.90625 C 1462.132812 414.023438 1462.035156 414.148438 1461.925781 414.269531 L 1462.609375 413.578125 C 1462.492188 413.691406 1462.367188 413.792969 1462.25 413.90625 " fill-opacity="1" fill-rule="nonzero"/><g clip-path="url(#26d38f6cd5)"><path fill="#f6f6f6" d="M 1545.074219 544.933594 C 1545.074219 501.972656 1528.421875 461.644531 1498.183594 431.378906 L 1489.984375 423.171875 L 1471.507812 441.667969 L 1479.707031 449.875 C 1505.011719 475.203125 1518.945312 508.960938 1518.945312 544.933594 C 1518.945312 580.910156 1505.011719 614.667969 1479.707031 639.996094 L 1468.039062 651.671875 L 1486.519531 670.167969 L 1498.183594 658.492188 C 1528.421875 628.226562 1545.074219 587.894531 1545.074219 544.933594 " fill-opacity="1" fill-rule="nonzero"/></g><path fill="#f6f6f6" d="M 1440.546875 544.933594 C 1440.546875 529.90625 1434.773438 515.847656 1424.28125 505.34375 L 1416.082031 497.140625 L 1397.605469 515.632812 L 1405.804688 523.839844 C 1411.359375 529.402344 1414.414062 536.894531 1414.414062 544.933594 C 1414.414062 552.941406 1411.347656 560.441406 1405.804688 566.027344 L 1394.136719 577.707031 L 1412.617188 596.199219 L 1424.316406 584.492188 C 1434.78125 573.945312 1440.546875 559.894531 1440.546875 544.933594 " fill-opacity="1" fill-rule="nonzero"/><path fill="#f6f6f6" d="M 1388.347656 487.878906 C 1388.230469 487.992188 1388.132812 488.117188 1388.023438 488.238281 L 1388.710938 487.550781 C 1388.589844 487.660156 1388.464844 487.757812 1388.347656 487.878906 " fill-opacity="1" fill-rule="nonzero"/><path fill="#f6f6f6" d="M 1461.234375 468.363281 L 1453.03125 460.15625 L 1434.554688 478.652344 L 1442.757812 486.855469 C 1474.75 518.882812 1474.75 570.988281 1442.757812 603.011719 L 1431.089844 614.6875 L 1449.566406 633.183594 L 1461.234375 621.507812 C 1503.414062 579.285156 1503.414062 510.585938 1461.234375 468.363281 " fill-opacity="1" fill-rule="nonzero"/><path fill="#f6f6f6" d="M 1425.300781 450.890625 C 1425.183594 451.007812 1425.085938 451.132812 1424.972656 451.25 L 1425.660156 450.5625 C 1425.542969 450.675781 1425.414062 450.773438 1425.300781 450.890625 " fill-opacity="1" fill-rule="nonzero"/></svg>