<svg xmlns="http://www.w3.org/2000/svg" xmlns:xlink="http://www.w3.org/1999/xlink" width="85" zoomAndPan="magnify" viewBox="0 0 63.75 63.749998" height="85" preserveAspectRatio="xMidYMid meet" version="1.0"><defs><clipPath id="0a7142a745"><path d="M 43 43 L 59.90625 43 L 59.90625 59.90625 L 43 59.90625 Z M 43 43 " clip-rule="nonzero"/></clipPath><clipPath id="f67fb4300e"><path d="M 24 43 L 40 43 L 40 59.90625 L 24 59.90625 Z M 24 43 " clip-rule="nonzero"/></clipPath><clipPath id="75f064bf75"><path d="M 4 43 L 21 43 L 21 59.90625 L 4 59.90625 Z M 4 43 " clip-rule="nonzero"/></clipPath><clipPath id="71529a6efe"><path d="M 3.875 3.875 L 59.90625 3.875 L 59.90625 59.90625 L 3.875 59.90625 Z M 3.875 3.875 " clip-rule="nonzero"/></clipPath></defs><g clip-path="url(#0a7142a745)"><path fill="#66d4f1" d="M 44.34375 43.933594 L 58.546875 43.933594 C 58.859375 43.933594 59.113281 44.1875 59.113281 44.5 L 59.113281 58.546875 C 59.113281 58.859375 58.859375 59.113281 58.546875 59.113281 L 44.34375 59.113281 C 44.03125 59.113281 43.777344 58.859375 43.777344 58.546875 L 43.777344 44.5 C 43.777344 44.1875 44.03125 43.933594 44.34375 43.933594 Z M 44.34375 43.933594 " fill-opacity="1" fill-rule="evenodd"/></g><g clip-path="url(#f67fb4300e)"><path fill="#c6ea94" d="M 24.792969 43.933594 L 38.992188 43.933594 C 39.304688 43.933594 39.558594 44.1875 39.558594 44.5 L 39.558594 58.546875 C 39.558594 58.859375 39.304688 59.113281 38.992188 59.113281 L 24.792969 59.113281 C 24.480469 59.113281 24.222656 58.859375 24.222656 58.546875 L 24.222656 44.5 C 24.222656 44.1875 24.480469 43.933594 24.792969 43.933594 Z M 24.792969 43.933594 " fill-opacity="1" fill-rule="evenodd"/></g><g clip-path="url(#75f064bf75)"><path fill="#f76c82" d="M 5.238281 43.933594 L 19.4375 43.933594 C 19.75 43.933594 20.003906 44.1875 20.003906 44.5 L 20.003906 58.546875 C 20.003906 58.859375 19.75 59.113281 19.4375 59.113281 L 5.238281 59.113281 C 4.925781 59.113281 4.671875 58.859375 4.671875 58.546875 L 4.671875 44.5 C 4.671875 44.1875 4.925781 43.933594 5.238281 43.933594 Z M 5.238281 43.933594 " fill-opacity="1" fill-rule="evenodd"/></g><path fill="#fdcd56" d="M 17.15625 4.671875 L 46.625 4.671875 C 46.9375 4.671875 47.191406 4.925781 47.191406 5.238281 L 47.191406 21.636719 C 47.191406 21.949219 46.9375 22.207031 46.625 22.207031 L 17.15625 22.207031 C 16.84375 22.207031 16.589844 21.949219 16.589844 21.636719 L 16.589844 5.238281 C 16.589844 4.925781 16.84375 4.671875 17.15625 4.671875 Z M 17.15625 4.671875 " fill-opacity="1" fill-rule="evenodd"/><g clip-path="url(#71529a6efe)"><path fill="#000000" d="M 17.382812 5.464844 L 46.398438 5.464844 L 46.398438 21.414062 L 17.382812 21.414062 Z M 8.589844 40.277344 C 8.746094 40.433594 8.949219 40.511719 9.152344 40.511719 C 9.355469 40.511719 9.558594 40.433594 9.714844 40.277344 L 12.761719 37.230469 C 13.074219 36.917969 13.074219 36.417969 12.761719 36.105469 C 12.453125 35.796875 11.949219 35.796875 11.640625 36.105469 L 9.945312 37.800781 L 9.945312 14.230469 L 15.796875 14.230469 L 15.796875 22.207031 C 15.796875 22.644531 16.152344 23 16.589844 23 L 31.097656 23 L 31.097656 37.800781 L 29.402344 36.105469 C 29.09375 35.796875 28.589844 35.796875 28.28125 36.105469 C 27.972656 36.417969 27.972656 36.917969 28.28125 37.230469 L 31.328125 40.277344 C 31.484375 40.433594 31.6875 40.511719 31.890625 40.511719 C 32.09375 40.511719 32.296875 40.433594 32.453125 40.277344 L 35.5 37.230469 C 35.8125 36.917969 35.8125 36.417969 35.5 36.105469 C 35.191406 35.796875 34.6875 35.796875 34.378906 36.105469 L 32.683594 37.800781 L 32.683594 23 L 47.191406 23 C 47.632812 23 47.984375 22.644531 47.984375 22.207031 L 47.984375 14.230469 L 53.835938 14.230469 L 53.835938 37.800781 L 52.144531 36.105469 C 51.832031 35.796875 51.328125 35.796875 51.019531 36.105469 C 50.710938 36.417969 50.710938 36.917969 51.019531 37.230469 L 54.070312 40.277344 C 54.222656 40.433594 54.425781 40.511719 54.628906 40.511719 C 54.832031 40.511719 55.035156 40.433594 55.191406 40.277344 L 58.238281 37.230469 C 58.550781 36.917969 58.550781 36.417969 58.238281 36.105469 C 57.929688 35.796875 57.429688 35.796875 57.117188 36.105469 L 55.425781 37.800781 L 55.425781 13.4375 C 55.425781 13 55.070312 12.644531 54.628906 12.644531 L 47.984375 12.644531 L 47.984375 4.667969 C 47.984375 4.230469 47.632812 3.875 47.191406 3.875 L 16.589844 3.875 C 16.152344 3.875 15.796875 4.230469 15.796875 4.667969 L 15.796875 12.644531 L 9.152344 12.644531 C 8.714844 12.644531 8.359375 13 8.359375 13.4375 L 8.359375 37.800781 L 6.664062 36.105469 C 6.355469 35.796875 5.851562 35.796875 5.542969 36.105469 C 5.230469 36.417969 5.230469 36.917969 5.542969 37.230469 Z M 19.210938 58.320312 L 5.464844 58.320312 L 5.464844 44.726562 L 19.210938 44.726562 Z M 20.003906 43.140625 L 4.667969 43.140625 C 4.230469 43.140625 3.875 43.496094 3.875 43.933594 L 3.875 59.113281 C 3.875 59.550781 4.230469 59.90625 4.667969 59.90625 L 20.003906 59.90625 C 20.445312 59.90625 20.800781 59.550781 20.800781 59.113281 L 20.800781 43.933594 C 20.796875 43.496094 20.445312 43.140625 20.003906 43.140625 Z M 38.765625 58.320312 L 25.019531 58.320312 L 25.019531 44.726562 L 38.765625 44.726562 Z M 39.558594 43.140625 L 24.222656 43.140625 C 23.785156 43.140625 23.429688 43.496094 23.429688 43.933594 L 23.429688 59.113281 C 23.429688 59.550781 23.785156 59.90625 24.222656 59.90625 L 39.558594 59.90625 C 39.996094 59.90625 40.351562 59.550781 40.351562 59.113281 L 40.351562 43.933594 C 40.351562 43.496094 39.996094 43.140625 39.558594 43.140625 Z M 58.316406 58.320312 L 44.570312 58.320312 L 44.570312 44.726562 L 58.316406 44.726562 Z M 59.113281 43.140625 L 43.777344 43.140625 C 43.339844 43.140625 42.984375 43.496094 42.984375 43.933594 L 42.984375 59.113281 C 42.984375 59.550781 43.339844 59.90625 43.777344 59.90625 L 59.113281 59.90625 C 59.550781 59.90625 59.90625 59.550781 59.90625 59.113281 L 59.90625 43.933594 C 59.90625 43.496094 59.550781 43.140625 59.113281 43.140625 Z M 59.113281 43.140625 " fill-opacity="1" fill-rule="evenodd"/></g></svg>