<svg xmlns="http://www.w3.org/2000/svg" xmlns:xlink="http://www.w3.org/1999/xlink" width="85" zoomAndPan="magnify" viewBox="0 0 63.75 63.749998" height="85" preserveAspectRatio="xMidYMid meet" version="1.0"><defs><clipPath id="d3d2d45283"><path d="M 0.757812 0.757812 L 63.007812 0.757812 L 63.007812 63.007812 L 0.757812 63.007812 Z M 0.757812 0.757812 " clip-rule="nonzero"/></clipPath></defs><g clip-path="url(#d3d2d45283)"><path fill="#4bd37b" d="M 63.007812 31.882812 C 63.007812 32.898438 62.957031 33.917969 62.855469 34.933594 C 62.757812 35.945312 62.605469 36.953125 62.40625 37.953125 C 62.210938 38.953125 61.960938 39.941406 61.664062 40.917969 C 61.371094 41.890625 61.027344 42.851562 60.636719 43.792969 C 60.246094 44.734375 59.8125 45.652344 59.332031 46.554688 C 58.851562 47.453125 58.328125 48.324219 57.761719 49.171875 C 57.195312 50.019531 56.585938 50.839844 55.941406 51.625 C 55.292969 52.414062 54.609375 53.167969 53.890625 53.890625 C 53.167969 54.609375 52.414062 55.292969 51.625 55.941406 C 50.839844 56.585938 50.019531 57.195312 49.171875 57.761719 C 48.324219 58.328125 47.453125 58.851562 46.554688 59.332031 C 45.652344 59.8125 44.734375 60.246094 43.792969 60.636719 C 42.851562 61.027344 41.890625 61.371094 40.917969 61.664062 C 39.941406 61.960938 38.953125 62.210938 37.953125 62.40625 C 36.953125 62.605469 35.945312 62.757812 34.933594 62.855469 C 33.917969 62.957031 32.898438 63.007812 31.882812 63.007812 C 30.863281 63.007812 29.84375 62.957031 28.832031 62.855469 C 27.816406 62.757812 26.808594 62.605469 25.808594 62.40625 C 24.808594 62.210938 23.820312 61.960938 22.847656 61.664062 C 21.871094 61.371094 20.910156 61.027344 19.96875 60.636719 C 19.027344 60.246094 18.109375 59.8125 17.207031 59.332031 C 16.308594 58.851562 15.4375 58.328125 14.589844 57.761719 C 13.742188 57.195312 12.921875 56.585938 12.136719 55.941406 C 11.347656 55.292969 10.59375 54.609375 9.871094 53.890625 C 9.152344 53.167969 8.46875 52.414062 7.820312 51.625 C 7.175781 50.839844 6.566406 50.019531 6 49.171875 C 5.433594 48.324219 4.910156 47.453125 4.429688 46.554688 C 3.949219 45.652344 3.515625 44.734375 3.125 43.792969 C 2.734375 42.851562 2.390625 41.890625 2.097656 40.917969 C 1.800781 39.941406 1.554688 38.953125 1.355469 37.953125 C 1.15625 36.953125 1.003906 35.945312 0.90625 34.933594 C 0.804688 33.917969 0.757812 32.898438 0.757812 31.882812 C 0.757812 30.863281 0.804688 29.84375 0.90625 28.832031 C 1.003906 27.816406 1.15625 26.808594 1.355469 25.808594 C 1.554688 24.808594 1.800781 23.820312 2.097656 22.847656 C 2.390625 21.871094 2.734375 20.910156 3.125 19.96875 C 3.515625 19.027344 3.949219 18.109375 4.429688 17.207031 C 4.910156 16.308594 5.433594 15.4375 6 14.589844 C 6.566406 13.742188 7.175781 12.921875 7.820312 12.136719 C 8.46875 11.347656 9.152344 10.59375 9.871094 9.871094 C 10.59375 9.152344 11.347656 8.46875 12.136719 7.820312 C 12.921875 7.175781 13.742188 6.566406 14.589844 6 C 15.4375 5.433594 16.308594 4.910156 17.207031 4.429688 C 18.109375 3.949219 19.027344 3.515625 19.96875 3.125 C 20.910156 2.734375 21.871094 2.390625 22.847656 2.097656 C 23.820312 1.800781 24.808594 1.554688 25.808594 1.355469 C 26.808594 1.15625 27.816406 1.003906 28.832031 0.90625 C 29.84375 0.804688 30.863281 0.757812 31.882812 0.757812 C 32.898438 0.757812 33.917969 0.804688 34.933594 0.90625 C 35.945312 1.003906 36.953125 1.15625 37.953125 1.355469 C 38.953125 1.554688 39.941406 1.800781 40.917969 2.097656 C 41.890625 2.390625 42.851562 2.734375 43.792969 3.125 C 44.734375 3.515625 45.652344 3.949219 46.554688 4.429688 C 47.453125 4.910156 48.324219 5.433594 49.171875 6 C 50.019531 6.566406 50.839844 7.175781 51.625 7.820312 C 52.414062 8.46875 53.167969 9.152344 53.890625 9.871094 C 54.609375 10.59375 55.292969 11.347656 55.941406 12.136719 C 56.585938 12.921875 57.195312 13.742188 57.761719 14.589844 C 58.328125 15.4375 58.851562 16.308594 59.332031 17.207031 C 59.8125 18.109375 60.246094 19.027344 60.636719 19.96875 C 61.027344 20.910156 61.371094 21.871094 61.664062 22.847656 C 61.960938 23.820312 62.210938 24.808594 62.40625 25.808594 C 62.605469 26.808594 62.757812 27.816406 62.855469 28.832031 C 62.957031 29.84375 63.007812 30.863281 63.007812 31.882812 Z M 63.007812 31.882812 " fill-opacity="1" fill-rule="nonzero"/></g><path fill="#ffffff" d="M 24.160156 53.34375 L 7.1875 36.371094 L 13.949219 29.609375 L 24.160156 39.816406 L 49.804688 14.171875 L 56.570312 20.933594 Z M 24.160156 53.34375 " fill-opacity="1" fill-rule="nonzero"/></svg>