<svg xmlns="http://www.w3.org/2000/svg" xmlns:xlink="http://www.w3.org/1999/xlink" width="85" zoomAndPan="magnify" viewBox="0 0 63.75 63.749998" height="85" preserveAspectRatio="xMidYMid meet" version="1.0"><defs><clipPath id="ebbc983720"><path d="M 0 0 L 63.5 0 L 63.5 63.5 L 0 63.5 Z M 0 0 " clip-rule="nonzero"/></clipPath><clipPath id="fe3a3875eb"><path d="M 1.226562 47.199219 L 62.523438 47.199219 L 62.523438 47.257812 L 1.226562 47.257812 Z M 1.226562 47.257812 L 62.523438 47.257812 L 62.523438 47.320312 L 1.226562 47.320312 Z M 1.226562 47.320312 L 62.523438 47.320312 L 62.523438 47.4375 L 1.226562 47.4375 Z M 1.226562 47.4375 L 62.523438 47.4375 L 62.523438 47.679688 L 1.226562 47.679688 Z M 1.226562 47.679688 L 62.523438 47.679688 L 62.523438 47.738281 L 1.226562 47.738281 Z M 1.226562 47.738281 L 62.523438 47.738281 L 62.523438 47.796875 L 1.226562 47.796875 Z M 1.226562 47.796875 L 62.523438 47.796875 L 62.523438 47.917969 L 1.226562 47.917969 Z M 1.226562 47.917969 L 62.523438 47.917969 L 62.523438 48.15625 L 1.226562 48.15625 Z M 1.226562 48.15625 L 62.523438 48.15625 L 62.523438 48.398438 L 1.226562 48.398438 Z M 1.226562 48.398438 L 62.523438 48.398438 L 62.523438 48.636719 L 1.226562 48.636719 Z M 1.226562 48.636719 L 62.523438 48.636719 L 62.523438 48.875 L 1.226562 48.875 Z M 1.226562 48.875 L 62.523438 48.875 L 62.523438 49.113281 L 1.226562 49.113281 Z M 1.226562 49.113281 L 62.523438 49.113281 L 62.523438 49.355469 L 1.226562 49.355469 Z M 1.226562 49.355469 L 62.523438 49.355469 L 62.523438 49.472656 L 1.226562 49.472656 Z M 1.226562 49.472656 L 62.523438 49.472656 L 62.523438 49.59375 L 1.226562 49.59375 Z M 1.226562 49.59375 L 62.523438 49.59375 L 62.523438 49.832031 L 1.226562 49.832031 Z M 1.226562 49.832031 L 62.523438 49.832031 L 62.523438 50.074219 L 1.226562 50.074219 Z M 1.226562 50.074219 L 62.523438 50.074219 L 62.523438 50.191406 L 1.226562 50.191406 Z M 1.226562 50.191406 L 62.523438 50.191406 L 62.523438 50.3125 L 1.226562 50.3125 Z M 1.226562 50.3125 L 62.523438 50.3125 L 62.523438 50.550781 L 1.226562 50.550781 Z M 1.226562 50.550781 L 62.523438 50.550781 L 62.523438 50.792969 L 1.226562 50.792969 Z M 1.226562 50.792969 L 62.523438 50.792969 L 62.523438 50.910156 L 1.226562 50.910156 Z M 1.226562 50.910156 L 62.523438 50.910156 L 62.523438 51.03125 L 1.226562 51.03125 Z M 1.226562 51.03125 L 62.523438 51.03125 L 62.523438 51.148438 L 1.226562 51.148438 Z M 1.226562 51.148438 L 62.523438 51.148438 L 62.523438 51.210938 L 1.226562 51.210938 Z M 1.226562 51.210938 L 62.523438 51.210938 L 62.523438 51.269531 L 1.226562 51.269531 Z M 1.226562 51.269531 L 62.523438 51.269531 L 62.523438 51.507812 L 1.226562 51.507812 Z M 1.226562 51.507812 L 62.523438 51.507812 L 62.523438 51.570312 L 1.226562 51.570312 Z M 1.226562 51.570312 L 62.523438 51.570312 L 62.523438 51.628906 L 1.226562 51.628906 Z M 1.226562 51.628906 L 62.523438 51.628906 L 62.523438 51.75 L 1.226562 51.75 Z M 1.226562 51.75 L 62.523438 51.75 L 62.523438 51.867188 L 1.226562 51.867188 Z M 1.226562 51.867188 L 62.523438 51.867188 L 62.523438 51.988281 L 1.226562 51.988281 Z M 1.226562 51.988281 L 62.523438 51.988281 L 62.523438 52.046875 L 1.226562 52.046875 Z M 1.226562 52.046875 L 62.523438 52.046875 L 62.523438 52.109375 L 1.226562 52.109375 Z M 1.226562 52.109375 L 62.523438 52.109375 L 62.523438 52.226562 L 1.226562 52.226562 Z M 1.226562 52.226562 L 62.523438 52.226562 L 62.523438 52.46875 L 1.226562 52.46875 Z M 1.226562 52.46875 L 62.523438 52.46875 L 62.523438 52.585938 L 1.226562 52.585938 Z M 1.226562 52.585938 L 62.523438 52.585938 L 62.523438 52.707031 L 1.226562 52.707031 Z M 1.226562 52.707031 L 62.523438 52.707031 L 62.523438 52.945312 L 1.226562 52.945312 Z M 1.226562 52.945312 L 62.523438 52.945312 L 62.523438 53.183594 L 1.226562 53.183594 Z M 1.226562 53.183594 L 62.523438 53.183594 L 62.523438 53.304688 L 1.226562 53.304688 Z M 1.226562 53.304688 L 62.523438 53.304688 L 62.523438 53.425781 L 1.226562 53.425781 Z M 1.226562 53.425781 L 62.523438 53.425781 L 62.523438 53.542969 L 1.226562 53.542969 Z M 1.226562 53.542969 L 62.523438 53.542969 L 62.523438 53.605469 L 1.226562 53.605469 Z M 1.226562 53.605469 L 62.523438 53.605469 L 62.523438 53.664062 L 1.226562 53.664062 Z M 1.226562 53.664062 L 62.523438 53.664062 L 62.523438 53.785156 L 1.226562 53.785156 Z M 1.226562 53.785156 L 62.523438 53.785156 L 62.523438 53.902344 L 1.226562 53.902344 Z M 1.226562 53.902344 L 62.523438 53.902344 L 62.523438 53.964844 L 1.226562 53.964844 Z M 1.226562 53.964844 L 62.523438 53.964844 L 62.523438 54.023438 L 1.226562 54.023438 Z M 1.226562 54.023438 L 62.523438 54.023438 L 62.523438 54.144531 L 1.226562 54.144531 Z M 1.226562 54.144531 L 62.523438 54.144531 L 62.523438 54.382812 L 1.226562 54.382812 Z M 1.226562 54.382812 L 62.523438 54.382812 L 62.523438 54.441406 L 1.226562 54.441406 Z M 1.226562 54.441406 L 62.523438 54.441406 L 62.523438 54.503906 L 1.226562 54.503906 Z M 1.226562 54.503906 L 62.523438 54.503906 L 62.523438 54.621094 L 1.226562 54.621094 Z M 1.226562 54.621094 L 62.523438 54.621094 L 62.523438 54.683594 L 1.226562 54.683594 Z M 1.226562 54.683594 L 62.523438 54.683594 L 62.523438 54.742188 L 1.226562 54.742188 Z M 1.226562 54.742188 L 62.523438 54.742188 L 62.523438 54.863281 L 1.226562 54.863281 Z M 1.226562 54.863281 L 62.523438 54.863281 L 62.523438 54.980469 L 1.226562 54.980469 Z M 1.226562 54.980469 L 62.523438 54.980469 L 62.523438 55.101562 L 1.226562 55.101562 Z M 1.226562 55.101562 L 62.523438 55.101562 L 62.523438 55.222656 L 1.226562 55.222656 Z M 1.226562 55.222656 L 62.523438 55.222656 L 62.523438 55.28125 L 1.226562 55.28125 Z M 1.226562 55.28125 L 62.523438 55.28125 L 62.523438 55.339844 L 1.226562 55.339844 Z M 1.226562 55.339844 L 62.523438 55.339844 L 62.523438 55.460938 L 1.226562 55.460938 Z M 1.226562 55.460938 L 62.523438 55.460938 L 62.523438 55.519531 L 1.226562 55.519531 Z M 1.226562 55.519531 L 62.523438 55.519531 L 62.523438 55.582031 L 1.226562 55.582031 Z M 1.226562 55.582031 L 62.523438 55.582031 L 62.523438 55.699219 L 1.226562 55.699219 Z M 1.226562 55.699219 L 62.523438 55.699219 L 62.523438 55.761719 L 1.226562 55.761719 Z M 1.226562 55.761719 L 62.523438 55.761719 L 62.523438 55.820312 L 1.226562 55.820312 Z M 1.226562 55.820312 L 62.523438 55.820312 L 62.523438 55.9375 L 1.226562 55.9375 Z M 1.226562 55.9375 L 62.523438 55.9375 L 62.523438 56.058594 L 1.226562 56.058594 Z M 1.226562 56.058594 L 62.523438 56.058594 L 62.523438 56.117188 L 1.226562 56.117188 Z M 1.226562 56.117188 L 62.523438 56.117188 L 62.523438 56.179688 L 1.226562 56.179688 Z M 1.226562 56.179688 L 62.523438 56.179688 L 62.523438 56.296875 L 1.226562 56.296875 Z M 1.226562 56.296875 L 62.523438 56.296875 L 62.523438 56.417969 L 1.226562 56.417969 Z M 1.226562 56.417969 L 62.523438 56.417969 L 62.523438 56.539062 L 1.226562 56.539062 Z M 1.226562 56.539062 L 62.523438 56.539062 L 62.523438 56.65625 L 1.226562 56.65625 Z M 1.226562 56.65625 L 62.523438 56.65625 L 62.523438 56.777344 L 1.226562 56.777344 Z M 1.226562 56.777344 L 62.523438 56.777344 L 62.523438 56.898438 L 1.226562 56.898438 Z M 1.226562 56.898438 L 62.523438 56.898438 L 62.523438 57.015625 L 1.226562 57.015625 Z M 1.226562 57.015625 L 62.523438 57.015625 L 62.523438 57.136719 L 1.226562 57.136719 Z M 1.226562 57.136719 L 62.523438 57.136719 L 62.523438 57.257812 L 1.226562 57.257812 Z M 1.226562 57.257812 L 62.523438 57.257812 L 62.523438 57.375 L 1.226562 57.375 Z M 1.226562 57.375 L 62.523438 57.375 L 62.523438 57.496094 L 1.226562 57.496094 Z M 1.226562 57.496094 L 62.523438 57.496094 L 62.523438 57.613281 L 1.226562 57.613281 Z M 1.226562 57.613281 L 62.523438 57.613281 L 62.523438 57.675781 L 1.226562 57.675781 Z M 1.226562 57.675781 L 62.523438 57.675781 L 62.523438 57.734375 L 1.226562 57.734375 Z M 1.226562 57.734375 L 62.523438 57.734375 L 62.523438 57.855469 L 1.226562 57.855469 Z M 1.226562 57.855469 L 62.523438 57.855469 L 62.523438 57.914062 L 1.226562 57.914062 Z M 1.226562 57.914062 L 62.523438 57.914062 L 62.523438 57.972656 L 1.226562 57.972656 Z M 1.226562 57.972656 L 62.523438 57.972656 L 62.523438 58.09375 L 1.226562 58.09375 Z M 1.226562 58.09375 L 62.523438 58.09375 L 62.523438 58.152344 L 1.226562 58.152344 Z M 1.226562 58.152344 L 62.523438 58.152344 L 62.523438 58.214844 L 1.226562 58.214844 Z M 1.226562 58.214844 L 62.523438 58.214844 L 62.523438 58.332031 L 1.226562 58.332031 Z M 1.226562 58.332031 L 62.523438 58.332031 L 62.523438 58.453125 L 1.226562 58.453125 Z M 1.226562 58.453125 L 62.523438 58.453125 L 62.523438 58.574219 L 1.226562 58.574219 Z M 1.226562 58.574219 L 62.523438 58.574219 L 62.523438 58.691406 L 1.226562 58.691406 Z M 1.226562 58.691406 L 62.523438 58.691406 L 62.523438 58.933594 L 1.226562 58.933594 Z M 1.226562 58.933594 L 62.523438 58.933594 L 62.523438 59.171875 L 1.226562 59.171875 Z M 1.226562 59.171875 L 62.523438 59.171875 L 62.523438 59.230469 L 1.226562 59.230469 Z M 1.226562 59.230469 L 62.523438 59.230469 L 62.523438 59.292969 L 1.226562 59.292969 Z M 1.226562 59.292969 L 62.523438 59.292969 L 62.523438 59.410156 L 1.226562 59.410156 Z M 1.226562 59.410156 L 62.523438 59.410156 L 62.523438 59.53125 L 1.226562 59.53125 Z M 1.226562 59.53125 L 62.523438 59.53125 L 62.523438 59.652344 L 1.226562 59.652344 Z M 1.226562 59.652344 L 62.523438 59.652344 L 62.523438 59.769531 L 1.226562 59.769531 Z M 1.226562 59.769531 L 62.523438 59.769531 L 62.523438 59.890625 L 1.226562 59.890625 Z M 1.226562 59.890625 L 62.523438 59.890625 L 62.523438 60.128906 L 1.226562 60.128906 Z M 1.226562 60.128906 L 62.523438 60.128906 L 62.523438 60.25 L 1.226562 60.25 Z M 1.226562 60.25 L 62.523438 60.25 L 62.523438 60.367188 L 1.226562 60.367188 Z M 1.226562 60.367188 L 62.523438 60.367188 L 62.523438 60.488281 L 1.226562 60.488281 Z M 1.226562 60.488281 L 62.523438 60.488281 L 62.523438 60.609375 L 1.226562 60.609375 Z M 1.226562 60.609375 L 62.523438 60.609375 L 62.523438 60.847656 L 1.226562 60.847656 Z M 1.226562 60.847656 L 62.523438 60.847656 L 62.523438 61.085938 L 1.226562 61.085938 Z M 1.226562 61.085938 L 62.523438 61.085938 L 62.523438 61.207031 L 1.226562 61.207031 Z M 1.226562 61.207031 L 62.523438 61.207031 L 62.523438 61.328125 L 1.226562 61.328125 Z M 1.226562 61.328125 L 62.523438 61.328125 L 62.523438 61.445312 L 1.226562 61.445312 Z M 1.226562 61.445312 L 62.523438 61.445312 L 62.523438 61.566406 L 1.226562 61.566406 Z M 1.226562 61.566406 L 62.523438 61.566406 L 62.523438 61.6875 L 1.226562 61.6875 Z M 1.226562 61.6875 L 62.523438 61.6875 L 62.523438 61.804688 L 1.226562 61.804688 Z M 1.226562 61.804688 L 62.523438 61.804688 L 62.523438 61.925781 L 1.226562 61.925781 Z M 1.226562 61.925781 L 62.523438 61.925781 L 62.523438 62.046875 L 1.226562 62.046875 Z M 1.226562 62.046875 L 62.523438 62.046875 L 62.523438 62.285156 L 1.226562 62.285156 Z M 1.226562 62.285156 L 62.523438 62.285156 L 62.523438 62.40625 L 1.226562 62.40625 Z M 1.226562 62.40625 L 62.523438 62.40625 L 62.523438 62.523438 L 1.226562 62.523438 Z M 1.226562 62.40625 " clip-rule="nonzero"/></clipPath><clipPath id="b7e7fcef6b"><path d="M 62.523438 31.875 C 62.523438 48.800781 48.800781 62.523438 31.875 62.523438 C 14.949219 62.523438 1.226562 48.800781 1.226562 31.875 C 1.226562 14.949219 14.949219 1.226562 31.875 1.226562 C 48.800781 1.226562 62.523438 14.949219 62.523438 31.875 " clip-rule="nonzero"/></clipPath><clipPath id="57b887e897"><path d="M 62.523438 31.875 C 62.523438 48.800781 48.800781 62.523438 31.875 62.523438 C 14.949219 62.523438 1.226562 48.800781 1.226562 31.875 C 1.226562 14.949219 14.949219 1.226562 31.875 1.226562 C 48.800781 1.226562 62.523438 14.949219 62.523438 31.875 " clip-rule="nonzero"/></clipPath><linearGradient x1="0.00000462154" gradientTransform="matrix(0, -61.297952, 61.962012, 0, 0.893829, 62.523971)" y1="0" x2="0.249997" gradientUnits="userSpaceOnUse" y2="0" id="ade9a66e81"><stop stop-opacity="1" stop-color="rgb(47.798157%, 74.899292%, 92.199707%)" offset="0"/><stop stop-opacity="1" stop-color="rgb(47.640991%, 74.891663%, 92.199707%)" offset="0.03125"/><stop stop-opacity="1" stop-color="rgb(47.291565%, 74.691772%, 92.199707%)" offset="0.046875"/><stop stop-opacity="1" stop-color="rgb(46.907043%, 74.499512%, 92.199707%)" offset="0.0546875"/><stop stop-opacity="1" stop-color="rgb(46.707153%, 74.499512%, 92.199707%)" offset="0.0625"/><stop stop-opacity="1" stop-color="rgb(46.499634%, 74.490356%, 92.199707%)" offset="0.0664062"/><stop stop-opacity="1" stop-color="rgb(46.299744%, 74.482727%, 92.199707%)" offset="0.0703125"/><stop stop-opacity="1" stop-color="rgb(46.295166%, 74.290466%, 92.199707%)" offset="0.078125"/><stop stop-opacity="1" stop-color="rgb(46.096802%, 74.099731%, 92.199707%)" offset="0.0859375"/><stop stop-opacity="1" stop-color="rgb(45.899963%, 74.099731%, 92.004395%)" offset="0.09375"/><stop stop-opacity="1" stop-color="rgb(45.797729%, 74.099731%, 91.804504%)" offset="0.101562"/><stop stop-opacity="1" stop-color="rgb(45.597839%, 74.093628%, 91.799927%)" offset="0.109375"/><stop stop-opacity="1" stop-color="rgb(45.498657%, 73.893738%, 91.799927%)" offset="0.125"/><stop stop-opacity="1" stop-color="rgb(45.303345%, 73.699951%, 91.799927%)" offset="0.132812"/><stop stop-opacity="1" stop-color="rgb(44.91272%, 73.699951%, 91.799927%)" offset="0.140625"/><stop stop-opacity="1" stop-color="rgb(44.696045%, 73.699951%, 91.799927%)" offset="0.148438"/><stop stop-opacity="1" stop-color="rgb(44.487%, 73.699951%, 91.799927%)" offset="0.15625"/><stop stop-opacity="1" stop-color="rgb(44.111633%, 73.510742%, 91.799927%)" offset="0.1875"/><stop stop-opacity="1" stop-color="rgb(43.902588%, 73.310852%, 91.799927%)" offset="0.195312"/><stop stop-opacity="1" stop-color="rgb(43.690491%, 73.295593%, 91.795349%)" offset="0.203125"/><stop stop-opacity="1" stop-color="rgb(43.499756%, 73.097229%, 91.596985%)" offset="0.210938"/><stop stop-opacity="1" stop-color="rgb(43.299866%, 73.088074%, 91.600037%)" offset="0.214844"/><stop stop-opacity="1" stop-color="rgb(43.099976%, 73.275757%, 91.799927%)" offset="0.21875"/><stop stop-opacity="1" stop-color="rgb(42.997742%, 73.18573%, 91.799927%)" offset="0.226562"/><stop stop-opacity="1" stop-color="rgb(42.797852%, 72.998047%, 91.799927%)" offset="0.234375"/><stop stop-opacity="1" stop-color="rgb(42.698669%, 72.898865%, 91.799927%)" offset="0.25"/><stop stop-opacity="1" stop-color="rgb(42.549133%, 72.898865%, 91.607666%)" offset="0.265625"/><stop stop-opacity="1" stop-color="rgb(42.199707%, 72.698975%, 91.407776%)" offset="0.269531"/><stop stop-opacity="1" stop-color="rgb(41.999817%, 72.499084%, 91.398621%)" offset="0.273438"/><stop stop-opacity="1" stop-color="rgb(41.986084%, 72.499084%, 91.398621%)" offset="0.28125"/><stop stop-opacity="1" stop-color="rgb(41.786194%, 72.499084%, 91.398621%)" offset="0.296875"/><stop stop-opacity="1" stop-color="rgb(41.410828%, 72.499084%, 91.398621%)" offset="0.3125"/><stop stop-opacity="1" stop-color="rgb(41.203308%, 72.348022%, 91.398621%)" offset="0.320312"/><stop stop-opacity="1" stop-color="rgb(40.991211%, 72.195435%, 91.395569%)" offset="0.328125"/><stop stop-opacity="1" stop-color="rgb(40.79895%, 71.99707%, 91.197205%)" offset="0.335938"/><stop stop-opacity="1" stop-color="rgb(40.605164%, 71.800232%, 91.000366%)" offset="0.34375"/><stop stop-opacity="1" stop-color="rgb(40.405273%, 71.798706%, 90.99884%)" offset="0.351562"/><stop stop-opacity="1" stop-color="rgb(40.19928%, 71.598816%, 90.99884%)" offset="0.355469"/><stop stop-opacity="1" stop-color="rgb(39.99939%, 71.398926%, 90.99884%)" offset="0.359375"/><stop stop-opacity="1" stop-color="rgb(39.994812%, 71.394348%, 90.99884%)" offset="0.367188"/><stop stop-opacity="1" stop-color="rgb(39.794922%, 71.194458%, 90.99884%)" offset="0.375"/><stop stop-opacity="1" stop-color="rgb(39.408875%, 70.999146%, 90.808105%)" offset="0.390625"/><stop stop-opacity="1" stop-color="rgb(39.196777%, 70.999146%, 90.608215%)" offset="0.398438"/><stop stop-opacity="1" stop-color="rgb(38.987732%, 70.993042%, 90.59906%)" offset="0.40625"/><stop stop-opacity="1" stop-color="rgb(38.798523%, 70.793152%, 90.59906%)" offset="0.414062"/><stop stop-opacity="1" stop-color="rgb(38.798523%, 70.405579%, 90.59906%)" offset="0.421875"/><stop stop-opacity="1" stop-color="rgb(38.61084%, 70.405579%, 90.59906%)" offset="0.4375"/><stop stop-opacity="1" stop-color="rgb(38.21106%, 70.399475%, 90.59906%)" offset="0.441406"/><stop stop-opacity="1" stop-color="rgb(37.998962%, 70.199585%, 90.59906%)" offset="0.445312"/><stop stop-opacity="1" stop-color="rgb(37.998962%, 70.199585%, 90.59906%)" offset="0.453125"/><stop stop-opacity="1" stop-color="rgb(37.802124%, 70.199585%, 90.59906%)" offset="0.457031"/><stop stop-opacity="1" stop-color="rgb(37.605286%, 70.199585%, 90.59906%)" offset="0.460938"/><stop stop-opacity="1" stop-color="rgb(37.602234%, 70.199585%, 90.59906%)" offset="0.46875"/><stop stop-opacity="1" stop-color="rgb(37.599182%, 70.021057%, 90.420532%)" offset="0.476562"/><stop stop-opacity="1" stop-color="rgb(37.599182%, 69.821167%, 90.220642%)" offset="0.484375"/><stop stop-opacity="1" stop-color="rgb(37.44812%, 69.799805%, 90.19928%)" offset="0.5"/><stop stop-opacity="1" stop-color="rgb(37.298584%, 69.604492%, 90.19928%)" offset="0.507812"/><stop stop-opacity="1" stop-color="rgb(37.098694%, 69.403076%, 90.19928%)" offset="0.511719"/><stop stop-opacity="1" stop-color="rgb(36.898804%, 69.398499%, 90.19928%)" offset="0.515625"/><stop stop-opacity="1" stop-color="rgb(36.875916%, 69.577026%, 90.19928%)" offset="0.523438"/><stop stop-opacity="1" stop-color="rgb(36.676025%, 69.380188%, 90.19928%)" offset="0.527344"/><stop stop-opacity="1" stop-color="rgb(36.499023%, 69.004822%, 90.19928%)" offset="0.53125"/><stop stop-opacity="1" stop-color="rgb(36.499023%, 69.200134%, 90.19928%)" offset="0.546875"/><stop stop-opacity="1" stop-color="rgb(36.306763%, 69.396973%, 90.19928%)" offset="0.554688"/><stop stop-opacity="1" stop-color="rgb(36.106873%, 69.198608%, 89.99939%)" offset="0.558594"/><stop stop-opacity="1" stop-color="rgb(36.099243%, 68.998718%, 89.7995%)" offset="0.5625"/><stop stop-opacity="1" stop-color="rgb(35.899353%, 68.998718%, 89.7995%)" offset="0.566406"/><stop stop-opacity="1" stop-color="rgb(35.699463%, 68.998718%, 89.7995%)" offset="0.570312"/><stop stop-opacity="1" stop-color="rgb(35.699463%, 68.992615%, 89.7995%)" offset="0.578125"/><stop stop-opacity="1" stop-color="rgb(35.699463%, 68.792725%, 89.7995%)" offset="0.59375"/><stop stop-opacity="1" stop-color="rgb(35.510254%, 68.598938%, 89.7995%)" offset="0.601562"/><stop stop-opacity="1" stop-color="rgb(35.305786%, 68.59436%, 89.7995%)" offset="0.609375"/><stop stop-opacity="1" stop-color="rgb(35.095215%, 68.39447%, 89.7995%)" offset="0.625"/><stop stop-opacity="1" stop-color="rgb(34.899902%, 68.199158%, 89.604187%)" offset="0.640625"/><stop stop-opacity="1" stop-color="rgb(34.698486%, 67.999268%, 89.404297%)" offset="0.644531"/><stop stop-opacity="1" stop-color="rgb(34.498596%, 67.799377%, 89.399719%)" offset="0.648438"/><stop stop-opacity="1" stop-color="rgb(34.495544%, 67.799377%, 89.399719%)" offset="0.65625"/><stop stop-opacity="1" stop-color="rgb(34.29718%, 67.799377%, 89.399719%)" offset="0.671875"/><stop stop-opacity="1" stop-color="rgb(34.100342%, 67.654419%, 89.399719%)" offset="0.679688"/><stop stop-opacity="1" stop-color="rgb(33.92334%, 67.304993%, 89.199829%)" offset="0.683594"/><stop stop-opacity="1" stop-color="rgb(33.74939%, 67.098999%, 88.999939%)" offset="0.6875"/><stop stop-opacity="1" stop-color="rgb(33.720398%, 67.098999%, 88.999939%)" offset="0.703125"/><stop stop-opacity="1" stop-color="rgb(33.49762%, 67.098999%, 88.999939%)" offset="0.710938"/><stop stop-opacity="1" stop-color="rgb(33.300781%, 66.899109%, 88.812256%)" offset="0.714844"/><stop stop-opacity="1" stop-color="rgb(33.299255%, 66.699219%, 88.624573%)" offset="0.71875"/><stop stop-opacity="1" stop-color="rgb(33.299255%, 66.699219%, 88.792419%)" offset="0.734375"/><stop stop-opacity="1" stop-color="rgb(33.294678%, 66.499329%, 88.780212%)" offset="0.738281"/><stop stop-opacity="1" stop-color="rgb(33.2901%, 66.299438%, 88.598633%)" offset="0.742188"/><stop stop-opacity="1" stop-color="rgb(33.094788%, 66.299438%, 88.598633%)" offset="0.75"/><stop stop-opacity="1" stop-color="rgb(32.899475%, 66.299438%, 88.598633%)" offset="0.765625"/><stop stop-opacity="1" stop-color="rgb(32.800293%, 66.200256%, 88.598633%)" offset="0.773438"/><stop stop-opacity="1" stop-color="rgb(32.597351%, 66.000366%, 88.598633%)" offset="0.78125"/><stop stop-opacity="1" stop-color="rgb(32.348633%, 65.899658%, 88.598633%)" offset="0.796875"/><stop stop-opacity="1" stop-color="rgb(32.012939%, 65.899658%, 88.41095%)" offset="0.8125"/><stop stop-opacity="1" stop-color="rgb(31.811523%, 65.802002%, 88.21106%)" offset="0.820312"/><stop stop-opacity="1" stop-color="rgb(31.799316%, 65.602112%, 88.198853%)" offset="0.828125"/><stop stop-opacity="1" stop-color="rgb(31.799316%, 65.499878%, 88.198853%)" offset="0.84375"/><stop stop-opacity="1" stop-color="rgb(31.610107%, 65.310669%, 88.198853%)" offset="0.851562"/><stop stop-opacity="1" stop-color="rgb(31.210327%, 65.109253%, 88.198853%)" offset="0.855469"/><stop stop-opacity="1" stop-color="rgb(30.999756%, 65.098572%, 88.198853%)" offset="0.859375"/><stop stop-opacity="1" stop-color="rgb(30.999756%, 65.098572%, 88.198853%)" offset="0.875"/><stop stop-opacity="1" stop-color="rgb(30.999756%, 64.903259%, 88.00354%)" offset="0.890625"/><stop stop-opacity="1" stop-color="rgb(30.900574%, 64.703369%, 87.80365%)" offset="0.898438"/><stop stop-opacity="1" stop-color="rgb(30.700684%, 64.69574%, 87.799072%)" offset="0.90625"/><stop stop-opacity="1" stop-color="rgb(30.599976%, 64.497375%, 87.799072%)" offset="0.921875"/><stop stop-opacity="1" stop-color="rgb(30.406189%, 64.300537%, 87.799072%)" offset="0.9375"/><stop stop-opacity="1" stop-color="rgb(30.204773%, 64.201355%, 87.72583%)" offset="0.945312"/><stop stop-opacity="1" stop-color="rgb(30.195618%, 64.001465%, 87.576294%)" offset="0.953125"/><stop stop-opacity="1" stop-color="rgb(29.998779%, 63.899231%, 87.5%)" offset="0.960938"/><stop stop-opacity="1" stop-color="rgb(29.614258%, 63.711548%, 87.5%)" offset="0.96875"/><stop stop-opacity="1" stop-color="rgb(29.411316%, 63.511658%, 87.490845%)" offset="0.984375"/><stop stop-opacity="1" stop-color="rgb(29.389954%, 63.490295%, 87.289429%)" offset="0.992188"/><stop stop-opacity="1" stop-color="rgb(29.190063%, 63.290405%, 86.898804%)" offset="0.996094"/><stop stop-opacity="1" stop-color="rgb(28.999329%, 63.09967%, 86.700439%)" offset="1"/></linearGradient><clipPath id="563e3bf2a4"><path d="M 1.226562 1.226562 L 62.523438 1.226562 L 62.523438 62.523438 L 1.226562 62.523438 Z M 1.226562 1.226562 " clip-rule="nonzero"/></clipPath><clipPath id="8bc06cdd52"><path d="M 62.523438 31.875 C 62.523438 48.800781 48.800781 62.523438 31.875 62.523438 C 14.949219 62.523438 1.226562 48.800781 1.226562 31.875 C 1.226562 14.949219 14.949219 1.226562 31.875 1.226562 C 48.800781 1.226562 62.523438 14.949219 62.523438 31.875 " clip-rule="nonzero"/></clipPath><clipPath id="5b3f2d5daa"><path d="M 62.523438 31.875 C 62.523438 48.800781 48.800781 62.523438 31.875 62.523438 C 14.949219 62.523438 1.226562 48.800781 1.226562 31.875 C 1.226562 14.949219 14.949219 1.226562 31.875 1.226562 C 48.800781 1.226562 62.523438 14.949219 62.523438 31.875 " clip-rule="nonzero"/></clipPath><linearGradient x1="0.00000462154" gradientTransform="matrix(0, -61.297952, 61.962012, 0, 0.893829, 62.523971)" y1="0" x2="1.000006" gradientUnits="userSpaceOnUse" y2="0" id="51767c62d1"><stop stop-opacity="1" stop-color="rgb(28.999329%, 63.09967%, 86.698914%)" offset="0"/><stop stop-opacity="1" stop-color="rgb(28.999329%, 63.09967%, 86.698914%)" offset="0.25"/><stop stop-opacity="1" stop-color="rgb(29.190063%, 63.290405%, 86.898804%)" offset="0.253906"/><stop stop-opacity="1" stop-color="rgb(29.380798%, 63.48114%, 87.098694%)" offset="0.257812"/><stop stop-opacity="1" stop-color="rgb(29.389954%, 63.490295%, 87.298584%)" offset="0.261719"/><stop stop-opacity="1" stop-color="rgb(29.399109%, 63.499451%, 87.5%)" offset="0.265625"/><stop stop-opacity="1" stop-color="rgb(29.595947%, 63.696289%, 87.5%)" offset="0.269531"/><stop stop-opacity="1" stop-color="rgb(29.792786%, 63.893127%, 87.5%)" offset="0.273438"/><stop stop-opacity="1" stop-color="rgb(29.795837%, 63.896179%, 87.5%)" offset="0.28125"/><stop stop-opacity="1" stop-color="rgb(29.998779%, 63.900757%, 87.5%)" offset="0.285156"/><stop stop-opacity="1" stop-color="rgb(30.198669%, 63.902283%, 87.5%)" offset="0.289063"/><stop stop-opacity="1" stop-color="rgb(30.198669%, 64.097595%, 87.5%)" offset="0.296875"/><stop stop-opacity="1" stop-color="rgb(30.39856%, 64.300537%, 87.649536%)" offset="0.300781"/><stop stop-opacity="1" stop-color="rgb(30.599976%, 64.308167%, 87.799072%)" offset="0.304688"/><stop stop-opacity="1" stop-color="rgb(30.599976%, 64.503479%, 87.799072%)" offset="0.3125"/><stop stop-opacity="1" stop-color="rgb(30.795288%, 64.698792%, 87.799072%)" offset="0.320312"/><stop stop-opacity="1" stop-color="rgb(30.996704%, 64.700317%, 87.800598%)" offset="0.328125"/><stop stop-opacity="1" stop-color="rgb(31.19812%, 64.897156%, 87.997437%)" offset="0.34375"/><stop stop-opacity="1" stop-color="rgb(31.39801%, 65.29541%, 88.195801%)" offset="0.347656"/><stop stop-opacity="1" stop-color="rgb(31.402588%, 65.499878%, 88.198853%)" offset="0.351562"/><stop stop-opacity="1" stop-color="rgb(31.5979%, 65.499878%, 88.198853%)" offset="0.359375"/><stop stop-opacity="1" stop-color="rgb(31.999207%, 65.504456%, 88.20343%)" offset="0.363281"/><stop stop-opacity="1" stop-color="rgb(32.206726%, 65.509033%, 88.209534%)" offset="0.367188"/><stop stop-opacity="1" stop-color="rgb(32.35321%, 65.704346%, 88.40332%)" offset="0.375"/><stop stop-opacity="1" stop-color="rgb(32.499695%, 65.899658%, 88.598633%)" offset="0.382813"/><stop stop-opacity="1" stop-color="rgb(32.699585%, 66.099548%, 88.598633%)" offset="0.386719"/><stop stop-opacity="1" stop-color="rgb(32.899475%, 66.299438%, 88.598633%)" offset="0.390625"/><stop stop-opacity="1" stop-color="rgb(32.899475%, 66.299438%, 88.598633%)" offset="0.40625"/><stop stop-opacity="1" stop-color="rgb(33.100891%, 66.499329%, 88.600159%)" offset="0.410156"/><stop stop-opacity="1" stop-color="rgb(33.302307%, 66.699219%, 88.60321%)" offset="0.414062"/><stop stop-opacity="1" stop-color="rgb(33.49762%, 66.699219%, 88.798523%)" offset="0.421875"/><stop stop-opacity="1" stop-color="rgb(33.895874%, 66.903687%, 88.996887%)" offset="0.425781"/><stop stop-opacity="1" stop-color="rgb(34.098816%, 67.108154%, 88.999939%)" offset="0.429688"/><stop stop-opacity="1" stop-color="rgb(34.098816%, 67.303467%, 88.999939%)" offset="0.4375"/><stop stop-opacity="1" stop-color="rgb(34.098816%, 67.498779%, 88.999939%)" offset="0.445313"/><stop stop-opacity="1" stop-color="rgb(34.301758%, 67.498779%, 89.199829%)" offset="0.449219"/><stop stop-opacity="1" stop-color="rgb(34.506226%, 67.498779%, 89.399719%)" offset="0.453125"/><stop stop-opacity="1" stop-color="rgb(34.701538%, 67.498779%, 89.399719%)" offset="0.460938"/><stop stop-opacity="1" stop-color="rgb(34.898376%, 67.643738%, 89.399719%)" offset="0.46875"/><stop stop-opacity="1" stop-color="rgb(35.101318%, 67.796326%, 89.399719%)" offset="0.472656"/><stop stop-opacity="1" stop-color="rgb(35.302734%, 67.802429%, 89.399719%)" offset="0.476563"/><stop stop-opacity="1" stop-color="rgb(35.498047%, 67.997742%, 89.399719%)" offset="0.484375"/><stop stop-opacity="1" stop-color="rgb(35.696411%, 68.196106%, 89.399719%)" offset="0.492188"/><stop stop-opacity="1" stop-color="rgb(35.899353%, 68.199158%, 89.399719%)" offset="0.496094"/><stop stop-opacity="1" stop-color="rgb(36.099243%, 68.199158%, 89.399719%)" offset="0.5"/><stop stop-opacity="1" stop-color="rgb(36.294556%, 68.39447%, 89.595032%)" offset="0.507813"/><stop stop-opacity="1" stop-color="rgb(36.694336%, 68.597412%, 89.794922%)" offset="0.511719"/><stop stop-opacity="1" stop-color="rgb(36.898804%, 68.605042%, 89.7995%)" offset="0.515625"/><stop stop-opacity="1" stop-color="rgb(36.898804%, 68.800354%, 89.7995%)" offset="0.523438"/><stop stop-opacity="1" stop-color="rgb(37.09259%, 68.997192%, 89.7995%)" offset="0.53125"/><stop stop-opacity="1" stop-color="rgb(37.294006%, 69.000244%, 89.7995%)" offset="0.539063"/><stop stop-opacity="1" stop-color="rgb(37.44812%, 69.198608%, 89.7995%)" offset="0.546875"/><stop stop-opacity="1" stop-color="rgb(37.600708%, 69.395447%, 89.99939%)" offset="0.550781"/><stop stop-opacity="1" stop-color="rgb(37.608337%, 69.398499%, 90.19928%)" offset="0.554688"/><stop stop-opacity="1" stop-color="rgb(37.80365%, 69.398499%, 90.19928%)" offset="0.5625"/><stop stop-opacity="1" stop-color="rgb(37.998962%, 69.398499%, 90.19928%)" offset="0.570313"/><stop stop-opacity="1" stop-color="rgb(38.198853%, 69.404602%, 90.19928%)" offset="0.574219"/><stop stop-opacity="1" stop-color="rgb(38.398743%, 69.412231%, 90.19928%)" offset="0.578125"/><stop stop-opacity="1" stop-color="rgb(38.595581%, 69.802856%, 90.396118%)" offset="0.582031"/><stop stop-opacity="1" stop-color="rgb(38.793945%, 70.193481%, 90.592957%)" offset="0.585938"/><stop stop-opacity="1" stop-color="rgb(38.795471%, 70.196533%, 90.596008%)" offset="0.59375"/><stop stop-opacity="1" stop-color="rgb(39.198303%, 70.399475%, 90.59906%)" offset="0.597656"/><stop stop-opacity="1" stop-color="rgb(39.599609%, 70.599365%, 90.59906%)" offset="0.601563"/><stop stop-opacity="1" stop-color="rgb(39.599609%, 70.599365%, 90.59906%)" offset="0.609375"/><stop stop-opacity="1" stop-color="rgb(39.804077%, 70.799255%, 90.59906%)" offset="0.613281"/><stop stop-opacity="1" stop-color="rgb(40.008545%, 70.999146%, 90.59906%)" offset="0.617188"/><stop stop-opacity="1" stop-color="rgb(40.203857%, 70.999146%, 90.59906%)" offset="0.625"/><stop stop-opacity="1" stop-color="rgb(40.594482%, 70.999146%, 90.59906%)" offset="0.632813"/><stop stop-opacity="1" stop-color="rgb(40.994263%, 71.199036%, 90.79895%)" offset="0.636719"/><stop stop-opacity="1" stop-color="rgb(41.19873%, 71.398926%, 90.99884%)" offset="0.640625"/><stop stop-opacity="1" stop-color="rgb(41.392517%, 71.398926%, 90.99884%)" offset="0.65625"/><stop stop-opacity="1" stop-color="rgb(41.690063%, 71.496582%, 90.99884%)" offset="0.664063"/><stop stop-opacity="1" stop-color="rgb(41.894531%, 71.694946%, 90.99884%)" offset="0.671875"/><stop stop-opacity="1" stop-color="rgb(42.201233%, 71.801758%, 90.99884%)" offset="0.675781"/><stop stop-opacity="1" stop-color="rgb(42.407227%, 71.809387%, 90.99884%)" offset="0.679688"/><stop stop-opacity="1" stop-color="rgb(42.553711%, 72.0047%, 90.99884%)" offset="0.6875"/><stop stop-opacity="1" stop-color="rgb(42.895508%, 72.346497%, 91.194153%)" offset="0.695312"/><stop stop-opacity="1" stop-color="rgb(43.096924%, 72.496033%, 91.394043%)" offset="0.703125"/><stop stop-opacity="1" stop-color="rgb(43.29834%, 72.499084%, 91.398621%)" offset="0.71875"/><stop stop-opacity="1" stop-color="rgb(43.69812%, 72.50061%, 91.398621%)" offset="0.722656"/><stop stop-opacity="1" stop-color="rgb(43.902588%, 72.502136%, 91.398621%)" offset="0.726563"/><stop stop-opacity="1" stop-color="rgb(44.0979%, 72.697449%, 91.398621%)" offset="0.734375"/><stop stop-opacity="1" stop-color="rgb(44.300842%, 72.895813%, 91.398621%)" offset="0.742188"/><stop stop-opacity="1" stop-color="rgb(44.503784%, 72.898865%, 91.398621%)" offset="0.75"/><stop stop-opacity="1" stop-color="rgb(44.699097%, 72.898865%, 91.398621%)" offset="1"/></linearGradient><clipPath id="4831bdeab3"><path d="M 1.226562 1.226562 L 62.523438 1.226562 L 62.523438 1.285156 L 1.226562 1.285156 Z M 1.226562 1.285156 L 62.523438 1.285156 L 62.523438 1.34375 L 1.226562 1.34375 Z M 1.226562 1.34375 L 62.523438 1.34375 L 62.523438 1.40625 L 1.226562 1.40625 Z M 1.226562 1.40625 L 62.523438 1.40625 L 62.523438 1.464844 L 1.226562 1.464844 Z M 1.226562 1.464844 L 62.523438 1.464844 L 62.523438 1.523438 L 1.226562 1.523438 Z M 1.226562 1.523438 L 62.523438 1.523438 L 62.523438 1.585938 L 1.226562 1.585938 Z M 1.226562 1.585938 L 62.523438 1.585938 L 62.523438 1.644531 L 1.226562 1.644531 Z M 1.226562 1.644531 L 62.523438 1.644531 L 62.523438 1.703125 L 1.226562 1.703125 Z M 1.226562 1.703125 L 62.523438 1.703125 L 62.523438 1.765625 L 1.226562 1.765625 Z M 1.226562 1.765625 L 62.523438 1.765625 L 62.523438 1.824219 L 1.226562 1.824219 Z M 1.226562 1.824219 L 62.523438 1.824219 L 62.523438 1.882812 L 1.226562 1.882812 Z M 1.226562 1.882812 L 62.523438 1.882812 L 62.523438 1.945312 L 1.226562 1.945312 Z M 1.226562 1.945312 L 62.523438 1.945312 L 62.523438 2.003906 L 1.226562 2.003906 Z M 1.226562 2.003906 L 62.523438 2.003906 L 62.523438 2.0625 L 1.226562 2.0625 Z M 1.226562 2.0625 L 62.523438 2.0625 L 62.523438 2.125 L 1.226562 2.125 Z M 1.226562 2.125 L 62.523438 2.125 L 62.523438 2.183594 L 1.226562 2.183594 Z M 1.226562 2.183594 L 62.523438 2.183594 L 62.523438 2.242188 L 1.226562 2.242188 Z M 1.226562 2.242188 L 62.523438 2.242188 L 62.523438 2.304688 L 1.226562 2.304688 Z M 1.226562 2.304688 L 62.523438 2.304688 L 62.523438 2.363281 L 1.226562 2.363281 Z M 1.226562 2.363281 L 62.523438 2.363281 L 62.523438 2.421875 L 1.226562 2.421875 Z M 1.226562 2.421875 L 62.523438 2.421875 L 62.523438 2.484375 L 1.226562 2.484375 Z M 1.226562 2.484375 L 62.523438 2.484375 L 62.523438 2.542969 L 1.226562 2.542969 Z M 1.226562 2.542969 L 62.523438 2.542969 L 62.523438 2.601562 L 1.226562 2.601562 Z M 1.226562 2.601562 L 62.523438 2.601562 L 62.523438 2.664062 L 1.226562 2.664062 Z M 1.226562 2.664062 L 62.523438 2.664062 L 62.523438 2.722656 L 1.226562 2.722656 Z M 1.226562 2.722656 L 62.523438 2.722656 L 62.523438 2.78125 L 1.226562 2.78125 Z M 1.226562 2.78125 L 62.523438 2.78125 L 62.523438 2.84375 L 1.226562 2.84375 Z M 1.226562 2.84375 L 62.523438 2.84375 L 62.523438 2.902344 L 1.226562 2.902344 Z M 1.226562 2.902344 L 62.523438 2.902344 L 62.523438 2.960938 L 1.226562 2.960938 Z M 1.226562 2.960938 L 62.523438 2.960938 L 62.523438 3.023438 L 1.226562 3.023438 Z M 1.226562 3.023438 L 62.523438 3.023438 L 62.523438 3.082031 L 1.226562 3.082031 Z M 1.226562 3.082031 L 62.523438 3.082031 L 62.523438 3.140625 L 1.226562 3.140625 Z M 1.226562 3.140625 L 62.523438 3.140625 L 62.523438 3.199219 L 1.226562 3.199219 Z M 1.226562 3.199219 L 62.523438 3.199219 L 62.523438 3.261719 L 1.226562 3.261719 Z M 1.226562 3.261719 L 62.523438 3.261719 L 62.523438 3.320312 L 1.226562 3.320312 Z M 1.226562 3.320312 L 62.523438 3.320312 L 62.523438 3.378906 L 1.226562 3.378906 Z M 1.226562 3.378906 L 62.523438 3.378906 L 62.523438 3.441406 L 1.226562 3.441406 Z M 1.226562 3.441406 L 62.523438 3.441406 L 62.523438 3.5 L 1.226562 3.5 Z M 1.226562 3.5 L 62.523438 3.5 L 62.523438 3.558594 L 1.226562 3.558594 Z M 1.226562 3.558594 L 62.523438 3.558594 L 62.523438 3.621094 L 1.226562 3.621094 Z M 1.226562 3.621094 L 62.523438 3.621094 L 62.523438 3.679688 L 1.226562 3.679688 Z M 1.226562 3.679688 L 62.523438 3.679688 L 62.523438 3.738281 L 1.226562 3.738281 Z M 1.226562 3.738281 L 62.523438 3.738281 L 62.523438 3.800781 L 1.226562 3.800781 Z M 1.226562 3.800781 L 62.523438 3.800781 L 62.523438 3.859375 L 1.226562 3.859375 Z M 1.226562 3.859375 L 62.523438 3.859375 L 62.523438 3.917969 L 1.226562 3.917969 Z M 1.226562 3.917969 L 62.523438 3.917969 L 62.523438 3.980469 L 1.226562 3.980469 Z M 1.226562 3.980469 L 62.523438 3.980469 L 62.523438 4.039062 L 1.226562 4.039062 Z M 1.226562 4.039062 L 62.523438 4.039062 L 62.523438 4.097656 L 1.226562 4.097656 Z M 1.226562 4.097656 L 62.523438 4.097656 L 62.523438 4.160156 L 1.226562 4.160156 Z M 1.226562 4.160156 L 62.523438 4.160156 L 62.523438 4.21875 L 1.226562 4.21875 Z M 1.226562 4.21875 L 62.523438 4.21875 L 62.523438 4.277344 L 1.226562 4.277344 Z M 1.226562 4.277344 L 62.523438 4.277344 L 62.523438 4.339844 L 1.226562 4.339844 Z M 1.226562 4.339844 L 62.523438 4.339844 L 62.523438 4.398438 L 1.226562 4.398438 Z M 1.226562 4.398438 L 62.523438 4.398438 L 62.523438 4.457031 L 1.226562 4.457031 Z M 1.226562 4.457031 L 62.523438 4.457031 L 62.523438 4.519531 L 1.226562 4.519531 Z M 1.226562 4.519531 L 62.523438 4.519531 L 62.523438 4.578125 L 1.226562 4.578125 Z M 1.226562 4.578125 L 62.523438 4.578125 L 62.523438 4.636719 L 1.226562 4.636719 Z M 1.226562 4.636719 L 62.523438 4.636719 L 62.523438 4.699219 L 1.226562 4.699219 Z M 1.226562 4.699219 L 62.523438 4.699219 L 62.523438 4.757812 L 1.226562 4.757812 Z M 1.226562 4.757812 L 62.523438 4.757812 L 62.523438 4.816406 L 1.226562 4.816406 Z M 1.226562 4.816406 L 62.523438 4.816406 L 62.523438 4.878906 L 1.226562 4.878906 Z M 1.226562 4.878906 L 62.523438 4.878906 L 62.523438 4.9375 L 1.226562 4.9375 Z M 1.226562 4.9375 L 62.523438 4.9375 L 62.523438 4.996094 L 1.226562 4.996094 Z M 1.226562 4.996094 L 62.523438 4.996094 L 62.523438 5.058594 L 1.226562 5.058594 Z M 1.226562 5.058594 L 62.523438 5.058594 L 62.523438 5.117188 L 1.226562 5.117188 Z M 1.226562 5.117188 L 62.523438 5.117188 L 62.523438 5.175781 L 1.226562 5.175781 Z M 1.226562 5.175781 L 62.523438 5.175781 L 62.523438 5.238281 L 1.226562 5.238281 Z M 1.226562 5.238281 L 62.523438 5.238281 L 62.523438 5.296875 L 1.226562 5.296875 Z M 1.226562 5.296875 L 62.523438 5.296875 L 62.523438 5.355469 L 1.226562 5.355469 Z M 1.226562 5.355469 L 62.523438 5.355469 L 62.523438 5.417969 L 1.226562 5.417969 Z M 1.226562 5.417969 L 62.523438 5.417969 L 62.523438 5.476562 L 1.226562 5.476562 Z M 1.226562 5.476562 L 62.523438 5.476562 L 62.523438 5.535156 L 1.226562 5.535156 Z M 1.226562 5.535156 L 62.523438 5.535156 L 62.523438 5.597656 L 1.226562 5.597656 Z M 1.226562 5.597656 L 62.523438 5.597656 L 62.523438 5.65625 L 1.226562 5.65625 Z M 1.226562 5.65625 L 62.523438 5.65625 L 62.523438 5.777344 L 1.226562 5.777344 Z M 1.226562 5.777344 L 62.523438 5.777344 L 62.523438 5.835938 L 1.226562 5.835938 Z M 1.226562 5.835938 L 62.523438 5.835938 L 62.523438 5.894531 L 1.226562 5.894531 Z M 1.226562 5.894531 L 62.523438 5.894531 L 62.523438 5.957031 L 1.226562 5.957031 Z M 1.226562 5.957031 L 62.523438 5.957031 L 62.523438 6.015625 L 1.226562 6.015625 Z M 1.226562 6.015625 L 62.523438 6.015625 L 62.523438 6.074219 L 1.226562 6.074219 Z M 1.226562 6.074219 L 62.523438 6.074219 L 62.523438 6.136719 L 1.226562 6.136719 Z M 1.226562 6.136719 L 62.523438 6.136719 L 62.523438 6.195312 L 1.226562 6.195312 Z M 1.226562 6.195312 L 62.523438 6.195312 L 62.523438 6.253906 L 1.226562 6.253906 Z M 1.226562 6.253906 L 62.523438 6.253906 L 62.523438 6.375 L 1.226562 6.375 Z M 1.226562 6.375 L 62.523438 6.375 L 62.523438 6.433594 L 1.226562 6.433594 Z M 1.226562 6.433594 L 62.523438 6.433594 L 62.523438 6.492188 L 1.226562 6.492188 Z M 1.226562 6.492188 L 62.523438 6.492188 L 62.523438 6.554688 L 1.226562 6.554688 Z M 1.226562 6.554688 L 62.523438 6.554688 L 62.523438 6.613281 L 1.226562 6.613281 Z M 1.226562 6.613281 L 62.523438 6.613281 L 62.523438 6.671875 L 1.226562 6.671875 Z M 1.226562 6.671875 L 62.523438 6.671875 L 62.523438 6.734375 L 1.226562 6.734375 Z M 1.226562 6.734375 L 62.523438 6.734375 L 62.523438 6.792969 L 1.226562 6.792969 Z M 1.226562 6.792969 L 62.523438 6.792969 L 62.523438 6.851562 L 1.226562 6.851562 Z M 1.226562 6.851562 L 62.523438 6.851562 L 62.523438 6.914062 L 1.226562 6.914062 Z M 1.226562 6.914062 L 62.523438 6.914062 L 62.523438 6.972656 L 1.226562 6.972656 Z M 1.226562 6.972656 L 62.523438 6.972656 L 62.523438 7.03125 L 1.226562 7.03125 Z M 1.226562 7.03125 L 62.523438 7.03125 L 62.523438 7.09375 L 1.226562 7.09375 Z M 1.226562 7.09375 L 62.523438 7.09375 L 62.523438 7.210938 L 1.226562 7.210938 Z M 1.226562 7.210938 L 62.523438 7.210938 L 62.523438 7.273438 L 1.226562 7.273438 Z M 1.226562 7.273438 L 62.523438 7.273438 L 62.523438 7.332031 L 1.226562 7.332031 Z M 1.226562 7.332031 L 62.523438 7.332031 L 62.523438 7.390625 L 1.226562 7.390625 Z M 1.226562 7.390625 L 62.523438 7.390625 L 62.523438 7.453125 L 1.226562 7.453125 Z M 1.226562 7.453125 L 62.523438 7.453125 L 62.523438 7.511719 L 1.226562 7.511719 Z M 1.226562 7.511719 L 62.523438 7.511719 L 62.523438 7.570312 L 1.226562 7.570312 Z M 1.226562 7.570312 L 62.523438 7.570312 L 62.523438 7.632812 L 1.226562 7.632812 Z M 1.226562 7.632812 L 62.523438 7.632812 L 62.523438 7.691406 L 1.226562 7.691406 Z M 1.226562 7.691406 L 62.523438 7.691406 L 62.523438 7.75 L 1.226562 7.75 Z M 1.226562 7.75 L 62.523438 7.75 L 62.523438 7.808594 L 1.226562 7.808594 Z M 1.226562 7.808594 L 62.523438 7.808594 L 62.523438 7.871094 L 1.226562 7.871094 Z M 1.226562 7.871094 L 62.523438 7.871094 L 62.523438 7.929688 L 1.226562 7.929688 Z M 1.226562 7.929688 L 62.523438 7.929688 L 62.523438 7.988281 L 1.226562 7.988281 Z M 1.226562 7.988281 L 62.523438 7.988281 L 62.523438 8.050781 L 1.226562 8.050781 Z M 1.226562 8.050781 L 62.523438 8.050781 L 62.523438 8.167969 L 1.226562 8.167969 Z M 1.226562 8.167969 L 62.523438 8.167969 L 62.523438 8.230469 L 1.226562 8.230469 Z M 1.226562 8.230469 L 62.523438 8.230469 L 62.523438 8.289062 L 1.226562 8.289062 Z M 1.226562 8.289062 L 62.523438 8.289062 L 62.523438 8.347656 L 1.226562 8.347656 Z M 1.226562 8.347656 L 62.523438 8.347656 L 62.523438 8.410156 L 1.226562 8.410156 Z M 1.226562 8.410156 L 62.523438 8.410156 L 62.523438 8.527344 L 1.226562 8.527344 Z M 1.226562 8.527344 L 62.523438 8.527344 L 62.523438 8.589844 L 1.226562 8.589844 Z M 1.226562 8.589844 L 62.523438 8.589844 L 62.523438 8.648438 L 1.226562 8.648438 Z M 1.226562 8.648438 L 62.523438 8.648438 L 62.523438 8.707031 L 1.226562 8.707031 Z M 1.226562 8.707031 L 62.523438 8.707031 L 62.523438 8.769531 L 1.226562 8.769531 Z M 1.226562 8.769531 L 62.523438 8.769531 L 62.523438 8.828125 L 1.226562 8.828125 Z M 1.226562 8.828125 L 62.523438 8.828125 L 62.523438 8.886719 L 1.226562 8.886719 Z M 1.226562 8.886719 L 62.523438 8.886719 L 62.523438 8.949219 L 1.226562 8.949219 Z M 1.226562 8.949219 L 62.523438 8.949219 L 62.523438 9.007812 L 1.226562 9.007812 Z M 1.226562 9.007812 L 62.523438 9.007812 L 62.523438 9.066406 L 1.226562 9.066406 Z M 1.226562 9.066406 L 62.523438 9.066406 L 62.523438 9.128906 L 1.226562 9.128906 Z M 1.226562 9.128906 L 62.523438 9.128906 L 62.523438 9.1875 L 1.226562 9.1875 Z M 1.226562 9.1875 L 62.523438 9.1875 L 62.523438 9.246094 L 1.226562 9.246094 Z M 1.226562 9.246094 L 62.523438 9.246094 L 62.523438 9.308594 L 1.226562 9.308594 Z M 1.226562 9.308594 L 62.523438 9.308594 L 62.523438 9.367188 L 1.226562 9.367188 Z M 1.226562 9.367188 L 62.523438 9.367188 L 62.523438 9.425781 L 1.226562 9.425781 Z M 1.226562 9.425781 L 62.523438 9.425781 L 62.523438 9.488281 L 1.226562 9.488281 Z M 1.226562 9.488281 L 62.523438 9.488281 L 62.523438 9.546875 L 1.226562 9.546875 Z M 1.226562 9.546875 L 62.523438 9.546875 L 62.523438 9.605469 L 1.226562 9.605469 Z M 1.226562 9.605469 L 62.523438 9.605469 L 62.523438 9.667969 L 1.226562 9.667969 Z M 1.226562 9.667969 L 62.523438 9.667969 L 62.523438 9.726562 L 1.226562 9.726562 Z M 1.226562 9.726562 L 62.523438 9.726562 L 62.523438 9.785156 L 1.226562 9.785156 Z M 1.226562 9.785156 L 62.523438 9.785156 L 62.523438 9.847656 L 1.226562 9.847656 Z M 1.226562 9.847656 L 62.523438 9.847656 L 62.523438 9.90625 L 1.226562 9.90625 Z M 1.226562 9.90625 L 62.523438 9.90625 L 62.523438 9.964844 L 1.226562 9.964844 Z M 1.226562 9.964844 L 62.523438 9.964844 L 62.523438 10.027344 L 1.226562 10.027344 Z M 1.226562 10.027344 L 62.523438 10.027344 L 62.523438 10.085938 L 1.226562 10.085938 Z M 1.226562 10.085938 L 62.523438 10.085938 L 62.523438 10.144531 L 1.226562 10.144531 Z M 1.226562 10.144531 L 62.523438 10.144531 L 62.523438 10.207031 L 1.226562 10.207031 Z M 1.226562 10.207031 L 62.523438 10.207031 L 62.523438 10.265625 L 1.226562 10.265625 Z M 1.226562 10.265625 L 62.523438 10.265625 L 62.523438 10.324219 L 1.226562 10.324219 Z M 1.226562 10.324219 L 62.523438 10.324219 L 62.523438 10.382812 L 1.226562 10.382812 Z M 1.226562 10.382812 L 62.523438 10.382812 L 62.523438 10.445312 L 1.226562 10.445312 Z M 1.226562 10.445312 L 62.523438 10.445312 L 62.523438 10.503906 L 1.226562 10.503906 Z M 1.226562 10.503906 L 62.523438 10.503906 L 62.523438 10.5625 L 1.226562 10.5625 Z M 1.226562 10.5625 L 62.523438 10.5625 L 62.523438 10.683594 L 1.226562 10.683594 Z M 1.226562 10.683594 L 62.523438 10.683594 L 62.523438 10.742188 L 1.226562 10.742188 Z M 1.226562 10.742188 L 62.523438 10.742188 L 62.523438 10.804688 L 1.226562 10.804688 Z M 1.226562 10.804688 L 62.523438 10.804688 L 62.523438 10.863281 L 1.226562 10.863281 Z M 1.226562 10.863281 L 62.523438 10.863281 L 62.523438 10.921875 L 1.226562 10.921875 Z M 1.226562 10.921875 L 62.523438 10.921875 L 62.523438 10.984375 L 1.226562 10.984375 Z M 1.226562 10.984375 L 62.523438 10.984375 L 62.523438 11.042969 L 1.226562 11.042969 Z M 1.226562 11.042969 L 62.523438 11.042969 L 62.523438 11.164062 L 1.226562 11.164062 Z M 1.226562 11.164062 L 62.523438 11.164062 L 62.523438 11.222656 L 1.226562 11.222656 Z M 1.226562 11.222656 L 62.523438 11.222656 L 62.523438 11.28125 L 1.226562 11.28125 Z M 1.226562 11.28125 L 62.523438 11.28125 L 62.523438 11.34375 L 1.226562 11.34375 Z M 1.226562 11.34375 L 62.523438 11.34375 L 62.523438 11.402344 L 1.226562 11.402344 Z M 1.226562 11.402344 L 62.523438 11.402344 L 62.523438 11.460938 L 1.226562 11.460938 Z M 1.226562 11.460938 L 62.523438 11.460938 L 62.523438 11.523438 L 1.226562 11.523438 Z M 1.226562 11.523438 L 62.523438 11.523438 L 62.523438 11.640625 L 1.226562 11.640625 Z M 1.226562 11.640625 L 62.523438 11.640625 L 62.523438 11.703125 L 1.226562 11.703125 Z M 1.226562 11.703125 L 62.523438 11.703125 L 62.523438 11.761719 L 1.226562 11.761719 Z M 1.226562 11.761719 L 62.523438 11.761719 L 62.523438 11.820312 L 1.226562 11.820312 Z M 1.226562 11.820312 L 62.523438 11.820312 L 62.523438 11.882812 L 1.226562 11.882812 Z M 1.226562 11.882812 L 62.523438 11.882812 L 62.523438 11.941406 L 1.226562 11.941406 Z M 1.226562 11.941406 L 62.523438 11.941406 L 62.523438 12 L 1.226562 12 Z M 1.226562 12 L 62.523438 12 L 62.523438 12.0625 L 1.226562 12.0625 Z M 1.226562 12.0625 L 62.523438 12.0625 L 62.523438 12.121094 L 1.226562 12.121094 Z M 1.226562 12.121094 L 62.523438 12.121094 L 62.523438 12.242188 L 1.226562 12.242188 Z M 1.226562 12.242188 L 62.523438 12.242188 L 62.523438 12.300781 L 1.226562 12.300781 Z M 1.226562 12.300781 L 62.523438 12.300781 L 62.523438 12.359375 L 1.226562 12.359375 Z M 1.226562 12.359375 L 62.523438 12.359375 L 62.523438 12.421875 L 1.226562 12.421875 Z M 1.226562 12.421875 L 62.523438 12.421875 L 62.523438 12.480469 L 1.226562 12.480469 Z M 1.226562 12.480469 L 62.523438 12.480469 L 62.523438 12.539062 L 1.226562 12.539062 Z M 1.226562 12.539062 L 62.523438 12.539062 L 62.523438 12.601562 L 1.226562 12.601562 Z M 1.226562 12.601562 L 62.523438 12.601562 L 62.523438 12.660156 L 1.226562 12.660156 Z M 1.226562 12.660156 L 62.523438 12.660156 L 62.523438 12.71875 L 1.226562 12.71875 Z M 1.226562 12.71875 L 62.523438 12.71875 L 62.523438 12.78125 L 1.226562 12.78125 Z M 1.226562 12.78125 L 62.523438 12.78125 L 62.523438 12.839844 L 1.226562 12.839844 Z M 1.226562 12.839844 L 62.523438 12.839844 L 62.523438 12.898438 L 1.226562 12.898438 Z M 1.226562 12.898438 L 62.523438 12.898438 L 62.523438 12.957031 L 1.226562 12.957031 Z M 1.226562 12.957031 L 62.523438 12.957031 L 62.523438 13.078125 L 1.226562 13.078125 Z M 1.226562 13.078125 L 62.523438 13.078125 L 62.523438 13.136719 L 1.226562 13.136719 Z M 1.226562 13.136719 L 62.523438 13.136719 L 62.523438 13.199219 L 1.226562 13.199219 Z M 1.226562 13.199219 L 62.523438 13.199219 L 62.523438 13.257812 L 1.226562 13.257812 Z M 1.226562 13.257812 L 62.523438 13.257812 L 62.523438 13.316406 L 1.226562 13.316406 Z M 1.226562 13.316406 L 62.523438 13.316406 L 62.523438 13.378906 L 1.226562 13.378906 Z M 1.226562 13.378906 L 62.523438 13.378906 L 62.523438 13.4375 L 1.226562 13.4375 Z M 1.226562 13.4375 L 62.523438 13.4375 L 62.523438 13.496094 L 1.226562 13.496094 Z M 1.226562 13.496094 L 62.523438 13.496094 L 62.523438 13.558594 L 1.226562 13.558594 Z M 1.226562 13.558594 L 62.523438 13.558594 L 62.523438 13.617188 L 1.226562 13.617188 Z M 1.226562 13.617188 L 62.523438 13.617188 L 62.523438 13.675781 L 1.226562 13.675781 Z M 1.226562 13.675781 L 62.523438 13.675781 L 62.523438 13.738281 L 1.226562 13.738281 Z M 1.226562 13.738281 L 62.523438 13.738281 L 62.523438 13.796875 L 1.226562 13.796875 Z M 1.226562 13.796875 L 62.523438 13.796875 L 62.523438 13.855469 L 1.226562 13.855469 Z M 1.226562 13.855469 L 62.523438 13.855469 L 62.523438 13.917969 L 1.226562 13.917969 Z M 1.226562 13.917969 L 62.523438 13.917969 L 62.523438 13.976562 L 1.226562 13.976562 Z M 1.226562 13.976562 L 62.523438 13.976562 L 62.523438 14.035156 L 1.226562 14.035156 Z M 1.226562 14.035156 L 62.523438 14.035156 L 62.523438 14.097656 L 1.226562 14.097656 Z M 1.226562 14.097656 L 62.523438 14.097656 L 62.523438 14.15625 L 1.226562 14.15625 Z M 1.226562 14.15625 L 62.523438 14.15625 L 62.523438 14.214844 L 1.226562 14.214844 Z M 1.226562 14.214844 L 62.523438 14.214844 L 62.523438 14.277344 L 1.226562 14.277344 Z M 1.226562 14.277344 L 62.523438 14.277344 L 62.523438 14.335938 L 1.226562 14.335938 Z M 1.226562 14.335938 L 62.523438 14.335938 L 62.523438 14.394531 L 1.226562 14.394531 Z M 1.226562 14.394531 L 62.523438 14.394531 L 62.523438 14.453125 L 1.226562 14.453125 Z M 1.226562 14.453125 L 62.523438 14.453125 L 62.523438 14.515625 L 1.226562 14.515625 Z M 1.226562 14.515625 L 62.523438 14.515625 L 62.523438 14.574219 L 1.226562 14.574219 Z M 1.226562 14.574219 L 62.523438 14.574219 L 62.523438 14.632812 L 1.226562 14.632812 Z M 1.226562 14.632812 L 62.523438 14.632812 L 62.523438 14.695312 L 1.226562 14.695312 Z M 1.226562 14.695312 L 62.523438 14.695312 L 62.523438 14.753906 L 1.226562 14.753906 Z M 1.226562 14.753906 L 62.523438 14.753906 L 62.523438 14.8125 L 1.226562 14.8125 Z M 1.226562 14.8125 L 62.523438 14.8125 L 62.523438 14.875 L 1.226562 14.875 Z M 1.226562 14.875 L 62.523438 14.875 L 62.523438 14.933594 L 1.226562 14.933594 Z M 1.226562 14.933594 L 62.523438 14.933594 L 62.523438 14.992188 L 1.226562 14.992188 Z M 1.226562 14.992188 L 62.523438 14.992188 L 62.523438 15.054688 L 1.226562 15.054688 Z M 1.226562 15.054688 L 62.523438 15.054688 L 62.523438 15.113281 L 1.226562 15.113281 Z M 1.226562 15.113281 L 62.523438 15.113281 L 62.523438 15.171875 L 1.226562 15.171875 Z M 1.226562 15.171875 L 62.523438 15.171875 L 62.523438 15.234375 L 1.226562 15.234375 Z M 1.226562 15.234375 L 62.523438 15.234375 L 62.523438 15.292969 L 1.226562 15.292969 Z M 1.226562 15.292969 L 62.523438 15.292969 L 62.523438 15.351562 L 1.226562 15.351562 Z M 1.226562 15.351562 L 62.523438 15.351562 L 62.523438 15.472656 L 1.226562 15.472656 Z M 1.226562 15.472656 L 62.523438 15.472656 L 62.523438 15.53125 L 1.226562 15.53125 Z M 1.226562 15.53125 L 62.523438 15.53125 L 62.523438 15.59375 L 1.226562 15.59375 Z M 1.226562 15.59375 L 62.523438 15.59375 L 62.523438 15.710938 L 1.226562 15.710938 Z M 1.226562 15.710938 L 62.523438 15.710938 L 62.523438 15.773438 L 1.226562 15.773438 Z M 1.226562 15.773438 L 62.523438 15.773438 L 62.523438 15.832031 L 1.226562 15.832031 Z M 1.226562 15.832031 L 62.523438 15.832031 L 62.523438 15.890625 L 1.226562 15.890625 Z M 1.226562 15.890625 L 62.523438 15.890625 L 62.523438 15.953125 L 1.226562 15.953125 Z M 1.226562 15.953125 L 62.523438 15.953125 L 62.523438 16.070312 L 1.226562 16.070312 Z M 1.226562 16.070312 L 62.523438 16.070312 L 62.523438 16.132812 L 1.226562 16.132812 Z M 1.226562 16.132812 L 62.523438 16.132812 L 62.523438 16.191406 L 1.226562 16.191406 Z M 1.226562 16.191406 L 62.523438 16.191406 L 62.523438 16.25 L 1.226562 16.25 Z M 1.226562 16.25 L 62.523438 16.25 L 62.523438 16.3125 L 1.226562 16.3125 Z M 1.226562 16.3125 L 62.523438 16.3125 L 62.523438 16.371094 L 1.226562 16.371094 Z M 1.226562 16.371094 L 62.523438 16.371094 L 62.523438 16.429688 L 1.226562 16.429688 Z M 1.226562 16.429688 L 62.523438 16.429688 L 62.523438 16.492188 L 1.226562 16.492188 Z M 1.226562 16.492188 L 62.523438 16.492188 L 62.523438 16.550781 L 1.226562 16.550781 Z M 1.226562 16.492188 " clip-rule="nonzero"/></clipPath><clipPath id="351a65fb82"><path d="M 62.523438 31.875 C 62.523438 48.800781 48.800781 62.523438 31.875 62.523438 C 14.949219 62.523438 1.226562 48.800781 1.226562 31.875 C 1.226562 14.949219 14.949219 1.226562 31.875 1.226562 C 48.800781 1.226562 62.523438 14.949219 62.523438 31.875 " clip-rule="nonzero"/></clipPath><clipPath id="9e562b5dc0"><path d="M 62.523438 31.875 C 62.523438 48.800781 48.800781 62.523438 31.875 62.523438 C 14.949219 62.523438 1.226562 48.800781 1.226562 31.875 C 1.226562 14.949219 14.949219 1.226562 31.875 1.226562 C 48.800781 1.226562 62.523438 14.949219 62.523438 31.875 " clip-rule="nonzero"/></clipPath><linearGradient x1="0.750003" gradientTransform="matrix(0, -61.297952, 61.962012, 0, 0.893829, 62.523971)" y1="0" x2="1.000006" gradientUnits="userSpaceOnUse" y2="0" id="9f0232fa36"><stop stop-opacity="1" stop-color="rgb(44.700623%, 72.898865%, 91.398621%)" offset="0"/><stop stop-opacity="1" stop-color="rgb(44.898987%, 72.898865%, 91.398621%)" offset="0.00390625"/><stop stop-opacity="1" stop-color="rgb(45.098877%, 72.898865%, 91.398621%)" offset="0.0078125"/><stop stop-opacity="1" stop-color="rgb(45.098877%, 73.098755%, 91.5802%)" offset="0.0117188"/><stop stop-opacity="1" stop-color="rgb(45.098877%, 73.298645%, 91.763306%)" offset="0.015625"/><stop stop-opacity="1" stop-color="rgb(45.321655%, 73.321533%, 91.781616%)" offset="0.0195312"/><stop stop-opacity="1" stop-color="rgb(45.544434%, 73.344421%, 91.799927%)" offset="0.0234375"/><stop stop-opacity="1" stop-color="rgb(45.721436%, 73.521423%, 91.799927%)" offset="0.03125"/><stop stop-opacity="1" stop-color="rgb(45.899963%, 73.703003%, 91.799927%)" offset="0.0390625"/><stop stop-opacity="1" stop-color="rgb(46.09375%, 73.902893%, 91.799927%)" offset="0.0429688"/><stop stop-opacity="1" stop-color="rgb(46.287537%, 74.099731%, 91.799927%)" offset="0.046875"/><stop stop-opacity="1" stop-color="rgb(46.478271%, 74.284363%, 91.984558%)" offset="0.0546875"/><stop stop-opacity="1" stop-color="rgb(46.684265%, 74.484253%, 92.184448%)" offset="0.0625"/><stop stop-opacity="1" stop-color="rgb(46.899414%, 74.699402%, 92.199707%)" offset="0.0664062"/><stop stop-opacity="1" stop-color="rgb(47.099304%, 74.899292%, 92.199707%)" offset="0.0703125"/><stop stop-opacity="1" stop-color="rgb(47.099304%, 74.899292%, 92.199707%)" offset="0.078125"/><stop stop-opacity="1" stop-color="rgb(47.296143%, 75.09613%, 92.347717%)" offset="0.0820313"/><stop stop-opacity="1" stop-color="rgb(47.494507%, 75.294495%, 92.495728%)" offset="0.0859375"/><stop stop-opacity="1" stop-color="rgb(47.637939%, 75.296021%, 92.497253%)" offset="0.09375"/><stop stop-opacity="1" stop-color="rgb(47.790527%, 75.120544%, 92.349243%)" offset="0.101562"/><stop stop-opacity="1" stop-color="rgb(47.999573%, 75.320435%, 92.349243%)" offset="0.105469"/><stop stop-opacity="1" stop-color="rgb(48.199463%, 75.698853%, 92.498779%)" offset="0.109375"/><stop stop-opacity="1" stop-color="rgb(48.399353%, 75.508118%, 92.498779%)" offset="0.113281"/><stop stop-opacity="1" stop-color="rgb(48.599243%, 75.318909%, 92.498779%)" offset="0.117188"/><stop stop-opacity="1" stop-color="rgb(48.399353%, 75.708008%, 92.698669%)" offset="0.121094"/><stop stop-opacity="1" stop-color="rgb(48.200989%, 76.098633%, 92.89856%)" offset="0.125"/><stop stop-opacity="1" stop-color="rgb(48.399353%, 75.907898%, 92.698669%)" offset="0.128906"/><stop stop-opacity="1" stop-color="rgb(48.599243%, 75.717163%, 92.498779%)" offset="0.132812"/><stop stop-opacity="1" stop-color="rgb(48.799133%, 75.907898%, 92.498779%)" offset="0.136719"/><stop stop-opacity="1" stop-color="rgb(48.999023%, 76.098633%, 92.498779%)" offset="0.140625"/><stop stop-opacity="1" stop-color="rgb(49.021912%, 76.298523%, 92.698669%)" offset="0.144531"/><stop stop-opacity="1" stop-color="rgb(49.0448%, 76.499939%, 92.89856%)" offset="0.148438"/><stop stop-opacity="1" stop-color="rgb(49.235535%, 76.512146%, 92.89856%)" offset="0.15625"/><stop stop-opacity="1" stop-color="rgb(49.612427%, 76.712036%, 93.095398%)" offset="0.160156"/><stop stop-opacity="1" stop-color="rgb(49.798584%, 76.899719%, 93.292236%)" offset="0.164063"/><stop stop-opacity="1" stop-color="rgb(49.798584%, 76.899719%, 93.095398%)" offset="0.167969"/><stop stop-opacity="1" stop-color="rgb(49.798584%, 76.899719%, 92.89856%)" offset="0.171875"/><stop stop-opacity="1" stop-color="rgb(49.998474%, 77.238464%, 93.09845%)" offset="0.175781"/><stop stop-opacity="1" stop-color="rgb(50.19989%, 77.577209%, 93.299866%)" offset="0.179688"/><stop stop-opacity="1" stop-color="rgb(50.39978%, 77.587891%, 93.299866%)" offset="0.183594"/><stop stop-opacity="1" stop-color="rgb(50.59967%, 77.598572%, 93.299866%)" offset="0.1875"/><stop stop-opacity="1" stop-color="rgb(50.814819%, 77.461243%, 93.299866%)" offset="0.191406"/><stop stop-opacity="1" stop-color="rgb(51.031494%, 77.323914%, 93.299866%)" offset="0.195312"/><stop stop-opacity="1" stop-color="rgb(51.222229%, 77.661133%, 93.499756%)" offset="0.199219"/><stop stop-opacity="1" stop-color="rgb(51.412964%, 77.999878%, 93.699646%)" offset="0.203125"/><stop stop-opacity="1" stop-color="rgb(51.605225%, 77.999878%, 93.699646%)" offset="0.210937"/><stop stop-opacity="1" stop-color="rgb(51.986694%, 78.387451%, 93.887329%)" offset="0.214844"/><stop stop-opacity="1" stop-color="rgb(52.175903%, 78.775024%, 94.075012%)" offset="0.21875"/><stop stop-opacity="1" stop-color="rgb(52.337646%, 78.805542%, 93.90564%)" offset="0.234375"/><stop stop-opacity="1" stop-color="rgb(52.69928%, 79.017639%, 93.917847%)" offset="0.238281"/><stop stop-opacity="1" stop-color="rgb(52.89917%, 79.199219%, 94.099426%)" offset="0.242188"/><stop stop-opacity="1" stop-color="rgb(53.09906%, 79.199219%, 94.099426%)" offset="0.246094"/><stop stop-opacity="1" stop-color="rgb(53.29895%, 79.200745%, 94.099426%)" offset="0.25"/><stop stop-opacity="1" stop-color="rgb(53.29895%, 79.59137%, 94.099426%)" offset="0.253906"/><stop stop-opacity="1" stop-color="rgb(53.29895%, 79.981995%, 94.099426%)" offset="0.257812"/><stop stop-opacity="1" stop-color="rgb(53.48053%, 79.789734%, 94.099426%)" offset="0.265625"/><stop stop-opacity="1" stop-color="rgb(53.88031%, 79.621887%, 94.099426%)" offset="0.269531"/><stop stop-opacity="1" stop-color="rgb(54.098511%, 79.644775%, 94.099426%)" offset="0.273438"/><stop stop-opacity="1" stop-color="rgb(54.298401%, 79.821777%, 94.299316%)" offset="0.277344"/><stop stop-opacity="1" stop-color="rgb(54.499817%, 79.998779%, 94.499207%)" offset="0.28125"/><stop stop-opacity="1" stop-color="rgb(54.499817%, 80.001831%, 94.499207%)" offset="0.289062"/><stop stop-opacity="1" stop-color="rgb(54.693604%, 80.201721%, 94.499207%)" offset="0.292969"/><stop stop-opacity="1" stop-color="rgb(54.888916%, 80.39856%, 94.499207%)" offset="0.296875"/><stop stop-opacity="1" stop-color="rgb(55.078125%, 80.39856%, 94.499207%)" offset="0.304688"/><stop stop-opacity="1" stop-color="rgb(55.459595%, 80.773926%, 94.674683%)" offset="0.308594"/><stop stop-opacity="1" stop-color="rgb(55.65033%, 81.150818%, 94.850159%)" offset="0.3125"/><stop stop-opacity="1" stop-color="rgb(55.874634%, 80.975342%, 94.674683%)" offset="0.316406"/><stop stop-opacity="1" stop-color="rgb(56.098938%, 80.799866%, 94.499207%)" offset="0.320313"/><stop stop-opacity="1" stop-color="rgb(56.098938%, 80.805969%, 94.50531%)" offset="0.328125"/><stop stop-opacity="1" stop-color="rgb(56.295776%, 81.005859%, 94.7052%)" offset="0.332031"/><stop stop-opacity="1" stop-color="rgb(56.494141%, 81.199646%, 94.898987%)" offset="0.335938"/><stop stop-opacity="1" stop-color="rgb(56.684875%, 81.399536%, 94.898987%)" offset="0.339844"/><stop stop-opacity="1" stop-color="rgb(56.87561%, 81.599426%, 94.898987%)" offset="0.34375"/><stop stop-opacity="1" stop-color="rgb(56.906128%, 81.77948%, 94.898987%)" offset="0.359375"/><stop stop-opacity="1" stop-color="rgb(57.267761%, 81.788635%, 94.898987%)" offset="0.363281"/><stop stop-opacity="1" stop-color="rgb(57.598877%, 81.619263%, 94.898987%)" offset="0.367188"/><stop stop-opacity="1" stop-color="rgb(57.598877%, 82.008362%, 95.098877%)" offset="0.371094"/><stop stop-opacity="1" stop-color="rgb(57.600403%, 82.398987%, 95.298767%)" offset="0.375"/><stop stop-opacity="1" stop-color="rgb(57.798767%, 82.398987%, 95.106506%)" offset="0.378906"/><stop stop-opacity="1" stop-color="rgb(57.998657%, 82.398987%, 94.915771%)" offset="0.382812"/><stop stop-opacity="1" stop-color="rgb(57.998657%, 82.398987%, 95.098877%)" offset="0.390625"/><stop stop-opacity="1" stop-color="rgb(58.221436%, 82.548523%, 95.289612%)" offset="0.394531"/><stop stop-opacity="1" stop-color="rgb(58.444214%, 82.699585%, 95.298767%)" offset="0.398437"/><stop stop-opacity="1" stop-color="rgb(58.634949%, 82.899475%, 95.298767%)" offset="0.402344"/><stop stop-opacity="1" stop-color="rgb(58.825684%, 83.099365%, 95.298767%)" offset="0.40625"/><stop stop-opacity="1" stop-color="rgb(59.016418%, 83.099365%, 95.298767%)" offset="0.414062"/><stop stop-opacity="1" stop-color="rgb(59.402466%, 83.099365%, 95.298767%)" offset="0.417969"/><stop stop-opacity="1" stop-color="rgb(59.599304%, 83.099365%, 95.298767%)" offset="0.421875"/><stop stop-opacity="1" stop-color="rgb(59.599304%, 83.283997%, 95.498657%)" offset="0.425781"/><stop stop-opacity="1" stop-color="rgb(59.599304%, 83.470154%, 95.698547%)" offset="0.429687"/><stop stop-opacity="1" stop-color="rgb(59.799194%, 83.483887%, 95.698547%)" offset="0.433594"/><stop stop-opacity="1" stop-color="rgb(59.999084%, 83.499146%, 95.698547%)" offset="0.4375"/><stop stop-opacity="1" stop-color="rgb(60.215759%, 83.699036%, 95.698547%)" offset="0.441406"/><stop stop-opacity="1" stop-color="rgb(60.432434%, 83.898926%, 95.698547%)" offset="0.445312"/><stop stop-opacity="1" stop-color="rgb(60.623169%, 83.898926%, 95.698547%)" offset="0.453125"/><stop stop-opacity="1" stop-color="rgb(61.006165%, 84.086609%, 95.88623%)" offset="0.46875"/><stop stop-opacity="1" stop-color="rgb(61.399841%, 84.286499%, 95.88623%)" offset="0.472656"/><stop stop-opacity="1" stop-color="rgb(61.599731%, 84.298706%, 95.698547%)" offset="0.476562"/><stop stop-opacity="1" stop-color="rgb(61.819458%, 84.67865%, 95.898438%)" offset="0.480469"/><stop stop-opacity="1" stop-color="rgb(62.039185%, 85.06012%, 96.099854%)" offset="0.484375"/><stop stop-opacity="1" stop-color="rgb(62.226868%, 84.889221%, 96.099854%)" offset="0.492188"/><stop stop-opacity="1" stop-color="rgb(62.557983%, 85.108948%, 96.299744%)" offset="0.496094"/><stop stop-opacity="1" stop-color="rgb(62.701416%, 85.499573%, 96.499634%)" offset="0.5"/><stop stop-opacity="1" stop-color="rgb(62.89978%, 85.307312%, 96.307373%)" offset="0.503906"/><stop stop-opacity="1" stop-color="rgb(63.09967%, 85.116577%, 96.116638%)" offset="0.507812"/><stop stop-opacity="1" stop-color="rgb(63.299561%, 85.107422%, 96.107483%)" offset="0.511719"/><stop stop-opacity="1" stop-color="rgb(63.499451%, 85.099792%, 96.099854%)" offset="0.515625"/><stop stop-opacity="1" stop-color="rgb(63.699341%, 85.487366%, 96.299744%)" offset="0.519531"/><stop stop-opacity="1" stop-color="rgb(63.899231%, 85.876465%, 96.499634%)" offset="0.523438"/><stop stop-opacity="1" stop-color="rgb(63.912964%, 85.700989%, 96.499634%)" offset="0.53125"/><stop stop-opacity="1" stop-color="rgb(64.317322%, 85.91156%, 96.499634%)" offset="0.535156"/><stop stop-opacity="1" stop-color="rgb(64.707947%, 86.299133%, 96.499634%)" offset="0.539062"/><stop stop-opacity="1" stop-color="rgb(64.903259%, 86.299133%, 96.499634%)" offset="0.546875"/><stop stop-opacity="1" stop-color="rgb(65.098572%, 86.106873%, 96.499634%)" offset="0.554688"/><stop stop-opacity="1" stop-color="rgb(65.298462%, 86.282349%, 96.67511%)" offset="0.558594"/><stop stop-opacity="1" stop-color="rgb(65.499878%, 86.651611%, 96.850586%)" offset="0.5625"/><stop stop-opacity="1" stop-color="rgb(65.715027%, 86.491394%, 96.67511%)" offset="0.566406"/><stop stop-opacity="1" stop-color="rgb(65.931702%, 86.332703%, 96.499634%)" offset="0.570312"/><stop stop-opacity="1" stop-color="rgb(66.122437%, 86.715698%, 96.699524%)" offset="0.574219"/><stop stop-opacity="1" stop-color="rgb(66.313171%, 87.098694%, 96.899414%)" offset="0.578125"/><stop stop-opacity="1" stop-color="rgb(66.505432%, 87.098694%, 96.899414%)" offset="0.585938"/><stop stop-opacity="1" stop-color="rgb(66.899109%, 86.909485%, 96.710205%)" offset="0.589844"/><stop stop-opacity="1" stop-color="rgb(67.098999%, 86.721802%, 96.522522%)" offset="0.59375"/><stop stop-opacity="1" stop-color="rgb(67.298889%, 87.089539%, 96.710205%)" offset="0.597656"/><stop stop-opacity="1" stop-color="rgb(67.498779%, 87.457275%, 96.899414%)" offset="0.601562"/><stop stop-opacity="1" stop-color="rgb(67.648315%, 87.478638%, 96.899414%)" offset="0.609375"/><stop stop-opacity="1" stop-color="rgb(67.808533%, 87.507629%, 96.899414%)" offset="0.617188"/><stop stop-opacity="1" stop-color="rgb(68.009949%, 87.657166%, 96.899414%)" offset="0.625"/><stop stop-opacity="1" stop-color="rgb(68.399048%, 87.998962%, 97.099304%)" offset="0.628906"/><stop stop-opacity="1" stop-color="rgb(68.598938%, 88.198853%, 97.299194%)" offset="0.632813"/><stop stop-opacity="1" stop-color="rgb(68.798828%, 88.198853%, 97.299194%)" offset="0.636719"/><stop stop-opacity="1" stop-color="rgb(68.998718%, 88.198853%, 97.299194%)" offset="0.640625"/><stop stop-opacity="1" stop-color="rgb(69.221497%, 88.198853%, 97.299194%)" offset="0.644531"/><stop stop-opacity="1" stop-color="rgb(69.444275%, 88.198853%, 97.299194%)" offset="0.648438"/><stop stop-opacity="1" stop-color="rgb(69.63501%, 88.398743%, 97.299194%)" offset="0.652344"/><stop stop-opacity="1" stop-color="rgb(69.825745%, 88.598633%, 97.299194%)" offset="0.65625"/><stop stop-opacity="1" stop-color="rgb(70.011902%, 88.600159%, 97.299194%)" offset="0.664063"/><stop stop-opacity="1" stop-color="rgb(70.199585%, 88.798523%, 97.299194%)" offset="0.671875"/><stop stop-opacity="1" stop-color="rgb(70.399475%, 88.996887%, 97.299194%)" offset="0.675781"/><stop stop-opacity="1" stop-color="rgb(70.599365%, 88.999939%, 97.299194%)" offset="0.679688"/><stop stop-opacity="1" stop-color="rgb(70.774841%, 88.999939%, 97.299194%)" offset="0.6875"/><stop stop-opacity="1" stop-color="rgb(71.191406%, 89.199829%, 97.44873%)" offset="0.691406"/><stop stop-opacity="1" stop-color="rgb(71.432495%, 89.399719%, 97.599792%)" offset="0.695313"/><stop stop-opacity="1" stop-color="rgb(71.815491%, 89.399719%, 97.451782%)" offset="0.699219"/><stop stop-opacity="1" stop-color="rgb(72.198486%, 89.399719%, 97.305298%)" offset="0.703125"/><stop stop-opacity="1" stop-color="rgb(72.340393%, 89.399719%, 97.309875%)" offset="0.71875"/><stop stop-opacity="1" stop-color="rgb(72.669983%, 89.778137%, 97.457886%)" offset="0.722656"/><stop stop-opacity="1" stop-color="rgb(72.857666%, 90.158081%, 97.599792%)" offset="0.726563"/><stop stop-opacity="1" stop-color="rgb(73.077393%, 90.158081%, 97.599792%)" offset="0.730469"/><stop stop-opacity="1" stop-color="rgb(73.298645%, 90.159607%, 97.599792%)" offset="0.734375"/><stop stop-opacity="1" stop-color="rgb(73.498535%, 89.988708%, 97.599792%)" offset="0.738281"/><stop stop-opacity="1" stop-color="rgb(73.699951%, 89.819336%, 97.599792%)" offset="0.742188"/><stop stop-opacity="1" stop-color="rgb(73.899841%, 90.010071%, 97.599792%)" offset="0.746094"/><stop stop-opacity="1" stop-color="rgb(74.101257%, 90.200806%, 97.599792%)" offset="0.75"/><stop stop-opacity="1" stop-color="rgb(74.491882%, 90.39917%, 97.599792%)" offset="0.753906"/><stop stop-opacity="1" stop-color="rgb(74.882507%, 90.59906%, 97.599792%)" offset="0.757812"/><stop stop-opacity="1" stop-color="rgb(75.073242%, 90.79895%, 97.799683%)" offset="0.761719"/><stop stop-opacity="1" stop-color="rgb(75.263977%, 90.99884%, 97.999573%)" offset="0.765625"/><stop stop-opacity="1" stop-color="rgb(75.480652%, 90.99884%, 97.799683%)" offset="0.769531"/><stop stop-opacity="1" stop-color="rgb(75.698853%, 90.99884%, 97.599792%)" offset="0.773437"/><stop stop-opacity="1" stop-color="rgb(75.898743%, 90.99884%, 97.612%)" offset="0.777344"/><stop stop-opacity="1" stop-color="rgb(76.098633%, 90.99884%, 97.625732%)" offset="0.78125"/><stop stop-opacity="1" stop-color="rgb(76.298523%, 91.19873%, 97.81189%)" offset="0.785156"/><stop stop-opacity="1" stop-color="rgb(76.499939%, 91.398621%, 97.999573%)" offset="0.789062"/><stop stop-opacity="1" stop-color="rgb(76.693726%, 91.398621%, 97.999573%)" offset="0.796875"/><stop stop-opacity="1" stop-color="rgb(77.079773%, 91.784668%, 97.999573%)" offset="0.800781"/><stop stop-opacity="1" stop-color="rgb(77.270508%, 92.170715%, 97.999573%)" offset="0.804687"/><stop stop-opacity="1" stop-color="rgb(77.416992%, 91.984558%, 97.999573%)" offset="0.8125"/><stop stop-opacity="1" stop-color="rgb(77.981567%, 91.999817%, 98.016357%)" offset="0.816406"/><stop stop-opacity="1" stop-color="rgb(78.399658%, 92.199707%, 98.033142%)" offset="0.820312"/><stop stop-opacity="1" stop-color="rgb(78.599548%, 92.349243%, 98.216248%)" offset="0.824219"/><stop stop-opacity="1" stop-color="rgb(78.799438%, 92.498779%, 98.399353%)" offset="0.828125"/><stop stop-opacity="1" stop-color="rgb(78.996277%, 92.350769%, 98.200989%)" offset="0.832031"/><stop stop-opacity="1" stop-color="rgb(79.194641%, 92.202759%, 98.002625%)" offset="0.835937"/><stop stop-opacity="1" stop-color="rgb(79.385376%, 92.350769%, 98.200989%)" offset="0.839844"/><stop stop-opacity="1" stop-color="rgb(79.576111%, 92.498779%, 98.399353%)" offset="0.84375"/><stop stop-opacity="1" stop-color="rgb(79.766846%, 92.698669%, 98.399353%)" offset="0.847656"/><stop stop-opacity="1" stop-color="rgb(79.957581%, 92.89856%, 98.399353%)" offset="0.851562"/><stop stop-opacity="1" stop-color="rgb(80.197144%, 93.09845%, 98.399353%)" offset="0.855469"/><stop stop-opacity="1" stop-color="rgb(80.438232%, 93.299866%, 98.399353%)" offset="0.859375"/><stop stop-opacity="1" stop-color="rgb(80.818176%, 93.299866%, 98.399353%)" offset="0.863281"/><stop stop-opacity="1" stop-color="rgb(81.199646%, 93.299866%, 98.399353%)" offset="0.867187"/><stop stop-opacity="1" stop-color="rgb(81.399536%, 93.299866%, 98.399353%)" offset="0.871094"/><stop stop-opacity="1" stop-color="rgb(81.599426%, 93.301392%, 98.399353%)" offset="0.875"/><stop stop-opacity="1" stop-color="rgb(81.790161%, 93.499756%, 98.590088%)" offset="0.878906"/><stop stop-opacity="1" stop-color="rgb(81.982422%, 93.699646%, 98.782349%)" offset="0.882812"/><stop stop-opacity="1" stop-color="rgb(82.173157%, 93.699646%, 98.590088%)" offset="0.890625"/><stop stop-opacity="1" stop-color="rgb(82.531738%, 93.899536%, 98.599243%)" offset="0.894531"/><stop stop-opacity="1" stop-color="rgb(82.699585%, 94.099426%, 98.799133%)" offset="0.898438"/><stop stop-opacity="1" stop-color="rgb(82.899475%, 93.913269%, 98.599243%)" offset="0.902344"/><stop stop-opacity="1" stop-color="rgb(83.099365%, 93.727112%, 98.399353%)" offset="0.90625"/><stop stop-opacity="1" stop-color="rgb(83.299255%, 93.913269%, 98.402405%)" offset="0.910156"/><stop stop-opacity="1" stop-color="rgb(83.499146%, 94.099426%, 98.406982%)" offset="0.914062"/><stop stop-opacity="1" stop-color="rgb(83.692932%, 94.293213%, 98.602295%)" offset="0.917969"/><stop stop-opacity="1" stop-color="rgb(83.888245%, 94.488525%, 98.799133%)" offset="0.921875"/><stop stop-opacity="1" stop-color="rgb(84.078979%, 94.308472%, 98.799133%)" offset="0.929688"/><stop stop-opacity="1" stop-color="rgb(84.460449%, 94.490051%, 98.799133%)" offset="0.933594"/><stop stop-opacity="1" stop-color="rgb(84.651184%, 94.851685%, 98.799133%)" offset="0.9375"/><stop stop-opacity="1" stop-color="rgb(84.875488%, 94.691467%, 98.799133%)" offset="0.941406"/><stop stop-opacity="1" stop-color="rgb(85.099792%, 94.532776%, 98.799133%)" offset="0.945312"/><stop stop-opacity="1" stop-color="rgb(85.299683%, 94.715881%, 98.799133%)" offset="0.949219"/><stop stop-opacity="1" stop-color="rgb(85.499573%, 94.898987%, 98.799133%)" offset="0.953125"/><stop stop-opacity="1" stop-color="rgb(85.696411%, 94.898987%, 98.799133%)" offset="0.957031"/><stop stop-opacity="1" stop-color="rgb(85.894775%, 94.898987%, 98.799133%)" offset="0.960938"/><stop stop-opacity="1" stop-color="rgb(86.2854%, 94.699097%, 98.799133%)" offset="0.964844"/><stop stop-opacity="1" stop-color="rgb(86.676025%, 94.499207%, 98.799133%)" offset="0.96875"/><stop stop-opacity="1" stop-color="rgb(86.86676%, 94.877625%, 98.799133%)" offset="0.972656"/><stop stop-opacity="1" stop-color="rgb(87.057495%, 95.257568%, 98.799133%)" offset="0.976562"/><stop stop-opacity="1" stop-color="rgb(87.278748%, 95.277405%, 98.799133%)" offset="0.980469"/><stop stop-opacity="1" stop-color="rgb(87.5%, 95.298767%, 98.799133%)" offset="0.984375"/><stop stop-opacity="1" stop-color="rgb(87.649536%, 95.498657%, 98.988342%)" offset="0.988281"/><stop stop-opacity="1" stop-color="rgb(87.799072%, 95.698547%, 99.177551%)" offset="0.992188"/><stop stop-opacity="1" stop-color="rgb(87.998962%, 95.498657%, 98.988342%)" offset="0.996094"/><stop stop-opacity="1" stop-color="rgb(88.198853%, 95.298767%, 98.799133%)" offset="1"/></linearGradient><clipPath id="e47492723a"><path d="M 2.453125 2.453125 L 61.296875 2.453125 L 61.296875 61.296875 L 2.453125 61.296875 Z M 2.453125 2.453125 " clip-rule="nonzero"/></clipPath><clipPath id="c1981797a8"><path d="M 61.296875 31.875 C 61.296875 48.125 48.125 61.296875 31.875 61.296875 C 15.625 61.296875 2.453125 48.125 2.453125 31.875 C 2.453125 15.625 15.625 2.453125 31.875 2.453125 C 48.125 2.453125 61.296875 15.625 61.296875 31.875 " clip-rule="nonzero"/></clipPath><clipPath id="b2259a151d"><path d="M 61.296875 31.875 C 61.296875 48.125 48.125 61.296875 31.875 61.296875 C 15.625 61.296875 2.453125 48.125 2.453125 31.875 C 2.453125 15.625 15.625 2.453125 31.875 2.453125 C 48.125 2.453125 61.296875 15.625 61.296875 31.875 " clip-rule="nonzero"/></clipPath><linearGradient x1="-0.00000125491" gradientTransform="matrix(0, -58.845898, 59.510125, 0, 2.120021, 61.297952)" y1="0" x2="1.000001" gradientUnits="userSpaceOnUse" y2="0" id="af623fd55b"><stop stop-opacity="1" stop-color="rgb(26.298523%, 57.998657%, 81.999207%)" offset="0"/><stop stop-opacity="1" stop-color="rgb(26.298523%, 57.998657%, 81.999207%)" offset="0.125"/><stop stop-opacity="1" stop-color="rgb(26.298523%, 57.998657%, 81.999207%)" offset="0.140625"/><stop stop-opacity="1" stop-color="rgb(26.298523%, 58.02002%, 81.999207%)" offset="0.148438"/><stop stop-opacity="1" stop-color="rgb(26.298523%, 58.221436%, 82.00531%)" offset="0.15625"/><stop stop-opacity="1" stop-color="rgb(26.300049%, 58.401489%, 82.2052%)" offset="0.164062"/><stop stop-opacity="1" stop-color="rgb(26.496887%, 58.598328%, 82.398987%)" offset="0.171875"/><stop stop-opacity="1" stop-color="rgb(26.882935%, 58.982849%, 82.539368%)" offset="0.1875"/><stop stop-opacity="1" stop-color="rgb(27.085876%, 59.185791%, 82.896423%)" offset="0.191406"/><stop stop-opacity="1" stop-color="rgb(27.099609%, 59.199524%, 83.114624%)" offset="0.195312"/><stop stop-opacity="1" stop-color="rgb(27.101135%, 59.20105%, 83.306885%)" offset="0.203125"/><stop stop-opacity="1" stop-color="rgb(27.297974%, 59.397888%, 83.499146%)" offset="0.21875"/><stop stop-opacity="1" stop-color="rgb(27.496338%, 59.773254%, 83.699036%)" offset="0.222656"/><stop stop-opacity="1" stop-color="rgb(27.49939%, 59.954834%, 83.898926%)" offset="0.226562"/><stop stop-opacity="1" stop-color="rgb(27.648926%, 60.176086%, 84.098816%)" offset="0.230469"/><stop stop-opacity="1" stop-color="rgb(27.799988%, 60.398865%, 84.298706%)" offset="0.234375"/><stop stop-opacity="1" stop-color="rgb(27.799988%, 60.398865%, 84.298706%)" offset="0.25"/><stop stop-opacity="1" stop-color="rgb(27.993774%, 60.398865%, 84.494019%)" offset="0.257813"/><stop stop-opacity="1" stop-color="rgb(28.375244%, 60.780334%, 84.893799%)" offset="0.261719"/><stop stop-opacity="1" stop-color="rgb(28.561401%, 61.161804%, 85.099792%)" offset="0.265625"/><stop stop-opacity="1" stop-color="rgb(28.579712%, 61.192322%, 85.112%)" offset="0.28125"/><stop stop-opacity="1" stop-color="rgb(28.799438%, 61.412048%, 85.314941%)" offset="0.285156"/><stop stop-opacity="1" stop-color="rgb(28.999329%, 61.599731%, 85.505676%)" offset="0.289062"/><stop stop-opacity="1" stop-color="rgb(28.999329%, 61.599731%, 85.702515%)" offset="0.292969"/><stop stop-opacity="1" stop-color="rgb(28.999329%, 61.599731%, 85.899353%)" offset="0.296875"/><stop stop-opacity="1" stop-color="rgb(28.999329%, 61.599731%, 85.899353%)" offset="0.304687"/><stop stop-opacity="1" stop-color="rgb(29.199219%, 61.773682%, 86.099243%)" offset="0.308594"/><stop stop-opacity="1" stop-color="rgb(29.399109%, 61.949158%, 86.299133%)" offset="0.3125"/><stop stop-opacity="1" stop-color="rgb(29.399109%, 62.173462%, 86.299133%)" offset="0.316406"/><stop stop-opacity="1" stop-color="rgb(29.399109%, 62.399292%, 86.299133%)" offset="0.320312"/><stop stop-opacity="1" stop-color="rgb(29.402161%, 62.399292%, 86.302185%)" offset="0.328125"/><stop stop-opacity="1" stop-color="rgb(29.600525%, 62.399292%, 86.500549%)" offset="0.335937"/><stop stop-opacity="1" stop-color="rgb(29.985046%, 62.548828%, 86.885071%)" offset="0.34375"/><stop stop-opacity="1" stop-color="rgb(30.36499%, 62.89978%, 87.086487%)" offset="0.347656"/><stop stop-opacity="1" stop-color="rgb(30.555725%, 63.09967%, 87.098694%)" offset="0.351562"/><stop stop-opacity="1" stop-color="rgb(30.577087%, 63.108826%, 87.098694%)" offset="0.359375"/><stop stop-opacity="1" stop-color="rgb(30.604553%, 63.308716%, 87.098694%)" offset="0.367188"/><stop stop-opacity="1" stop-color="rgb(30.804443%, 63.499451%, 87.098694%)" offset="0.375"/><stop stop-opacity="1" stop-color="rgb(31.195068%, 63.499451%, 87.098694%)" offset="0.382812"/><stop stop-opacity="1" stop-color="rgb(31.394958%, 63.699341%, 87.298584%)" offset="0.386719"/><stop stop-opacity="1" stop-color="rgb(31.399536%, 63.899231%, 87.5%)" offset="0.390625"/><stop stop-opacity="1" stop-color="rgb(31.410217%, 64.099121%, 87.5%)" offset="0.394531"/><stop stop-opacity="1" stop-color="rgb(31.420898%, 64.299011%, 87.5%)" offset="0.398437"/><stop stop-opacity="1" stop-color="rgb(31.610107%, 64.299011%, 87.5%)" offset="0.40625"/><stop stop-opacity="1" stop-color="rgb(31.802368%, 64.302063%, 87.501526%)" offset="0.414062"/><stop stop-opacity="1" stop-color="rgb(32.002258%, 64.501953%, 87.651062%)" offset="0.417969"/><stop stop-opacity="1" stop-color="rgb(32.199097%, 64.698792%, 87.799072%)" offset="0.421875"/><stop stop-opacity="1" stop-color="rgb(32.344055%, 64.892578%, 87.799072%)" offset="0.4375"/><stop stop-opacity="1" stop-color="rgb(32.502747%, 65.100098%, 87.998962%)" offset="0.441406"/><stop stop-opacity="1" stop-color="rgb(32.514954%, 65.115356%, 88.198853%)" offset="0.445312"/><stop stop-opacity="1" stop-color="rgb(32.710266%, 65.307617%, 88.198853%)" offset="0.453125"/><stop stop-opacity="1" stop-color="rgb(33.100891%, 65.499878%, 88.198853%)" offset="0.460937"/><stop stop-opacity="1" stop-color="rgb(33.297729%, 65.499878%, 88.198853%)" offset="0.46875"/><stop stop-opacity="1" stop-color="rgb(33.299255%, 65.687561%, 88.198853%)" offset="0.476563"/><stop stop-opacity="1" stop-color="rgb(33.508301%, 65.887451%, 88.389587%)" offset="0.480469"/><stop stop-opacity="1" stop-color="rgb(33.717346%, 65.899658%, 88.580322%)" offset="0.484375"/><stop stop-opacity="1" stop-color="rgb(33.908081%, 65.904236%, 88.394165%)" offset="0.492188"/><stop stop-opacity="1" stop-color="rgb(34.098816%, 66.104126%, 88.40332%)" offset="0.5"/><stop stop-opacity="1" stop-color="rgb(34.294128%, 66.299438%, 88.598633%)" offset="0.507813"/><stop stop-opacity="1" stop-color="rgb(34.684753%, 66.490173%, 88.598633%)" offset="0.515625"/><stop stop-opacity="1" stop-color="rgb(34.889221%, 66.690063%, 88.598633%)" offset="0.523438"/><stop stop-opacity="1" stop-color="rgb(34.912109%, 66.911316%, 88.798523%)" offset="0.527344"/><stop stop-opacity="1" stop-color="rgb(34.924316%, 67.124939%, 88.999939%)" offset="0.53125"/><stop stop-opacity="1" stop-color="rgb(35.112%, 67.311096%, 88.999939%)" offset="0.539062"/><stop stop-opacity="1" stop-color="rgb(35.493469%, 67.498779%, 88.999939%)" offset="0.546875"/><stop stop-opacity="1" stop-color="rgb(35.881042%, 67.498779%, 88.999939%)" offset="0.5625"/><stop stop-opacity="1" stop-color="rgb(36.184692%, 67.572021%, 88.999939%)" offset="0.570312"/><stop stop-opacity="1" stop-color="rgb(36.39679%, 67.721558%, 89.002991%)" offset="0.578125"/><stop stop-opacity="1" stop-color="rgb(36.499023%, 67.799377%, 89.201355%)" offset="0.585938"/><stop stop-opacity="1" stop-color="rgb(36.69281%, 67.993164%, 89.398193%)" offset="0.59375"/><stop stop-opacity="1" stop-color="rgb(37.081909%, 68.193054%, 89.399719%)" offset="0.601562"/><stop stop-opacity="1" stop-color="rgb(37.301636%, 68.217468%, 89.399719%)" offset="0.609375"/><stop stop-opacity="1" stop-color="rgb(37.463379%, 68.417358%, 89.599609%)" offset="0.613281"/><stop stop-opacity="1" stop-color="rgb(37.599182%, 68.598938%, 89.7995%)" offset="0.617187"/><stop stop-opacity="1" stop-color="rgb(37.599182%, 68.598938%, 89.7995%)" offset="0.625"/><stop stop-opacity="1" stop-color="rgb(37.599182%, 68.79425%, 89.7995%)" offset="0.632812"/><stop stop-opacity="1" stop-color="rgb(37.789917%, 68.994141%, 89.7995%)" offset="0.640625"/><stop stop-opacity="1" stop-color="rgb(38.088989%, 69.0979%, 89.7995%)" offset="0.648437"/><stop stop-opacity="1" stop-color="rgb(38.304138%, 69.297791%, 89.805603%)" offset="0.65625"/><stop stop-opacity="1" stop-color="rgb(38.604736%, 69.400024%, 90.005493%)" offset="0.664062"/><stop stop-opacity="1" stop-color="rgb(38.798523%, 69.598389%, 90.19928%)" offset="0.671875"/><stop stop-opacity="1" stop-color="rgb(38.998413%, 69.595337%, 90.014648%)" offset="0.675781"/><stop stop-opacity="1" stop-color="rgb(39.199829%, 69.398499%, 89.830017%)" offset="0.679687"/><stop stop-opacity="1" stop-color="rgb(39.399719%, 69.773865%, 90.014648%)" offset="0.683594"/><stop stop-opacity="1" stop-color="rgb(39.599609%, 70.149231%, 90.19928%)" offset="0.6875"/><stop stop-opacity="1" stop-color="rgb(39.7995%, 70.373535%, 90.39917%)" offset="0.691406"/><stop stop-opacity="1" stop-color="rgb(39.99939%, 70.599365%, 90.59906%)" offset="0.695312"/><stop stop-opacity="1" stop-color="rgb(40.002441%, 70.599365%, 90.59906%)" offset="0.703125"/><stop stop-opacity="1" stop-color="rgb(40.200806%, 70.599365%, 90.59906%)" offset="0.710938"/><stop stop-opacity="1" stop-color="rgb(40.785217%, 70.787048%, 90.59906%)" offset="0.714844"/><stop stop-opacity="1" stop-color="rgb(41.174316%, 70.974731%, 90.59906%)" offset="0.71875"/><stop stop-opacity="1" stop-color="rgb(41.195679%, 70.986938%, 90.59906%)" offset="0.734375"/><stop stop-opacity="1" stop-color="rgb(41.407776%, 71.003723%, 90.59906%)" offset="0.742188"/><stop stop-opacity="1" stop-color="rgb(41.598511%, 71.203613%, 90.59906%)" offset="0.75"/><stop stop-opacity="1" stop-color="rgb(41.793823%, 71.398926%, 90.794373%)" offset="0.757812"/><stop stop-opacity="1" stop-color="rgb(42.184448%, 71.589661%, 90.994263%)" offset="0.761719"/><stop stop-opacity="1" stop-color="rgb(42.381287%, 71.780396%, 90.99884%)" offset="0.765625"/><stop stop-opacity="1" stop-color="rgb(42.398071%, 71.800232%, 90.99884%)" offset="0.773437"/><stop stop-opacity="1" stop-color="rgb(42.559814%, 72.009277%, 90.99884%)" offset="0.78125"/><stop stop-opacity="1" stop-color="rgb(42.900085%, 72.198486%, 90.99884%)" offset="0.796875"/><stop stop-opacity="1" stop-color="rgb(43.289185%, 72.198486%, 90.99884%)" offset="0.804687"/><stop stop-opacity="1" stop-color="rgb(43.490601%, 72.198486%, 90.99884%)" offset="0.8125"/><stop stop-opacity="1" stop-color="rgb(43.707275%, 72.348022%, 91.00647%)" offset="0.816406"/><stop stop-opacity="1" stop-color="rgb(43.914795%, 72.499084%, 91.015625%)" offset="0.820313"/><stop stop-opacity="1" stop-color="rgb(44.107056%, 72.50061%, 91.20636%)" offset="0.828125"/><stop stop-opacity="1" stop-color="rgb(44.299316%, 72.697449%, 91.398621%)" offset="0.84375"/><stop stop-opacity="1" stop-color="rgb(44.398499%, 72.895813%, 91.398621%)" offset="0.859375"/><stop stop-opacity="1" stop-color="rgb(44.598389%, 72.898865%, 91.398621%)" offset="0.875"/><stop stop-opacity="1" stop-color="rgb(44.699097%, 72.898865%, 91.398621%)" offset="1"/></linearGradient><clipPath id="b03a692df9"><path d="M 17.015625 7.664062 L 47.015625 7.664062 L 47.015625 43 L 17.015625 43 Z M 17.015625 7.664062 " clip-rule="nonzero"/></clipPath><clipPath id="5ae76bcff9"><path d="M 25 45 L 37 45 L 37 56.414062 L 25 56.414062 Z M 25 45 " clip-rule="nonzero"/></clipPath></defs><g clip-path="url(#ebbc983720)"><path fill="#1490cc" d="M 63.75 31.875 C 63.75 49.480469 49.476562 63.75 31.875 63.75 C 14.269531 63.75 0 49.480469 0 31.875 C 0 14.273438 14.269531 0 31.875 0 C 49.476562 0 63.75 14.273438 63.75 31.875 " fill-opacity="1" fill-rule="nonzero"/></g><g clip-path="url(#fe3a3875eb)"><g clip-path="url(#b7e7fcef6b)"><g clip-path="url(#57b887e897)"><path fill="url(#ade9a66e81)" d="M 1.226562 62.523438 L 62.523438 62.523438 L 62.523438 47.199219 L 1.226562 47.199219 Z M 1.226562 62.523438 " fill-rule="nonzero"/></g></g></g><g clip-path="url(#563e3bf2a4)"><g clip-path="url(#8bc06cdd52)"><g clip-path="url(#5b3f2d5daa)"><path fill="url(#51767c62d1)" d="M 1.226562 62.523438 L 62.523438 62.523438 L 62.523438 1.226562 L 1.226562 1.226562 Z M 1.226562 62.523438 " fill-rule="nonzero"/></g></g></g><g clip-path="url(#4831bdeab3)"><g clip-path="url(#351a65fb82)"><g clip-path="url(#9e562b5dc0)"><path fill="url(#9f0232fa36)" d="M 1.226562 16.550781 L 62.523438 16.550781 L 62.523438 1.226562 L 1.226562 1.226562 Z M 1.226562 16.550781 " fill-rule="nonzero"/></g></g></g><g clip-path="url(#e47492723a)"><g clip-path="url(#c1981797a8)"><g clip-path="url(#b2259a151d)"><path fill="url(#af623fd55b)" d="M 2.453125 61.296875 L 61.296875 61.296875 L 61.296875 2.453125 L 2.453125 2.453125 Z M 2.453125 61.296875 " fill-rule="nonzero"/></g></g></g><g clip-path="url(#b03a692df9)"><path fill="#fdc703" d="M 45.03125 13.316406 C 43.742188 11.484375 41.960938 10.082031 39.695312 9.117188 C 37.433594 8.148438 34.824219 7.664062 31.871094 7.664062 C 29.183594 7.664062 26.730469 8.140625 24.511719 9.097656 C 22.292969 10.042969 20.503906 11.496094 19.152344 13.414062 C 18.078125 14.945312 17.414062 16.796875 17.140625 18.972656 C 17.023438 19.917969 17.777344 20.757812 18.734375 20.757812 L 24.675781 20.757812 C 25.441406 20.757812 26.085938 20.21875 26.25 19.480469 C 26.398438 18.816406 26.644531 18.222656 26.984375 17.714844 C 27.53125 16.894531 28.234375 16.273438 29.097656 15.851562 C 29.957031 15.433594 30.867188 15.21875 31.832031 15.21875 C 32.832031 15.21875 33.730469 15.421875 34.5625 15.84375 C 35.382812 16.253906 36.039062 16.847656 36.527344 17.617188 C 37.015625 18.386719 37.257812 19.273438 37.257812 20.296875 C 37.257812 21.265625 37.042969 22.132812 36.613281 22.902344 C 36.183594 23.671875 35.605469 24.382812 34.882812 25.019531 C 34.152344 25.660156 33.339844 26.265625 32.421875 26.859375 C 31.1875 27.628906 30.132812 28.488281 29.261719 29.433594 C 28.382812 30.378906 27.726562 31.617188 27.269531 33.160156 C 26.820312 34.699219 26.585938 36.757812 26.574219 39.339844 L 26.574219 40.628906 C 26.574219 41.503906 27.289062 42.226562 28.175781 42.226562 L 33.40625 42.226562 C 34.289062 42.226562 35.011719 41.515625 35.011719 40.628906 L 35.011719 39.339844 C 35.03125 37.886719 35.214844 36.667969 35.578125 35.683594 C 35.941406 34.699219 36.496094 33.820312 37.238281 33.070312 C 37.992188 32.320312 38.949219 31.597656 40.125 30.898438 C 41.523438 30.066406 42.722656 29.140625 43.75 28.109375 C 44.765625 27.085938 45.570312 25.894531 46.144531 24.558594 C 46.710938 23.222656 47.007812 21.683594 47.007812 19.957031 C 46.976562 17.363281 46.320312 15.152344 45.03125 13.316406 Z M 45.03125 13.316406 " fill-opacity="1" fill-rule="nonzero"/></g><g clip-path="url(#5ae76bcff9)"><path fill="#fdc703" d="M 30.953125 45.8125 C 29.46875 45.8125 28.207031 46.332031 27.160156 47.363281 C 26.113281 48.398438 25.597656 49.644531 25.617188 51.089844 C 25.597656 52.550781 26.113281 53.808594 27.160156 54.851562 C 28.207031 55.894531 29.46875 56.414062 30.953125 56.414062 C 31.902344 56.414062 32.78125 56.167969 33.574219 55.691406 C 34.375 55.203125 35.019531 54.570312 35.519531 53.761719 C 36.019531 52.953125 36.273438 52.0625 36.28125 51.089844 C 36.261719 49.636719 35.726562 48.398438 34.660156 47.363281 C 33.601562 46.332031 32.363281 45.8125 30.953125 45.8125 Z M 30.953125 45.8125 " fill-opacity="1" fill-rule="nonzero"/></g></svg>