<svg xmlns="http://www.w3.org/2000/svg" xmlns:xlink="http://www.w3.org/1999/xlink" width="85" zoomAndPan="magnify" viewBox="0 0 63.75 63.749998" height="85" preserveAspectRatio="xMidYMid meet" version="1.0"><defs><clipPath id="f90c2d4bd1"><path d="M 0 0 L 63.5 0 L 63.5 63.5 L 0 63.5 Z M 0 0 " clip-rule="nonzero"/></clipPath><clipPath id="0083cdb802"><path d="M 63.75 31.875 C 63.75 32.917969 63.699219 33.960938 63.597656 35 C 63.496094 36.039062 63.339844 37.070312 63.136719 38.09375 C 62.933594 39.117188 62.679688 40.128906 62.378906 41.128906 C 62.074219 42.125 61.722656 43.109375 61.324219 44.074219 C 60.925781 45.039062 60.476562 45.980469 59.984375 46.902344 C 59.492188 47.820312 58.957031 48.714844 58.378906 49.582031 C 57.796875 50.453125 57.175781 51.289062 56.515625 52.097656 C 55.851562 52.902344 55.152344 53.675781 54.414062 54.414062 C 53.675781 55.152344 52.902344 55.851562 52.097656 56.515625 C 51.289062 57.175781 50.453125 57.796875 49.582031 58.378906 C 48.714844 58.957031 47.820312 59.492188 46.902344 59.984375 C 45.980469 60.476562 45.039062 60.925781 44.074219 61.324219 C 43.109375 61.722656 42.125 62.074219 41.128906 62.378906 C 40.128906 62.679688 39.117188 62.933594 38.09375 63.136719 C 37.070312 63.339844 36.039062 63.496094 35 63.597656 C 33.960938 63.699219 32.917969 63.75 31.875 63.75 C 30.832031 63.75 29.789062 63.699219 28.75 63.597656 C 27.710938 63.496094 26.679688 63.339844 25.65625 63.136719 C 24.632812 62.933594 23.621094 62.679688 22.621094 62.378906 C 21.625 62.074219 20.640625 61.722656 19.675781 61.324219 C 18.710938 60.925781 17.769531 60.476562 16.847656 59.984375 C 15.929688 59.492188 15.035156 58.957031 14.167969 58.378906 C 13.296875 57.796875 12.460938 57.175781 11.652344 56.515625 C 10.847656 55.851562 10.074219 55.152344 9.335938 54.414062 C 8.597656 53.675781 7.898438 52.902344 7.234375 52.097656 C 6.574219 51.289062 5.953125 50.453125 5.371094 49.582031 C 4.792969 48.714844 4.257812 47.820312 3.765625 46.902344 C 3.273438 45.980469 2.824219 45.039062 2.425781 44.074219 C 2.027344 43.109375 1.675781 42.125 1.371094 41.128906 C 1.070312 40.128906 0.816406 39.117188 0.613281 38.09375 C 0.410156 37.070312 0.253906 36.039062 0.152344 35 C 0.0507812 33.960938 0 32.917969 0 31.875 C 0 30.832031 0.0507812 29.789062 0.152344 28.75 C 0.253906 27.710938 0.410156 26.679688 0.613281 25.65625 C 0.816406 24.632812 1.070312 23.621094 1.371094 22.621094 C 1.675781 21.625 2.027344 20.640625 2.425781 19.675781 C 2.824219 18.710938 3.273438 17.769531 3.765625 16.847656 C 4.257812 15.929688 4.792969 15.035156 5.371094 14.167969 C 5.953125 13.296875 6.574219 12.460938 7.234375 11.652344 C 7.898438 10.847656 8.597656 10.074219 9.335938 9.335938 C 10.074219 8.597656 10.847656 7.898438 11.652344 7.234375 C 12.460938 6.574219 13.296875 5.953125 14.167969 5.371094 C 15.035156 4.792969 15.929688 4.257812 16.847656 3.765625 C 17.769531 3.273438 18.710938 2.824219 19.675781 2.425781 C 20.640625 2.027344 21.625 1.675781 22.621094 1.371094 C 23.621094 1.070312 24.632812 0.816406 25.65625 0.613281 C 26.679688 0.410156 27.710938 0.253906 28.75 0.152344 C 29.789062 0.0507812 30.832031 0 31.875 0 C 32.917969 0 33.960938 0.0507812 35 0.152344 C 36.039062 0.253906 37.070312 0.410156 38.09375 0.613281 C 39.117188 0.816406 40.128906 1.070312 41.128906 1.371094 C 42.125 1.675781 43.109375 2.027344 44.074219 2.425781 C 45.039062 2.824219 45.980469 3.273438 46.902344 3.765625 C 47.820312 4.257812 48.714844 4.792969 49.582031 5.371094 C 50.453125 5.953125 51.289062 6.574219 52.097656 7.234375 C 52.902344 7.898438 53.675781 8.597656 54.414062 9.335938 C 55.152344 10.074219 55.851562 10.847656 56.515625 11.652344 C 57.175781 12.460938 57.796875 13.296875 58.378906 14.167969 C 58.957031 15.035156 59.492188 15.929688 59.984375 16.847656 C 60.476562 17.769531 60.925781 18.710938 61.324219 19.675781 C 61.722656 20.640625 62.074219 21.625 62.378906 22.621094 C 62.679688 23.621094 62.933594 24.632812 63.136719 25.65625 C 63.339844 26.679688 63.496094 27.710938 63.597656 28.75 C 63.699219 29.789062 63.75 30.832031 63.75 31.875 Z M 63.75 31.875 " clip-rule="nonzero"/></clipPath><radialGradient gradientTransform="matrix(1, 0, 0, 1, 0.000001, 0)" gradientUnits="userSpaceOnUse" r="31.874998" cx="31.874998" id="2a17a0badf" cy="31.874998" fx="31.874998" fy="31.874998"><stop stop-opacity="1" stop-color="rgb(100%, 99.842834%, 0%)" offset="0"/><stop stop-opacity="1" stop-color="rgb(100%, 99.569702%, 0%)" offset="0.015625"/><stop stop-opacity="1" stop-color="rgb(100%, 99.334717%, 0%)" offset="0.0273438"/><stop stop-opacity="1" stop-color="rgb(100%, 99.101257%, 0%)" offset="0.0390625"/><stop stop-opacity="1" stop-color="rgb(100%, 98.866272%, 0%)" offset="0.0507812"/><stop stop-opacity="1" stop-color="rgb(100%, 98.631287%, 0%)" offset="0.0625"/><stop stop-opacity="1" stop-color="rgb(100%, 98.397827%, 0%)" offset="0.0742188"/><stop stop-opacity="1" stop-color="rgb(100%, 98.162842%, 0%)" offset="0.0859375"/><stop stop-opacity="1" stop-color="rgb(100%, 97.929382%, 0%)" offset="0.0976562"/><stop stop-opacity="1" stop-color="rgb(100%, 97.694397%, 0%)" offset="0.109375"/><stop stop-opacity="1" stop-color="rgb(100%, 97.459412%, 0%)" offset="0.121094"/><stop stop-opacity="1" stop-color="rgb(100%, 97.225952%, 0%)" offset="0.132812"/><stop stop-opacity="1" stop-color="rgb(100%, 96.990967%, 0%)" offset="0.144531"/><stop stop-opacity="1" stop-color="rgb(100%, 96.757507%, 0%)" offset="0.15625"/><stop stop-opacity="1" stop-color="rgb(100%, 96.522522%, 0%)" offset="0.167969"/><stop stop-opacity="1" stop-color="rgb(100%, 96.287537%, 0%)" offset="0.179688"/><stop stop-opacity="1" stop-color="rgb(100%, 96.054077%, 0%)" offset="0.191406"/><stop stop-opacity="1" stop-color="rgb(100%, 95.819092%, 0%)" offset="0.203125"/><stop stop-opacity="1" stop-color="rgb(100%, 95.585632%, 0%)" offset="0.214844"/><stop stop-opacity="1" stop-color="rgb(100%, 95.350647%, 0%)" offset="0.226562"/><stop stop-opacity="1" stop-color="rgb(100%, 95.115662%, 0%)" offset="0.238281"/><stop stop-opacity="1" stop-color="rgb(100%, 94.882202%, 0%)" offset="0.25"/><stop stop-opacity="1" stop-color="rgb(100%, 94.569397%, 0%)" offset="0.261719"/><stop stop-opacity="1" stop-color="rgb(100%, 94.178772%, 0%)" offset="0.28125"/><stop stop-opacity="1" stop-color="rgb(100%, 93.788147%, 0%)" offset="0.300781"/><stop stop-opacity="1" stop-color="rgb(100%, 93.397522%, 0%)" offset="0.320312"/><stop stop-opacity="1" stop-color="rgb(100%, 93.006897%, 0%)" offset="0.339844"/><stop stop-opacity="1" stop-color="rgb(100%, 92.616272%, 0%)" offset="0.359375"/><stop stop-opacity="1" stop-color="rgb(100%, 92.263794%, 0%)" offset="0.378906"/><stop stop-opacity="1" stop-color="rgb(100%, 91.952515%, 0%)" offset="0.394531"/><stop stop-opacity="1" stop-color="rgb(100%, 91.639709%, 0%)" offset="0.410156"/><stop stop-opacity="1" stop-color="rgb(100%, 91.326904%, 0%)" offset="0.425781"/><stop stop-opacity="1" stop-color="rgb(100%, 91.014099%, 0%)" offset="0.441406"/><stop stop-opacity="1" stop-color="rgb(100%, 90.701294%, 0%)" offset="0.457031"/><stop stop-opacity="1" stop-color="rgb(100%, 90.390015%, 0%)" offset="0.472656"/><stop stop-opacity="1" stop-color="rgb(100%, 90.077209%, 0%)" offset="0.488281"/><stop stop-opacity="1" stop-color="rgb(100%, 89.804077%, 0%)" offset="0.503906"/><stop stop-opacity="1" stop-color="rgb(100%, 89.569092%, 0%)" offset="0.515625"/><stop stop-opacity="1" stop-color="rgb(100%, 89.335632%, 0%)" offset="0.527344"/><stop stop-opacity="1" stop-color="rgb(100%, 89.100647%, 0%)" offset="0.539062"/><stop stop-opacity="1" stop-color="rgb(100%, 88.865662%, 0%)" offset="0.550781"/><stop stop-opacity="1" stop-color="rgb(100%, 88.632202%, 0%)" offset="0.5625"/><stop stop-opacity="1" stop-color="rgb(100%, 88.397217%, 0%)" offset="0.574219"/><stop stop-opacity="1" stop-color="rgb(100%, 88.163757%, 0%)" offset="0.585938"/><stop stop-opacity="1" stop-color="rgb(100%, 87.928772%, 0%)" offset="0.597656"/><stop stop-opacity="1" stop-color="rgb(100%, 87.693787%, 0%)" offset="0.609375"/><stop stop-opacity="1" stop-color="rgb(100%, 87.460327%, 0%)" offset="0.621094"/><stop stop-opacity="1" stop-color="rgb(100%, 87.147522%, 0%)" offset="0.632812"/><stop stop-opacity="1" stop-color="rgb(100%, 86.756897%, 0%)" offset="0.652344"/><stop stop-opacity="1" stop-color="rgb(100%, 86.366272%, 0%)" offset="0.671875"/><stop stop-opacity="1" stop-color="rgb(100%, 86.013794%, 0%)" offset="0.691406"/><stop stop-opacity="1" stop-color="rgb(100%, 85.702515%, 0%)" offset="0.707031"/><stop stop-opacity="1" stop-color="rgb(100%, 85.389709%, 0%)" offset="0.722656"/><stop stop-opacity="1" stop-color="rgb(100%, 85.076904%, 0%)" offset="0.738281"/><stop stop-opacity="1" stop-color="rgb(100%, 84.803772%, 0%)" offset="0.753906"/><stop stop-opacity="1" stop-color="rgb(100%, 84.568787%, 0%)" offset="0.765625"/><stop stop-opacity="1" stop-color="rgb(100%, 84.335327%, 0%)" offset="0.777344"/><stop stop-opacity="1" stop-color="rgb(100%, 84.100342%, 0%)" offset="0.789062"/><stop stop-opacity="1" stop-color="rgb(100%, 83.866882%, 0%)" offset="0.800781"/><stop stop-opacity="1" stop-color="rgb(100%, 83.631897%, 0%)" offset="0.8125"/><stop stop-opacity="1" stop-color="rgb(100%, 83.319092%, 0%)" offset="0.824219"/><stop stop-opacity="1" stop-color="rgb(100%, 82.928467%, 0%)" offset="0.84375"/><stop stop-opacity="1" stop-color="rgb(100%, 82.577515%, 0%)" offset="0.863281"/><stop stop-opacity="1" stop-color="rgb(100%, 82.304382%, 0%)" offset="0.878906"/><stop stop-opacity="1" stop-color="rgb(100%, 82.069397%, 0%)" offset="0.890625"/><stop stop-opacity="1" stop-color="rgb(100%, 81.834412%, 0%)" offset="0.902344"/><stop stop-opacity="1" stop-color="rgb(100%, 81.523132%, 0%)" offset="0.914062"/><stop stop-opacity="1" stop-color="rgb(100%, 81.170654%, 0%)" offset="0.933594"/><stop stop-opacity="1" stop-color="rgb(100%, 80.897522%, 0%)" offset="0.949219"/><stop stop-opacity="1" stop-color="rgb(100%, 80.584717%, 0%)" offset="0.960938"/><stop stop-opacity="1" stop-color="rgb(100%, 80.194092%, 0%)" offset="0.980469"/><stop stop-opacity="1" stop-color="rgb(100%, 79.998779%, 0%)" offset="1"/></radialGradient><clipPath id="569c6c92ef"><path d="M 17.015625 7.664062 L 47.015625 7.664062 L 47.015625 43 L 17.015625 43 Z M 17.015625 7.664062 " clip-rule="nonzero"/></clipPath><clipPath id="a8042212b3"><path d="M 25 45 L 37 45 L 37 56.414062 L 25 56.414062 Z M 25 45 " clip-rule="nonzero"/></clipPath></defs><g clip-path="url(#f90c2d4bd1)"><g clip-path="url(#0083cdb802)"><path fill="url(#2a17a0badf)" d="M 0 0 L 0 63.5 L 63.5 63.5 L 63.5 0 Z M 0 0 " fill-rule="nonzero"/></g></g><g clip-path="url(#569c6c92ef)"><path fill="#096cef" d="M 45.03125 13.316406 C 43.742188 11.484375 41.960938 10.082031 39.695312 9.117188 C 37.433594 8.148438 34.824219 7.664062 31.871094 7.664062 C 29.183594 7.664062 26.730469 8.140625 24.511719 9.097656 C 22.292969 10.042969 20.503906 11.496094 19.152344 13.414062 C 18.078125 14.945312 17.414062 16.796875 17.140625 18.972656 C 17.023438 19.917969 17.777344 20.757812 18.734375 20.757812 L 24.675781 20.757812 C 25.441406 20.757812 26.085938 20.21875 26.25 19.480469 C 26.398438 18.816406 26.644531 18.222656 26.984375 17.714844 C 27.53125 16.894531 28.234375 16.273438 29.097656 15.851562 C 29.957031 15.433594 30.867188 15.21875 31.832031 15.21875 C 32.832031 15.21875 33.730469 15.421875 34.5625 15.84375 C 35.382812 16.253906 36.039062 16.847656 36.527344 17.617188 C 37.015625 18.386719 37.257812 19.273438 37.257812 20.296875 C 37.257812 21.265625 37.042969 22.132812 36.613281 22.902344 C 36.183594 23.671875 35.605469 24.382812 34.882812 25.019531 C 34.152344 25.660156 33.339844 26.265625 32.421875 26.859375 C 31.1875 27.628906 30.132812 28.488281 29.261719 29.433594 C 28.382812 30.378906 27.726562 31.617188 27.269531 33.160156 C 26.820312 34.699219 26.585938 36.757812 26.574219 39.339844 L 26.574219 40.628906 C 26.574219 41.503906 27.289062 42.226562 28.175781 42.226562 L 33.40625 42.226562 C 34.289062 42.226562 35.011719 41.515625 35.011719 40.628906 L 35.011719 39.339844 C 35.03125 37.886719 35.214844 36.667969 35.578125 35.683594 C 35.941406 34.699219 36.496094 33.820312 37.238281 33.070312 C 37.992188 32.320312 38.949219 31.597656 40.125 30.898438 C 41.523438 30.066406 42.722656 29.140625 43.75 28.109375 C 44.765625 27.085938 45.570312 25.894531 46.144531 24.558594 C 46.710938 23.222656 47.007812 21.683594 47.007812 19.957031 C 46.976562 17.363281 46.320312 15.152344 45.03125 13.316406 Z M 45.03125 13.316406 " fill-opacity="1" fill-rule="nonzero"/></g><g clip-path="url(#a8042212b3)"><path fill="#096cef" d="M 30.953125 45.8125 C 29.46875 45.8125 28.207031 46.332031 27.160156 47.363281 C 26.113281 48.398438 25.597656 49.644531 25.617188 51.089844 C 25.597656 52.550781 26.113281 53.808594 27.160156 54.851562 C 28.207031 55.894531 29.46875 56.414062 30.953125 56.414062 C 31.902344 56.414062 32.78125 56.167969 33.574219 55.691406 C 34.375 55.203125 35.019531 54.570312 35.519531 53.761719 C 36.019531 52.953125 36.273438 52.0625 36.28125 51.089844 C 36.261719 49.636719 35.726562 48.398438 34.660156 47.363281 C 33.601562 46.332031 32.363281 45.8125 30.953125 45.8125 Z M 30.953125 45.8125 " fill-opacity="1" fill-rule="nonzero"/></g></svg>