<svg xmlns="http://www.w3.org/2000/svg" xmlns:xlink="http://www.w3.org/1999/xlink" width="2379" zoomAndPan="magnify" viewBox="0 0 1784.88 1784.99993" height="2379" preserveAspectRatio="xMidYMid meet" version="1.0"><defs><clipPath id="ff26b9186d"><path d="M 0 0.0585938 L 1784.761719 0.0585938 L 1784.761719 1784.9375 L 0 1784.9375 Z M 0 0.0585938 " clip-rule="nonzero"/></clipPath></defs><g clip-path="url(#ff26b9186d)"><path fill="#e71997" d="M 0 892.433594 C 0 1385.285156 399.535156 1784.8125 892.375 1784.8125 C 1385.226562 1784.8125 1784.75 1385.285156 1784.75 892.433594 C 1784.75 399.585938 1385.226562 0.0585938 892.375 0.0585938 C 399.535156 0.0585938 0 399.585938 0 892.433594 " fill-opacity="1" fill-rule="nonzero"/></g><path fill="#d9147b" d="M 1377.507812 788.703125 L 1245.503906 692.878906 L 1245.503906 507.675781 C 1245.503906 499.609375 1238.894531 493.007812 1230.835938 493.007812 L 1050.519531 493.007812 C 1044.332031 493.007812 1039.054688 496.945312 1036.914062 502.417969 C 1033.085938 503.910156 1030.066406 506.929688 1028.566406 510.765625 C 1024.746094 512.25 1021.734375 515.273438 1020.234375 519.101562 C 1017.460938 520.1875 1015.265625 522.175781 1013.585938 524.617188 L 972.738281 494.980469 C 928.566406 462.925781 856.21875 462.925781 812.007812 494.980469 L 407.222656 788.703125 C 399.011719 794.652344 392.652344 800.402344 388.050781 805.820312 C 384.828125 808.683594 381.949219 811.507812 379.636719 814.21875 C 376.492188 817.042969 373.632812 819.824219 371.347656 822.496094 C 368.160156 825.375 365.265625 828.191406 362.972656 830.902344 C 359.816406 833.71875 356.972656 836.496094 354.699219 839.164062 C 351.511719 842.015625 348.632812 844.820312 346.320312 847.53125 C 343.140625 850.390625 340.230469 853.207031 337.929688 855.925781 C 334.792969 858.75 331.941406 861.515625 329.675781 864.191406 C 326.441406 867.066406 323.542969 869.894531 321.234375 872.628906 C 318.097656 875.445312 315.265625 878.207031 312.992188 880.871094 C 309.800781 883.726562 306.921875 886.53125 304.628906 889.234375 C 301.414062 892.101562 298.535156 894.917969 296.21875 897.628906 C 293.082031 900.453125 290.238281 903.226562 287.957031 905.90625 C 284.757812 908.769531 281.832031 911.609375 279.515625 914.332031 C 276.398438 917.144531 273.5625 919.910156 271.28125 922.582031 C 268.125 925.425781 265.238281 928.214844 262.9375 930.917969 C 259.730469 933.804688 256.808594 936.636719 254.496094 939.355469 C 251.363281 942.164062 248.546875 944.925781 246.253906 947.601562 C 243.027344 950.480469 240.140625 953.3125 237.8125 956.046875 C 234.679688 958.855469 231.851562 961.617188 229.570312 964.292969 C 226.390625 967.136719 223.539062 969.941406 221.226562 972.628906 C 217.996094 975.511719 215.097656 978.347656 212.78125 981.074219 C 209.652344 983.882812 206.820312 986.652344 204.550781 989.3125 C 201.335938 992.1875 198.449219 995.011719 196.132812 997.734375 C 192.976562 1000.550781 190.125 1003.335938 187.851562 1006.011719 C 184.644531 1008.882812 181.757812 1011.691406 179.445312 1014.410156 C 176.300781 1017.242188 173.449219 1020.015625 171.160156 1022.707031 C 168.003906 1025.53125 165.144531 1028.328125 162.84375 1031.027344 C 159.628906 1033.898438 156.746094 1036.722656 154.429688 1039.433594 C 151.265625 1042.257812 148.433594 1045.046875 146.15625 1047.714844 C 142.949219 1050.589844 140.039062 1053.40625 137.746094 1056.125 C 134.601562 1058.933594 131.765625 1061.714844 129.476562 1064.386719 C 126.292969 1067.238281 123.417969 1070.046875 121.105469 1072.746094 C 117.917969 1075.617188 115.019531 1078.425781 112.71875 1081.144531 C 109.566406 1083.96875 106.707031 1086.742188 104.457031 1089.421875 C 101.222656 1092.300781 98.335938 1095.109375 96.019531 1097.820312 C 92.890625 1100.644531 90.054688 1103.425781 87.773438 1106.089844 C 84.585938 1108.941406 81.699219 1111.742188 79.40625 1114.449219 C 76.199219 1117.308594 73.3125 1120.136719 70.992188 1122.851562 C 67.863281 1125.667969 65.023438 1128.441406 62.746094 1131.117188 C 59.53125 1133.996094 56.617188 1136.828125 54.316406 1139.546875 C 51.171875 1142.371094 48.335938 1145.132812 46.0625 1147.792969 C 43.480469 1150.117188 41.203125 1152.375 39.167969 1154.589844 C 144.828125 1498.875 453.125 1754.503906 824.9375 1782.289062 C 826.828125 1780.550781 828.613281 1778.738281 830.144531 1776.757812 C 833.296875 1774.269531 836.09375 1771.496094 838.476562 1768.441406 C 841.65625 1765.933594 844.460938 1763.144531 846.835938 1760.074219 C 850 1757.578125 852.777344 1754.796875 855.148438 1751.757812 C 858.324219 1749.25 861.121094 1746.472656 863.503906 1743.40625 C 866.679688 1740.902344 869.464844 1738.113281 871.871094 1735.046875 C 875.03125 1732.566406 877.804688 1729.785156 880.175781 1726.730469 C 883.367188 1724.226562 886.164062 1721.429688 888.542969 1718.363281 C 891.691406 1715.867188 894.480469 1713.09375 896.878906 1710.054688 C 900.03125 1707.550781 902.832031 1704.761719 905.203125 1701.703125 C 908.390625 1699.191406 911.191406 1696.410156 913.570312 1693.34375 C 916.71875 1690.855469 919.515625 1688.070312 921.902344 1685.023438 C 925.074219 1682.523438 927.855469 1679.726562 930.257812 1676.667969 C 933.410156 1674.175781 936.199219 1671.382812 938.578125 1668.328125 C 941.742188 1665.847656 944.539062 1663.050781 946.929688 1659.996094 C 950.101562 1657.488281 952.882812 1654.707031 955.28125 1651.636719 C 958.445312 1649.148438 961.234375 1646.359375 963.585938 1643.320312 C 966.777344 1640.8125 969.585938 1638.023438 971.957031 1634.953125 C 975.117188 1632.464844 977.902344 1629.683594 980.28125 1626.628906 C 983.453125 1624.132812 986.25 1621.332031 988.640625 1618.265625 C 991.804688 1615.78125 994.585938 1613 996.949219 1609.953125 C 1000.152344 1607.453125 1002.933594 1604.65625 1005.308594 1601.617188 C 1008.488281 1599.097656 1011.269531 1596.3125 1013.683594 1593.25 C 1016.835938 1590.753906 1019.609375 1587.972656 1021.984375 1584.925781 C 1025.160156 1582.421875 1027.976562 1579.628906 1030.351562 1576.566406 C 1033.488281 1574.078125 1036.292969 1571.289062 1038.683594 1568.242188 C 1041.828125 1565.746094 1044.636719 1562.949219 1047.007812 1559.898438 C 1050.1875 1557.394531 1052.996094 1554.597656 1055.367188 1551.546875 C 1058.539062 1549.042969 1061.328125 1546.261719 1063.699219 1543.214844 C 1066.871094 1540.710938 1069.660156 1537.921875 1072.0625 1534.855469 C 1075.214844 1532.375 1078.003906 1529.578125 1080.359375 1526.539062 C 1083.554688 1524.035156 1086.339844 1521.246094 1088.726562 1518.191406 C 1091.898438 1515.691406 1094.695312 1512.894531 1097.09375 1509.832031 C 1100.265625 1507.339844 1103.019531 1504.554688 1105.394531 1501.503906 C 1108.582031 1499 1111.382812 1496.21875 1113.746094 1493.152344 C 1116.925781 1490.660156 1119.703125 1487.878906 1122.09375 1484.832031 C 1125.257812 1482.324219 1128.046875 1479.519531 1130.457031 1476.46875 C 1133.609375 1473.976562 1136.378906 1471.183594 1138.753906 1468.136719 C 1141.941406 1465.65625 1144.738281 1462.851562 1147.113281 1459.804688 C 1150.285156 1457.300781 1153.074219 1454.511719 1155.480469 1451.445312 C 1158.636719 1448.957031 1161.40625 1446.160156 1163.78125 1443.128906 C 1166.96875 1440.617188 1169.785156 1437.832031 1172.15625 1434.761719 C 1175.3125 1432.273438 1178.089844 1429.484375 1180.480469 1426.429688 C 1183.636719 1423.941406 1186.441406 1421.148438 1188.8125 1418.101562 C 1192.003906 1415.597656 1194.800781 1412.800781 1197.164062 1409.734375 C 1200.34375 1407.246094 1203.125 1404.464844 1205.496094 1401.417969 C 1208.675781 1398.914062 1211.460938 1396.117188 1213.867188 1393.050781 C 1217.03125 1390.5625 1219.800781 1387.773438 1222.179688 1384.71875 C 1225.355469 1382.230469 1228.152344 1379.441406 1230.53125 1376.390625 C 1233.710938 1373.886719 1236.496094 1371.097656 1238.894531 1368.023438 C 1242.046875 1365.535156 1244.828125 1362.753906 1247.199219 1359.707031 C 1250.386719 1357.210938 1253.179688 1354.40625 1255.550781 1351.355469 C 1258.730469 1348.851562 1261.527344 1346.070312 1263.902344 1343.015625 C 1267.046875 1340.527344 1269.863281 1337.730469 1272.234375 1334.675781 C 1275.40625 1332.179688 1278.210938 1329.386719 1280.585938 1326.316406 C 1283.765625 1323.835938 1286.554688 1321.039062 1288.917969 1317.992188 C 1292.089844 1315.492188 1294.886719 1312.710938 1297.277344 1309.648438 C 1300.441406 1307.144531 1303.21875 1304.363281 1305.59375 1301.316406 C 1316.109375 1293.027344 1322.75 1281.421875 1322.75 1268.480469 L 1322.75 913.824219 C 1325.726562 911.796875 1327.863281 909.4375 1329.171875 906.785156 C 1333.214844 904.496094 1335.929688 901.667969 1337.484375 898.453125 C 1341.554688 896.164062 1344.265625 893.335938 1345.847656 890.105469 C 1349.90625 887.8125 1352.589844 884.984375 1354.164062 881.777344 C 1358.230469 879.488281 1360.933594 876.652344 1362.519531 873.421875 C 1366.589844 871.136719 1369.289062 868.304688 1370.863281 865.078125 C 1374.914062 862.792969 1377.617188 859.960938 1379.195312 856.746094 C 1383.25 854.460938 1385.976562 851.628906 1387.546875 848.394531 C 1391.605469 846.109375 1394.308594 843.277344 1395.878906 840.058594 C 1413.410156 830.183594 1408.027344 810.847656 1377.507812 788.703125 " fill-opacity="1" fill-rule="nonzero"/><path fill="#ffffff" d="M 1377.507812 788.703125 L 1245.503906 692.878906 L 1245.503906 507.675781 C 1245.503906 499.609375 1238.894531 493.007812 1230.835938 493.007812 L 1050.519531 493.007812 C 1042.453125 493.007812 1035.839844 499.609375 1035.839844 507.675781 L 1035.839844 540.75 L 972.738281 494.980469 C 928.566406 462.925781 856.21875 462.925781 812.007812 494.980469 L 407.222656 788.703125 C 363.023438 820.78125 371.554688 847.027344 426.179688 847.027344 L 462.667969 847.027344 C 462.257812 849.273438 462.042969 851.558594 462.042969 853.875 L 462.042969 1268.480469 C 462.042969 1293.585938 486.726562 1313.9375 517.105469 1313.9375 L 795.316406 1313.9375 C 795.265625 1312.910156 795.191406 1311.886719 795.191406 1310.867188 L 795.191406 1071.222656 C 795.191406 1044.300781 817.1875 1022.28125 844.117188 1022.28125 L 940.667969 1022.28125 C 967.570312 1022.28125 989.601562 1044.300781 989.601562 1071.222656 L 989.601562 1301.757812 C 989.601562 1301.757812 989.519531 1312.910156 989.433594 1313.9375 L 1267.675781 1313.9375 C 1298.066406 1313.9375 1322.75 1293.585938 1322.75 1268.480469 L 1322.75 853.875 C 1322.75 851.558594 1322.519531 849.273438 1322.117188 847.027344 L 1358.578125 847.027344 C 1413.230469 847.027344 1421.757812 820.78125 1377.507812 788.703125 " fill-opacity="1" fill-rule="nonzero"/></svg>