<svg xmlns="http://www.w3.org/2000/svg" xmlns:xlink="http://www.w3.org/1999/xlink" width="85" zoomAndPan="magnify" viewBox="0 0 63.75 63.749998" height="85" preserveAspectRatio="xMidYMid meet" version="1.0"><defs><clipPath id="2f4754d001"><path d="M 0 0 L 63.5 0 L 63.5 63.5 L 0 63.5 Z M 0 0 " clip-rule="nonzero"/></clipPath></defs><g clip-path="url(#2f4754d001)"><path fill="#ed1e79" d="M 63.75 31.875 C 63.75 49.480469 49.480469 63.75 31.875 63.75 C 14.269531 63.75 0 49.480469 0 31.875 C 0 14.269531 14.269531 0 31.875 0 C 49.480469 0 63.75 14.269531 63.75 31.875 " fill-opacity="1" fill-rule="nonzero"/></g><path fill="#a21c62" d="M 62.914062 31.875 C 62.914062 49.015625 49.015625 62.914062 31.875 62.914062 C 14.734375 62.914062 0.835938 49.015625 0.835938 31.875 C 0.835938 14.734375 14.734375 0.835938 31.875 0.835938 C 49.015625 0.835938 62.914062 14.734375 62.914062 31.875 " fill-opacity="1" fill-rule="nonzero"/><path fill="#ed1e79" d="M 62.25 31.875 C 62.25 48.652344 48.652344 62.25 31.875 62.25 C 15.097656 62.25 1.496094 48.652344 1.496094 31.875 C 1.496094 15.097656 15.097656 1.496094 31.875 1.496094 C 48.652344 1.496094 62.25 15.097656 62.25 31.875 " fill-opacity="1" fill-rule="nonzero"/><path fill="#c61c6d" d="M 61.84375 26.871094 L 41.386719 13.363281 L 39.578125 15.351562 C 39.039062 15.351562 23.671875 24.027344 23.671875 24.027344 L 20.777344 47.890625 L 13.460938 46.589844 L 22.414062 60.75 C 25.390625 61.726562 28.570312 62.25 31.875 62.25 C 48.652344 62.25 62.25 48.652344 62.25 31.875 C 62.25 30.171875 62.113281 28.5 61.84375 26.871094 " fill-opacity="1" fill-rule="nonzero"/><path fill="#a21c62" d="M 37.851562 36.199219 C 34.390625 36.199219 31.585938 38.421875 31.585938 41.160156 C 31.585938 43.902344 34.390625 46.121094 37.851562 46.121094 C 41.3125 46.121094 44.121094 43.902344 44.121094 41.160156 C 44.121094 41.101562 44.117188 41.039062 44.113281 40.976562 L 44.121094 40.976562 L 44.121094 16.640625 C 44.039062 15.285156 42.914062 14.210938 41.539062 14.210938 C 41.203125 14.210938 40.882812 14.273438 40.585938 14.390625 L 24.496094 20.765625 L 24.308594 20.84375 L 24.308594 20.847656 C 24.273438 20.859375 24.242188 20.871094 24.210938 20.882812 L 24.082031 20.933594 C 23.136719 21.332031 22.460938 22.261719 22.433594 23.347656 L 22.433594 23.480469 C 22.4375 23.550781 22.433594 23.6875 22.433594 23.6875 L 22.433594 41.257812 C 21.75 41.054688 21.007812 40.941406 20.230469 40.941406 C 16.769531 40.941406 13.964844 43.164062 13.964844 45.90625 C 13.964844 48.644531 16.769531 50.867188 20.230469 50.867188 C 23.695312 50.867188 26.5 48.644531 26.5 45.90625 C 26.5 45.84375 26.496094 45.78125 26.496094 45.722656 L 26.5 45.722656 L 26.5 28.148438 L 40.054688 22.464844 L 40.054688 36.515625 C 39.367188 36.308594 38.628906 36.199219 37.851562 36.199219 " fill-opacity="1" fill-rule="nonzero"/><path fill="#ffcfe6" d="M 36.828125 34.933594 C 33.367188 34.933594 30.558594 37.15625 30.558594 39.894531 C 30.558594 42.636719 33.367188 44.855469 36.828125 44.855469 C 40.289062 44.855469 43.09375 42.636719 43.09375 39.894531 C 43.09375 39.835938 43.09375 39.773438 43.089844 39.710938 L 43.09375 39.710938 L 43.09375 15.375 C 43.015625 14.019531 41.890625 12.945312 40.515625 12.945312 C 40.179688 12.945312 39.859375 13.007812 39.5625 13.125 L 23.472656 19.5 L 23.28125 19.578125 L 23.28125 19.582031 C 23.25 19.59375 23.21875 19.605469 23.183594 19.613281 L 23.058594 19.667969 C 22.109375 20.066406 21.4375 20.996094 21.410156 22.082031 L 21.410156 22.214844 C 21.410156 22.285156 21.410156 22.421875 21.410156 22.421875 L 21.410156 39.992188 C 20.722656 39.789062 19.984375 39.675781 19.207031 39.675781 C 15.746094 39.675781 12.9375 41.898438 12.9375 44.640625 C 12.9375 47.378906 15.746094 49.601562 19.207031 49.601562 C 22.667969 49.601562 25.476562 47.378906 25.476562 44.640625 C 25.476562 44.578125 25.472656 44.515625 25.46875 44.457031 L 25.476562 44.457031 L 25.476562 26.882812 L 39.03125 21.195312 L 39.03125 35.25 C 38.34375 35.046875 37.601562 34.933594 36.828125 34.933594 " fill-opacity="1" fill-rule="nonzero"/></svg>