<svg xmlns="http://www.w3.org/2000/svg" xmlns:xlink="http://www.w3.org/1999/xlink" width="2379" zoomAndPan="magnify" viewBox="0 0 1784.88 1784.99993" height="2379" preserveAspectRatio="xMidYMid meet" version="1.0"><defs><clipPath id="59058a1b38"><path d="M 0 0.0585938 L 1784.761719 0.0585938 L 1784.761719 1784.820312 L 0 1784.820312 Z M 0 0.0585938 " clip-rule="nonzero"/></clipPath><clipPath id="d2f4378aca"><path d="M 892.378906 0.0585938 C 399.53125 0.0585938 0 399.59375 0 892.441406 C 0 1385.289062 399.53125 1784.820312 892.378906 1784.820312 C 1385.226562 1784.820312 1784.761719 1385.289062 1784.761719 892.441406 C 1784.761719 399.59375 1385.226562 0.0585938 892.378906 0.0585938 Z M 892.378906 0.0585938 " clip-rule="nonzero"/></clipPath></defs><g clip-path="url(#59058a1b38)"><g clip-path="url(#d2f4378aca)"><path fill="#a94caf" d="M 0 0.0585938 L 1784.761719 0.0585938 L 1784.761719 1784.820312 L 0 1784.820312 Z M 0 0.0585938 " fill-opacity="1" fill-rule="nonzero"/></g></g><path fill="#f0f0f0" d="M 1509.761719 847.429688 L 1000.859375 497.148438 C 984.160156 485.53125 962.382812 484.082031 944.597656 493.519531 C 926.808594 502.953125 915.554688 521.46875 915.554688 541.792969 L 915.554688 787.535156 L 493.40625 497.148438 C 476.707031 485.53125 454.929688 484.082031 437.140625 493.519531 C 419.355469 502.953125 408.105469 521.46875 408.105469 541.792969 L 408.105469 1243.082031 C 408.105469 1263.410156 419.355469 1281.921875 437.140625 1291.359375 C 445.128906 1295.351562 453.839844 1297.527344 462.550781 1297.527344 C 473.441406 1297.527344 484.332031 1294.261719 493.40625 1287.730469 L 915.554688 997.34375 L 915.554688 1243.082031 C 915.554688 1263.410156 926.808594 1281.921875 944.597656 1291.359375 C 952.582031 1295.351562 961.292969 1297.527344 970.003906 1297.527344 C 980.53125 1297.527344 991.421875 1294.261719 1000.859375 1287.730469 L 1509.761719 937.449219 C 1524.644531 927.285156 1533.355469 910.226562 1533.355469 892.4375 C 1533.355469 874.652344 1524.644531 857.589844 1509.761719 847.429688 Z M 1509.761719 847.429688 " fill-opacity="1" fill-rule="nonzero"/></svg>