<svg xmlns="http://www.w3.org/2000/svg" xmlns:xlink="http://www.w3.org/1999/xlink" width="2379" zoomAndPan="magnify" viewBox="0 0 1784.88 1784.99993" height="2379" preserveAspectRatio="xMidYMid meet" version="1.0"><defs><clipPath id="c02faced70"><path d="M 0 0.0585938 L 1784.761719 0.0585938 L 1784.761719 1784.9375 L 0 1784.9375 Z M 0 0.0585938 " clip-rule="nonzero"/></clipPath><clipPath id="064f4a520a"><path d="M 478 479 L 1784.761719 479 L 1784.761719 1784.9375 L 478 1784.9375 Z M 478 479 " clip-rule="nonzero"/></clipPath><clipPath id="fb6ce85cce"><path d="M 1784.878906 892.5 C 1784.878906 1385.382812 1385.320312 1784.941406 892.441406 1784.941406 C 399.558594 1784.941406 0 1385.382812 0 892.5 C 0 399.617188 399.558594 0.0585938 892.441406 0.0585938 C 1385.320312 0.0585938 1784.878906 399.617188 1784.878906 892.5 Z M 1784.878906 892.5 " clip-rule="nonzero"/></clipPath></defs><g clip-path="url(#c02faced70)"><path fill="#db1100" d="M 1784.878906 892.5 C 1784.878906 1385.382812 1385.320312 1784.941406 892.441406 1784.941406 C 399.558594 1784.941406 0 1385.382812 0 892.5 C 0 399.617188 399.558594 0.0585938 892.441406 0.0585938 C 1385.320312 0.0585938 1784.878906 399.617188 1784.878906 892.5 " fill-opacity="1" fill-rule="nonzero"/></g><g clip-path="url(#064f4a520a)"><g clip-path="url(#fb6ce85cce)"><path fill="#b30d00" d="M 1948.246094 1121.335938 L 1305.925781 479.015625 L 478.953125 1305.984375 L 1083.46875 1910.5 L 1589.1875 1600.796875 L 1948.246094 1121.335938 " fill-opacity="1" fill-rule="nonzero"/></g></g><path fill="#ffffff" d="M 1050.492188 892.5 L 1305.925781 637.066406 C 1349.5 593.488281 1349.5 522.589844 1305.925781 479.015625 C 1284.816406 457.90625 1256.746094 446.28125 1226.894531 446.28125 C 1197.046875 446.28125 1168.972656 457.90625 1147.867188 479.015625 L 892.441406 734.441406 L 637.003906 479.015625 C 615.898438 457.90625 587.832031 446.28125 557.984375 446.28125 C 528.125 446.28125 500.0625 457.90625 478.953125 479.015625 C 435.378906 522.589844 435.378906 593.488281 478.953125 637.066406 L 734.378906 892.5 L 478.953125 1147.933594 C 457.847656 1169.042969 446.21875 1197.105469 446.21875 1226.957031 C 446.21875 1256.8125 457.847656 1284.878906 478.953125 1305.984375 C 500.0625 1327.09375 528.132812 1338.71875 557.984375 1338.71875 C 587.832031 1338.71875 615.898438 1327.09375 637.003906 1305.984375 L 892.441406 1050.558594 L 1147.867188 1305.984375 C 1168.984375 1327.09375 1197.046875 1338.71875 1226.894531 1338.71875 C 1256.746094 1338.71875 1284.808594 1327.09375 1305.925781 1305.984375 C 1349.5 1262.410156 1349.5 1191.511719 1305.925781 1147.933594 L 1050.492188 892.5 " fill-opacity="1" fill-rule="nonzero"/></svg>