<svg xmlns="http://www.w3.org/2000/svg" xmlns:xlink="http://www.w3.org/1999/xlink" width="85" zoomAndPan="magnify" viewBox="0 0 63.75 63.749998" height="85" preserveAspectRatio="xMidYMid meet" version="1.0"><defs><clipPath id="b4f6e5327a"><path d="M 7.140625 12.355469 L 56.359375 12.355469 L 56.359375 51.144531 L 7.140625 51.144531 Z M 7.140625 12.355469 " clip-rule="nonzero"/></clipPath><clipPath id="e14411f9f7"><path d="M 10.128906 12.355469 L 53.371094 12.355469 C 55.023438 12.355469 56.359375 13.695312 56.359375 15.34375 L 56.359375 48.15625 C 56.359375 49.804688 55.023438 51.144531 53.371094 51.144531 L 10.128906 51.144531 C 8.476562 51.144531 7.140625 49.804688 7.140625 48.15625 L 7.140625 15.34375 C 7.140625 13.695312 8.476562 12.355469 10.128906 12.355469 Z M 10.128906 12.355469 " clip-rule="nonzero"/></clipPath><clipPath id="f267a480ad"><path d="M 0 0 L 63.5 0 L 63.5 63.5 L 0 63.5 Z M 0 0 " clip-rule="nonzero"/></clipPath></defs><g clip-path="url(#b4f6e5327a)"><g clip-path="url(#e14411f9f7)"><path fill="#f6f6f6" d="M 7.140625 12.355469 L 56.359375 12.355469 L 56.359375 51.144531 L 7.140625 51.144531 Z M 7.140625 12.355469 " fill-opacity="1" fill-rule="nonzero"/></g></g><g clip-path="url(#f267a480ad)"><path fill="#ffe082" d="M 31.75 0 C 14.21875 0 0 14.21875 0 31.75 C 0 49.285156 14.21875 63.5 31.75 63.5 C 43.285156 63.5 53.382812 57.347656 58.9375 48.148438 C 61.835938 43.363281 63.5 37.746094 63.5 31.75 C 63.5 24.300781 60.933594 17.441406 56.621094 12.023438 C 50.816406 4.699219 41.824219 0 31.75 0 Z M 18.742188 37.570312 C 18.742188 38.15625 18.265625 38.628906 17.683594 38.628906 L 12.304688 38.628906 C 11.71875 38.628906 11.246094 38.15625 11.246094 37.570312 L 11.246094 25.929688 C 11.246094 25.34375 11.71875 24.871094 12.304688 24.871094 L 17.683594 24.871094 C 18.265625 24.871094 18.742188 25.34375 18.742188 25.929688 Z M 34.644531 44.921875 C 34.644531 45.308594 34.4375 45.660156 34.101562 45.847656 C 33.941406 45.9375 33.765625 45.980469 33.585938 45.980469 C 33.394531 45.980469 33.199219 45.929688 33.027344 45.824219 L 21.183594 38.46875 C 20.871094 38.277344 20.683594 37.9375 20.683594 37.570312 L 20.683594 25.929688 C 20.683594 25.5625 20.871094 25.222656 21.183594 25.03125 L 33.027344 17.679688 C 33.355469 17.476562 33.765625 17.464844 34.101562 17.652344 C 34.4375 17.839844 34.644531 18.191406 34.644531 18.578125 Z M 38.808594 36.972656 C 38.601562 37.179688 38.332031 37.28125 38.058594 37.28125 C 37.789062 37.28125 37.519531 37.179688 37.3125 36.972656 C 36.898438 36.558594 36.898438 35.890625 37.3125 35.476562 C 38.304688 34.484375 38.851562 33.160156 38.851562 31.75 C 38.851562 30.339844 38.304688 29.019531 37.3125 28.027344 C 36.898438 27.613281 36.898438 26.941406 37.3125 26.527344 C 37.726562 26.117188 38.394531 26.117188 38.808594 26.527344 C 40.199219 27.921875 40.96875 29.773438 40.96875 31.75 C 40.96875 33.726562 40.199219 35.578125 38.808594 36.972656 Z M 42.046875 41.269531 C 41.777344 41.269531 41.503906 41.164062 41.296875 40.957031 C 40.886719 40.546875 40.886719 39.875 41.296875 39.460938 C 43.359375 37.398438 44.496094 34.660156 44.496094 31.75 C 44.496094 28.839844 43.359375 26.101562 41.296875 24.039062 C 40.886719 23.625 40.886719 22.957031 41.296875 22.542969 C 41.710938 22.128906 42.382812 22.128906 42.796875 22.542969 C 45.257812 25.003906 46.613281 28.273438 46.613281 31.75 C 46.613281 35.226562 45.257812 38.496094 42.796875 40.957031 C 42.589844 41.164062 42.316406 41.269531 42.046875 41.269531 Z M 46.78125 44.945312 C 46.574219 45.152344 46.304688 45.253906 46.03125 45.253906 C 45.761719 45.253906 45.492188 45.152344 45.285156 44.945312 C 44.871094 44.53125 44.871094 43.863281 45.285156 43.449219 C 48.414062 40.316406 50.140625 36.164062 50.140625 31.75 C 50.140625 27.335938 48.414062 23.183594 45.285156 20.054688 C 44.871094 19.640625 44.871094 18.96875 45.285156 18.554688 C 45.699219 18.144531 46.367188 18.144531 46.78125 18.554688 C 50.3125 22.085938 52.257812 26.773438 52.257812 31.75 C 52.257812 36.730469 50.3125 41.414062 46.78125 44.945312 Z M 46.78125 44.945312 " fill-opacity="1" fill-rule="nonzero"/></g></svg>