<svg xmlns="http://www.w3.org/2000/svg" xmlns:xlink="http://www.w3.org/1999/xlink" width="85" zoomAndPan="magnify" viewBox="0 0 63.75 63.749998" height="85" preserveAspectRatio="xMidYMid meet" version="1.0"><defs><clipPath id="e3c5b0a741"><path d="M 0 0 L 63.5 0 L 63.5 63.5 L 0 63.5 Z M 0 0 " clip-rule="nonzero"/></clipPath></defs><g clip-path="url(#e3c5b0a741)"><path fill="#e8bed1" d="M 63.5 31.75 C 63.5 49.285156 49.285156 63.5 31.75 63.5 C 14.214844 63.5 0 49.285156 0 31.75 C 0 14.214844 14.214844 0 31.75 0 C 49.285156 0 63.5 14.214844 63.5 31.75 " fill-opacity="1" fill-rule="nonzero"/></g><path fill="#d4a2bc" d="M 62.667969 31.75 C 62.667969 48.824219 48.824219 62.667969 31.75 62.667969 C 14.675781 62.667969 0.832031 48.824219 0.832031 31.75 C 0.832031 14.675781 14.675781 0.835938 31.75 0.835938 C 48.824219 0.832031 62.667969 14.675781 62.667969 31.75 " fill-opacity="1" fill-rule="nonzero"/><path fill="#e8bed1" d="M 62.007812 31.75 C 62.007812 48.460938 48.460938 62.007812 31.75 62.007812 C 15.039062 62.007812 1.492188 48.460938 1.492188 31.75 C 1.492188 15.039062 15.039062 1.492188 31.75 1.492188 C 48.460938 1.492188 62.007812 15.039062 62.007812 31.75 " fill-opacity="1" fill-rule="nonzero"/><path fill="#c8a4b5" d="M 61.601562 26.765625 L 41.226562 13.3125 L 39.425781 15.292969 C 38.886719 15.292969 23.578125 23.933594 23.578125 23.933594 L 20.695312 47.703125 L 13.40625 46.40625 L 22.328125 60.511719 C 25.292969 61.484375 28.460938 62.007812 31.75 62.007812 C 48.460938 62.007812 62.007812 48.460938 62.007812 31.75 C 62.007812 30.054688 61.867188 28.390625 61.601562 26.765625 " fill-opacity="1" fill-rule="nonzero"/><path fill="#d4a2bc" d="M 37.707031 36.058594 C 34.257812 36.058594 31.460938 38.269531 31.460938 41 C 31.460938 43.730469 34.257812 45.941406 37.707031 45.941406 C 41.152344 45.941406 43.949219 43.730469 43.949219 41 C 43.949219 40.9375 43.945312 40.878906 43.941406 40.816406 L 43.949219 40.816406 L 43.949219 16.574219 C 43.867188 15.222656 42.746094 14.152344 41.378906 14.152344 C 41.042969 14.152344 40.722656 14.21875 40.429688 14.335938 L 24.402344 20.6875 L 24.210938 20.761719 L 24.210938 20.765625 C 24.179688 20.777344 24.148438 20.789062 24.117188 20.800781 L 23.988281 20.851562 C 23.042969 21.25 22.375 22.175781 22.347656 23.257812 L 22.347656 23.390625 C 22.347656 23.457031 22.347656 23.59375 22.347656 23.59375 L 22.347656 29.738281 L 22.347656 29.734375 L 22.347656 41.097656 C 21.664062 40.894531 20.925781 40.785156 20.152344 40.785156 C 16.703125 40.785156 13.910156 42.996094 13.910156 45.726562 C 13.910156 48.453125 16.703125 50.667969 20.152344 50.667969 C 23.601562 50.667969 26.398438 48.453125 26.398438 45.726562 C 26.398438 45.664062 26.394531 45.605469 26.390625 45.542969 L 26.398438 45.542969 L 26.398438 28.035156 L 39.898438 22.375 L 39.898438 36.371094 C 39.214844 36.167969 38.476562 36.058594 37.707031 36.058594 " fill-opacity="1" fill-rule="nonzero"/><path fill="#f1dde7" d="M 36.683594 34.796875 C 33.234375 34.796875 30.441406 37.011719 30.441406 39.738281 C 30.441406 42.46875 33.234375 44.683594 36.683594 44.683594 C 40.132812 44.683594 42.925781 42.46875 42.925781 39.738281 C 42.925781 39.679688 42.925781 39.617188 42.921875 39.558594 L 42.925781 39.558594 L 42.925781 15.3125 C 42.847656 13.964844 41.726562 12.894531 40.355469 12.894531 C 40.023438 12.894531 39.703125 12.957031 39.40625 13.074219 L 23.382812 19.425781 L 23.191406 19.5 L 23.191406 19.507812 C 23.160156 19.515625 23.128906 19.527344 23.09375 19.539062 L 22.96875 19.589844 C 22.023438 19.988281 21.355469 20.914062 21.324219 21.996094 L 21.324219 22.128906 C 21.328125 22.199219 21.324219 22.332031 21.324219 22.332031 L 21.324219 39.835938 C 20.644531 39.632812 19.90625 39.523438 19.132812 39.523438 C 15.683594 39.523438 12.890625 41.734375 12.890625 44.464844 C 12.890625 47.195312 15.683594 49.40625 19.132812 49.40625 C 22.582031 49.40625 25.375 47.195312 25.375 44.464844 C 25.375 44.402344 25.371094 44.34375 25.371094 44.28125 L 25.375 44.28125 L 25.375 26.777344 L 38.878906 21.113281 L 38.878906 35.113281 C 38.195312 34.90625 37.457031 34.796875 36.683594 34.796875 " fill-opacity="1" fill-rule="nonzero"/></svg>