<svg xmlns="http://www.w3.org/2000/svg" xmlns:xlink="http://www.w3.org/1999/xlink" width="85" zoomAndPan="magnify" viewBox="0 0 63.75 63.749998" height="85" preserveAspectRatio="xMidYMid meet" version="1.0"><defs><clipPath id="bd057feabf"><path d="M 4.882812 4.882812 L 58.671875 4.882812 L 58.671875 58.671875 L 4.882812 58.671875 Z M 4.882812 4.882812 " clip-rule="nonzero"/></clipPath></defs><path fill="#f9ae5b" d="M 35.671875 9.492188 C 35.671875 10.011719 35.574219 10.515625 35.375 11 C 35.175781 11.480469 34.890625 11.90625 34.519531 12.277344 C 34.152344 12.644531 33.726562 12.929688 33.242188 13.128906 C 32.761719 13.328125 32.257812 13.429688 31.734375 13.429688 C 31.214844 13.429688 30.710938 13.328125 30.230469 13.128906 C 29.746094 12.929688 29.320312 12.644531 28.953125 12.277344 C 28.582031 11.90625 28.296875 11.480469 28.097656 11 C 27.898438 10.515625 27.796875 10.011719 27.796875 9.492188 C 27.796875 8.96875 27.898438 8.464844 28.097656 7.984375 C 28.296875 7.5 28.582031 7.074219 28.953125 6.707031 C 29.320312 6.335938 29.746094 6.054688 30.230469 5.851562 C 30.710938 5.652344 31.214844 5.554688 31.734375 5.554688 C 32.257812 5.554688 32.761719 5.652344 33.242188 5.851562 C 33.726562 6.054688 34.152344 6.335938 34.519531 6.707031 C 34.890625 7.074219 35.175781 7.5 35.375 7.984375 C 35.574219 8.464844 35.671875 8.96875 35.671875 9.492188 Z M 35.671875 9.492188 " fill-opacity="1" fill-rule="nonzero"/><path fill="#f9ae5b" d="M 35.671875 53.894531 C 35.671875 54.417969 35.574219 54.921875 35.375 55.402344 C 35.175781 55.886719 34.890625 56.3125 34.519531 56.679688 C 34.152344 57.050781 33.726562 57.335938 33.242188 57.535156 C 32.761719 57.734375 32.257812 57.835938 31.734375 57.835938 C 31.214844 57.835938 30.710938 57.734375 30.230469 57.535156 C 29.746094 57.335938 29.320312 57.050781 28.953125 56.679688 C 28.582031 56.3125 28.296875 55.886719 28.097656 55.402344 C 27.898438 54.921875 27.796875 54.417969 27.796875 53.894531 C 27.796875 53.375 27.898438 52.871094 28.097656 52.390625 C 28.296875 51.90625 28.582031 51.480469 28.953125 51.113281 C 29.320312 50.742188 29.746094 50.457031 30.230469 50.257812 C 30.710938 50.058594 31.214844 49.957031 31.734375 49.957031 C 32.257812 49.957031 32.761719 50.058594 33.242188 50.257812 C 33.726562 50.457031 34.152344 50.742188 34.519531 51.113281 C 34.890625 51.480469 35.175781 51.90625 35.375 52.390625 C 35.574219 52.871094 35.671875 53.375 35.671875 53.894531 Z M 35.671875 53.894531 " fill-opacity="1" fill-rule="nonzero"/><path fill="#feda7c" d="M 57.875 31.695312 C 57.875 32.214844 57.777344 32.71875 57.578125 33.199219 C 57.375 33.683594 57.09375 34.109375 56.722656 34.476562 C 56.355469 34.847656 55.925781 35.132812 55.445312 35.332031 C 54.960938 35.53125 54.460938 35.632812 53.9375 35.632812 C 53.417969 35.632812 52.914062 35.53125 52.429688 35.332031 C 51.949219 35.132812 51.523438 34.847656 51.152344 34.476562 C 50.785156 34.109375 50.5 33.683594 50.300781 33.199219 C 50.101562 32.71875 50 32.214844 50 31.695312 C 50 31.171875 50.101562 30.667969 50.300781 30.1875 C 50.5 29.703125 50.785156 29.277344 51.152344 28.910156 C 51.523438 28.539062 51.949219 28.253906 52.429688 28.054688 C 52.914062 27.855469 53.417969 27.757812 53.9375 27.757812 C 54.460938 27.757812 54.960938 27.855469 55.445312 28.054688 C 55.925781 28.253906 56.355469 28.539062 56.722656 28.910156 C 57.09375 29.277344 57.375 29.703125 57.578125 30.1875 C 57.777344 30.667969 57.875 31.171875 57.875 31.695312 Z M 57.875 31.695312 " fill-opacity="1" fill-rule="nonzero"/><path fill="#feda7c" d="M 13.472656 31.695312 C 13.472656 32.214844 13.371094 32.71875 13.171875 33.199219 C 12.972656 33.683594 12.6875 34.109375 12.316406 34.476562 C 11.949219 34.847656 11.523438 35.132812 11.039062 35.332031 C 10.558594 35.53125 10.054688 35.632812 9.53125 35.632812 C 9.011719 35.632812 8.507812 35.53125 8.027344 35.332031 C 7.542969 35.132812 7.117188 34.847656 6.75 34.476562 C 6.378906 34.109375 6.09375 33.683594 5.894531 33.199219 C 5.695312 32.71875 5.59375 32.214844 5.59375 31.695312 C 5.59375 31.171875 5.695312 30.667969 5.894531 30.1875 C 6.09375 29.703125 6.378906 29.277344 6.75 28.910156 C 7.117188 28.539062 7.542969 28.253906 8.027344 28.054688 C 8.507812 27.855469 9.011719 27.757812 9.53125 27.757812 C 10.054688 27.757812 10.558594 27.855469 11.039062 28.054688 C 11.523438 28.253906 11.949219 28.539062 12.316406 28.910156 C 12.6875 29.277344 12.972656 29.703125 13.171875 30.1875 C 13.371094 30.667969 13.472656 31.171875 13.472656 31.695312 Z M 13.472656 31.695312 " fill-opacity="1" fill-rule="nonzero"/><path fill="#ffffff" d="M 39.191406 24.238281 L 53.9375 9.492188 " fill-opacity="1" fill-rule="nonzero"/><path fill="#ffffff" d="M 22.601562 22.5625 C 19.335938 19.292969 16.066406 16.027344 12.800781 12.757812 " fill-opacity="1" fill-rule="nonzero"/><path fill="#ffffff" d="M 23.023438 40.40625 C 19.671875 43.757812 16.320312 47.109375 12.96875 50.460938 " fill-opacity="1" fill-rule="nonzero"/><path fill="#ffffff" d="M 41.035156 40.992188 C 44.136719 44.09375 47.234375 47.195312 50.335938 50.292969 " fill-opacity="1" fill-rule="nonzero"/><path fill="#f86868" d="M 5.929688 5.886719 L 13.050781 5.886719 L 13.050781 13.011719 L 5.929688 13.011719 Z M 5.929688 5.886719 " fill-opacity="1" fill-rule="nonzero"/><path fill="#86d2ff" d="M 50.417969 5.886719 L 57.539062 5.886719 L 57.539062 13.011719 L 50.417969 13.011719 Z M 50.417969 5.886719 " fill-opacity="1" fill-rule="nonzero"/><path fill="#86d2ff" d="M 5.929688 50.378906 L 13.050781 50.378906 L 13.050781 57.5 L 5.929688 57.5 Z M 5.929688 50.378906 " fill-opacity="1" fill-rule="nonzero"/><path fill="#f86868" d="M 50.417969 50.378906 L 57.539062 50.378906 L 57.539062 57.5 L 50.417969 57.5 Z M 50.417969 50.378906 " fill-opacity="1" fill-rule="nonzero"/><path fill="#d3d6dd" d="M 22.9375 22.898438 L 40.53125 22.898438 L 40.53125 40.492188 L 22.9375 40.492188 Z M 22.9375 22.898438 " fill-opacity="1" fill-rule="nonzero"/><g clip-path="url(#bd057feabf)"><path fill="#000000" d="M 57.539062 49.792969 L 50.753906 49.792969 L 43.800781 42.835938 L 51.257812 35.378906 C 52.011719 35.964844 53.015625 36.300781 54.023438 36.300781 C 56.535156 36.300781 58.628906 34.207031 58.628906 31.695312 C 58.628906 29.179688 56.535156 27.085938 54.023438 27.085938 C 53.015625 27.085938 52.011719 27.421875 51.257812 28.007812 L 43.714844 20.464844 C 46.816406 17.367188 49.078125 15.105469 50.671875 13.597656 L 57.457031 13.597656 C 57.792969 13.597656 58.128906 13.34375 58.128906 12.925781 L 58.128906 5.886719 C 58.128906 5.554688 57.875 5.21875 57.457031 5.21875 L 50.335938 5.21875 C 50 5.21875 49.664062 5.46875 49.664062 5.886719 L 49.664062 12.675781 C 48.074219 14.351562 45.894531 16.613281 42.796875 19.628906 L 35.253906 12.089844 C 35.839844 11.335938 36.175781 10.328125 36.175781 9.324219 C 36.34375 6.976562 34.25 4.882812 31.734375 4.882812 C 29.222656 4.882812 27.128906 6.976562 27.128906 9.492188 C 27.128906 10.496094 27.460938 11.5 28.050781 12.257812 L 20.59375 19.710938 L 13.636719 12.757812 L 13.636719 5.886719 C 13.636719 5.554688 13.386719 5.21875 12.96875 5.21875 L 5.929688 5.21875 C 5.59375 5.21875 5.261719 5.46875 5.261719 5.886719 L 5.261719 13.011719 C 5.261719 13.34375 5.511719 13.679688 5.929688 13.679688 L 12.714844 13.679688 L 19.671875 20.632812 L 12.214844 28.089844 C 11.460938 27.503906 10.453125 27.167969 9.449219 27.167969 C 7.019531 27.085938 4.925781 29.179688 4.925781 31.695312 C 4.925781 34.207031 7.019531 36.300781 9.53125 36.300781 C 10.539062 36.300781 11.542969 35.964844 12.296875 35.378906 L 19.753906 42.835938 L 12.800781 49.792969 L 5.929688 49.792969 C 5.59375 49.792969 5.261719 50.042969 5.261719 50.460938 L 5.261719 57.582031 C 5.261719 57.917969 5.511719 58.253906 5.929688 58.253906 L 13.050781 58.253906 C 13.386719 58.253906 13.722656 58 13.722656 57.582031 L 13.722656 50.796875 L 20.675781 43.84375 L 28.132812 51.300781 C 27.546875 52.054688 27.210938 53.058594 27.210938 54.0625 C 27.210938 56.578125 29.304688 58.671875 31.820312 58.671875 C 34.332031 58.671875 36.425781 56.578125 36.425781 54.0625 C 36.425781 53.058594 36.09375 52.054688 35.507812 51.300781 L 42.960938 43.84375 L 49.917969 50.796875 L 49.917969 57.582031 C 49.917969 57.917969 50.167969 58.253906 50.585938 58.253906 L 57.707031 58.253906 C 58.042969 58.253906 58.378906 58 58.378906 57.582031 L 58.378906 50.460938 C 58.128906 50.042969 57.875 49.792969 57.539062 49.792969 Z M 51.089844 6.558594 L 56.953125 6.558594 L 56.953125 12.421875 L 51.089844 12.421875 Z M 6.601562 6.558594 L 12.464844 6.558594 L 12.464844 12.421875 L 6.601562 12.421875 Z M 12.382812 56.828125 L 6.601562 56.828125 L 6.601562 50.964844 L 12.464844 50.964844 L 12.464844 56.828125 Z M 57.289062 31.695312 C 57.289062 33.535156 55.78125 35.046875 53.9375 35.046875 C 52.09375 35.046875 50.585938 33.535156 50.585938 31.695312 C 50.585938 29.851562 52.09375 28.34375 53.9375 28.34375 C 55.78125 28.34375 57.289062 29.851562 57.289062 31.695312 Z M 50.335938 28.929688 C 49.75 29.683594 49.414062 30.6875 49.414062 31.695312 C 49.414062 32.699219 49.75 33.703125 50.335938 34.457031 L 42.878906 41.914062 L 41.203125 40.238281 L 41.203125 23.0625 C 41.789062 22.476562 42.292969 21.890625 42.878906 21.386719 Z M 23.523438 39.90625 L 23.523438 23.484375 L 39.863281 23.484375 L 39.863281 39.820312 L 23.523438 39.820312 Z M 31.734375 6.140625 C 33.578125 6.140625 35.085938 7.648438 35.085938 9.492188 C 35.085938 11.335938 33.578125 12.84375 31.734375 12.84375 C 29.890625 12.84375 28.382812 11.335938 28.382812 9.492188 C 28.382812 7.648438 29.890625 6.140625 31.734375 6.140625 Z M 28.972656 13.09375 C 29.726562 13.679688 30.730469 14.015625 31.734375 14.015625 C 32.742188 14.015625 33.746094 13.679688 34.5 13.09375 L 41.957031 20.550781 C 41.453125 21.054688 40.867188 21.640625 40.28125 22.140625 L 23.105469 22.140625 L 21.429688 20.464844 Z M 6.183594 31.695312 C 6.183594 29.851562 7.691406 28.34375 9.53125 28.34375 C 11.375 28.34375 12.882812 29.851562 12.882812 31.695312 C 12.882812 33.535156 11.375 35.046875 9.53125 35.046875 C 7.691406 35.046875 6.183594 33.535156 6.183594 31.695312 Z M 13.136719 34.457031 C 13.722656 33.703125 14.058594 32.699219 14.058594 31.695312 C 14.058594 30.6875 13.722656 29.683594 13.136719 28.929688 L 20.59375 21.472656 L 22.269531 23.148438 L 22.269531 40.238281 L 20.59375 41.914062 Z M 31.734375 57.246094 C 29.890625 57.246094 28.382812 55.738281 28.382812 53.894531 C 28.382812 52.054688 29.890625 50.546875 31.734375 50.546875 C 33.578125 50.546875 35.085938 52.054688 35.085938 53.894531 C 35.085938 55.738281 33.578125 57.246094 31.734375 57.246094 Z M 34.5 50.292969 C 33.746094 49.707031 32.742188 49.371094 31.734375 49.371094 C 30.730469 49.371094 29.726562 49.707031 28.972656 50.292969 L 21.515625 42.835938 L 23.191406 41.160156 L 40.28125 41.160156 L 41.957031 42.835938 Z M 56.871094 56.828125 L 51.007812 56.828125 L 51.007812 50.964844 L 56.871094 50.964844 Z M 56.871094 56.828125 " fill-opacity="1" fill-rule="nonzero"/></g></svg>