<svg xmlns="http://www.w3.org/2000/svg" xmlns:xlink="http://www.w3.org/1999/xlink" width="2379" zoomAndPan="magnify" viewBox="0 0 1784.88 1784.99993" height="2379" preserveAspectRatio="xMidYMid meet" version="1.0"><defs><clipPath id="14a4ffa5b4"><path d="M 0 0.0585938 L 1784.761719 0.0585938 L 1784.761719 1784.820312 L 0 1784.820312 Z M 0 0.0585938 " clip-rule="nonzero"/></clipPath><clipPath id="d7618df3bf"><path d="M 892.378906 0.0585938 C 399.53125 0.0585938 0 399.59375 0 892.441406 C 0 1385.289062 399.53125 1784.820312 892.378906 1784.820312 C 1385.226562 1784.820312 1784.761719 1385.289062 1784.761719 892.441406 C 1784.761719 399.59375 1385.226562 0.0585938 892.378906 0.0585938 Z M 892.378906 0.0585938 " clip-rule="nonzero"/></clipPath><clipPath id="df88ffb961"><path d="M 402.660156 402.71875 L 1382.09375 402.71875 L 1382.09375 1382.152344 L 402.660156 1382.152344 Z M 402.660156 402.71875 " clip-rule="nonzero"/></clipPath></defs><g clip-path="url(#14a4ffa5b4)"><g clip-path="url(#d7618df3bf)"><path fill="#38b6ff" d="M 0 0.0585938 L 1784.761719 0.0585938 L 1784.761719 1784.820312 L 0 1784.820312 Z M 0 0.0585938 " fill-opacity="1" fill-rule="nonzero"/></g></g><g clip-path="url(#df88ffb961)"><path fill="#f6f6f6" d="M 402.660156 402.71875 L 546.609375 546.667969 C 457.816406 635.246094 402.660156 757.40625 402.660156 892.4375 C 402.660156 1162.464844 622.347656 1382.152344 892.375 1382.152344 C 1162.40625 1382.152344 1382.09375 1162.464844 1382.09375 892.4375 C 1382.09375 622.40625 1162.40625 402.71875 892.375 402.71875 L 892.375 500.664062 C 1108.390625 500.664062 1284.148438 676.421875 1284.148438 892.4375 C 1284.148438 1108.449219 1108.390625 1284.210938 892.375 1284.210938 C 676.363281 1284.210938 500.601562 1108.449219 500.601562 892.4375 C 500.601562 784.40625 544.699219 686.621094 615.667969 615.726562 L 745.460938 745.519531 L 745.460938 402.71875 Z M 402.660156 402.71875 " fill-opacity="1" fill-rule="nonzero"/></g></svg>