<svg xmlns="http://www.w3.org/2000/svg" xmlns:xlink="http://www.w3.org/1999/xlink" width="2379" zoomAndPan="magnify" viewBox="0 0 1784.88 1784.99993" height="2379" preserveAspectRatio="xMidYMid meet" version="1.0"><defs><clipPath id="a78124313a"><path d="M 5.128906 5.191406 L 1779.628906 5.191406 L 1779.628906 1779.691406 L 5.128906 1779.691406 Z M 5.128906 5.191406 " clip-rule="nonzero"/></clipPath><clipPath id="55f6c27599"><path d="M 892.378906 5.191406 C 402.363281 5.191406 5.128906 402.425781 5.128906 892.441406 C 5.128906 1382.453125 402.363281 1779.691406 892.378906 1779.691406 C 1382.394531 1779.691406 1779.628906 1382.453125 1779.628906 892.441406 C 1779.628906 402.425781 1382.394531 5.191406 892.378906 5.191406 Z M 892.378906 5.191406 " clip-rule="nonzero"/></clipPath><clipPath id="08aa4c743c"><path d="M 460 494.511719 L 1221 494.511719 L 1221 1290.207031 L 460 1290.207031 Z M 460 494.511719 " clip-rule="nonzero"/></clipPath><clipPath id="6fd0dd5390"><path d="M 341.316406 827 L 427 827 L 427 1103 L 341.316406 1103 Z M 341.316406 827 " clip-rule="nonzero"/></clipPath><clipPath id="9751c0f282"><path d="M 1172 343.480469 L 1393 343.480469 L 1393 767.199219 L 1172 767.199219 Z M 1172 343.480469 " clip-rule="nonzero"/></clipPath><clipPath id="45e766097a"><path d="M 1433.253906 431.589844 L 1510.570312 431.589844 L 1510.570312 678.984375 L 1433.253906 678.984375 Z M 1433.253906 431.589844 " clip-rule="nonzero"/></clipPath></defs><g clip-path="url(#a78124313a)"><g clip-path="url(#55f6c27599)"><path fill="#fdc703" d="M 5.128906 5.191406 L 1779.628906 5.191406 L 1779.628906 1779.691406 L 5.128906 1779.691406 Z M 5.128906 5.191406 " fill-opacity="1" fill-rule="nonzero"/></g></g><g clip-path="url(#08aa4c743c)"><path fill="#fefefe" d="M 1052.148438 1290.300781 L 629.394531 1290.300781 C 536.296875 1290.300781 460.765625 1214.769531 460.765625 1122.253906 L 460.765625 848.230469 C 460.765625 755.128906 536.296875 679.597656 629.394531 679.597656 L 822.621094 679.597656 L 823.207031 615.1875 C 798.027344 607.578125 779.292969 584.15625 779.292969 556.050781 C 779.292969 522.089844 807.398438 494.570312 841.355469 494.570312 C 875.316406 494.570312 903.421875 522.089844 903.421875 556.050781 C 903.421875 584.15625 884.101562 608.164062 858.335938 615.773438 L 857.753906 679.597656 L 1052.148438 679.597656 C 1144.660156 679.597656 1220.195312 755.128906 1220.195312 848.230469 L 1220.195312 1122.839844 C 1220.195312 1215.355469 1144.660156 1290.300781 1052.148438 1290.300781 Z M 682.09375 1024.472656 C 632.324219 1024.472656 593.09375 985.242188 593.09375 936.058594 C 593.09375 886.289062 632.324219 847.058594 682.09375 847.058594 C 731.863281 847.058594 770.507812 886.289062 770.507812 936.058594 C 770.507812 985.242188 731.863281 1024.472656 682.09375 1024.472656 Z M 682.09375 882.1875 C 651.648438 882.1875 628.226562 905.609375 628.226562 936.058594 C 628.226562 965.917969 651.648438 989.339844 682.09375 989.339844 C 711.957031 989.339844 735.960938 965.917969 735.960938 936.058594 C 735.960938 905.609375 711.957031 882.1875 682.09375 882.1875 Z M 1000.035156 1020.960938 C 950.265625 1020.960938 910.449219 981.144531 910.449219 931.960938 C 910.449219 882.773438 950.265625 842.960938 1000.035156 842.960938 C 1048.632812 842.960938 1088.449219 882.773438 1088.449219 931.960938 C 1088.449219 981.144531 1048.632812 1020.960938 1000.035156 1020.960938 Z M 1000.035156 878.089844 C 969.585938 878.089844 945.582031 902.683594 945.582031 931.960938 C 945.582031 961.820312 969.585938 986.414062 1000.035156 986.414062 C 1029.898438 986.414062 1053.316406 961.820312 1053.316406 931.960938 C 1053.316406 901.511719 1029.3125 878.089844 1000.035156 878.089844 Z M 834.332031 1127.527344 C 800.957031 1127.527344 771.679688 1111.714844 755.285156 1097.664062 C 747.671875 1091.222656 747.085938 1079.511719 753.527344 1073.070312 C 759.96875 1066.046875 770.507812 1064.875 778.121094 1071.898438 C 783.390625 1076.585938 834.332031 1116.984375 882.929688 1072.484375 C 889.957031 1066.046875 900.496094 1066.046875 908.109375 1073.070312 C 914.546875 1080.683594 914.546875 1091.222656 907.523438 1098.25 C 882.929688 1119.328125 857.753906 1127.527344 834.332031 1127.527344 Z M 834.332031 1127.527344 " fill-opacity="1" fill-rule="evenodd"/></g><g clip-path="url(#6fd0dd5390)"><path fill="#fefefe" d="M 425.632812 1102.347656 L 418.605469 1102.347656 C 376.449219 1102.347656 341.316406 1067.800781 341.316406 1025.058594 L 341.316406 905.609375 C 341.316406 862.867188 376.449219 827.734375 418.605469 827.734375 L 426.804688 827.734375 C 426.21875 834.175781 425.632812 841.203125 425.632812 848.230469 Z M 425.632812 1102.347656 " fill-opacity="1" fill-rule="evenodd"/></g><path fill="#fefefe" d="M 1262.351562 1102.347656 L 1255.324219 1102.347656 L 1255.324219 848.230469 C 1255.324219 840.617188 1254.738281 833.589844 1254.152344 827.148438 L 1262.351562 827.148438 C 1305.679688 827.148438 1340.8125 861.695312 1340.8125 905.023438 L 1340.8125 1025.058594 C 1340.8125 1068.386719 1305.679688 1102.347656 1262.351562 1102.347656 Z M 1262.351562 1102.347656 " fill-opacity="1" fill-rule="evenodd"/><g clip-path="url(#9751c0f282)"><path fill="#f6f6f6" d="M 1298.691406 722.457031 L 1298.691406 597.3125 L 1361.265625 659.882812 Z M 1298.691406 513.261719 L 1298.691406 388.117188 L 1361.265625 450.691406 Z M 1299.292969 560.929688 L 1298.691406 560.332031 L 1298.691406 550.242188 L 1389 459.933594 C 1394.105469 454.832031 1394.105469 446.550781 1389 441.445312 L 1294.863281 347.308594 C 1294.589844 347.035156 1294.308594 346.785156 1294.015625 346.539062 C 1293.929688 346.464844 1293.835938 346.394531 1293.746094 346.324219 C 1293.535156 346.15625 1293.320312 345.992188 1293.097656 345.84375 C 1292.992188 345.765625 1292.882812 345.691406 1292.773438 345.621094 C 1292.546875 345.46875 1292.308594 345.324219 1292.070312 345.191406 C 1291.972656 345.136719 1291.882812 345.078125 1291.785156 345.023438 C 1291.46875 344.855469 1291.144531 344.699219 1290.816406 344.558594 C 1290.683594 344.5 1290.546875 344.453125 1290.414062 344.398438 C 1290.191406 344.3125 1289.972656 344.230469 1289.746094 344.152344 C 1289.597656 344.105469 1289.445312 344.058594 1289.292969 344.011719 C 1289.039062 343.9375 1288.78125 343.871094 1288.515625 343.8125 C 1288.40625 343.785156 1288.300781 343.757812 1288.1875 343.734375 C 1287.824219 343.660156 1287.453125 343.609375 1287.074219 343.566406 C 1286.964844 343.550781 1286.855469 343.546875 1286.742188 343.535156 C 1286.433594 343.507812 1286.121094 343.492188 1285.808594 343.488281 C 1285.742188 343.488281 1285.683594 343.480469 1285.617188 343.480469 C 1285.582031 343.480469 1285.550781 343.484375 1285.511719 343.484375 C 1285.113281 343.488281 1284.714844 343.503906 1284.320312 343.546875 C 1284.25 343.550781 1284.179688 343.566406 1284.105469 343.570312 C 1283.796875 343.609375 1283.484375 343.65625 1283.179688 343.714844 C 1283.039062 343.742188 1282.894531 343.773438 1282.753906 343.804688 C 1282.511719 343.855469 1282.277344 343.917969 1282.039062 343.988281 C 1281.894531 344.027344 1281.75 344.066406 1281.609375 344.109375 C 1281.273438 344.21875 1280.941406 344.339844 1280.617188 344.476562 C 1280.613281 344.476562 1280.609375 344.476562 1280.605469 344.476562 C 1280.472656 344.535156 1280.34375 344.597656 1280.210938 344.660156 C 1279.992188 344.757812 1279.773438 344.863281 1279.558594 344.972656 C 1279.425781 345.042969 1279.292969 345.121094 1279.15625 345.195312 C 1278.941406 345.320312 1278.730469 345.445312 1278.523438 345.582031 C 1278.414062 345.648438 1278.304688 345.71875 1278.199219 345.792969 C 1277.894531 346.003906 1277.597656 346.222656 1277.3125 346.457031 C 1277.308594 346.460938 1277.300781 346.460938 1277.300781 346.464844 C 1277.003906 346.707031 1276.726562 346.96875 1276.457031 347.234375 C 1276.378906 347.308594 1276.304688 347.386719 1276.230469 347.464844 C 1276.039062 347.660156 1275.851562 347.871094 1275.671875 348.082031 C 1275.589844 348.171875 1275.515625 348.265625 1275.4375 348.355469 C 1275.246094 348.59375 1275.0625 348.839844 1274.886719 349.09375 C 1274.84375 349.15625 1274.796875 349.214844 1274.753906 349.277344 C 1274.554688 349.574219 1274.371094 349.886719 1274.195312 350.199219 C 1274.121094 350.328125 1274.058594 350.457031 1273.992188 350.585938 C 1273.886719 350.792969 1273.785156 351.003906 1273.6875 351.21875 C 1273.625 351.363281 1273.558594 351.503906 1273.5 351.652344 C 1273.402344 351.894531 1273.316406 352.144531 1273.230469 352.390625 C 1273.191406 352.507812 1273.144531 352.621094 1273.113281 352.742188 C 1273.007812 353.082031 1272.921875 353.425781 1272.84375 353.777344 C 1272.816406 353.910156 1272.796875 354.046875 1272.769531 354.179688 C 1272.71875 354.441406 1272.679688 354.714844 1272.644531 354.984375 C 1272.628906 355.113281 1272.613281 355.238281 1272.601562 355.363281 C 1272.566406 355.757812 1272.542969 356.152344 1272.542969 356.554688 L 1272.542969 534.183594 L 1194.625 456.261719 C 1189.519531 451.15625 1181.242188 451.15625 1176.132812 456.261719 C 1171.027344 461.371094 1171.027344 469.648438 1176.132812 474.753906 L 1256.667969 555.285156 L 1176.132812 635.820312 C 1171.027344 640.921875 1171.027344 649.203125 1176.132812 654.308594 C 1181.242188 659.417969 1189.519531 659.417969 1194.625 654.308594 L 1272.542969 576.390625 L 1272.542969 754.019531 C 1272.542969 754.417969 1272.566406 754.816406 1272.601562 755.210938 C 1272.613281 755.335938 1272.628906 755.460938 1272.644531 755.585938 C 1272.679688 755.859375 1272.71875 756.128906 1272.769531 756.394531 C 1272.796875 756.527344 1272.816406 756.664062 1272.84375 756.792969 C 1272.921875 757.144531 1273.007812 757.492188 1273.113281 757.832031 C 1273.144531 757.949219 1273.191406 758.0625 1273.230469 758.183594 C 1273.316406 758.429688 1273.402344 758.679688 1273.5 758.921875 C 1273.558594 759.066406 1273.625 759.210938 1273.6875 759.355469 C 1273.785156 759.570312 1273.886719 759.777344 1273.992188 759.984375 C 1274.058594 760.113281 1274.121094 760.246094 1274.195312 760.371094 C 1274.371094 760.6875 1274.554688 760.996094 1274.753906 761.296875 C 1274.796875 761.359375 1274.84375 761.417969 1274.886719 761.480469 C 1275.0625 761.730469 1275.246094 761.976562 1275.4375 762.214844 C 1275.515625 762.308594 1275.589844 762.398438 1275.671875 762.492188 C 1275.851562 762.703125 1276.039062 762.910156 1276.230469 763.109375 C 1276.304688 763.1875 1276.378906 763.265625 1276.457031 763.339844 C 1276.722656 763.605469 1277.003906 763.863281 1277.300781 764.105469 C 1277.300781 764.109375 1277.308594 764.113281 1277.3125 764.117188 C 1277.597656 764.351562 1277.894531 764.570312 1278.199219 764.78125 C 1278.304688 764.855469 1278.414062 764.925781 1278.523438 764.992188 C 1278.730469 765.125 1278.941406 765.253906 1279.15625 765.378906 C 1279.292969 765.453125 1279.425781 765.53125 1279.558594 765.597656 C 1279.769531 765.710938 1279.992188 765.8125 1280.210938 765.914062 C 1280.34375 765.972656 1280.472656 766.039062 1280.605469 766.09375 C 1280.609375 766.09375 1280.613281 766.097656 1280.617188 766.097656 C 1280.640625 766.109375 1280.667969 766.117188 1280.695312 766.128906 C 1281.070312 766.277344 1281.441406 766.417969 1281.820312 766.527344 C 1281.910156 766.554688 1282 766.574219 1282.089844 766.597656 C 1282.410156 766.6875 1282.734375 766.777344 1283.058594 766.839844 C 1283.25 766.878906 1283.441406 766.898438 1283.636719 766.929688 C 1283.867188 766.960938 1284.089844 767.003906 1284.320312 767.027344 C 1284.753906 767.070312 1285.183594 767.09375 1285.617188 767.09375 C 1286.050781 767.09375 1286.484375 767.070312 1286.914062 767.027344 C 1287.160156 767.003906 1287.40625 766.960938 1287.65625 766.917969 C 1287.828125 766.894531 1288.003906 766.875 1288.175781 766.839844 C 1288.476562 766.78125 1288.773438 766.699219 1289.066406 766.617188 C 1289.179688 766.589844 1289.296875 766.566406 1289.40625 766.53125 C 1289.707031 766.441406 1290.003906 766.332031 1290.300781 766.214844 C 1290.402344 766.179688 1290.507812 766.144531 1290.609375 766.101562 C 1290.886719 765.984375 1291.160156 765.851562 1291.433594 765.71875 C 1291.542969 765.660156 1291.660156 765.613281 1291.773438 765.550781 C 1292.023438 765.421875 1292.265625 765.269531 1292.507812 765.121094 C 1292.628906 765.039062 1292.753906 764.972656 1292.878906 764.894531 C 1293.113281 764.734375 1293.335938 764.558594 1293.5625 764.386719 C 1293.679688 764.296875 1293.796875 764.21875 1293.910156 764.128906 C 1294.230469 763.863281 1294.546875 763.582031 1294.847656 763.277344 C 1294.851562 763.273438 1294.855469 763.269531 1294.863281 763.265625 L 1389 669.128906 C 1392.558594 665.570312 1393.628906 660.472656 1392.226562 655.980469 C 1391.617188 654.027344 1390.546875 652.1875 1389 650.636719 L 1299.292969 560.929688 " fill-opacity="1" fill-rule="nonzero"/></g><path fill="#f6f6f6" d="M 1427.707031 422.566406 C 1427.589844 422.683594 1427.492188 422.808594 1427.382812 422.925781 L 1428.066406 422.238281 C 1427.949219 422.351562 1427.820312 422.449219 1427.707031 422.566406 " fill-opacity="1" fill-rule="nonzero"/><g clip-path="url(#45e766097a)"><path fill="#f6f6f6" d="M 1510.585938 553.558594 C 1510.585938 510.609375 1493.921875 470.292969 1463.664062 440.035156 L 1455.460938 431.824219 L 1436.96875 450.320312 L 1445.171875 458.523438 C 1470.496094 483.84375 1484.4375 517.59375 1484.4375 553.558594 C 1484.4375 589.527344 1470.496094 623.277344 1445.171875 648.597656 L 1433.5 660.269531 L 1451.992188 678.761719 L 1463.664062 667.089844 C 1493.921875 636.828125 1510.585938 596.511719 1510.585938 553.558594 " fill-opacity="1" fill-rule="nonzero"/></g><path fill="#f6f6f6" d="M 1405.988281 553.558594 C 1405.988281 538.535156 1400.210938 524.480469 1389.714844 513.980469 L 1381.507812 505.777344 L 1363.019531 524.265625 L 1371.222656 532.472656 C 1376.78125 538.03125 1379.839844 545.519531 1379.839844 553.558594 C 1379.839844 561.566406 1376.769531 569.0625 1371.222656 574.648438 L 1359.550781 586.324219 L 1378.039062 604.8125 L 1389.746094 593.109375 C 1400.21875 582.5625 1405.988281 568.519531 1405.988281 553.558594 " fill-opacity="1" fill-rule="nonzero"/><path fill="#f6f6f6" d="M 1353.753906 496.515625 C 1353.640625 496.632812 1353.539062 496.753906 1353.429688 496.878906 L 1354.121094 496.1875 C 1353.996094 496.296875 1353.871094 496.398438 1353.753906 496.515625 " fill-opacity="1" fill-rule="nonzero"/><path fill="#f6f6f6" d="M 1426.691406 477.007812 L 1418.484375 468.804688 L 1399.992188 487.292969 L 1408.199219 495.496094 C 1440.214844 527.511719 1440.214844 579.609375 1408.199219 611.625 L 1396.523438 623.296875 L 1415.015625 641.789062 L 1426.691406 630.113281 C 1468.898438 587.902344 1468.898438 519.21875 1426.691406 477.007812 " fill-opacity="1" fill-rule="nonzero"/><path fill="#f6f6f6" d="M 1390.730469 459.539062 C 1390.617188 459.65625 1390.515625 459.78125 1390.40625 459.902344 L 1391.09375 459.210938 C 1390.972656 459.324219 1390.847656 459.425781 1390.730469 459.539062 " fill-opacity="1" fill-rule="nonzero"/></svg>